<svg xmlns="http://www.w3.org/2000/svg">
  <symbol id="pdf" viewBox="0 0 28 32">
    <path d="M26.76 6.79a3.91 3.91 0 0 1 .87 1.36c.23.5.35 1.03.36 1.57v20.57c0 .94-.77 1.71-1.74 1.71H1.75C.79 32 0 31.24 0 30.3V1.72C0 .77.77 0 1.73 0h.02 16.33c.55.01 1.1.14 1.6.36.51.19.98.49 1.39.86l5.69 5.57zm-8.09-4.36v6.71h6.85c-.08-.27-.22-.52-.4-.73l-5.71-5.59c-.22-.18-.47-.32-.75-.39h0zm7 27.28V11.43h-7.58c-.96 0-1.75-.76-1.75-1.7V2.29H2.33v27.42h23.34zM16.3 19.13c.49.37 1 .7 1.53 1a21.74 21.74 0 0 1 2.13-.13c1.79 0 2.86.29 3.23.88a.85.85 0 0 1 .04.93c0 .01 0 .03-.02.04l-.04.04v.02c-.07.45-.5.68-1.29.68a7.52 7.52 0 0 1-2.1-.36 13.48 13.48 0 0 1-2.37-.95c-2.43.23-4.83.73-7.15 1.48-1.86 3.12-3.33 4.68-4.41 4.68a1.02 1.02 0 0 1-.51-.13l-.44-.22-.11-.09c-.14-.19-.17-.42-.11-.64.2-.62.55-1.18 1.02-1.63a8.76 8.76 0 0 1 2.41-1.72.29.29 0 0 1 .38.02c.02.02.04.05.05.08.02.02.03.04.04.07.64-1.01 1.29-2.18 1.95-3.52.78-1.5 1.41-3.06 1.9-4.68a14.52 14.52 0 0 1-.56-2.85 6.73 6.73 0 0 1 .12-2.28c.13-.48.39-.71.77-.71h.4c.24-.01.48.08.64.27a1.37 1.37 0 0 1 .16 1.21.37.37 0 0 1-.07.14c.01.05.02.09.02.14v.54c0 1.15-.08 2.29-.26 3.43.46 1.63 1.38 3.11 2.66 4.25h0zM5.8 26.46c1.05-.73 1.9-1.7 2.49-2.82-.58.44-1.11.94-1.59 1.5a5.97 5.97 0 0 0-.91 1.32zm7.26-16.42a5.37 5.37 0 0 0-.04 2.36l.13-.79c0-.04.04-.29.13-.77a.37.37 0 0 1 .07-.14c-.01 0-.02-.02-.02-.04v-.03c0-.01-.01-.02 0-.03 0-.23-.09-.46-.24-.64 0 .01 0 .03-.02.04v.04h0zm-2.27 11.8c1.67-.65 3.41-1.14 5.18-1.45-.08-.05-.16-.11-.24-.17a2.17 2.17 0 0 1-.29-.24c-.98-.88-1.77-1.95-2.31-3.14a23.76 23.76 0 0 1-1.51 3.52l-.82 1.48zm11.78-.29c-.79-.39-1.68-.54-2.55-.43.72.29 1.48.46 2.26.5.11 0 .22 0 .33-.02 0-.01-.01-.03-.04-.05h0z"></path>
  </symbol>
  <symbol id="down" viewBox="0 0 20 20">
    <path d="M10 20c-.54 0-.98-.44-.98-.98V.98c0-.54.44-.98.98-.98s.98.44.98.98v18.03c0 .54-.44.98-.98.98Z"></path>
    <path d="M10 20c-.26 0-.51-.1-.7-.29L.29 10.69a.99.99 0 0 1 0-1.39.99.99 0 0 1 1.39 0L10 17.62l8.32-8.32a.99.99 0 0 1 1.39 0 .99.99 0 0 1 0 1.39l-9.02 9.02a.99.99 0 0 1-.7.29z"></path>
  </symbol>
  <symbol id="icon1" viewBox="0 0 56 52">
    <path d="M18.94 26.33c4.44 0 8.04-3.63 8.04-8.12s-3.6-8.12-8.04-8.12-8.04 3.63-8.04 8.12c0 4.48 3.6 8.11 8.04 8.12zm0-14.21c3.34 0 6.04 2.73 6.04 6.1s-2.71 6.1-6.04 6.1-6.04-2.73-6.04-6.1h0c0-3.37 2.71-6.09 6.04-6.1zM7.53 41.9c.55 0 1-.45 1-1.01v-3.22c0-3.4 2.74-6.15 6.11-6.15h8.6c3.37 0 6.1 2.75 6.11 6.15v3.22c0 .56.45 1.01 1 1.01s1-.45 1-1.01v-3.22c0-4.51-3.64-8.17-8.11-8.17h-8.6c-4.47 0-8.1 3.65-8.11 8.17v3.22c0 .56.45 1.01 1 1.01zM56 1.01C56 .45 55.55 0 55 0H1C.45 0 0 .45 0 1.01v49.98C0 51.55.45 52 1 52h54c.55 0 1-.45 1-1.01V1.01zm-2 48.97H2V2.02h52v47.96zM35.44 18.63h11.4c.55 0 1-.45 1-1.01s-.45-1.01-1-1.01h-11.4c-.55 0-1 .45-1 1.01s.45 1.01 1 1.01zm0 8.38h7.83c.55 0 1-.45 1-1.01s-.45-1.01-1-1.01h-7.83c-.55 0-1 .45-1 1.01s.45 1.01 1 1.01zm0 7.62h11.4c.55 0 1-.45 1-1.01s-.45-1.01-1-1.01h-11.4c-.55 0-1 .45-1 1.01s.45 1.01 1 1.01z"></path>
  </symbol>
  <symbol id="icon2" viewBox="0 0 56 52">
    <path d="M11.78 18.1a1.1 1.1 0 0 0 1.57 0h0l9.88-9.97a1.14 1.14 0 0 0 0-1.59 1.1 1.1 0 0 0-1.57 0l-9.09 9.17-1.31-1.32a1.1 1.1 0 0 0-1.57 0 1.14 1.14 0 0 0 0 1.59l2.09 2.11zm8.34 2.97h-8.69c-.61 0-1.11.5-1.11 1.12v8.77c0 .62.5 1.12 1.11 1.12h8.69c.61 0 1.11-.5 1.11-1.12v-8.77c0-.62-.5-1.12-1.11-1.12zM19 29.84h-6.47v-6.53H19v6.53zm1.12 4.89h-8.69c-.61 0-1.11.5-1.11 1.12v8.78c0 .62.5 1.12 1.11 1.12h8.69c.61 0 1.11-.5 1.11-1.12h0v-8.78c0-.62-.5-1.12-1.11-1.12zM19 43.51h-6.47v-6.53H19v6.53zm6.11-30.07h19.52c.61 0 1.11-.5 1.11-1.12s-.5-1.12-1.11-1.12H25.11c-.61 0-1.11.5-1.11 1.12s.5 1.12 1.11 1.12zm0 14.26h19.52c.61 0 1.11-.5 1.11-1.12s-.5-1.12-1.11-1.12H25.11c-.61 0-1.11.5-1.11 1.12s.5 1.12 1.11 1.12zm0 14.26h19.52c.61 0 1.11-.5 1.11-1.12s-.5-1.12-1.11-1.12H25.11c-.61 0-1.11.5-1.11 1.12s.5 1.12 1.11 1.12zM56 1.01C56 .45 55.55 0 55 0H1C.45 0 0 .45 0 1.01v49.98C0 51.55.45 52 1 52h54c.55 0 1-.45 1-1.01V1.01zm-2 48.97H2V2.02h52v47.96z"></path>
  </symbol>
  <symbol id="icon3" viewBox="0 0 56 52">
    <path d="M46.23 41.68H10.52v-5.73h1.62v4.1h32.47v-4.1h1.62v5.73zm-17.05-1.63h-1.62V24.93h1.62v12.26c2.16-1.45 4.72-2.17 7.3-2.06h8.12V14.65h-8.12c-.95 0-1.9.09-2.84.27l-.31-1.6c1.04-.21 2.1-.31 3.15-.3h9.74v23.75h-9.74c-4.3 0-7.3 1.73-7.3 3.28zm-3.24-13.93c-4.93 0-8.93-4.03-8.93-9.01s4-9.01 8.93-9.01 8.93 4.03 8.93 9.01h0c0 4.97-4 9-8.93 9.01zm0-16.38c-4.03 0-7.31 3.3-7.31 7.37s3.27 7.37 7.31 7.37 7.3-3.3 7.31-7.37c0-4.07-3.27-7.37-7.31-7.38zm6.31 12.58l7.73 7.8-1.15 1.16-7.73-7.8 1.15-1.16zm-3.07 18.54h-1.62v-.82c0-1.55-3-3.28-7.31-3.28h-9.74V13.02h7.99v1.64h-6.36v20.48h8.12c5 0 8.93 2.16 8.93 4.91v.82zM56 1.01C56 .45 55.55 0 55 0H1C.45 0 0 .45 0 1.01v49.98C0 51.55.45 52 1 52h54c.55 0 1-.45 1-1.01V1.01zm-2 48.97H2V2.02h52v47.96z"></path>
  </symbol>
  <symbol id="icon4" viewBox="0 0 56 52">
    <path d="M56 1.01C56 .45 55.55 0 55 0H1C.45 0 0 .45 0 1.01v49.98C0 51.55.45 52 1 52h54c.55 0 1-.45 1-1.01V1.01zm-2 48.97H2V2.02h52v47.96zm-8.69-25.89h-2.2v-3.98c0-.96-.77-1.73-1.72-1.74h-2.06v-1.53l-.31-.32h0l-4.59-4.64-4.91-4.95H14.15v6.99h-3.32c-.95 0-1.72.78-1.72 1.74v27.76h0c0 .9.7 1.63 1.59 1.64h28.21c.71 0 1.34-.46 1.54-1.15l6.44-17.81v-.11c.1-.93-.56-1.78-1.49-1.88h-.09zm-3.91-4.44c.25 0 .46.21.46.47v3.98h-2.52v-4.45h2.06zM29.89 9.11l7.3 7.36h-7.3V9.11zm-14.48-.9h13.22v9.53h9.44v6.36H17.12c-.09 0-.18 0-.27.02-.61.1-1.1.54-1.28 1.13l-.18.49V8.21h0zm-5.04 7.45c0-.26.21-.47.46-.47h3.32v14l-3.78 10.39V15.66zm28.88 27.87c-.04.16-.18.27-.34.27H10.73c-.11 0-.22-.05-.28-.14-.06-.07-.09-.17-.08-.26l3.78-10.47h0l2.62-7.25.02-.05c.04-.16.18-.27.34-.27h28.19c.24 0 .3.35.32.52l-6.38 17.64zM19.19 17.74h6.3c.35-.01.62-.31.6-.66-.01-.33-.28-.6-.6-.61h-6.3c-.35.01-.62.31-.6.66.01.33.28.6.6.61zm0-4.45h6.3c.35-.01.62-.31.6-.66-.01-.33-.28-.6-.6-.61h-6.3c-.35.01-.62.31-.6.66.01.33.28.6.6.61zm0 8.9H34.3c.35.01.64-.26.65-.61s-.26-.65-.6-.66h-.05-15.11c-.35-.01-.64.26-.65.61s.26.65.6.66h.05z"></path>
  </symbol>
</svg>