<svg xmlns="http://www.w3.org/2000/svg" viewBox="0 0 40 32"><path d="M39.8 3.9c-.3-.3-.7-.4-1-.2-.4.2-.8.3-1.2.4.6-.7 1-1.6 1.3-2.5.1-.5-.2-.9-.6-1-.2-.1-.5 0-.7.1-1.3.7-2.7 1.2-4.2 1.6-3-2.8-7.6-3.1-11-.8-2.6 1.7-4.1 4.7-3.8 7.8C13 8.8 7.8 6.1 4.3 1.7c-.2-.2-.5-.3-.8-.3s-.5.2-.7.4C1.6 3.7 1.3 6 1.9 8.2c.3 1.1.8 2.2 1.5 3.1-.3-.2-.6-.3-.9-.6-.4-.3-.9-.2-1.2.1-.1.2-.2.3-.2.5.1 3.1 1.8 6 4.6 7.5-.4 0-.8-.1-1.1-.2-.5-.1-.9.1-1.1.6-.1.2 0 .4 0 .6 1.2 2.7 3.7 4.6 6.6 5.2-2.8 1.5-6 2.2-9.2 1.8-.4-.1-.8.2-.9.6s0 .8.4 1c3.9 2.3 8.3 3.5 12.9 3.6 4.3 0 8.6-1.3 12.2-3.6C32.4 23.9 36.7 16 36.1 8.8c1.5-1.1 2.8-2.4 3.8-3.8.2-.4.1-.8-.1-1.1z" fill="#03a9f4"/></svg>