<svg xmlns="http://www.w3.org/2000/svg" viewBox="0 0 118 30" xmlns:v="https://vecta.io/nano"><use href="#B" fill="#003087"/><path d="M91.89 13.98c-.35 2.31-2.11 2.31-3.81 2.31h-.97l.68-4.31a.53.53 0 0 1 .53-.45h.44c1.16 0 2.25 0 2.82.66.34.4.44.98.31 1.79m-.74-6.03h-6.42a.89.89 0 0 0-.88.76l-2.59 16.5c-.05.29.15.57.45.61h.08 3.3c.31 0 .57-.22.62-.53l.74-4.68a.9.9 0 0 1 .88-.76h2.03c4.23 0 6.67-2.05 7.31-6.12.29-1.78.01-3.17-.82-4.15-.91-1.08-2.53-1.64-4.68-1.64" fill="#009cde"/><path d="M46.09 13.98c-.35 2.31-2.11 2.31-3.81 2.31h-.97l.68-4.31a.53.53 0 0 1 .53-.45h.44c1.16 0 2.25 0 2.82.66.34.4.44.98.31 1.79m-.74-6.03h-6.42a.89.89 0 0 0-.88.76l-2.6 16.5c-.05.29.15.57.44.61h.08 3.07a.89.89 0 0 0 .88-.76l.7-4.45a.9.9 0 0 1 .88-.76h2.03c4.23 0 6.67-2.05 7.31-6.12.29-1.78.01-3.17-.82-4.15-.91-1.08-2.53-1.64-4.68-1.64M60.26 19.9c-.3 1.76-1.69 2.94-3.47 2.94-.89 0-1.61-.29-2.06-.83-.46-.54-.63-1.31-.48-2.16.28-1.75 1.69-2.97 3.45-2.97.87 0 1.58.29 2.05.84s.66 1.33.52 2.18m4.28-6h-3.07c-.26 0-.49.19-.53.45l-.13.86-.22-.31c-.67-.97-2.15-1.29-3.63-1.29-3.4 0-6.3 2.58-6.86 6.2-.29 1.81.12 3.53 1.14 4.74.94 1.11 2.28 1.57 3.87 1.57 2.74 0 4.26-1.76 4.26-1.76l-.14.86c-.05.29.15.57.44.61h.08 2.77a.89.89 0 0 0 .88-.76l1.66-10.55c.05-.29-.15-.57-.45-.61h-.08" fill="#003087"/><path d="M106.06 19.9c-.3 1.76-1.69 2.94-3.47 2.94-.89 0-1.61-.29-2.06-.83-.46-.54-.63-1.31-.48-2.16.28-1.75 1.69-2.97 3.45-2.97.87 0 1.58.29 2.05.84s.66 1.33.52 2.18m4.28-6h-3.07c-.26 0-.49.19-.53.45l-.13.86-.22-.31c-.67-.97-2.15-1.29-3.63-1.29-3.4 0-6.3 2.58-6.86 6.2-.29 1.81.12 3.53 1.15 4.74.94 1.11 2.28 1.57 3.87 1.57 2.74 0 4.26-1.76 4.26-1.76l-.14.86c-.05.29.15.57.44.61h.09 2.77a.89.89 0 0 0 .88-.76l1.66-10.55c.05-.29-.15-.57-.45-.61h-.08" fill="#009cde"/><path d="M80.92 13.9h-3.09c-.3 0-.57.15-.74.39l-4.26 6.29-1.81-6.05a.89.89 0 0 0-.86-.64h-3.04a.54.54 0 0 0-.54.54c0 .06 0 .12.03.17l3.4 10.01-3.2 4.53c-.17.24-.11.58.13.75a.57.57 0 0 0 .31.1h3.09a.88.88 0 0 0 .73-.38l10.28-14.87c.17-.24.11-.58-.13-.75a.57.57 0 0 0-.31-.1" fill="#003087"/><path d="M113.97 8.4l-2.64 16.8c-.05.29.15.57.45.61h.08 2.65a.89.89 0 0 0 .88-.76l2.6-16.5c.05-.29-.15-.57-.44-.61h-.08-2.97c-.26 0-.49.19-.53.45" fill="#009cde"/><g fill="#003087"><use href="#B"/><path d="M9.53 7.65a1.18 1.18 0 0 1 1.15-.99h7.29c.86 0 1.67.06 2.41.17.4.06.8.15 1.19.27.44.13.88.3 1.28.51.37-2.33 0-3.92-1.26-5.36C20.21.68 17.7 0 14.5 0H5.2a1.33 1.33 0 0 0-1.31 1.13L0 25.75c-.07.44.23.85.66.92h.12 5.74l1.44-9.17 1.55-9.85z"/></g><path d="M22.86 7.62l-.1.55c-1.23 6.31-5.42 8.5-10.78 8.5H9.25a1.33 1.33 0 0 0-1.31 1.13l-1.4 8.88-.4 2.52a.7.7 0 0 0 .58.8h.11 4.84a1.17 1.17 0 0 0 1.15-.99l.05-.25.91-5.8.06-.32a1.17 1.17 0 0 1 1.15-.99h.72c4.69 0 8.36-1.91 9.43-7.43.45-2.31.22-4.23-.97-5.59-.38-.42-.83-.77-1.33-1.02" fill="#009cde"/><path d="M21.57 7.11c-.19-.06-.38-.11-.58-.15l-.61-.12c-.74-.12-1.54-.18-2.41-.18h-7.29a1.17 1.17 0 0 0-1.15.99L7.98 17.5l-.04.29a1.33 1.33 0 0 1 1.31-1.13h2.73c5.36 0 9.56-2.18 10.78-8.5.04-.19.07-.37.1-.55-.32-.17-.66-.31-1.01-.43l-.28-.09" fill="#012169"/><defs ><path id="B" d="M21.6 2.26C20.21.68 17.7 0 14.5 0H5.2c-.66 0-1.21.48-1.32 1.13L.01 25.75a.79.79 0 0 0 .66.91h.12 5.74l1.44-9.17-.04.29a1.33 1.33 0 0 1 1.31-1.13h2.73c5.36 0 9.56-2.18 10.78-8.5a12.94 12.94 0 0 0 .1-.55c.36-2.33 0-3.92-1.26-5.36"/></defs></svg>