<svg xmlns="http://www.w3.org/2000/svg" viewBox="0 0 106 30"><path d="M94.05 24.33c-3.28 0-5.91-2.77-5.91-6.19s2.67-6.19 5.91-6.19 5.91 2.77 5.91 6.19c.05 3.42-2.63 6.19-5.91 6.19h0zM100 6.84v3.14c-.84-1.17-1.97-2.11-3.23-2.72-1.27-.66-2.67-.98-4.13-.98-5.86 0-10.41 5.3-10.41 11.86S86.78 30 92.64 30c1.55 0 3.05-.37 4.41-1.13 1.36-.75 2.48-1.78 3.33-3.09v3.66h5.63V6.84h-6zM31.5.56h6v28.88h-6V.56zm12.85 16.08c0-6.19 3.75-10.36 9-10.36 3.23 0 5.81 1.45 7.36 3.94 1.55-2.48 4.13-3.94 7.36-3.94 5.25 0 9 4.17 9 10.36v12.8h-6V15.99c0-2.44-1.59-3.98-3.7-3.98s-3.7 1.59-3.7 3.98v13.45h-6V15.99c0-2.44-1.59-3.98-3.7-3.98s-3.7 1.59-3.7 3.98v13.45h-5.91v-12.8zM20.67 7.08C19.27 1.73 16.27 0 13.41 0S7.55 1.73 6.14 7.08L0 29.44h6.05c.42-1.64 1.36-3.14 2.67-4.17 1.31-1.08 2.95-1.64 4.69-1.64a7.4 7.4 0 0 1 4.69 1.64c1.31 1.08 2.3 2.53 2.67 4.17h6.05L20.68 7.08zm-7.26 11.34c-1.83 0-3.61.7-4.97 1.92l3.47-13.03c.33-1.27.84-1.64 1.5-1.64s1.17.38 1.5 1.64l3.47 13.03c-1.36-1.27-3.14-1.92-4.97-1.92z" fill="#fa5022"/></svg>