<svg xmlns="http://www.w3.org/2000/svg" viewBox="0 0 72 30" xmlns:v="https://vecta.io/nano"><path d="M33.21 23.47v-8.8h4.49c1.84 0 3.39-.62 4.66-1.85l.3-.31c2.31-2.55 2.16-6.52-.3-8.87-1.23-1.25-2.92-1.92-4.66-1.89h-7.21v21.73h2.72zm0-11.48V4.4h4.56a3.66 3.66 0 0 1 2.6 1.07c1.47 1.46 1.5 3.88.08 5.39-.69.75-1.67 1.16-2.68 1.13h-4.56zm22.13-2.23c-1.16-1.09-2.75-1.65-4.76-1.65-2.58 0-4.52.97-5.81 2.89l2.4 1.54c.88-1.32 2.08-1.98 3.6-1.98.96 0 1.89.36 2.62 1.02a3.29 3.29 0 0 1 1.11 2.48v.64c-1.05-.59-2.36-.9-3.98-.9-1.89 0-3.41.45-4.54 1.37s-1.7 2.13-1.7 3.67c-.03 1.4.56 2.74 1.6 3.64 1.06.97 2.41 1.46 4 1.46 1.87 0 3.36-.85 4.49-2.55h.12v2.06h2.6v-9.17c0-1.92-.57-3.45-1.74-4.54zm-7.38 10.97a2.26 2.26 0 0 1-.89-1.82c0-.81.37-1.49 1.1-2.03.74-.54 1.67-.81 2.77-.81 1.52-.02 2.7.33 3.55 1.02 0 1.18-.46 2.2-1.35 3.07-.81.83-1.91 1.3-3.06 1.3-.76.02-1.5-.24-2.11-.73zM62.92 30L72 8.6h-2.95l-4.2 10.68h-.05L60.5 8.6h-2.95l5.96 13.92-3.38 7.49h2.8z" fill="#3c4043" fill-rule="evenodd"/><path d="M23.82,12.76c0-.85-.07-1.7-.2-2.53h-11.46v4.8h6.57c-.27,1.54-1.15,2.93-2.43,3.8v3.12h3.92c2.3-2.17,3.61-5.37,3.61-9.19Z" fill="#4285f4"/><path d="M12.16,24.96c3.27,0,6.04-1.11,8.05-3.02l-3.92-3.12c-1.1.76-2.5,1.2-4.14,1.2-3.17,0-5.86-2.2-6.82-5.15H1.3v3.22c2.06,4.21,6.26,6.86,10.85,6.86Z" fill="#34a853"/><path d="M5.34 14.87c-.51-1.54-.51-3.22 0-4.78V6.88H1.3a12.67 12.67 0 0 0 0 11.2l4.04-3.21z" fill="#fbbc04"/><path d="M12.16 4.94a6.47 6.47 0 0 1 4.66 1.87l3.48-3.57C18.08 1.13 15.18-.03 12.16 0 7.57 0 3.36 2.67 1.3 6.88l4.03 3.22c.96-2.96 3.65-5.16 6.82-5.16z" fill="#ea4335"/></svg>