<svg xmlns="http://www.w3.org/2000/svg" viewBox="0 0 38 30" xmlns:v="https://vecta.io/nano"><path d="M6.9 29.93v-1.99c0-.76-.46-1.26-1.21-1.26-.39 0-.81.13-1.11.56-.23-.37-.55-.56-1.04-.56-.37-.02-.73.16-.94.47v-.4h-.62v3.19h.62v-1.82c0-.56.33-.83.78-.83s.72.3.72.83v1.83h.62v-1.83c0-.56.33-.83.78-.83s.72.3.72.83v1.83h.68zm10.17-3.16h-1.14v-.96h-.62v.96h-.65v.56h.65v1.5c0 .73.26 1.16 1.04 1.16.3 0 .59-.09.85-.23l-.2-.56c-.18.11-.38.17-.59.17-.33 0-.49-.2-.49-.53v-1.53h1.14v-.53h0zm5.8-.09a.99.99 0 0 0-.85.47v-.4h-.62v3.19h.62v-1.79c0-.53.26-.86.68-.86a1.48 1.48 0 0 1 .42.07l.2-.6a2.32 2.32 0 0 0-.46-.07h0zm-8.77.33c-.33-.23-.78-.33-1.27-.33-.78 0-1.27.37-1.27 1 0 .53.36.83 1.04.93l.33.03c.36.07.59.2.59.37 0 .23-.26.4-.75.4-.37 0-.74-.11-1.04-.33l-.33.5c.46.33 1.01.4 1.34.4.91 0 1.4-.43 1.4-1.03 0-.56-.39-.83-1.08-.93l-.33-.03c-.29-.03-.55-.13-.55-.33 0-.23.26-.4.62-.4.39 0 .78.17.98.27l.32-.5zm9.46 1.33c0 .96.62 1.66 1.63 1.66.46 0 .78-.1 1.11-.37l-.33-.5c-.23.19-.52.3-.81.3-.55 0-.98-.43-.98-1.06s.42-1.06.98-1.06c.3 0 .58.11.81.3l.33-.5c-.33-.27-.65-.37-1.11-.37-.98-.07-1.63.63-1.63 1.59h0zm-4.37-1.66c-.91 0-1.53.66-1.53 1.66s.65 1.66 1.6 1.66c.46 0 .91-.14 1.27-.43l-.33-.47c-.26.21-.58.32-.91.33-.42 0-.88-.27-.94-.83h2.32v-.27c0-1-.59-1.66-1.47-1.66h0zm-.04.59c.46 0 .78.3.81.8h-1.69c.1-.47.39-.8.88-.8h0zm-8.44 1.07v-1.59h-.62v.4c-.23-.3-.55-.47-1.01-.47-.88 0-1.53.7-1.53 1.66S8.2 30 9.08 30c.46 0 .78-.17 1.01-.47v.4h.62v-1.6zm-2.51 0c0-.6.36-1.06.98-1.06.59 0 .94.47.94 1.06 0 .63-.39 1.06-.94 1.06-.62.03-.98-.47-.98-1.06h0zm24.09-1.66a.99.99 0 0 0-.85.47v-.4h-.62v3.19h.62v-1.79c0-.53.26-.86.68-.86a1.48 1.48 0 0 1 .42.07l.2-.6a2.32 2.32 0 0 0-.46-.07h0zm-2.41 1.66v-1.59h-.62v.4c-.23-.3-.55-.47-1.01-.47-.88 0-1.53.7-1.53 1.66S27.37 30 28.25 30c.46 0 .78-.17 1.01-.47v.4h.62v-1.6zm-2.51 0c0-.6.36-1.06.98-1.06.59 0 .94.47.94 1.06 0 .63-.39 1.06-.94 1.06-.62.03-.98-.47-.98-1.06zm8.8 0v-2.86h-.62v1.66c-.23-.3-.55-.47-1.01-.47-.88 0-1.53.7-1.53 1.66s.65 1.66 1.53 1.66c.46 0 .78-.17 1.01-.47v.4h.62v-1.6zm-2.51 0c0-.6.36-1.06.98-1.06.59 0 .94.47.94 1.06 0 .63-.39 1.06-.94 1.06-.62.03-.98-.46-.98-1.06h0z"/><path d="M13.38 2.56h11.31v18.8H13.38z" fill="#ff5f00"/><path d="M14.53 11.96c0-3.66 1.65-7.13 4.47-9.4C13.9-1.52 6.52-.62 2.51 4.57S-.61 17.28 4.48 21.36a11.57 11.57 0 0 0 14.51 0c-2.82-2.27-4.47-5.74-4.47-9.4z" fill="#eb001b"/><path d="M38 11.96c0 6.6-5.24 11.95-11.72 11.96-2.63 0-5.19-.9-7.25-2.55 5.1-4.11 5.96-11.64 1.93-16.84a11.99 11.99 0 0 0-1.93-1.97c5.09-4.08 12.46-3.18 16.46 2.01C37.12 6.68 38 9.28 38 11.96z" fill="#f79e1b"/></svg>