<svg xmlns="http://www.w3.org/2000/svg" viewBox="0 0 72 30" xmlns:v="https://vecta.io/nano"><path d="M13.16 3.87c-.84 1.01-2.19 1.81-3.54 1.7-.17-1.37.49-2.83 1.27-3.72C11.73.81 13.21.07 14.41.01c.14 1.43-.41 2.83-1.24 3.87zm1.22 1.97c-1.19-.07-2.27.36-3.15.71-.56.22-1.04.42-1.41.42-.41 0-.91-.2-1.46-.43-.73-.29-1.57-.63-2.45-.62C3.9 5.95 2.03 7.1 1 8.95c-2.11 3.68-.55 9.13 1.49 12.13 1 1.48 2.19 3.11 3.77 3.05.69-.03 1.19-.24 1.71-.46.59-.26 1.21-.52 2.17-.52s1.52.26 2.09.51c.54.24 1.06.46 1.82.45 1.63-.03 2.66-1.48 3.66-2.97 1.08-1.59 1.55-3.15 1.62-3.38v-.03l-.03-.02c-.36-.17-3.11-1.45-3.14-4.88-.03-2.88 2.18-4.34 2.53-4.57.02-.01.04-.02.04-.03-1.41-2.11-3.6-2.34-4.36-2.4zm11.29 18.11V1.7h8.23c4.25 0 7.22 2.97 7.22 7.31s-3.02 7.34-7.33 7.34h-4.71v7.61h-3.4zm3.41-19.34H33c2.95 0 4.64 1.6 4.64 4.41s-1.69 4.42-4.66 4.42h-3.91V4.61zm23.27 16.67c-.9 1.74-2.88 2.84-5.02 2.84-3.16 0-5.37-1.91-5.37-4.8s2.14-4.5 6.09-4.74l4.25-.26v-1.23c0-1.81-1.17-2.8-3.25-2.8-1.72 0-2.97.9-3.22 2.27h-3.07c.1-2.88 2.77-4.98 6.39-4.98 3.9 0 6.43 2.07 6.43 5.28v11.08h-3.15v-2.67h-.07zm-4.1.2c-1.81 0-2.97-.88-2.97-2.24s1.11-2.21 3.23-2.34l3.78-.24v1.26c0 2.08-1.74 3.57-4.05 3.57zm17.77 3.34c-1.36 3.9-2.93 5.18-6.24 5.18-.25 0-1.1-.03-1.29-.09v-2.67c.21.03.73.06 1 .06 1.5 0 2.35-.64 2.87-2.31l.31-.98-5.77-16.2h3.56l4.01 13.14h.07l4.01-13.14h3.46l-5.98 17.01z" fill-rule="evenodd"/></svg>