<svg xmlns="http://www.w3.org/2000/svg" width="36" height="36"><path d="M36 18.4c0-1.48-.12-2.56-.39-3.68H18.37v6.68h10.12c-.2 1.66-1.31 4.16-3.76 5.84l-.03.22 5.45 4.14.38.04C34 28.5 36 23.88 36 18.4" fill="#4285f4"/><path d="M18.37 36c4.96 0 9.12-1.6 12.16-4.36l-5.8-4.4c-1.55 1.06-3.63 1.8-6.37 1.8-4.86 0-8.98-3.14-10.45-7.48l-.22.02-5.67 4.3-.07.2C4.97 31.96 11.17 36 18.36 36" fill="#34a853"/><path d="M7.92 21.56A10.82 10.82 0 0 1 7.31 18c0-1.24.22-2.44.59-3.56v-.24L2.15 9.83l-.19.09C.72 12.36 0 15.1 0 18a17.66 17.66 0 0 0 1.96 8.08l5.96-4.52" fill="#fbbc05"/><path d="M18.37 6.96c3.45 0 5.78 1.46 7.1 2.68l5.18-4.96C27.47 1.78 23.33 0 18.37 0 11.18 0 4.98 4.04 1.96 9.92l5.94 4.52c1.49-4.34 5.61-7.48 10.47-7.48" fill="#eb4335"/></svg>