<svg xmlns="http://www.w3.org/2000/svg" viewBox="0 0 98 30" xmlns:v="https://vecta.io/nano"><path d="M34.62 29.66L39.57.59h7.93l-4.96 29.06h-7.92zM71.18 1.22C69.61.63 67.15 0 64.08 0c-7.83 0-13.35 3.94-13.4 9.59-.04 4.18 3.94 6.51 6.95 7.9 3.09 1.42 4.12 2.33 4.11 3.61-.02 1.95-2.46 2.84-4.74 2.84-3.17 0-4.86-.44-7.46-1.53l-1.02-.46-1.11 6.51c1.85.81 5.28 1.51 8.83 1.55 8.33 0 13.74-3.9 13.8-9.93.03-3.31-2.08-5.82-6.66-7.9-2.77-1.34-4.47-2.24-4.45-3.6 0-1.21 1.44-2.5 4.54-2.5a14.6 14.6 0 0 1 5.93 1.11l.71.34 1.07-6.3m20.4-.64h-6.13c-1.9 0-3.32.52-4.15 2.41L69.53 29.63h8.32l1.67-4.37 10.15.01.96 4.36h7.36L91.58.59h0zm-9.72 18.77l3.16-8.12c-.05.08.65-1.68 1.05-2.77l.54 2.51 1.84 8.39h-6.58zM27.89.59l-7.76 19.82-.83-4.03c-1.45-4.64-5.95-9.67-10.98-12.19l7.1 25.42h8.39L36.29.59h-8.4" fill="#0e4595"/><path d="M12.88.59H.1l-.1.6C9.95 3.6 16.53 9.41 19.26 16.4L16.48 3.04C16 1.2 14.61.65 12.89.59" fill="#f2ae14"/></svg>