<svg xmlns="http://www.w3.org/2000/svg" viewBox="0 0 218 40"><path d="M0 0h218v40H0z" fill="#ffed00"/><path d="M12.53 7.06H6.66v27.43h12.3v-5.42h-6.43V7.06zm10.23 0h5.87v27.43h-5.87V7.06zm9.14 5.42h5.03v22.01h5.87V12.48h5.03V7.06H31.91v5.42zm41.08-5.42h5.87v27.43h-5.87V7.06zm23.3 17.46l-3.1-17.46h-9.35V34.5h5.91V14.31L93 34.49h6.37l3.04-20.1v20.1h6.12V7.06h-9.24l-3 17.46zm29.03-17.46h-7.23l-6.12 27.28-.03.15h6.09l.84-5.18h5.53l.87 5.18h6.08l-6-27.33-.02-.09zm-5.61 17.06l1.87-11.46 1.93 11.46h-3.8zm48.62-.41c-.04 4.58-.97 6.81-2.86 6.81-2.25 0-3.47-1.57-3.47-9.88 0-6.73 1-9.6 3.33-9.6 1.83 0 2.58 1.62 2.58 5.59v.12h5.55v-1.27c0-6.11-2.57-8.96-8.09-8.96-8.47 0-9.18 7.28-9.18 14.11 0 3.53.17 7.51 1.45 10.25 1.3 2.78 3.64 4.13 7.16 4.13 7.8 0 8.86-5.24 8.86-10.37v-1.07h-5.34v.12zm19.27-6.48h-4.25V7.06h-5.87v27.43h5.87V22.88h4.25v11.61h5.87V7.06h-5.87v10.17zm21.87-12.41l-1.88-2.71-9.53 3.39 1.35 1.2 10.06-1.89zm-6.39 24.25V23.1h7.71v-5.42h-7.71v-5.2h8.21V7.06H197.2v27.43h14.45v-5.42h-8.58zM64.42 20.71c4.59-1.14 5.09-5.03 5.09-6.69 0-4.47-3.15-7.13-8.42-7.13H51v27.44h6.63V23.34c2.23 0 3 .06 4.01 3.61l2.13 7.37h6.96l-2.85-9.04c-.99-3.15-1.77-4.24-3.45-4.58zm-5.16-2.21h-1.87v-6.77h1.83c3.02 0 3.66 1.8 3.66 3.31 0 2.1-1.42 3.46-3.62 3.46zm88.65 2.21c4.58-1.14 5.09-5.03 5.09-6.69 0-4.47-3.15-7.13-8.42-7.13h-10.1v27.44h6.63V23.34c2.23 0 3 .06 4.01 3.61l2.1 7.29.03.09h6.96l-2.85-9.04c-.99-3.15-1.77-4.24-3.45-4.58zm-5.16-2.21h-1.87v-6.77h1.83c3.02 0 3.66 1.8 3.66 3.31 0 2.1-1.42 3.46-3.62 3.46zm70.69 13.83a1.13 1.13 0 0 0-1.13 1.13 1.12 1.12 0 1 0 2.26 0 1.13 1.13 0 0 0-1.13-1.13zm0 2.07a.95.95 0 0 1-.95-.95c0-.52.43-.95.95-.95s.95.43.95.95-.43.95-.95.95zm.27-.83s-.06-.05-.1-.07c.12-.02.21-.06.26-.13.06-.07.09-.15.09-.25 0-.08-.02-.15-.05-.21s-.08-.11-.14-.13c-.06-.03-.14-.04-.25-.04h-.55v1.42h.17v-.63h.19.09c.03 0 .05.02.08.04.02.02.05.05.08.09.03.05.07.11.12.2l.16.3h.21l-.21-.39a.72.72 0 0 0-.14-.19zm-.23-.22h-.35v-.47h.39c.09 0 .16.02.2.06s.06.1.06.17c0 .05-.01.09-.03.13s-.05.07-.1.08c-.04.02-.1.03-.18.03z" fill="#0c3183"/></svg>