<svg xmlns="http://www.w3.org/2000/svg">
  <symbol id="menu" viewBox="0 0 16 12">
    <path d="M0 0h16v2H0zm0 5h16v2H0zm0 5h16v2H0z"></path>
  </symbol>
  <symbol id="close" viewBox="0 0 20 20">
    <path d="M.92 20a.91.91 0 0 1-.65-.27c-.36-.37-.36-.96 0-1.32l8.29-8.4L.27 1.6C-.09 1.23-.09.64.27.27s.94-.36 1.3 0l8.94 9.07c.36.37.36.96 0 1.32l-8.94 9.07c-.18.18-.42.27-.65.27z"></path>
    <path d="M19.08 20c-.24 0-.47-.09-.65-.27l-8.94-9.07c-.36-.37-.36-.96 0-1.32L18.43.27c.36-.37.94-.37 1.3 0s.36.96 0 1.32l-8.29 8.4 8.29 8.4c.36.37.36.96 0 1.32-.18.18-.42.27-.65.27Z"></path>
  </symbol>
  <symbol id="cart" viewBox="0 0 20 20">
    <path d="M15.14 20H4.86c-1.26 0-2.29-1.03-2.29-2.29V7.43c0-.56.45-1.01 1.01-1.01h12.85c.56 0 1.01.45 1.01 1.01v10.28c0 1.26-1.03 2.29-2.29 2.29ZM4.58 8.44v9.27c0 .15.12.28.28.28h10.28c.15 0 .28-.12.28-.28v-9.27H4.58Z"></path>
    <path d="M13.85 8.44c-.56 0-1.01-.45-1.01-1.01v-2.57c0-.77-.3-1.48-.83-2.02-.54-.54-1.25-.83-2.01-.83h0c-1.57 0-2.85 1.28-2.85 2.85v2.57c0 .56-.45 1.01-1.01 1.01s-1.01-.45-1.01-1.01v-2.57C5.14 2.18 7.32 0 10 0h0c1.3 0 2.52.5 3.43 1.42.92.92 1.42 2.14 1.43 3.44v2.58c0 .56-.45 1.01-1.01 1.01Z"></path>
  </symbol>
  <symbol id="user" viewBox="0 0 20 20">
    <path d="M10 10.19h0A5.1 5.1 0 0 1 4.91 5.1 5.1 5.1 0 0 1 10 .01c2.8 0 5.09 2.29 5.09 5.09A5.1 5.1 0 0 1 10 10.19zM10 2a3.1 3.1 0 0 0-3.09 3.09A3.1 3.1 0 0 0 10 8.18a3.1 3.1 0 0 0 3.09-3.09A3.1 3.1 0 0 0 10 2zm7.68 18H2.32c-.55 0-1-.45-1-1v-3.95c0-1.97 1.61-3.58 3.58-3.59h10.19a3.59 3.59 0 0 1 3.58 3.58V19c0 .55-.45 1-1 1zM3.32 18h13.36v-2.95c0-.87-.71-1.58-1.58-1.58H4.91c-.87 0-1.58.71-1.58 1.58V18z"></path>
  </symbol>
  <symbol id="search" viewBox="0 0 20 20">
    <path d="M8.75 15.49h0c-3.72 0-6.74-3.03-6.75-6.75 0-3.72 3.03-6.75 6.75-6.75h0c3.72 0 6.75 3.03 6.75 6.75s-3.03 6.75-6.75 6.75zM8.75 4C6.13 4 4 6.13 4 8.75s2.13 4.75 4.75 4.75h0c2.62 0 4.75-2.13 4.75-4.75S11.37 4 8.75 4h0z"></path>
    <path d="M17 18c-.26 0-.51-.1-.71-.29l-4.19-4.19c-.39-.39-.39-1.02 0-1.41s1.02-.39 1.41 0l4.19 4.19c.39.39.39 1.02 0 1.41-.2.2-.45.29-.71.29Z"></path>
  </symbol>
  <symbol id="location" viewBox="0 0 15 20">
    <path d="M12.8 2.21h0C9.87-.73 5.12-.74 2.19 2.21a7.57 7.57 0 0 0-.78 9.72l5.56 7.8c.21.29.62.36.91.15.06-.04.11-.09.15-.15l5.56-7.8c2.14-3 1.81-7.11-.79-9.72m-5.3 9.65c-2.36 0-4.28-1.93-4.28-4.3s1.92-4.3 4.28-4.3 4.28 1.93 4.28 4.3-1.92 4.3-4.28 4.3"></path>
  </symbol>
  <symbol id="next" viewBox="0 0 36 36">
    <path d="M15.03 29c-.26 0-.52-.1-.73-.3-.4-.4-.4-1.05 0-1.45l9.22-9.25-9.22-9.24c-.4-.4-.4-1.05 0-1.45s1.05-.4 1.45 0l9.95 9.97c.4.4.4 1.05 0 1.45l-9.95 9.97c-.2.2-.46.3-.73.3Z"></path>
  </symbol>
  <symbol id="prev" viewBox="0 0 36 36">
    <path d="M20.97 29c.26 0 .52-.1.73-.3.4-.4.4-1.05 0-1.45l-9.22-9.25 9.22-9.24c.4-.4.4-1.05 0-1.45s-1.05-.4-1.45 0l-9.95 9.97c-.4.4-.4 1.05 0 1.45l9.95 9.97c.2.2.46.3.73.3Z"></path>
  </symbol>
  <symbol id="right" viewBox="0 0 8 14">
    <path d="M1.06 14c-.27 0-.54-.1-.75-.31-.41-.42-.41-1.09 0-1.51l5.13-5.17L.31 1.83C-.1 1.41-.1.73.31.31.72-.1 1.4-.1 1.81.31l5.88 5.93c.41.42.41 1.09 0 1.51L1.81 13.69c-.21.21-.48.31-.75.31Z"></path>
  </symbol>
  <symbol id="left" viewBox="0 0 8 14">
    <path d="M6.94 14c.27 0 .54-.1.75-.31.41-.42.41-1.09 0-1.51L2.56 7 7.69 1.83c.41-.42.41-1.1 0-1.51-.41-.42-1.09-.42-1.5 0L.31 6.24c-.41.42-.41 1.09 0 1.51l5.88 5.93c.21.21.48.31.75.31Z"></path>
  </symbol>
  <symbol id="toggle" viewBox="0 0 12 22">
    <path d="M1.03 22c-.26 0-.52-.1-.73-.3-.4-.4-.4-1.05 0-1.45l9.22-9.25L.3 1.75C-.1 1.35-.1.7.3.3S1.35-.1 1.75.3l9.95 9.97c.19.19.3.45.3.73s-.11.53-.3.73L1.75 21.7c-.2.2-.46.3-.73.3Z"></path>
  </symbol>
  <symbol id="bulb" viewBox="0 0 48 48">
    <path d="M30.13 17.48c-1.63 1.58-3.84 2.47-6.14 2.46-1.14 0-2.27-.21-3.33-.63a8.12 8.12 0 0 1-2.8-1.84 1.17 1.17 0 0 0-1.63 0 1.1 1.1 0 0 0-.01 1.57c4.29 4.18 11.26 4.19 15.56.01.45-.44.45-1.15 0-1.58-.45-.44-1.19-.44-1.64 0m2.71 24.35h-17.7c-.64 0-1.16.51-1.17 1.13 0 .63.52 1.13 1.16 1.13h17.7c.63 0 1.14-.51 1.13-1.13 0-.61-.5-1.12-1.13-1.13M43 18.47h0C42.98 8.25 34.46-.02 23.96 0 13.47.02 4.98 8.32 5 18.54c0 3.15.84 6.25 2.42 9 1.45 2.45 3.43 4.55 5.81 6.17v5.2c0 1.04.86 1.88 1.92 1.89h17.7c1.06-.01 1.91-.86 1.9-1.89v-5.2C39.91 30.27 43 24.56 43 18.47m-5.77 7.23h-.02c-1.28 2.23-3.13 4.09-5.38 5.41-.56.35-.9.95-.89 1.6h-.03v4.32H17.1v-4.31c.02-.73-.42-1.39-1.11-1.68-2.17-1.32-3.95-3.16-5.2-5.33C6.72 18.6 9.33 9.62 16.63 5.65s16.52-1.42 20.6 5.69c2.56 4.47 2.56 9.9 0 14.37m-8.12 20.05H18.87c-.63 0-1.15.48-1.16 1.1 0 .62.52 1.13 1.16 1.13h10.25c.64 0 1.16-.51 1.16-1.13a1.13 1.13 0 0 0-1.16-1.1"></path>
  </symbol>
  <symbol id="bell" viewBox="0 0 48 48">
    <path d="M36.16 29.86l-3.67 5.33a6.88 6.88 0 0 0-.73 3.51v.12c-.06 1.94-.16 3.83-2 5.66-.67.68-1.76.7-2.44.03l-.03-.03-.02-.04-1.17-1.16c-1.01.83-2.28 1.29-3.59 1.28-3.17.02-5.75-2.53-5.77-5.7v-.06a5.54 5.54 0 0 1 1.3-3.59L3.51 20.7c-.68-.67-.68-1.77 0-2.45l.04-.04c2.19-2.15 4.14-2 6.2-1.83 1.17.2 2.38.02 3.44-.52 1.94-1.17 3.68-2.45 5.3-3.63l.57-.43 2.7-1.89c3.15-2.09 6.55-3.46 10.42-2.63a9.57 9.57 0 0 1 2.74.99v-.23c0-2.78 2.24-5.04 5.02-5.04 1.35 0 2.64.53 3.59 1.49a4.92 4.92 0 0 1 1.48 3.56c0 1.34-.52 2.63-1.48 3.57-.95.94-2.23 1.48-3.57 1.48h-.02a10.37 10.37 0 0 1 1.17 3.08c1.18 5.4-1.95 9.59-4.94 13.68m6.72-21.82h0c0-.78-.31-1.52-.86-2.08-1.15-1.15-3.01-1.15-4.15 0-1.15 1.15-1.15 3.01 0 4.17 1.16 1.12 3 1.12 4.15 0 .55-.56.86-1.31.86-2.09m-9.57 19.75h0c2.31-3.16 5.28-6.67 4.38-10.87a8.28 8.28 0 0 0-2.24-4.03c-1.1-1.11-2.5-1.87-4.03-2.19-2.89-.65-5.4.55-7.72 2.1a66.61 66.61 0 0 0-2.6 1.83l-.56.4c-1.67 1.22-3.48 2.56-5.53 3.82-1.67.97-3.63 1.33-5.53 1.01a6.58 6.58 0 0 0-1.88 0l20.51 20.51a10.21 10.21 0 0 0 .14-1.65v-.14c-.09-1.83.35-3.65 1.26-5.23 1.27-2.07 2.59-3.88 3.81-5.55m-9.77 12.95h0l-3.05-3.04c-.19.33-.28.7-.27 1.08 0 .59.24 1.16.65 1.59.43.41 1.01.64 1.6.63a2.14 2.14 0 0 0 1.07-.28"></path>
  </symbol>
  <symbol id="facebook" viewBox="0 0 16 36">
    <path d="M3.63 36h6.98V17.84h4.87l.52-6.08h-5.39V8.3c0-1.43.28-2 1.61-2H16V0h-4.84C5.97 0 3.63 2.38 3.63 6.92v4.85H0v6.15h3.63V36z"></path>
  </symbol>
  <symbol id="instagram" viewBox="0 0 36 36">
    <path d="M18 3.24l7.48.1c1.17.01 2.34.22 3.44.62.8.29 1.53.75 2.13 1.34a5.54 5.54 0 0 1 1.38 2.07c.41 1.07.62 2.2.64 3.34l.11 7.27-.11 7.27a9.57 9.57 0 0 1-.64 3.34c-.62 1.57-1.9 2.81-3.51 3.42-1.1.4-2.26.61-3.44.62l-7.48.1c-4.94 0-5.53-.02-7.48-.1-1.17-.01-2.34-.22-3.44-.62-.8-.29-1.53-.75-2.13-1.34a5.54 5.54 0 0 1-1.38-2.07c-.41-1.07-.62-2.2-.64-3.34l-.11-7.27.11-7.27a9.57 9.57 0 0 1 .64-3.34 5.66 5.66 0 0 1 1.38-2.07c.6-.6 1.32-1.06 2.13-1.34 1.1-.4 2.26-.61 3.44-.62l7.48-.1M18 0l-7.63.11C8.84.14 7.32.42 5.88.95 4.65 1.4 3.53 2.11 2.6 3.03 1.66 3.93.93 5.02.47 6.22c-.54 1.4-.83 2.88-.86 4.37l-.11 7.42.11 7.42c.03 1.49.32 2.97.86 4.37.46 1.2 1.19 2.29 2.13 3.19.92.92 2.04 1.62 3.28 2.08 1.44.52 2.96.81 4.49.84l7.63.11 7.63-.11c1.53-.03 3.05-.31 4.49-.84 2.49-.94 4.45-2.85 5.41-5.26.54-1.4.83-2.88.86-4.37l.11-7.42-.11-7.42c-.03-1.49-.32-2.97-.86-4.37-.46-1.2-1.19-2.29-2.13-3.19-.92-.92-2.04-1.62-3.28-2.08-1.44-.52-2.96-.81-4.49-.84L18 .01m0 8.75c-5.25 0-9.5 4.14-9.5 9.24 0 5.11 4.25 9.24 9.5 9.24s9.5-4.14 9.5-9.24h0c0-5.11-4.25-9.24-9.5-9.24M18 24c-3.41 0-6.17-2.69-6.17-6s2.76-6 6.17-6 6.17 2.69 6.17 6h0c0 3.31-2.76 6-6.17 6M30.1 8.39c0 1.19-.99 2.16-2.22 2.16s-2.22-.97-2.22-2.16.99-2.16 2.22-2.16h0c1.23 0 2.22.97 2.22 2.16"></path>
  </symbol>
  <symbol id="linkedin" viewBox="0 0 36 36">
    <path d="M.71 12h7.43v24H.71zm3.68-3.14c2.45.02 4.45-1.95 4.47-4.39C8.88 2.02 6.91.02 4.47 0 2.02-.02.02 1.95 0 4.39v.03c0 2.44 1.96 4.42 4.39 4.43M20.03 23.4c0-3.37 1.55-5.38 4.53-5.38 2.73 0 4.05 1.93 4.05 5.38V36h7.4V20.8c0-6.43-3.65-9.54-8.74-9.54a8.37 8.37 0 0 0-7.24 3.97V12H12.9v24h7.13V23.4z"></path>
  </symbol>
  <symbol id="building" viewBox="0 0 62 36">
    <path d="M53.33 16.01l5.66.29v10.88l-5.66.77V16.01zm-9.9-.48l7.14.36v12.36l-7.14.97V15.53zm-12.64-.62l9.26.47V29.6l-9.26 1.25V14.9zM2.52 28.93V7.07l22.8-4.1v30.07l-14.61-2.63V19.95l-5.64-.14v9.58l-2.55-.46zM27.79 0L0 5v26l27.79 5L62 29.92V6.08L27.79 0zm-4.76 7.48l-5.78.69v7.43l5.78-.15V7.47zm-7.65.92l-4.81.58v6.8l4.81-.12V8.41zM9 9.16l-4.07.49v6.27l4.07-.1V9.16z"></path>
  </symbol>
  <symbol id="vehicle" viewBox="0 0 48 36">
    <path d="M37.55 26.93c1.02-.01 1.86.81 1.87 1.83s-.81 1.86-1.83 1.87-1.86-.81-1.87-1.83c0-1.03.82-1.85 1.83-1.87m-5.08-8.15h10.17l-2.97-5.96h-7.21v5.96zM43.76 21H32.47v5.99c.92.11 1.6.88 1.6 1.8 0 .93.36 1.82 1.02 2.47h-.01c.66.66 1.55 1.03 2.47 1.02.91 0 1.78-.34 2.43-.97l.05-.06a3.45 3.45 0 0 0 1.03-2.42v-.05a1.86 1.86 0 0 1 1.84-1.86h1.39v-4.85l-.55-1.09zm.76 9.63h0a7.4 7.4 0 0 1-1.86 3.26l-.1.09a7.23 7.23 0 0 1-5 2c-1.9 0-3.72-.74-5.05-2.09h-.03c-.89-.9-1.53-2.03-1.86-3.26H19.76c-1 3.84-4.93 6.14-8.77 5.14-2.52-.66-4.49-2.62-5.14-5.14h-4C.83 30.63 0 29.81 0 28.79V1.83C0 .82.83 0 1.85 0h28.76c1.02 0 1.85.81 1.86 1.82v7.32h8.33c.76 0 1.44.45 1.73 1.15l5.26 10.55c.14.25.21.54.2.83H48v7.11c0 1.01-.81 1.84-1.82 1.84h-.02-1.64 0zM28.78 3.69H3.69v23.24h3.76a1.86 1.86 0 0 1 1.84 1.86c0 .93.37 1.82 1.02 2.47 1.36 1.37 3.57 1.38 4.94.02l.02-.02c.64-.64 1.01-1.51 1.02-2.42v-.05c0-1.02.83-1.84 1.85-1.86h10.63V3.69zM12.8 26.93h0c1.02 0 1.86.82 1.86 1.84a1.86 1.86 0 0 1-1.85 1.86 1.86 1.86 0 0 1-1.86-1.84 1.86 1.86 0 0 1 1.85-1.86"></path>
  </symbol>
  <symbol id="badge" viewBox="0 0 38 46">
    <path d="M5.9 29.94l-1.4-.44c-.83-.25-1.53-.8-1.95-1.54l-.08-.11c-.37-.71-.47-1.53-.31-2.31l.66-2.58-.05-.06-1.86-1.96c-.59-.62-.91-1.44-.92-2.28 0-.86.33-1.68.92-2.32l.08-.05 1.8-1.83-.03-.05-.61-2.66c-.19-.82-.06-1.69.39-2.41a3.36 3.36 0 0 1 1.95-1.55h.05l2.57-.76.82-2.61c.25-.82.81-1.51 1.57-1.93l.11-.07c.73-.36 1.56-.46 2.35-.27l2.62.63.08-.06L16.64.9C17.96-.3 20-.3 21.32.9l1.94 1.85 2.74-.6c.84-.21 1.73-.09 2.48.34s1.31 1.12 1.56 1.93l.74 2.55 2.7.82a3.37 3.37 0 0 1 1.96 1.55c.44.72.58 1.59.38 2.41l-.66 2.58.06.07 1.84 1.96a3.29 3.29 0 0 1 .93 2.29c0 .86-.34 1.68-.93 2.31l-.07.05-1.81 1.82.64 2.71a3.21 3.21 0 0 1-.38 2.42c-.43.74-1.13 1.29-1.96 1.54h-.05l-1.37.39 5.54 8.74a1.05 1.05 0 0 1-.37 1.45c-.25.15-.54.19-.82.11l-6.59-1.5-1.54 6.5c-.13.56-.69.91-1.26.79a1.21 1.21 0 0 1-.68-.46l-5.54-8.73a3.45 3.45 0 0 1-3.61 0l-5.54 8.73c-.16.22-.39.38-.66.46-.58.13-1.16-.22-1.3-.79l-1.54-6.5-6.55 1.5c-.3.08-.62.03-.88-.14-.49-.29-.65-.92-.35-1.41 0 0 0-.01.01-.02l5.51-8.69zm24.61 1.5h0l-.46 1.42a3.48 3.48 0 0 1-1.56 1.94 3.41 3.41 0 0 1-2.48.36l-2.62-.66-.08.08-.88.81 4.36 6.86 1.18-5.05a1.1 1.1 0 0 1 1.29-.8l5.14 1.17-3.89-6.12zm-14.95 3.92h0l-.84-.81-2.75.61a3.43 3.43 0 0 1-2.49-.37l-.1-.05c-.69-.44-1.2-1.1-1.45-1.87l-.45-1.45-3.91 6.15 5.15-1.18c.58-.11 1.15.24 1.3.8l1.17 5.05 4.37-6.88zm-4.22-29.8h0l-.82 2.56c-.14.47-.39.91-.74 1.27l-.11.1a2.92 2.92 0 0 1-1.41.84l-2.6.65.64 2.7c.27 1.08-.04 2.23-.83 3.03l-1.93 1.86 1.84 1.94.09.06c.38.41.65.89.8 1.43.14.53.15 1.09.03 1.62l-.65 2.56 2.62.81a3.07 3.07 0 0 1 1.3.71l.11.09c.4.39.69.88.85 1.41l.74 2.53 2.67-.6c.54-.14 1.11-.13 1.65.03a3.38 3.38 0 0 1 1.45.79L19 33.73l1.88-1.7.08-.09c.42-.37.92-.64 1.47-.78.53-.16 1.1-.17 1.64-.03l2.57.71.84-2.64c.16-.54.46-1.02.86-1.41a3.17 3.17 0 0 1 1.4-.8l2.59-.65-.61-2.72a2.82 2.82 0 0 1 0-1.47l.03-.15a3.37 3.37 0 0 1 .79-1.43l1.94-1.83-1.83-1.94-.1-.1c-.39-.39-.66-.87-.79-1.4a3.18 3.18 0 0 1-.03-1.62l.74-2.53-2.72-.82c-.54-.13-1.03-.42-1.4-.83-.41-.37-.71-.84-.86-1.37l-.66-2.55-2.75.61a3.45 3.45 0 0 1-1.5 0l-.15-.03a3.38 3.38 0 0 1-1.45-.79l-1.85-1.88-1.98 1.8-.08.09c-.41.37-.91.64-1.45.79-.54.16-1.11.17-1.65.03l-2.59-.62z"></path>
  </symbol>
  <symbol id="bed" viewBox="0 0 48 36">
    <path d="M46.64 16.38l-.41-3.44-.31-2.45c-.27-2.51.07-5.05.97-7.39.23-.59-.04-1.27-.6-1.51a1.09 1.09 0 0 0-.9.04 9.15 9.15 0 0 1-1.57.62c-2.01.52-4.08.77-6.16.74-4.6 0-8.68-2.98-13.63-2.98s-8.39 2.3-12.85 2.84c-2.34.25-4.7.06-6.97-.59a7.38 7.38 0 0 1-1.55-.62c-.54-.29-1.2-.08-1.48.48 0 0 0 .02-.01.03-.16.29-.18.65-.05.96a15.45 15.45 0 0 1 .97 7.38c-.08.78-.2 1.59-.29 2.45a50.54 50.54 0 0 0-.42 3.46c-.82.2-1.38.97-1.38 1.85v12.11c0 1.06.83 1.93 1.85 1.94h2.56v2.57c.02.63.51 1.12 1.11 1.13h4.14c.61 0 1.11-.5 1.13-1.13V32.3h26.47v2.57c.01.62.49 1.12 1.09 1.13h4.14c.6 0 1.09-.5 1.11-1.13V32.3h2.56c1.02-.01 1.84-.88 1.85-1.94V18.25c0-.87-.56-1.64-1.36-1.87M8.54 33.7H6.63v-1.41h1.91v1.41zm32.86 0h-1.94v-1.41h1.94v1.41zm2.91-5.27H3.69v-8.26H44.3v8.26zm-23.5-13.72h0v1.35s-.02.07-.04.09v.03s-.07.03-.11.03H8.46s-.07 0-.1-.03l-.03-.03h.03s-.05-.06-.05-.09v-1.35s.03-.08.05-.08v-.03s.05-.03.1-.03h12.2a.53.53 0 0 0 .11.03v.03s.04.04.04.08m18.87 0h0v1.35s-.01.06-.03.09l-.03.03s-.05.03-.08.03H27.33c-.05 0-.07-.03-.1-.03v-.03s-.05-.06-.05-.09v-1.35s.03-.08.05-.08l.03-.03s.03-.03.07-.03h12.22a.53.53 0 0 0 .11.03v.03s.03.04.03.08m2.19 1.6h0v-.25l.01-1.35c0-.65-.24-1.27-.69-1.72-.43-.47-1.03-.73-1.65-.71H27.34a2.34 2.34 0 0 0-1.6.63l-.07.08a2.41 2.41 0 0 0-.68 1.72v1.6h-1.98v-.25l.01-1.35c0-1.35-1.06-2.44-2.36-2.43H8.46c-.59-.01-1.17.21-1.6.63l-.06.08a2.41 2.41 0 0 0-.68 1.72v1.6H3.6c.08-1.05.22-2.06.37-3.07.1-.83.23-1.64.31-2.52a19.1 19.1 0 0 0-.37-6.17 20.35 20.35 0 0 0 7.49.59c4.38-.51 8.02-2.83 12.61-2.83 4.94 0 8.92 2.98 13.63 2.98 2.17.04 4.34-.21 6.45-.74-.46 2.02-.59 4.11-.37 6.17.08.89.21 1.69.31 2.52.13 1.01.28 2.02.36 3.07h-2.51z"></path>
  </symbol>
  <symbol id="card" viewBox="0 0 42 40">
    <path d="M13.35 32.15a.98.98 0 0 0-.97 1.01v1.82c0 .55.44.99.97.98.52 0 .95-.42.96-.95v-.03-1.82c.01-.54-.4-.99-.93-1h-.03M19.6 22h-6.2a.99.99 0 0 0-.97.99v6.31c0 .55.44 1 .97 1.01h6.2c.54 0 .98-.45.98-1.01v-6.31c0-.55-.44-.99-.98-.99m-.98 6.32h-4.28v-4.35h4.28v4.35zm.13 3.83h0a.98.98 0 0 0-.97 1.01v1.82c0 .55.44.99.97.99.54 0 .97-.44.97-.99v-1.82a1 1 0 0 0-.97-1.01m-2.71 0h0c-.53.01-.96.46-.95 1.01v1.82c-.02.54.4.99.93 1.01s.98-.41.99-.95v-.06-1.82c0-.55-.42-1-.96-1m15.65-.01h0c-.53 0-.97.45-.96.99v1.83c0 .54.43.98.96.98s.96-.44.97-.98h0v-1.82c0-.55-.42-.99-.95-1m2.67 0h0c-.53 0-.96.46-.95 1v1.82c-.02.54.4.99.93 1.01s.98-.41.99-.95v-.06-1.82c0-.55-.42-1-.96-1m2.71 0h0a.98.98 0 0 0-.97.98v.03 1.82c-.02.54.4.99.93 1.01s.98-.41.99-.95v-.06-1.82c.01-.54-.41-.99-.94-1m3.97-17.37h0a3.13 3.13 0 0 0-2.35-1.07h-2.08L29.99 1.91c-.04-.11-.1-.22-.18-.32A3.48 3.48 0 0 0 27.96.15a3.11 3.11 0 0 0-2.41.19c-.1.03-.19.08-.27.14L1.66 14.38l-.08.04c-.77.47-1.32 1.24-1.51 2.14v.02c-.17.86-.03 1.76.41 2.53l7.5 13.25v4.16c0 .89.33 1.74.91 2.41.6.69 1.46 1.08 2.36 1.08h27.49a3.09 3.09 0 0 0 2.35-1.08c.59-.66.91-1.52.91-2.41V17.19c0-.89-.32-1.75-.91-2.41M7.98 17.19h0v8.6l-4.71-8.34a.34.34 0 0 1-.03-.2h-.05.05l.03-.03 23.7-13.94c.07.03.12.09.16.15l.02.04 5.8 10.25h-21.7c-1.84.05-3.3 1.6-3.27 3.48m30.79 19.32h0a.33.33 0 0 1-.06.19H11.27c-.03-.06-.04-.12-.03-.19V17.08l.01-.05h.02v-.02h27.45c.03.06.05.12.06.19v19.32zm-10.83-4.37h0c-.54 0-.98.44-.99.99v1.83c0 .54.43.98.97.98.55 0 .97-.44.97-.97v-1.83c.01-.54-.41-.99-.95-1m-2.71 0h0a.98.98 0 0 0-.97 1.01v1.82c0 .55.44.99.97.98.53 0 .96-.44.96-.98v-1.82c0-.55-.42-1-.96-1m-2.71-.01h0a.98.98 0 0 0-.97 1.01v1.82c0 .54.43.98.96.98s.96-.42.97-.95v-.03-1.82c.01-.54-.4-.99-.93-1h-.03"></path>
  </symbol>
  <symbol id="star" viewBox="0 0 40 38">
    <path d="M13.51 22.95l-6.49-6.32 8.97-1.3L20 7.21l4.01 8.12 8.97 1.3-6.49 6.32 1.53 8.92L20 27.66l-8.03 4.21 1.53-8.92zM20 0l-6.18 12.51L0 14.52l10 9.73L7.64 38 20 31.51 32.36 38 30 24.25l10-9.73-13.82-2.01L20 0z"></path>
  </symbol>
  <symbol id="rating" viewBox="0 0 25 24">
    <path d="M14.12 1.01l2.46 5c.26.53.77.9 1.36.99l5.51.8c.99.15 1.67 1.07 1.53 2.06-.06.39-.24.76-.53 1.03l-3.99 3.89c-.43.42-.62 1.01-.52 1.6l.94 5.5c.17.99-.49 1.92-1.47 2.09-.39.07-.8 0-1.15-.18l-4.93-2.59c-.53-.28-1.16-.28-1.68 0l-4.93 2.59c-.88.47-1.98.13-2.44-.76-.19-.35-.25-.76-.18-1.15l.94-5.5c.1-.59-.09-1.18-.52-1.6l-3.98-3.89c-.72-.7-.73-1.84-.03-2.56.28-.28.64-.47 1.03-.53l5.51-.8c.59-.09 1.1-.46 1.36-.99l2.46-5c.44-.9 1.53-1.27 2.42-.82.36.18.65.47.82.82"></path>
  </symbol>
</svg>