<svg xmlns="http://www.w3.org/2000/svg">
  <symbol id="menu" viewBox="0 0 16 12">
    <path d="M0 0h16v2H0zm0 5h16v2H0zm0 5h16v2H0z"></path>
  </symbol>
  <symbol id="close" viewBox="0 0 20 20">
    <path d="M.92 20a.91.91 0 0 1-.65-.27c-.36-.37-.36-.96 0-1.32l8.29-8.4L.27 1.6C-.09 1.23-.09.64.27.27s.94-.36 1.3 0l8.94 9.07c.36.37.36.96 0 1.32l-8.94 9.07c-.18.18-.42.27-.65.27z"></path>
    <path d="M19.08 20c-.24 0-.47-.09-.65-.27l-8.94-9.07c-.36-.37-.36-.96 0-1.32L18.43.27c.36-.37.94-.37 1.3 0s.36.96 0 1.32l-8.29 8.4 8.29 8.4c.36.37.36.96 0 1.32-.18.18-.42.27-.65.27Z"></path>
  </symbol>
  <symbol id="cart" viewBox="0 0 20 20">
    <path d="M15.14 20H4.86c-1.26 0-2.29-1.03-2.29-2.29V7.43c0-.56.45-1.01 1.01-1.01h12.85c.56 0 1.01.45 1.01 1.01v10.28c0 1.26-1.03 2.29-2.29 2.29ZM4.58 8.44v9.27c0 .15.12.28.28.28h10.28c.15 0 .28-.12.28-.28v-9.27H4.58Z"></path>
    <path d="M13.85 8.44c-.56 0-1.01-.45-1.01-1.01v-2.57c0-.77-.3-1.48-.83-2.02-.54-.54-1.25-.83-2.01-.83h0c-1.57 0-2.85 1.28-2.85 2.85v2.57c0 .56-.45 1.01-1.01 1.01s-1.01-.45-1.01-1.01v-2.57C5.14 2.18 7.32 0 10 0h0c1.3 0 2.52.5 3.43 1.42.92.92 1.42 2.14 1.43 3.44v2.58c0 .56-.45 1.01-1.01 1.01Z"></path>
  </symbol>
  <symbol id="user" viewBox="0 0 20 20">
    <path d="M10 10.19h0A5.1 5.1 0 0 1 4.91 5.1 5.1 5.1 0 0 1 10 .01c2.8 0 5.09 2.29 5.09 5.09A5.1 5.1 0 0 1 10 10.19zM10 2a3.1 3.1 0 0 0-3.09 3.09A3.1 3.1 0 0 0 10 8.18a3.1 3.1 0 0 0 3.09-3.09A3.1 3.1 0 0 0 10 2zm7.68 18H2.32c-.55 0-1-.45-1-1v-3.95c0-1.97 1.61-3.58 3.58-3.59h10.19a3.59 3.59 0 0 1 3.58 3.58V19c0 .55-.45 1-1 1zM3.32 18h13.36v-2.95c0-.87-.71-1.58-1.58-1.58H4.91c-.87 0-1.58.71-1.58 1.58V18z"></path>
  </symbol>
  <symbol id="search" viewBox="0 0 20 20">
    <path d="M8.75 15.49h0c-3.72 0-6.74-3.03-6.75-6.75 0-3.72 3.03-6.75 6.75-6.75h0c3.72 0 6.75 3.03 6.75 6.75s-3.03 6.75-6.75 6.75zM8.75 4C6.13 4 4 6.13 4 8.75s2.13 4.75 4.75 4.75h0c2.62 0 4.75-2.13 4.75-4.75S11.37 4 8.75 4h0z"></path>
    <path d="M17 18c-.26 0-.51-.1-.71-.29l-4.19-4.19c-.39-.39-.39-1.02 0-1.41s1.02-.39 1.41 0l4.19 4.19c.39.39.39 1.02 0 1.41-.2.2-.45.29-.71.29Z"></path>
  </symbol>
  <symbol id="location" viewBox="0 0 15 20">
    <path d="M12.8 2.21h0C9.87-.73 5.12-.74 2.19 2.21a7.57 7.57 0 0 0-.78 9.72l5.56 7.8c.21.29.62.36.91.15.06-.04.11-.09.15-.15l5.56-7.8c2.14-3 1.81-7.11-.79-9.72m-5.3 9.65c-2.36 0-4.28-1.93-4.28-4.3s1.92-4.3 4.28-4.3 4.28 1.93 4.28 4.3-1.92 4.3-4.28 4.3"></path>
  </symbol>
  <symbol id="next" viewBox="0 0 36 36">
    <path d="M15.03 29c-.26 0-.52-.1-.73-.3-.4-.4-.4-1.05 0-1.45l9.22-9.25-9.22-9.24c-.4-.4-.4-1.05 0-1.45s1.05-.4 1.45 0l9.95 9.97c.4.4.4 1.05 0 1.45l-9.95 9.97c-.2.2-.46.3-.73.3Z"></path>
  </symbol>
  <symbol id="prev" viewBox="0 0 36 36">
    <path d="M20.97 29c.26 0 .52-.1.73-.3.4-.4.4-1.05 0-1.45l-9.22-9.25 9.22-9.24c.4-.4.4-1.05 0-1.45s-1.05-.4-1.45 0l-9.95 9.97c-.4.4-.4 1.05 0 1.45l9.95 9.97c.2.2.46.3.73.3Z"></path>
  </symbol>
  <symbol id="right" viewBox="0 0 8 14">
    <path d="M1.06 14c-.27 0-.54-.1-.75-.31-.41-.42-.41-1.09 0-1.51l5.13-5.17L.31 1.83C-.1 1.41-.1.73.31.31.72-.1 1.4-.1 1.81.31l5.88 5.93c.41.42.41 1.09 0 1.51L1.81 13.69c-.21.21-.48.31-.75.31Z"></path>
  </symbol>
  <symbol id="left" viewBox="0 0 8 14">
    <path d="M6.94 14c.27 0 .54-.1.75-.31.41-.42.41-1.09 0-1.51L2.56 7 7.69 1.83c.41-.42.41-1.1 0-1.51-.41-.42-1.09-.42-1.5 0L.31 6.24c-.41.42-.41 1.09 0 1.51l5.88 5.93c.21.21.48.31.75.31Z"></path>
  </symbol>
  <symbol id="toggle" viewBox="0 0 12 22">
    <path d="M1.03 22c-.26 0-.52-.1-.73-.3-.4-.4-.4-1.05 0-1.45l9.22-9.25L.3 1.75C-.1 1.35-.1.7.3.3S1.35-.1 1.75.3l9.95 9.97c.19.19.3.45.3.73s-.11.53-.3.73L1.75 21.7c-.2.2-.46.3-.73.3Z"></path>
  </symbol>
  <symbol id="bulb" viewBox="0 0 48 48">
    <path d="M30.13 17.48c-1.63 1.58-3.84 2.47-6.14 2.46-1.14 0-2.27-.21-3.33-.63a8.12 8.12 0 0 1-2.8-1.84 1.17 1.17 0 0 0-1.63 0 1.1 1.1 0 0 0-.01 1.57c4.29 4.18 11.26 4.19 15.56.01.45-.44.45-1.15 0-1.58-.45-.44-1.19-.44-1.64 0m2.71 24.35h-17.7c-.64 0-1.16.51-1.17 1.13 0 .63.52 1.13 1.16 1.13h17.7c.63 0 1.14-.51 1.13-1.13 0-.61-.5-1.12-1.13-1.13M43 18.47h0C42.98 8.25 34.46-.02 23.96 0 13.47.02 4.98 8.32 5 18.54c0 3.15.84 6.25 2.42 9 1.45 2.45 3.43 4.55 5.81 6.17v5.2c0 1.04.86 1.88 1.92 1.89h17.7c1.06-.01 1.91-.86 1.9-1.89v-5.2C39.91 30.27 43 24.56 43 18.47m-5.77 7.23h-.02c-1.28 2.23-3.13 4.09-5.38 5.41-.56.35-.9.95-.89 1.6h-.03v4.32H17.1v-4.31c.02-.73-.42-1.39-1.11-1.68-2.17-1.32-3.95-3.16-5.2-5.33C6.72 18.6 9.33 9.62 16.63 5.65s16.52-1.42 20.6 5.69c2.56 4.47 2.56 9.9 0 14.37m-8.12 20.05H18.87c-.63 0-1.15.48-1.16 1.1 0 .62.52 1.13 1.16 1.13h10.25c.64 0 1.16-.51 1.16-1.13a1.13 1.13 0 0 0-1.16-1.1"></path>
  </symbol>
  <symbol id="bell" viewBox="0 0 48 48">
    <path d="M36.16 29.86l-3.67 5.33a6.88 6.88 0 0 0-.73 3.51v.12c-.06 1.94-.16 3.83-2 5.66-.67.68-1.76.7-2.44.03l-.03-.03-.02-.04-1.17-1.16c-1.01.83-2.28 1.29-3.59 1.28-3.17.02-5.75-2.53-5.77-5.7v-.06a5.54 5.54 0 0 1 1.3-3.59L3.51 20.7c-.68-.67-.68-1.77 0-2.45l.04-.04c2.19-2.15 4.14-2 6.2-1.83 1.17.2 2.38.02 3.44-.52 1.94-1.17 3.68-2.45 5.3-3.63l.57-.43 2.7-1.89c3.15-2.09 6.55-3.46 10.42-2.63a9.57 9.57 0 0 1 2.74.99v-.23c0-2.78 2.24-5.04 5.02-5.04 1.35 0 2.64.53 3.59 1.49a4.92 4.92 0 0 1 1.48 3.56c0 1.34-.52 2.63-1.48 3.57-.95.94-2.23 1.48-3.57 1.48h-.02a10.37 10.37 0 0 1 1.17 3.08c1.18 5.4-1.95 9.59-4.94 13.68m6.72-21.82h0c0-.78-.31-1.52-.86-2.08-1.15-1.15-3.01-1.15-4.15 0-1.15 1.15-1.15 3.01 0 4.17 1.16 1.12 3 1.12 4.15 0 .55-.56.86-1.31.86-2.09m-9.57 19.75h0c2.31-3.16 5.28-6.67 4.38-10.87a8.28 8.28 0 0 0-2.24-4.03c-1.1-1.11-2.5-1.87-4.03-2.19-2.89-.65-5.4.55-7.72 2.1a66.61 66.61 0 0 0-2.6 1.83l-.56.4c-1.67 1.22-3.48 2.56-5.53 3.82-1.67.97-3.63 1.33-5.53 1.01a6.58 6.58 0 0 0-1.88 0l20.51 20.51a10.21 10.21 0 0 0 .14-1.65v-.14c-.09-1.83.35-3.65 1.26-5.23 1.27-2.07 2.59-3.88 3.81-5.55m-9.77 12.95h0l-3.05-3.04c-.19.33-.28.7-.27 1.08 0 .59.24 1.16.65 1.59.43.41 1.01.64 1.6.63a2.14 2.14 0 0 0 1.07-.28"></path>
  </symbol>
  <symbol id="euro" viewBox="0 0 34 34">
    <path d="M17 0C7.62 0 0 7.61 0 17s7.61 17 17 17 17-7.61 17-17h0A17.02 17.02 0 0 0 17 0m0 31.54c-8.03 0-14.54-6.5-14.54-14.53A14.56 14.56 0 0 1 17 2.46c8.03 0 14.54 6.5 14.54 14.53h0c-.01 8.03-6.51 14.53-14.53 14.54m5.02-12.16a1.23 1.23 0 0 0-1.23 1.23c0 .74-.26 2.46-2.69 2.46-.77 0-2.39-.01-2.92-3.45h3.15a1.23 1.23 0 1 0 0-2.46h-3.32V17v-.59h3.31a1.23 1.23 0 1 0 0-2.46h-3.11c.43-2.38 1.45-2.96 2.8-2.96 2.04 0 2.3 1.37 2.34 1.79.04.68.62 1.2 1.3 1.17.68-.04 1.2-.62 1.17-1.3h0c-.18-2.46-2.33-4.31-4.79-4.13-3.74 0-4.93 2.86-5.31 5.42H11.5a1.23 1.23 0 0 0 0 2.46h1.05v.74H11.5a1.23 1.23 0 1 0 0 2.46h1.21c.52 3.92 2.33 5.91 5.4 5.91 2.66.18 4.96-1.83 5.14-4.49 0-.14.01-.29 0-.44a1.23 1.23 0 0 0-1.23-1.23"></path>
  </symbol>
  <symbol id="chat" viewBox="0 0 80 80">
    <path d="M39.99 0C17.91 0 0 17.89 0 39.98a40.05 40.05 0 0 0 6.22 21.43L4.85 75.15l13.74-1.37c18.65 11.83 43.36 6.3 55.19-12.35s6.3-43.37-12.35-55.2C55.02 2.16 47.58 0 39.99 0"></path>
  </symbol>
  <symbol id="smiley" viewBox="0 0 118 118">
    <path d="M59 0C26.42 0 0 26.42 0 59s26.42 59 59 59 59-26.42 59-59h0c0-32.58-26.42-59-59-59m0 108.17C31.84 108.17 9.83 86.16 9.83 59S31.84 9.83 59 9.83 108.17 31.84 108.17 59h0c0 27.16-22.01 49.17-49.16 49.17h0M41.79 39.33c-4.07 0-7.38 3.3-7.38 7.38s3.3 7.38 7.38 7.38 7.38-3.3 7.38-7.38h0a7.39 7.39 0 0 0-7.38-7.38m44.25 6.23H71.29c-1.36 0-2.46.49-2.46 1.84s1.1 1.84 2.46 1.84h14.75c1.36 0 2.46-.49 2.46-1.84s-1.1-1.84-2.46-1.84M59.39 88.5v4.92c14.75 0 29.11-10.99 29.11-29.43h-4.92c0 14.75-9.44 24.51-24.19 24.51"></path>
  </symbol>
  <symbol id="facebook" viewBox="0 0 16 36">
    <path d="M3.63 36h6.98V17.84h4.87l.52-6.08h-5.39V8.3c0-1.43.28-2 1.61-2H16V0h-4.84C5.97 0 3.63 2.38 3.63 6.92v4.85H0v6.15h3.63V36z"></path>
  </symbol>
  <symbol id="instagram" viewBox="0 0 36 36">
    <path d="M18 3.24l7.48.1c1.17.01 2.34.22 3.44.62.8.29 1.53.75 2.13 1.34a5.54 5.54 0 0 1 1.38 2.07c.41 1.07.62 2.2.64 3.34l.11 7.27-.11 7.27a9.57 9.57 0 0 1-.64 3.34c-.62 1.57-1.9 2.81-3.51 3.42-1.1.4-2.26.61-3.44.62l-7.48.1c-4.94 0-5.53-.02-7.48-.1-1.17-.01-2.34-.22-3.44-.62-.8-.29-1.53-.75-2.13-1.34a5.54 5.54 0 0 1-1.38-2.07c-.41-1.07-.62-2.2-.64-3.34l-.11-7.27.11-7.27a9.57 9.57 0 0 1 .64-3.34 5.66 5.66 0 0 1 1.38-2.07c.6-.6 1.32-1.06 2.13-1.34 1.1-.4 2.26-.61 3.44-.62l7.48-.1M18 0l-7.63.11C8.84.14 7.32.42 5.88.95 4.65 1.4 3.53 2.11 2.6 3.03 1.66 3.93.93 5.02.47 6.22c-.54 1.4-.83 2.88-.86 4.37l-.11 7.42.11 7.42c.03 1.49.32 2.97.86 4.37.46 1.2 1.19 2.29 2.13 3.19.92.92 2.04 1.62 3.28 2.08 1.44.52 2.96.81 4.49.84l7.63.11 7.63-.11c1.53-.03 3.05-.31 4.49-.84 2.49-.94 4.45-2.85 5.41-5.26.54-1.4.83-2.88.86-4.37l.11-7.42-.11-7.42c-.03-1.49-.32-2.97-.86-4.37-.46-1.2-1.19-2.29-2.13-3.19-.92-.92-2.04-1.62-3.28-2.08-1.44-.52-2.96-.81-4.49-.84L18 .01m0 8.75c-5.25 0-9.5 4.14-9.5 9.24 0 5.11 4.25 9.24 9.5 9.24s9.5-4.14 9.5-9.24h0c0-5.11-4.25-9.24-9.5-9.24M18 24c-3.41 0-6.17-2.69-6.17-6s2.76-6 6.17-6 6.17 2.69 6.17 6h0c0 3.31-2.76 6-6.17 6M30.1 8.39c0 1.19-.99 2.16-2.22 2.16s-2.22-.97-2.22-2.16.99-2.16 2.22-2.16h0c1.23 0 2.22.97 2.22 2.16"></path>
  </symbol>
  <symbol id="linkedin" viewBox="0 0 36 36">
    <path d="M.71 12h7.43v24H.71zm3.68-3.14c2.45.02 4.45-1.95 4.47-4.39C8.88 2.02 6.91.02 4.47 0 2.02-.02.02 1.95 0 4.39v.03c0 2.44 1.96 4.42 4.39 4.43M20.03 23.4c0-3.37 1.55-5.38 4.53-5.38 2.73 0 4.05 1.93 4.05 5.38V36h7.4V20.8c0-6.43-3.65-9.54-8.74-9.54a8.37 8.37 0 0 0-7.24 3.97V12H12.9v24h7.13V23.4z"></path>
  </symbol>
  <symbol id="building" viewBox="0 0 62 36">
    <path d="M53.33 16.01l5.66.29v10.88l-5.66.77V16.01zm-9.9-.48l7.14.36v12.36l-7.14.97V15.53zm-12.64-.62l9.26.47V29.6l-9.26 1.25V14.9zM2.52 28.93V7.07l22.8-4.1v30.07l-14.61-2.63V19.95l-5.64-.14v9.58l-2.55-.46zM27.79 0L0 5v26l27.79 5L62 29.92V6.08L27.79 0zm-4.76 7.48l-5.78.69v7.43l5.78-.15V7.47zm-7.65.92l-4.81.58v6.8l4.81-.12V8.41zM9 9.16l-4.07.49v6.27l4.07-.1V9.16z"></path>
  </symbol>
  <symbol id="vehicle" viewBox="0 0 48 36">
    <path d="M37.55 26.93c1.02-.01 1.86.81 1.87 1.83s-.81 1.86-1.83 1.87-1.86-.81-1.87-1.83c0-1.03.82-1.85 1.83-1.87m-5.08-8.15h10.17l-2.97-5.96h-7.21v5.96zM43.76 21H32.47v5.99c.92.11 1.6.88 1.6 1.8 0 .93.36 1.82 1.02 2.47h-.01c.66.66 1.55 1.03 2.47 1.02.91 0 1.78-.34 2.43-.97l.05-.06a3.45 3.45 0 0 0 1.03-2.42v-.05a1.86 1.86 0 0 1 1.84-1.86h1.39v-4.85l-.55-1.09zm.76 9.63h0a7.4 7.4 0 0 1-1.86 3.26l-.1.09a7.23 7.23 0 0 1-5 2c-1.9 0-3.72-.74-5.05-2.09h-.03c-.89-.9-1.53-2.03-1.86-3.26H19.76c-1 3.84-4.93 6.14-8.77 5.14-2.52-.66-4.49-2.62-5.14-5.14h-4C.83 30.63 0 29.81 0 28.79V1.83C0 .82.83 0 1.85 0h28.76c1.02 0 1.85.81 1.86 1.82v7.32h8.33c.76 0 1.44.45 1.73 1.15l5.26 10.55c.14.25.21.54.2.83H48v7.11c0 1.01-.81 1.84-1.82 1.84h-.02-1.64 0zM28.78 3.69H3.69v23.24h3.76a1.86 1.86 0 0 1 1.84 1.86c0 .93.37 1.82 1.02 2.47 1.36 1.37 3.57 1.38 4.94.02l.02-.02c.64-.64 1.01-1.51 1.02-2.42v-.05c0-1.02.83-1.84 1.85-1.86h10.63V3.69zM12.8 26.93h0c1.02 0 1.86.82 1.86 1.84a1.86 1.86 0 0 1-1.85 1.86 1.86 1.86 0 0 1-1.86-1.84 1.86 1.86 0 0 1 1.85-1.86"></path>
  </symbol>
  <symbol id="badge" viewBox="0 0 38 46">
    <path d="M5.9 29.94l-1.4-.44c-.83-.25-1.53-.8-1.95-1.54l-.08-.11c-.37-.71-.47-1.53-.31-2.31l.66-2.58-.05-.06-1.86-1.96c-.59-.62-.91-1.44-.92-2.28 0-.86.33-1.68.92-2.32l.08-.05 1.8-1.83-.03-.05-.61-2.66c-.19-.82-.06-1.69.39-2.41a3.36 3.36 0 0 1 1.95-1.55h.05l2.57-.76.82-2.61c.25-.82.81-1.51 1.57-1.93l.11-.07c.73-.36 1.56-.46 2.35-.27l2.62.63.08-.06L16.64.9C17.96-.3 20-.3 21.32.9l1.94 1.85 2.74-.6c.84-.21 1.73-.09 2.48.34s1.31 1.12 1.56 1.93l.74 2.55 2.7.82a3.37 3.37 0 0 1 1.96 1.55c.44.72.58 1.59.38 2.41l-.66 2.58.06.07 1.84 1.96a3.29 3.29 0 0 1 .93 2.29c0 .86-.34 1.68-.93 2.31l-.07.05-1.81 1.82.64 2.71a3.21 3.21 0 0 1-.38 2.42c-.43.74-1.13 1.29-1.96 1.54h-.05l-1.37.39 5.54 8.74a1.05 1.05 0 0 1-.37 1.45c-.25.15-.54.19-.82.11l-6.59-1.5-1.54 6.5c-.13.56-.69.91-1.26.79a1.21 1.21 0 0 1-.68-.46l-5.54-8.73a3.45 3.45 0 0 1-3.61 0l-5.54 8.73c-.16.22-.39.38-.66.46-.58.13-1.16-.22-1.3-.79l-1.54-6.5-6.55 1.5c-.3.08-.62.03-.88-.14-.49-.29-.65-.92-.35-1.41 0 0 0-.01.01-.02l5.51-8.69zm24.61 1.5h0l-.46 1.42a3.48 3.48 0 0 1-1.56 1.94 3.41 3.41 0 0 1-2.48.36l-2.62-.66-.08.08-.88.81 4.36 6.86 1.18-5.05a1.1 1.1 0 0 1 1.29-.8l5.14 1.17-3.89-6.12zm-14.95 3.92h0l-.84-.81-2.75.61a3.43 3.43 0 0 1-2.49-.37l-.1-.05c-.69-.44-1.2-1.1-1.45-1.87l-.45-1.45-3.91 6.15 5.15-1.18c.58-.11 1.15.24 1.3.8l1.17 5.05 4.37-6.88zm-4.22-29.8h0l-.82 2.56c-.14.47-.39.91-.74 1.27l-.11.1a2.92 2.92 0 0 1-1.41.84l-2.6.65.64 2.7c.27 1.08-.04 2.23-.83 3.03l-1.93 1.86 1.84 1.94.09.06c.38.41.65.89.8 1.43.14.53.15 1.09.03 1.62l-.65 2.56 2.62.81a3.07 3.07 0 0 1 1.3.71l.11.09c.4.39.69.88.85 1.41l.74 2.53 2.67-.6c.54-.14 1.11-.13 1.65.03a3.38 3.38 0 0 1 1.45.79L19 33.73l1.88-1.7.08-.09c.42-.37.92-.64 1.47-.78.53-.16 1.1-.17 1.64-.03l2.57.71.84-2.64c.16-.54.46-1.02.86-1.41a3.17 3.17 0 0 1 1.4-.8l2.59-.65-.61-2.72a2.82 2.82 0 0 1 0-1.47l.03-.15a3.37 3.37 0 0 1 .79-1.43l1.94-1.83-1.83-1.94-.1-.1c-.39-.39-.66-.87-.79-1.4a3.18 3.18 0 0 1-.03-1.62l.74-2.53-2.72-.82c-.54-.13-1.03-.42-1.4-.83-.41-.37-.71-.84-.86-1.37l-.66-2.55-2.75.61a3.45 3.45 0 0 1-1.5 0l-.15-.03a3.38 3.38 0 0 1-1.45-.79l-1.85-1.88-1.98 1.8-.08.09c-.41.37-.91.64-1.45.79-.54.16-1.11.17-1.65.03l-2.59-.62z"></path>
  </symbol>
  <symbol id="bed" viewBox="0 0 48 36">
    <path d="M46.64 16.38l-.41-3.44-.31-2.45c-.27-2.51.07-5.05.97-7.39.23-.59-.04-1.27-.6-1.51a1.09 1.09 0 0 0-.9.04 9.15 9.15 0 0 1-1.57.62c-2.01.52-4.08.77-6.16.74-4.6 0-8.68-2.98-13.63-2.98s-8.39 2.3-12.85 2.84c-2.34.25-4.7.06-6.97-.59a7.38 7.38 0 0 1-1.55-.62c-.54-.29-1.2-.08-1.48.48 0 0 0 .02-.01.03-.16.29-.18.65-.05.96a15.45 15.45 0 0 1 .97 7.38c-.08.78-.2 1.59-.29 2.45a50.54 50.54 0 0 0-.42 3.46c-.82.2-1.38.97-1.38 1.85v12.11c0 1.06.83 1.93 1.85 1.94h2.56v2.57c.02.63.51 1.12 1.11 1.13h4.14c.61 0 1.11-.5 1.13-1.13V32.3h26.47v2.57c.01.62.49 1.12 1.09 1.13h4.14c.6 0 1.09-.5 1.11-1.13V32.3h2.56c1.02-.01 1.84-.88 1.85-1.94V18.25c0-.87-.56-1.64-1.36-1.87M8.54 33.7H6.63v-1.41h1.91v1.41zm32.86 0h-1.94v-1.41h1.94v1.41zm2.91-5.27H3.69v-8.26H44.3v8.26zm-23.5-13.72h0v1.35s-.02.07-.04.09v.03s-.07.03-.11.03H8.46s-.07 0-.1-.03l-.03-.03h.03s-.05-.06-.05-.09v-1.35s.03-.08.05-.08v-.03s.05-.03.1-.03h12.2a.53.53 0 0 0 .11.03v.03s.04.04.04.08m18.87 0h0v1.35s-.01.06-.03.09l-.03.03s-.05.03-.08.03H27.33c-.05 0-.07-.03-.1-.03v-.03s-.05-.06-.05-.09v-1.35s.03-.08.05-.08l.03-.03s.03-.03.07-.03h12.22a.53.53 0 0 0 .11.03v.03s.03.04.03.08m2.19 1.6h0v-.25l.01-1.35c0-.65-.24-1.27-.69-1.72-.43-.47-1.03-.73-1.65-.71H27.34a2.34 2.34 0 0 0-1.6.63l-.07.08a2.41 2.41 0 0 0-.68 1.72v1.6h-1.98v-.25l.01-1.35c0-1.35-1.06-2.44-2.36-2.43H8.46c-.59-.01-1.17.21-1.6.63l-.06.08a2.41 2.41 0 0 0-.68 1.72v1.6H3.6c.08-1.05.22-2.06.37-3.07.1-.83.23-1.64.31-2.52a19.1 19.1 0 0 0-.37-6.17 20.35 20.35 0 0 0 7.49.59c4.38-.51 8.02-2.83 12.61-2.83 4.94 0 8.92 2.98 13.63 2.98 2.17.04 4.34-.21 6.45-.74-.46 2.02-.59 4.11-.37 6.17.08.89.21 1.69.31 2.52.13 1.01.28 2.02.36 3.07h-2.51z"></path>
  </symbol>
  <symbol id="card" viewBox="0 0 42 40">
    <path d="M13.35 32.15a.98.98 0 0 0-.97 1.01v1.82c0 .55.44.99.97.98.52 0 .95-.42.96-.95v-.03-1.82c.01-.54-.4-.99-.93-1h-.03M19.6 22h-6.2a.99.99 0 0 0-.97.99v6.31c0 .55.44 1 .97 1.01h6.2c.54 0 .98-.45.98-1.01v-6.31c0-.55-.44-.99-.98-.99m-.98 6.32h-4.28v-4.35h4.28v4.35zm.13 3.83h0a.98.98 0 0 0-.97 1.01v1.82c0 .55.44.99.97.99.54 0 .97-.44.97-.99v-1.82a1 1 0 0 0-.97-1.01m-2.71 0h0c-.53.01-.96.46-.95 1.01v1.82c-.02.54.4.99.93 1.01s.98-.41.99-.95v-.06-1.82c0-.55-.42-1-.96-1m15.65-.01h0c-.53 0-.97.45-.96.99v1.83c0 .54.43.98.96.98s.96-.44.97-.98h0v-1.82c0-.55-.42-.99-.95-1m2.67 0h0c-.53 0-.96.46-.95 1v1.82c-.02.54.4.99.93 1.01s.98-.41.99-.95v-.06-1.82c0-.55-.42-1-.96-1m2.71 0h0a.98.98 0 0 0-.97.98v.03 1.82c-.02.54.4.99.93 1.01s.98-.41.99-.95v-.06-1.82c.01-.54-.41-.99-.94-1m3.97-17.37h0a3.13 3.13 0 0 0-2.35-1.07h-2.08L29.99 1.91c-.04-.11-.1-.22-.18-.32A3.48 3.48 0 0 0 27.96.15a3.11 3.11 0 0 0-2.41.19c-.1.03-.19.08-.27.14L1.66 14.38l-.08.04c-.77.47-1.32 1.24-1.51 2.14v.02c-.17.86-.03 1.76.41 2.53l7.5 13.25v4.16c0 .89.33 1.74.91 2.41.6.69 1.46 1.08 2.36 1.08h27.49a3.09 3.09 0 0 0 2.35-1.08c.59-.66.91-1.52.91-2.41V17.19c0-.89-.32-1.75-.91-2.41M7.98 17.19h0v8.6l-4.71-8.34a.34.34 0 0 1-.03-.2h-.05.05l.03-.03 23.7-13.94c.07.03.12.09.16.15l.02.04 5.8 10.25h-21.7c-1.84.05-3.3 1.6-3.27 3.48m30.79 19.32h0a.33.33 0 0 1-.06.19H11.27c-.03-.06-.04-.12-.03-.19V17.08l.01-.05h.02v-.02h27.45c.03.06.05.12.06.19v19.32zm-10.83-4.37h0c-.54 0-.98.44-.99.99v1.83c0 .54.43.98.97.98.55 0 .97-.44.97-.97v-1.83c.01-.54-.41-.99-.95-1m-2.71 0h0a.98.98 0 0 0-.97 1.01v1.82c0 .55.44.99.97.98.53 0 .96-.44.96-.98v-1.82c0-.55-.42-1-.96-1m-2.71-.01h0a.98.98 0 0 0-.97 1.01v1.82c0 .54.43.98.96.98s.96-.42.97-.95v-.03-1.82c.01-.54-.4-.99-.93-1h-.03"></path>
  </symbol>
  <symbol id="star" viewBox="0 0 40 38">
    <path d="M13.51 22.95l-6.49-6.32 8.97-1.3L20 7.21l4.01 8.12 8.97 1.3-6.49 6.32 1.53 8.92L20 27.66l-8.03 4.21 1.53-8.92zM20 0l-6.18 12.51L0 14.52l10 9.73L7.64 38 20 31.51 32.36 38 30 24.25l10-9.73-13.82-2.01L20 0z"></path>
  </symbol>
  <symbol id="rating" viewBox="0 0 25 24">
    <path d="M14.12 1.01l2.46 5c.26.53.77.9 1.36.99l5.51.8c.99.15 1.67 1.07 1.53 2.06-.06.39-.24.76-.53 1.03l-3.99 3.89c-.43.42-.62 1.01-.52 1.6l.94 5.5c.17.99-.49 1.92-1.47 2.09-.39.07-.8 0-1.15-.18l-4.93-2.59c-.53-.28-1.16-.28-1.68 0l-4.93 2.59c-.88.47-1.98.13-2.44-.76-.19-.35-.25-.76-.18-1.15l.94-5.5c.1-.59-.09-1.18-.52-1.6l-3.98-3.89c-.72-.7-.73-1.84-.03-2.56.28-.28.64-.47 1.03-.53l5.51-.8c.59-.09 1.1-.46 1.36-.99l2.46-5c.44-.9 1.53-1.27 2.42-.82.36.18.65.47.82.82"></path>
  </symbol>
  <symbol id="sleep" viewBox="0 0 200 84">
    <path d="M45.61 46.37c1.43-.45 2.27-.3 2.51.45l.03.12c.31 1-.71 3.57-3.04 7.73-1.82 3.89-3.18 6.95-4.07 9.17a2.11 2.11 0 0 1-.12.79c.05-.02.11 0 .13.05v.03l9.83-3.5c1.13-.09 1.8.19 2.01.85l.11.34c.3.97-.27 1.79-1.73 2.43-.85.36-1.96.76-3.35 1.2l-1.36.43c-1.89.6-4.57 1.42-8.06 2.43-.91.09-1.76-.47-2.03-1.35-.18-.6.34-2.36 1.58-5.26 1.63-4.26 3.26-8.16 4.89-11.68-.57.18-1.15.32-1.73.44l-6.17 2.08c-1.4.28-2.25-.04-2.54-.94-.27-.85 1.05-1.81 3.95-2.88l9.13-2.91zm34.21-13.89c2.39-.56 3.74-.22 4.03 1.04l.04.2c.37 1.66-1.59 5.73-5.9 12.18-3.44 6.11-6.02 10.91-7.74 14.4-.01.44-.11.87-.3 1.27.12-.03.19.03.23.16l16.42-4.47c1.85 0 2.9.54 3.16 1.64l.13.57c.38 1.62-.66 2.87-3.1 3.73-1.42.48-3.28.98-5.59 1.52l-2.26.53c-3.15.75-7.62 1.73-13.41 2.96-1.49.03-2.8-.99-3.14-2.45-.23-1.01.84-3.79 3.22-8.36 3.18-6.73 6.31-12.86 9.4-18.39-.95.21-1.91.37-2.87.49l-10.29 2.61c-2.32.29-3.65-.33-4.01-1.85-.33-1.41 1.93-2.81 6.78-4.19l15.21-3.59zm48.95-16.2c3.53-.53 5.44.13 5.71 1.99l.04.29c.34 2.46-2.99 8.11-10 16.95-5.71 8.43-10.01 15.07-12.92 19.93a4.65 4.65 0 0 1-.59 1.81c.18-.03.28.06.3.25l24.33-4.51c2.68.21 4.14 1.12 4.38 2.75l.13.84c.35 2.4-1.29 4.08-4.94 5.04-2.11.52-4.87 1.03-8.28 1.54l-3.34.5c-4.65.7-11.24 1.59-19.78 2.67-2.52-.46-3.94-1.77-4.26-3.93-.22-1.49 1.66-5.4 5.65-11.73 5.41-9.37 10.67-17.88 15.8-25.52-1.4.19-2.8.32-4.21.36l-15.23 2.56c-3.4.13-5.26-.92-5.59-3.16-.31-2.08 3.13-3.84 10.32-5.26l22.48-3.38zM186.14.17c4.67-.59 7.16.34 7.47 2.79l.05.38c.38 3.25-4.17 10.59-13.67 22.02-7.76 10.93-13.63 19.55-17.6 25.87a6.26 6.26 0 0 1-.82 2.37c.23-.03.36.08.39.34l32.18-5.22c3.52.35 5.42 1.61 5.69 3.76l.14 1.11c.4 3.17-1.82 5.34-6.65 6.49-2.8.61-6.45 1.21-10.96 1.78l-4.42.56-26.12 2.93c-3.31-.69-5.14-2.45-5.5-5.3-.24-1.97 2.35-7.06 7.79-15.28 7.39-12.18 14.58-23.23 21.55-33.15-1.85.22-3.7.34-5.56.35l-20.13 2.91c-4.47.07-6.9-1.37-7.27-4.34-.35-2.76 4.24-4.96 13.74-6.62l29.7-3.75zM25.47 68.88c0-3.19-2.57-5.77-5.74-5.77S13.99 65.7 14 68.89c0 3.19 2.57 5.77 5.74 5.77s5.73-2.58 5.73-5.77h0M7.1 80.43c0-1.97-1.59-3.57-3.55-3.57S0 78.45 0 80.43 1.59 84 3.55 84s3.55-1.6 3.55-3.57"></path>
  </symbol>
  <symbol id="download" viewBox="0 0 24 24">
    <path d="M23.07 24H.93a.93.93 0 0 1-.93-.93c0-.51.42-.93.93-.93h22.13a.93.93 0 0 1 .93.93c0 .51-.42.93-.93.93zM12 17.5a.93.93 0 0 1-.93-.93V.93c0-.51.42-.93.93-.93s.93.42.93.93v15.64c0 .51-.42.93-.93.93z"></path>
    <path d="M12 17.5h0c-.25 0-.48-.1-.66-.27l-6.21-6.2c-.36-.36-.36-.95 0-1.32.36-.36.95-.36 1.32 0L12 15.25l5.55-5.54c.36-.36.95-.36 1.32 0s.36.95 0 1.32l-6.21 6.2a.94.94 0 0 1-.66.27z"></path>
  </symbol>
  <symbol id="a" viewBox="0 0 30 30">
    <path d="M1.41 15.31l.25-1.78L9.5 4.87l-5.91-.83.36-2.63 9.81 1.37-.25 1.82-7.81 8.63 6.58.92-.36 2.63-10.5-1.47zM2.89 0l-.71 5.11L7 5.78.47 12.98 0 16.38l12.97 1.82.71-5.11-5.47-.77 6.48-7.16.48-3.44L2.89 0zm13.22 26.81l-10.88-3.7.98-2.92 2.44-1.85.75 1-2.13 1.61-.46 1.37 8.52 2.9.68-2.01-5.51-1.87 8.12-6.15.47-1.4-7.67-2.6.4-1.18 8.85 3.01-.99 2.95-6.55 4.95 4.45 1.51-1.47 4.38zm3.69-7.56l6.93-1.44.2 1-3.95 7.96 5.29-1.1.27 1.39-6.92 1.44-.23-1.16 3.3-7.67-4.63.96-.27-1.39zm-1.46-.97l.76 3.85 3.51-.73-2.51 5.82.55 2.78L30 28.05l-.76-3.85-4.01.83 3-6.04-.52-2.66-9.37 1.95z"></path>
  </symbol>
  <symbol id="b" viewBox="0 0 30 30">
    <path d="M14.35 13.34h-1.3v-.67c0-1.77-1.54-2.67-4.56-2.67s-4.57.9-4.57 2.67v.67h-1.3v-.67c0-1.49.76-4 5.87-4s5.87 2.51 5.87 4v.67zm13.04 0h-1.3v-.67c0-1.77-1.54-2.67-4.57-2.67s-4.57.9-4.57 2.67v.67h-1.31v-.67c0-1.49.76-4 5.87-4s5.87 2.51 5.87 4v.67zM30 28h-3.63l-1.96-3.33H5.59L3.63 28H0V14.67h30V28zm-2.89-1.33h1.59V16H1.3v10.67h1.59l1.96-3.33h20.3l1.96 3.34zM30 13.34h-1.3V5.15A46 46 0 0 0 15 3.34 46 46 0 0 0 1.3 5.15v8.19H0V4.21l.43-.16A45.29 45.29 0 0 1 15 2.01c4.93-.11 9.85.58 14.57 2.04l.43.16v9.13z"></path>
  </symbol>
</svg>