<svg xmlns="http://www.w3.org/2000/svg" viewBox="0 0 88 50"><path d="M22.87 20.14c1.26.03 5.24-3.65 5.36-4.95 0-.19-.09-.34-.24-.34-.53-.01-2.63 1.1-5.13 5.29zM88 28.21c-.01.63-.17 1.01-.6 1-.77-.02-1.09-5.37-7.12-5.5S66.22 29.3 61.64 29.2c-2.6-.06-4.39-2.07-4.33-4.96.01-.55.05-1.1.13-1.64-.25.48-3.53 7.46-7.1 7.37-2.11-.03-3.82-1.73-3.87-3.85 0-.1.02-.2.02-.3-1.32 1.58-2.73 2.85-3.89 2.83-1.64 0-2.97-1.31-2.98-2.95v-.2c.04-.63.13-1.26.28-1.87-.69.66-4.06 5.22-6.57 5.16-2.03-.18-3.63-1.8-3.77-3.83-2.07 2.08-4.41 3.9-6.17 3.87-2.99-.06-5.8-1.95-5.72-5.76.13-6.07 6.11-10.63 9.53-10.56a3.54 3.54 0 0 1 2.78 3.19c-.12 3.14-3.71 6.58-6.27 6.53a4.41 4.41 0 0 1-1.53-.56 8.22 8.22 0 0 0-.69 3.31c-.03 1.45.49 1.94 1.12 1.95 2.47.05 5.57-2.73 7.99-5.5 2.14-3.71 7.01-6.71 9.51-7.63a7.29 7.29 0 0 1 3.15-.71 2.84 2.84 0 0 1 2.22 2.12c0 .38-.64.56-2 1.11-4.53 1.84-10.13 6.54-10.19 9.48 0 .33.13.63.47.64 1.16.03 6.75-6.51 8.62-8.6.49-.52.74-.66 1.13-.65.96.23 1.64 1.08 1.65 2.06-.03 1.35-2.6 4.39-2.65 6.84 0 .33.14.48.33.49 1.06.03 3.78-3.67 5.59-6.19 1.56-2.75 3.63-5.46 4.6-8.16.08-.26.31-.45.59-.47.97.02 2.14 1.4 2.1 3.13-.04 2.07-4.42 8.3-4.5 11.82 0 .43.23.68.56.69.77.02 2.36-2.02 5.16-6.69 2.45-4.09 2.89-6.59 4.23-6.57 1.23.18 2.16 1.21 2.22 2.46-.04 1.98-2.33 4.92-2.41 9.26-.02.91.45 1.65 1.36 1.67 2.32.05 10.49-7.93 17.82-7.77 5.35.11 7.9 4.94 7.83 8.46h.03zm-73.98-9.32c-.06.35-.2.67-.4.96-2.1 3.77-6.69 10.9-9.39 10.85-1.7-.03-4.31-1.92-4.23-5.83.18-8.49 6.74-19.31 9.58-23.83C9.93.46 10.37 0 10.76 0c.58.01 1.8 1.58 1.73 2.83-.28 1.1-.69 2.16-1.22 3.16-2.94 6.59-7.33 15.49-7.46 21.8-.01.63.32.97.71.98 1.26.03 5.34-6.11 8.28-10.39.2-.23.3-.38.44-.38.44.08.77.44.81.88h-.01z" fill="#1f82c0"/><path d="M20.41 8.76c.24-2.23-.87-3.96-2.2-4.1a2.69 2.69 0 0 0-2.33 2.39c-.16 1.43 1.51 2.27 1.44 2.91s-1.08 1.8-1.13 2.24c-.03.37.24.69.61.72.9.09 3.35-1.92 3.59-4.15h0zM5.22 38.98c0-1.23-.46-1.86-1.5-1.86h-.85v3.72h.85c1.04 0 1.49-.63 1.49-1.86zm1.64 0a2.73 2.73 0 0 1-2.36 3.06c-.21.03-.41.03-.62 0H1.27V35.9h2.6c1.5-.15 2.84.95 2.99 2.45a3.21 3.21 0 0 1 0 .62h0zm3.01-2.15a1.99 1.99 0 0 1-1.29 1.87l-.7-.5a1.86 1.86 0 0 0 1.16-1L9 37.18c-.08.08-.18.11-.29.1-.41.01-.76-.31-.77-.72v-.06a.84.84 0 0 1 .8-.88h.14c.68 0 1.01.53 1.01 1.2h0zm1.25-.92h1.6v6.14h-1.6v-6.14zm7.88 4.9v1.24h-4.68V35.9h1.6v4.9H19zm6.06 0v1.24h-4.9V35.9h4.79v1.24h-3.18v1.25h2.53v1.16h-2.53v1.26h3.3zm1.04-1.9h3.41v1.29H26.1v-1.29zm9.02.07c0-1.23-.46-1.86-1.5-1.86h-.85v3.72h.85c1.04 0 1.5-.63 1.5-1.86zm1.64 0a2.73 2.73 0 0 1-2.36 3.06c-.21.03-.41.03-.62 0h-2.6V35.9h2.6c1.5-.15 2.84.95 2.99 2.45a3.21 3.21 0 0 1 0 .62h0zM43 40.81v1.24h-4.9V35.9h4.79v1.24H39.7v1.25h2.53v1.16H39.7v1.26H43zm1.04-1.9h3.41v1.29h-3.41v-1.29zm6.68-1.76v1.31h2.53v1.24h-2.53v2.36h-1.6v-6.15h4.78v1.24h-3.17zm5.91 1.52h1.09c.68 0 .98-.23.98-.78s-.3-.77-.98-.77h-1.09v1.55zm.95 1.14h-.96v2.24h-1.57v-6.14h2.93c1.48 0 2.32.69 2.32 1.95.06.8-.43 1.53-1.19 1.78l1.55 2.41h-1.77l-1.31-2.25zm7.31-.23l-.45-1.47-.27-.97h-.02l-.25.96-.46 1.48h1.45zm.33 1.08H63.1l-.43 1.39h-1.61l2.16-6.15h1.91l2.15 6.15h-1.65l-.42-1.39h0zm8.56 1.39H72l-1.91-3.33-.46-.93h0l.04 1.16v3.1h-1.42V35.9h1.78l1.91 3.33.46.93h0L72.36 39v-3.1h1.42v6.14zm4.34.09a3.17 3.17 0 0 1-2.98-3.35c.09-1.6 1.37-2.89 2.97-2.98 1.17-.14 2.27.57 2.62 1.69l-1.4.57c-.18-.76-.53-1.01-1.16-1.01-.9 0-1.42.65-1.42 1.91s.49 1.91 1.4 1.91a1.12 1.12 0 0 0 1.22-1l1.45.4c-.33 1.19-1.46 1.97-2.69 1.85zm8.73-1.33v1.24h-4.9V35.9h4.79v1.24h-3.19v1.25h2.53v1.16h-2.53v1.26h3.3zM4.6 46.52l-.51.46a1.11 1.11 0 0 0-1.16-.72c-.6 0-.92.27-.92.62 0 .33.26.51 1.08.66 1.13.2 1.54.54 1.54 1.22 0 .75-.68 1.22-1.67 1.22-.71.07-1.41-.26-1.81-.85l.48-.48c.25.49.77.78 1.32.74.6 0 .97-.21.97-.6 0-.3-.25-.47-1.05-.62-1.15-.22-1.58-.56-1.58-1.23 0-.71.61-1.29 1.63-1.29.67-.05 1.32.28 1.68.85h0zm2.61 1.81c0 .72.32 1.12.9 1.12s.91-.4.91-1.12-.33-1.12-.91-1.12-.9.4-.9 1.12zm2.48 0c-.04.87-.77 1.55-1.65 1.52-.87-.04-1.55-.77-1.52-1.65.04-.85.73-1.52 1.58-1.52a1.49 1.49 0 0 1 1.59 1.38v.28zm4.92-1.59v3.17h-.6l-.03-.51c-.23.4-.67.62-1.13.58-.57.06-1.08-.36-1.14-.93v-.22-2.09h.68v1.91c0 .59.25.77.66.77.47.02.87-.34.9-.81v-.15-1.72h.68zm4.2.01l-.1.62a.85.85 0 0 0-1.13.4c-.07.15-.1.31-.08.47v1.68h-.68v-3.17h.58l.06.56a.99.99 0 0 1 1-.63 1.03 1.03 0 0 1 .35.06h0zm4.59.82l-.64.25c-.06-.36-.38-.62-.74-.6-.56 0-.9.4-.9 1.12s.33 1.11.9 1.11a.72.72 0 0 0 .78-.62l.62.21c-.18.6-.76 1-1.39.95a1.66 1.66 0 0 1-1.59-1.72c.03-.86.72-1.55 1.57-1.59.61-.05 1.18.31 1.38.89zm2.52.5h1.71c0-.47-.39-.86-.86-.85a.85.85 0 0 0-.85.85zm2.31.52h-2.32c.01.49.41.87.9.86a.8.8 0 0 0 .83-.43l.56.23c-.26.5-.8.8-1.37.74a1.49 1.49 0 0 1-1.6-1.37v-.28a1.46 1.46 0 0 1 1.26-1.64c.1-.01.2-.02.29 0 .76-.06 1.42.52 1.48 1.28v.28c0 .12 0 .24-.02.35h0zm7.69-.21v-.07c0-.66-.35-1.06-.88-1.06s-.88.41-.88 1.1.33 1.11.88 1.11.88-.41.88-1.08zm.68-3.06v4.6H36l-.04-.57c-.2.4-.62.65-1.08.64-.87 0-1.4-.61-1.4-1.65s.54-1.66 1.41-1.66a1.11 1.11 0 0 1 1.02.58v-1.94h.69 0zm2.73 2.75h1.71c0-.47-.39-.86-.86-.85a.85.85 0 0 0-.85.85zm2.32.52h-2.32a.88.88 0 0 0 .9.86h.02c.33.05.66-.13.81-.43l.56.23c-.26.5-.8.8-1.37.74a1.49 1.49 0 0 1-1.6-1.37v-.28a1.46 1.46 0 0 1 1.26-1.64c.1-.01.19-.02.29 0 .76-.05 1.42.52 1.48 1.28v.28c0 .12 0 .24-.02.35h0zm8.2-1.02l-.64.25c-.06-.36-.38-.62-.74-.6-.56 0-.9.4-.9 1.12s.33 1.11.9 1.11a.72.72 0 0 0 .78-.62l.62.21c-.18.61-.76 1-1.39.95a1.66 1.66 0 0 1-1.59-1.72c.03-.86.72-1.55 1.57-1.59.61-.05 1.18.31 1.38.89zm2.52.76c0 .72.32 1.12.9 1.12s.91-.4.91-1.12-.33-1.12-.91-1.12-.9.4-.9 1.12zm2.48 0c-.04.87-.77 1.55-1.65 1.52-.87-.04-1.55-.77-1.52-1.65.04-.85.73-1.52 1.58-1.52a1.49 1.49 0 0 1 1.59 1.37v.28zm4.95-.47v2.06h-.68v-1.84c0-.63-.29-.84-.68-.84-.42 0-.87.27-.87 1v1.68h-.68v-3.18h.6l.03.53c.21-.4.63-.63 1.08-.6a1.1 1.1 0 0 1 1.19 1v.18.02zm3.11-1.11h1.03v.53h-1.01v2.64h-.68v-2.64h-.6v-.53h.6v-.45c-.03-.54.38-.99.92-1.02h.2c.21-.01.42.04.6.15l-.13.49a.59.59 0 0 0-.36-.09c-.36 0-.56.16-.56.51v.41h-.01zm3.94 3.17h-.68v-3.17h.68v3.17zm-.79-4.14c-.01-.22.16-.41.38-.42h.08c.22-.03.42.12.45.34v.08c.02.22-.15.41-.37.43h-.08c-.22.03-.42-.12-.45-.34v-.08h0zm4.83 3.09v-.38l-.69.14c-.43.08-.65.23-.65.48 0 .23.18.36.48.36.43 0 .87-.22.87-.61zm1.15.59l-.04.46c-.13.05-.26.08-.4.07-.31.05-.6-.17-.65-.48-.26.33-.66.51-1.08.48-.6 0-1.04-.28-1.04-.83 0-.49.4-.85 1.24-1l.81-.15v-.17c.02-.33-.22-.61-.54-.63h-.11c-.38-.03-.73.21-.82.58l-.53-.28c.21-.55.75-.89 1.34-.83.79 0 1.34.37 1.34 1.13v1.44a.19.19 0 0 0 .23.23c.08 0 .16 0 .23-.03h.01zm4.77-1.6v2.06h-.68v-1.84c0-.63-.29-.84-.68-.84-.42 0-.87.27-.87 1v1.68h-.68v-3.18h.6l.03.53c.21-.4.63-.63 1.08-.6.61-.05 1.14.39 1.19 1v.18.02zm4.99-.29l-.64.25c-.06-.36-.38-.62-.74-.6-.56 0-.9.4-.9 1.12s.34 1.11.9 1.11a.72.72 0 0 0 .78-.62l.62.21c-.18.6-.76 1-1.39.95a1.66 1.66 0 0 1-1.59-1.72c.03-.86.72-1.55 1.57-1.59.61-.05 1.18.31 1.38.89zm2.52.5h1.71c0-.47-.39-.86-.86-.85a.85.85 0 0 0-.85.85zm2.32.52h-2.33a.88.88 0 0 0 .9.86.8.8 0 0 0 .83-.43l.56.23c-.26.5-.8.8-1.37.74a1.49 1.49 0 0 1-1.6-1.37v-.28a1.46 1.46 0 0 1 1.26-1.64c.1-.01.2-.02.29 0 .76-.06 1.42.52 1.48 1.28v.28c0 .12 0 .24-.03.35h0z" fill="#002045"/></svg>