<svg xmlns="http://www.w3.org/2000/svg" viewBox="0 0 116 52"><path d="M18.13 32.9c-1.03.03-2.06-.18-3-.6a4.51 4.51 0 0 1-1.93-1.79c-.47-.87-.7-1.85-.66-2.84-.03-.99.21-1.97.68-2.84.45-.77 1.11-1.39 1.91-1.77.88-.43 1.86-.64 2.84-.62.97-.03 1.93.18 2.8.62.75.37 1.36.96 1.77 1.69.43.78.64 1.65.62 2.54a5.07 5.07 0 0 1-.04.68c0 .2-.03.39-.06.58h-7.91v-1.77h6.14l-1.93.75a3.81 3.81 0 0 0-.32-1.73c-.2-.4-.62-.64-1.07-.6a1.57 1.57 0 0 0-.89.24c-.26.2-.44.49-.52.81a5.77 5.77 0 0 0-.16 1.49c-.02.5.05 1 .2 1.47.11.31.32.56.6.72a2.14 2.14 0 0 0 .97.2 1.72 1.72 0 0 0 1.01-.26 1.39 1.39 0 0 0 .52-.72l3.26.97c-.16.61-.5 1.15-.99 1.55-.51.43-1.1.75-1.73.95-.69.2-1.4.31-2.11.3zM5.54 30a1.2 1.2 0 0 0 .75-.26c.22-.21.39-.49.46-.79a4.15 4.15 0 0 0 .18-1.31 4.09 4.09 0 0 0-.16-1.25 1.55 1.55 0 0 0-.46-.79c-.21-.18-.49-.27-.77-.26-.42-.01-.82.18-1.07.52a3.02 3.02 0 0 0-.38 1.79c-.05.63.08 1.26.38 1.81a1.25 1.25 0 0 0 1.07.52h0zm-1.57 2.9a3.72 3.72 0 0 1-2.13-.6c-.62-.45-1.1-1.08-1.37-1.79-.33-.9-.49-1.85-.46-2.8-.03-.97.14-1.93.48-2.84.27-.73.76-1.36 1.39-1.81.64-.42 1.39-.64 2.15-.62.84-.05 1.66.29 2.24.91.56.64.92 1.43 1.03 2.28l-.36.5V18.5h4.07v14.22H7.34l-.24-3.77.46.46c-.07.65-.27 1.27-.6 1.83a3.35 3.35 0 0 1-2.98 1.67h0zm103.36-18.13c-1.03.03-2.06-.18-3-.6a4.51 4.51 0 0 1-1.93-1.79c-.47-.87-.7-1.85-.66-2.84-.03-.99.21-1.97.68-2.84.45-.77 1.11-1.39 1.91-1.77.88-.43 1.86-.64 2.84-.62.97-.03 1.93.18 2.8.62.75.37 1.36.96 1.77 1.69.43.78.64 1.65.62 2.54a5.07 5.07 0 0 1-.04.68 5.42 5.42 0 0 1-.06.58h-7.91V8.65h6.14l-1.93.75a3.81 3.81 0 0 0-.32-1.73c-.2-.4-.62-.64-1.07-.6a1.57 1.57 0 0 0-.89.24c-.26.2-.44.49-.52.81a5.77 5.77 0 0 0-.16 1.49c-.02.5.05 1 .2 1.47.11.31.32.56.6.72a2.14 2.14 0 0 0 .97.2 1.72 1.72 0 0 0 1.01-.26 1.39 1.39 0 0 0 .52-.72l3.26.97c-.16.61-.5 1.15-.99 1.55-.51.43-1.1.75-1.73.95-.69.2-1.4.31-2.11.3h0zm-14.29 0c-.61.01-1.23-.1-1.79-.34a2.61 2.61 0 0 1-1.17-1.13c-.29-.64-.43-1.33-.4-2.03V4.5h4.07v5.82c-.04.38.06.77.28 1.09a1.03 1.03 0 0 0 .83.32c.18 0 .36-.03.52-.1a1.1 1.1 0 0 0 .4-.34c.13-.17.22-.37.26-.58.07-.28.11-.56.1-.85V4.5h4.07v10.07h-3.65l-.1-2.01a3.58 3.58 0 0 1-1.33 1.67 3.77 3.77 0 0 1-2.1.54h0zm-10.76-2.92a1.2 1.2 0 0 0 .75-.26c.24-.21.4-.48.48-.79a4.31 4.31 0 0 0 .16-1.29c.01-.44-.05-.87-.18-1.29-.07-.3-.24-.56-.46-.77-.21-.18-.47-.27-.75-.26-.42-.01-.82.18-1.07.52-.51 1.15-.51 2.47 0 3.62a1.27 1.27 0 0 0 1.07.5h0zm1.39 6.95v-7.81l.38.54c-.07.59-.26 1.16-.56 1.67-.27.47-.65.86-1.11 1.15a3.08 3.08 0 0 1-1.65.42 3.66 3.66 0 0 1-2.13-.62 4.02 4.02 0 0 1-1.37-1.81c-.34-.91-.51-1.87-.48-2.84-.03-.96.14-1.92.48-2.82a3.8 3.8 0 0 1 1.39-1.75c.63-.42 1.38-.64 2.13-.62.64-.02 1.27.16 1.81.5a3.35 3.35 0 0 1 1.21 1.35 4.68 4.68 0 0 1 .54 1.97l-.46.42.2-4.05h3.69v14.3h-4.07zM75.11 4.5v10.07h-4.06V4.5h4.06zm-2.03-.88c-.61.05-1.23-.1-1.75-.42-.38-.35-.57-.86-.52-1.37-.05-.52.14-1.03.52-1.39.52-.33 1.14-.47 1.75-.42a2.83 2.83 0 0 1 1.73.42 1.66 1.66 0 0 1 .54 1.39 1.61 1.61 0 0 1-.54 1.37 2.7 2.7 0 0 1-1.73.42h0zM62.26 14.57V4.5h3.65l.12 2.36c.18-.71.55-1.36 1.07-1.87.53-.47 1.22-.71 1.93-.68.23 0 .46.02.68.08a.86.86 0 0 1 .38.16l-.36 3.3a3.34 3.34 0 0 0-.52-.14 4.74 4.74 0 0 0-.75-.06c-.37 0-.75.07-1.09.22a1.82 1.82 0 0 0-.77.66c-.2.33-.3.71-.28 1.09v4.95h-4.07zm-7.17-2.7a1.26 1.26 0 0 0 1.07-.52 3.16 3.16 0 0 0 .38-1.81c.06-.62-.08-1.25-.38-1.79a1.25 1.25 0 0 0-1.07-.52c-.28 0-.55.1-.77.28-.22.21-.39.49-.46.79-.11.41-.17.83-.16 1.25a4.48 4.48 0 0 0 .16 1.31c.09.29.26.56.48.77.21.17.47.27.75.26zm1.55 2.9a3.32 3.32 0 0 1-1.79-.48c-.51-.34-.94-.8-1.23-1.35-.32-.61-.51-1.27-.56-1.95l.36-.48-.22 4.07h-3.56V.35h4.07v7.63l-.36-.54a4.34 4.34 0 0 1 1.07-2.24 3.14 3.14 0 0 1 2.4-.91c.72-.01 1.43.21 2.01.62a3.94 3.94 0 0 1 1.33 1.81c.34.91.51 1.87.48 2.84.02.96-.14 1.91-.48 2.8-.26.72-.74 1.35-1.37 1.79-.63.42-1.38.63-2.13.6h0zM43.41 8.23a1.27 1.27 0 0 0-.3-.89c-.21-.24-.53-.37-.85-.34-.32 0-.64.09-.91.28a1.54 1.54 0 0 0-.46 1.07l-3.44-.62a3.54 3.54 0 0 1 1.47-2.5 6.09 6.09 0 0 1 3.62-.93 6.92 6.92 0 0 1 2.7.46 3.34 3.34 0 0 1 1.65 1.31 3.8 3.8 0 0 1 .54 2.07v3.38c0 .54.25.81.75.81.16 0 .32-.02.46-.08l-.2 2.2a3.74 3.74 0 0 1-1.65.32c-.52 0-1.04-.08-1.53-.26-.42-.17-.78-.45-1.05-.81a2.21 2.21 0 0 1-.38-1.37v-.16l.4-.06c0 .52-.17 1.02-.5 1.41a3.06 3.06 0 0 1-1.29.93c-.56.22-1.15.33-1.75.32a4.4 4.4 0 0 1-1.79-.32 2.5 2.5 0 0 1-1.15-.93 2.61 2.61 0 0 1-.38-1.47 2.51 2.51 0 0 1 .66-1.81c.57-.53 1.29-.86 2.05-.97l3.65-.77-.02 1.71-1.49.34c-.28.04-.54.16-.75.34-.16.17-.24.39-.22.62a.76.76 0 0 0 .26.6c.19.14.41.21.64.2a1.56 1.56 0 0 0 .48-.08 1.02 1.02 0 0 0 .38-.24c.12-.11.22-.25.28-.4a1.45 1.45 0 0 0 .1-.58v-2.8zM36.88 4.5v2.8h-8.24V4.5h8.24zM34.41.01a6.08 6.08 0 0 1 1.59.2 3.05 3.05 0 0 1 1.01.4l-.32 2.42c-.15-.09-.31-.16-.48-.2-.24-.06-.48-.09-.72-.08-.39-.01-.77.08-1.11.28-.31.25-.47.65-.42 1.05v1.25l.26.56v8.68h-4.07V3.86a4.2 4.2 0 0 1 .34-1.79c.22-.47.55-.88.97-1.19s.89-.53 1.39-.66c.51-.13 1.04-.2 1.57-.2h0zM18.04 8.23a1.27 1.27 0 0 0-.3-.89c-.21-.24-.53-.37-.85-.34-.32 0-.64.09-.91.28a1.54 1.54 0 0 0-.46 1.07l-3.44-.62a3.54 3.54 0 0 1 1.47-2.5 6.09 6.09 0 0 1 3.62-.93 6.92 6.92 0 0 1 2.7.46 3.34 3.34 0 0 1 1.65 1.31 3.8 3.8 0 0 1 .54 2.07v3.38c0 .54.25.81.75.81.16 0 .32-.02.46-.08l-.2 2.2a3.74 3.74 0 0 1-1.65.32c-.52 0-1.04-.08-1.53-.26-.42-.17-.78-.45-1.05-.81a2.21 2.21 0 0 1-.38-1.37v-.16l.4-.06c0 .52-.17 1.02-.5 1.41a3.06 3.06 0 0 1-1.29.93c-.56.22-1.15.33-1.75.32a4.4 4.4 0 0 1-1.79-.32 2.55 2.55 0 0 1-1.15-.93 2.61 2.61 0 0 1-.38-1.47 2.51 2.51 0 0 1 .66-1.81 3.88 3.88 0 0 1 2.05-.97l3.65-.77-.02 1.71-1.49.34c-.28.04-.54.16-.75.34-.16.17-.24.39-.22.62a.76.76 0 0 0 .26.6c.19.14.41.21.64.2a1.56 1.56 0 0 0 .48-.08 1.02 1.02 0 0 0 .38-.24c.12-.11.22-.25.28-.4a1.45 1.45 0 0 0 .1-.58v-2.8zM4.7 11.49h6.32v3.08H.59V1.28H4.7v10.21zm41.95 18.08c.25-2.28-.89-4.05-2.25-4.19a2.74 2.74 0 0 0-2.38 2.44c-.16 1.47 1.55 2.32 1.47 2.98s-1.11 1.84-1.16 2.29a.68.68 0 0 0 .62.73h.02c.9.09 3.41-1.97 3.65-4.24h0z" fill="#2581c4"/><path d="M49.41 41.2c1.28.03 5.35-3.73 5.48-5.06 0-.2-.09-.35-.24-.35-.54-.01-2.69 1.13-5.24 5.41zM116 49.46c-.01.64-.17 1.03-.61 1.03-.79-.02-1.12-5.49-7.28-5.63s-14.37 5.71-19.05 5.61c-2.66-.06-4.49-2.11-4.43-5.07.01-.56.06-1.12.13-1.68-.26.49-3.61 7.62-7.26 7.54a4.03 4.03 0 0 1-3.96-3.93c0-.1.02-.2.03-.31-1.35 1.61-2.8 2.91-3.98 2.89-1.67 0-3.04-1.34-3.05-3.01v-.21c.04-.64.14-1.28.28-1.91-.7.68-4.15 5.34-6.72 5.28-2.07-.18-3.71-1.84-3.85-3.92-2.11 2.12-4.51 3.99-6.3 3.95-3.05-.06-5.92-2-5.84-5.89.13-6.21 6.24-10.86 9.74-10.79 1.56.34 2.72 1.67 2.84 3.26-.12 3.21-3.79 6.73-6.41 6.67-.55-.09-1.09-.29-1.57-.58a8.41 8.41 0 0 0-.71 3.39c-.03 1.48.5 1.99 1.14 2 2.52.05 5.7-2.79 8.17-5.63 2.19-3.79 7.16-6.86 9.72-7.8 1.01-.48 2.11-.72 3.22-.72 1.12.21 2.01 1.06 2.27 2.17 0 .39-.65.57-2.05 1.14-4.63 1.88-10.35 6.68-10.41 9.69 0 .34.13.64.48.65 1.18.03 6.9-6.66 8.81-8.79.5-.53.75-.68 1.15-.66a2.18 2.18 0 0 1 1.68 2.11c-.03 1.38-2.66 4.48-2.71 6.99 0 .34.14.49.34.5 1.08.03 3.86-3.75 5.71-6.33 1.59-2.81 3.71-5.58 4.7-8.34.08-.27.32-.46.6-.48.99.02 2.19 1.43 2.15 3.2-.04 2.11-4.52 8.49-4.6 12.08 0 .44.23.7.57.7.79.02 2.41-2.07 5.27-6.84 2.5-4.19 2.95-6.74 4.33-6.72a2.65 2.65 0 0 1 2.25 2.51c-.04 2.02-2.38 5.03-2.47 9.47-.02.94.46 1.69 1.39 1.71 2.36.05 10.72-8.11 18.22-7.95 5.47.11 8.08 5.05 8.01 8.65h.03zm-75.28-9.53c-.07.35-.21.69-.42.98-2.15 3.85-6.84 11.15-9.61 11.09-1.73-.04-4.39-1.97-4.31-5.96.18-8.68 6.89-19.74 9.79-24.36.35-.59.81-1.07 1.2-1.06.59.01 1.84 1.62 1.76 2.9-.28 1.12-.7 2.21-1.25 3.23-3 6.74-7.49 15.83-7.63 22.29-.01.64.32.99.72 1 1.28.03 5.46-6.24 8.46-10.62.2-.24.3-.39.45-.39a.99.99 0 0 1 .82.91h0z" fill="#002043"/></svg>