<svg xmlns="http://www.w3.org/2000/svg" viewBox="0 0 70 60"><path d="M36.73 41.18c2.61 0 2.61-1.28 5.22-1.28s2.61 1.28 5.22 1.28 2.61-1.28 5.24-1.28 2.61 1.28 5.22 1.28 2.61-1.28 5.22-1.28 2.61 1.28 5.22 1.28h1.91v-35H34.99v34.99h1.73z" fill="#002045"/><path d="M0 6.18h34.99v35.01H0z" fill="#1f82c0"/><path d="M41.38 13.26l-.13.28s-.02.03-.04.03h-.03l-.11-.06a.74.74 0 0 0-.36-.09c-.2 0-.34.1-.34.26 0 .13.06.19.33.33l.19.1a.79.79 0 0 1 .52.74c.02.4-.3.74-.7.76h-.1a1.54 1.54 0 0 1-.7-.17c-.03 0-.04-.03-.04-.05v-.04l.11-.32s.02-.03.03-.03h.03a1.22 1.22 0 0 0 .56.17c.16.02.3-.09.32-.25v-.06c0-.19-.05-.25-.49-.47-.15-.06-.28-.15-.4-.26a.61.61 0 0 1-.16-.45c0-.39.31-.71.7-.71h.1c.23 0 .46.06.65.18.03 0 .03.03.03.05v.03m2.73.85c.04-.15.09-.29.16-.43l.28-.6s.03-.05.05-.05h.04l.32.07s.07.02.07.05c0 .02 0 .03-.02.04l-.66 1.35v.95q0 .07-.07.07h-.35c-.06 0-.07 0-.07-.07v-.95l-.68-1.35s0-.02-.01-.02v-.02s.02-.04.06-.05l.38-.07h.04s.03 0 .06.05l.29.62a2.49 2.49 0 0 1 .11.29l.04.11h-.03zm3.92.67v-1.62c0-.06 0-.07.07-.07h.27c.07 0 .08 0 .08.07v2.36c0 .06 0 .07-.08.07h-.23c-.06 0-.07 0-.1-.07l-.62-1.18c-.1-.16-.18-.34-.22-.52v1.69c0 .06 0 .07-.07.07h-.28q-.07 0-.07-.07v-2.36c0-.06 0-.07.07-.07h.29c.06 0 .07 0 .1.06l.57 1.08a2.45 2.45 0 0 1 .23.56zm2.61-1.71h.74a1.1 1.1 0 0 1 .31.04c.12.03.23.1.31.19a1.48 1.48 0 0 1 .27.98c0 .72-.18 1.12-.57 1.22-.1.04-.2.06-.31.05h-.74q-.07 0-.07-.07v-2.36c0-.06 0-.07.07-.07m.41.42v1.7h.12c.23 0 .35-.04.42-.15a1.12 1.12 0 0 0 .12-.67 1.24 1.24 0 0 0-.13-.71c-.08-.13-.19-.17-.42-.17h-.12.01zm3.78-.04v1.78H55q.07 0 .07.07v.21c0 .06 0 .07-.07.07h-.89q-.07 0-.07-.07v-.21q0-.07.07-.07h.19V13.4h-.19q-.07 0-.07-.07v-.21c0-.06 0-.07.07-.07H55c.07 0 .07 0 .07.07v.21q0 .07-.07.07h-.19zm3.61-.11l-.15.26s-.02.03-.04.03h-.04s-.04-.03-.07-.06a.46.46 0 0 0-.3-.11c-.28 0-.42.25-.42.79 0 .68.15 1 .47 1 .12 0 .24-.05.33-.13h.03c.02 0 .03 0 .04.03l.14.25v.04s-.03.07-.1.11c-.15.09-.32.14-.5.14-.6 0-.94-.47-.94-1.35-.04-.36.07-.71.29-1 .16-.19.39-.29.63-.29a.9.9 0 0 1 .57.2c.02.03.04.05.04.07v.03m2.99 1.59h-.61l-.15.6c-.01.06-.02.07-.08.07h-.36s-.07 0-.07-.04v-.04l.71-2.36s0-.03.01-.03c0 0 0-.01.01-.02h.43c.06 0 .07 0 .08.06l.71 2.36v.04s-.02.04-.07.04h-.4q-.06 0-.08-.07l-.15-.6h.02zm-.56-.35h.47l-.13-.62c-.04-.16-.07-.32-.09-.49l-.1.49-.14.62zm3.7-1.06v2c0 .06 0 .07-.08.07h-.35c-.07 0-.08 0-.08-.07v-2h-.46c-.07 0-.08 0-.08-.07v-.29c0-.06.01-.07.08-.07h1.49c.05 0 .07 0 .07.04v.05l-.07.29c-.01.05-.02.06-.08.06h-.45 0zm-24.5 4.94h.99c.13 0 .27.02.4.05a.93.93 0 0 1 .41.26c.27.39.4.86.36 1.33 0 .96-.24 1.49-.75 1.63-.13.04-.26.06-.4.06h-1c-.09 0-.1 0-.1-.1v-3.14c0-.08.01-.1.1-.1m.55.54v2.27h.16c.32 0 .47-.05.57-.2.14-.27.2-.58.16-.89.04-.33-.02-.66-.16-.96-.12-.17-.25-.22-.57-.22h-.16zm3.72 0v.8h.8c.08 0 .1 0 .1.1v.33c0 .08-.02.1-.1.1h-.8v.95h1.01c.09 0 .1.02.1.1v.33c0 .09 0 .1-.1.1h-1.57c-.08 0-.1 0-.1-.1v-3.14c0-.08.01-.1.1-.1h1.61c.07 0 .09 0 .09.05v.06l-.09.34c-.02.07-.04.08-.1.08h-.95zm4.21-.25l-.17.38s-.03.03-.04.03h-.04l-.15-.08c-.15-.07-.31-.12-.48-.12-.28 0-.44.13-.44.36 0 .18.08.26.43.45l.27.12c.42.15.7.55.69 1 .02.54-.4.99-.94 1.01h-.12c-.33 0-.65-.09-.95-.22-.03 0-.05-.03-.05-.06 0-.02 0-.04.02-.05l.15-.42s.02-.04.04-.04c0 0 .03 0 .04.02.22.13.47.21.73.22.21.03.4-.12.43-.33v-.07c0-.28-.07-.34-.64-.63a1.58 1.58 0 0 1-.53-.35c-.16-.16-.24-.38-.22-.6 0-.52.41-.94.93-.95h.13c.3 0 .6.08.87.23.04.03.04.04.04.07v.04m4.26.24v.8h.81c.08 0 .1 0 .1.1v.33c0 .08-.01.1-.1.1h-.81v.95h1.01c.09 0 .1.02.1.1v.33c0 .09 0 .1-.1.1h-1.57c-.08 0-.09 0-.09-.1v-3.14c0-.08 0-.1.09-.1h1.61c.08 0 .09 0 .09.05v.06l-.09.34c-.02.07-.04.08-.1.08h-.95zm3.83 1.94h-.82l-.2.8c-.02.08-.03.08-.11.08H55c-.07 0-.09 0-.09-.05v-.07l.95-3.14s0-.04.02-.05c0-.01 0-.02.02-.02h0 .07.49q.08 0 .11.08l.95 3.14v.06s-.02.05-.09.05h-.53q-.08 0-.1-.08l-.2-.8h.02zm-.74-.46h.62l-.18-.84-.11-.65-.12.66-.19.83h-.01zm2.91-2h.46c.08 0 .09 0 .09.1v2.12c0 .52.12.68.49.68s.53-.19.53-.67v-2.12c0-.08.01-.1.1-.1h.44c.09 0 .1 0 .1.1v2.11c.05.36-.08.72-.36.95-.24.2-.55.29-.86.26-.41.05-.81-.16-.99-.53-.09-.22-.13-.45-.11-.68v-2.11c0-.08 0-.1.1-.1m4.3 1.56l-.81-1.37s-.02-.03-.02-.04c0 0-.01-.02-.01-.04s.03-.05.08-.06l.49-.11h.06s.04 0 .06.07l.37.72.15.36c.04-.13.09-.25.14-.37l.34-.73c.03-.06.04-.07.07-.07h.05l.46.13c.06 0 .08.04.08.06s0 .03-.03.07l-.76 1.39.91 1.58.03.07c0 .03-.03.04-.09.06l-.47.12h-.05s-.04 0-.07-.06l-.45-.91c-.06-.1-.11-.21-.15-.32l-.04.08c-.04.07-.05.12-.08.18l-.04.05-.46.89c-.02.05-.04.07-.06.07h-.06l-.46-.13c-.06-.02-.08-.04-.08-.06 0-.03.01-.05.03-.07l.89-1.57h-.01zm-23 4.66h1.04c.14 0 .28.02.42.06.16.05.31.14.42.28.29.4.42.88.38 1.37 0 1-.25 1.55-.8 1.7-.14.04-.28.06-.42.06h-1.04c-.09 0-.1 0-.1-.11v-3.27c0-.08.01-.1.1-.1m.59.56v2.38h.16c.34 0 .49-.06.6-.21.15-.29.21-.61.17-.93.04-.34-.02-.68-.17-.99-.12-.18-.27-.25-.59-.25h-.17zm3.11.42l.32-1.04c.01-.05.06-.09.11-.08h.49c.07 0 .1.02.1.06 0 .03 0 .05-.02.07l-.6 1.14s-.05.07-.07.07-.04 0-.06-.02l-.19-.06c-.07-.03-.08-.04-.08-.07v-.07h.01zm3.51-.47v2.48h.27c.09 0 .1 0 .1.1v.3c0 .09 0 .1-.1.1h-1.22c-.09 0-.1 0-.1-.1v-.3c0-.09 0-.1.1-.1h.27v-2.48h-.27c-.09 0-.1 0-.1-.1v-.3c0-.09 0-.1.1-.1h1.22c.09 0 .1 0 .1.1v.3c0 .09 0 .1-.1.1h-.27zM50 27.52h1.18c.08 0 .1 0 .1.05v.06l-.1.43c-.01.07-.03.08-.11.08H49.4c-.09 0-.1 0-.1-.1v-3.27c0-.09 0-.1.1-.1h.49c.09 0 .11 0 .11.1v2.75zm3.49-2.31v.84h.84c.09 0 .1 0 .1.1v.35c0 .08-.01.1-.1.1h-.84v.99h1.05c.09 0 .1.02.1.1v.35c0 .09 0 .11-.1.11H52.9c-.09 0-.1 0-.1-.11v-3.27c0-.08 0-.1.1-.1h1.68c.08 0 .09.02.09.06v.06l-.1.36c-.01.07-.04.08-.11.08h-.97zm5.26-.55h1.04c.14 0 .28.02.42.06.16.05.31.14.42.28.29.4.42.88.38 1.37 0 1-.25 1.55-.8 1.7-.14.04-.28.06-.42.06h-1.04c-.09 0-.1 0-.1-.11v-3.27c0-.08.01-.1.1-.1m.59.56v2.38h.17c.34 0 .49-.06.59-.21.15-.29.21-.61.17-.93.04-.34-.02-.68-.17-.99-.12-.18-.27-.25-.59-.25h-.17zm4.05 0v.84h.84c.09 0 .1 0 .1.1v.35c0 .08-.01.1-.1.1h-.84v.99h1.05c.09 0 .1.02.1.1v.35c0 .09 0 .11-.1.11H62.8c-.09 0-.1 0-.1-.11v-3.27c0-.08 0-.1.1-.1h1.68c.08 0 .09.02.09.06v.06l-.1.36c-.01.07-.04.08-.11.08h-.97zm-22.75 6.17v.84h.84c.09 0 .1 0 .1.11v.35c0 .08-.01.1-.1.1h-.84v1.44c0 .09-.01.1-.1.1h-.49c-.09 0-.1 0-.1-.1v-3.27c0-.09 0-.1.1-.1h1.68c.07 0 .09 0 .09.06v.06l-.1.35c-.02.08-.03.08-.11.08h-.97zm4.95 1.42l.75 1.33a.31.31 0 0 0 .02.07c0 .03-.01.05-.08.06l-.45.13h-.05s-.05-.01-.07-.06L45 32.88h-.27v1.33c0 .09 0 .11-.1.11h-.47c-.09 0-.1-.02-.1-.12v-3.25c0-.09 0-.11.1-.11h.83a1.22 1.22 0 0 1 .87.22c.43.45.4 1.17-.05 1.6a1.77 1.77 0 0 1-.22.16m-.86-.47h.14c.44 0 .59-.13.59-.51s-.13-.49-.54-.49h-.19v1zm5.54 1.04h-.86l-.21.84c-.02.08-.03.08-.11.08h-.5c-.07 0-.1 0-.1-.05v-.07l.99-3.27s0-.04.01-.05c0-.01 0-.02.02-.02h0s.03-.02.08-.02h.52q.08 0 .11.09l.99 3.27v.06s-.02.05-.09.05h-.55q-.08 0-.11-.08l-.21-.84h.03zm-.79-.47h.64l-.19-.87-.12-.68c-.03.23-.07.46-.13.68l-.2.87h.01zm5.79.27v-2.25c0-.08.01-.1.1-.1h.38c.09 0 .1 0 .1.1v3.27c0 .1 0 .11-.1.11h-.33c-.08 0-.1 0-.14-.1l-.87-1.64c-.13-.23-.24-.47-.32-.72v.17l.01.35v1.83c0 .1-.01.11-.1.11h-.38c-.09 0-.1 0-.1-.11v-3.27c0-.08 0-.1.1-.1h.4c.08 0 .09 0 .13.09l.8 1.49c.13.25.23.51.32.77m5.12-2.02l-.2.38s-.03.04-.05.04-.03 0-.04-.02c-.02 0-.05-.04-.1-.08-.12-.09-.26-.15-.41-.15-.39 0-.58.36-.58 1.09 0 .95.2 1.39.65 1.39a.67.67 0 0 0 .45-.18c.02 0 .03 0 .04-.02.02 0 .05.02.05.04l.2.36v.05c0 .05-.04.09-.14.15a1.22 1.22 0 0 1-.69.19c-.85 0-1.3-.65-1.3-1.87-.04-.5.1-.99.4-1.39.21-.26.53-.4.87-.4.29 0 .57.11.8.29.04.04.06.07.06.09 0 .01 0 .03-.01.04m3.02.21v.84h.84c.08 0 .1 0 .1.11v.35c0 .08-.02.1-.1.1h-.84v.99h1.05c.09 0 .1.02.1.1v.35c0 .09-.01.1-.1.1h-1.64c-.09 0-.1 0-.1-.1v-3.27c0-.09 0-.1.1-.1h1.68c.08 0 .1 0 .1.06 0 .02 0 .04-.01.06l-.1.35c-.01.07-.04.08-.11.08h-.97zm-48.47-17.4c.17-.48.38-.95.62-1.4.29-.63.88-1.07 1.56-1.18.89-.26 1.62-.11 1.66.34.07.57-.81.58-1.06.65-.41.12-.89.26-1.02.5-.08.14-.03.32.11.4.01 0 .03.01.04.02.15.07.34 0 .42.05.18.09-.04.45-.07.6-.02.13-.15.29.02.4s.35.03.87-.13c.42-.13.45-.29.45-.47-.02-.14-.13-.25-.27-.26-.19-.04-.44-.07-.42-.18.03-.15.37-.21.6-.3a1.54 1.54 0 0 1 .6.13c.29 0 1.61-.82 1.67-1.66a2.61 2.61 0 0 0-2.5-2.45 7.5 7.5 0 0 0-3.59 1.18 13.56 13.56 0 0 0-1.36 2.55 4.7 4.7 0 0 0-.08 1.35c-.07.52.27 1.02.79 1.13.45-.03.89-.18 1.27-.42-.22-.23-.33-.55-.31-.87m.89 3.46a16.04 16.04 0 0 0-3.15 6.36c-.42 1.47-.6 2.99-.55 4.52.24.13.51.19.78.17.27.02.54 0 .8-.06l.31-4.05c.37-2.37.98-4.7 1.83-6.95zm1.22 1.8c-.05-.81 0-1.62.13-2.42 0 0-.72.21-.99 2.26-.27 1.97.07 4.65-.39 6.34-.72 2.68-1.54 2.71-2.95 4.11a8.41 8.41 0 0 0-1.93 2.65c-.02.43.71 0 .79.37.06.31-.79.86-1.45 2.08-.68 1.25-1.18 2.25-.92 2.48s.78-.02.84.09c.07.14-.03.38-.41.52-.69.25-.95.12-.95.33 0 .25.41.31.6.31.42 0 .67-.22.91-.2.34.03-.05.22 1.27.18.91-.04 1.69-.25 1.63-.63-.07-.41-.46-.29-1.06-.49-.57-.18-.91-.57-.44-1.68a10.29 10.29 0 0 1 2.84-4.08c1.18-.95 2.17-2.11 2.92-3.42.78-1.63.54-3.58.08-5.9a21.74 21.74 0 0 1-.52-2.9m3.62-4.27c.09.17-.33.33-.84.59-.27.11-.5.29-.67.52-.34.46-.08.96-.07 1.72.36 2.05.43 4.14.22 6.21-.19 1.56-.72 3.07-1.54 4.42.37.06.75.08 1.12.04l.53-.04-1.05 1.95c-.18.39-.89 2.05-.62 2.23.16.11.8-.15.84.14.05.37-.2.44-.84 2.14-.29.79-.74 1.89-.55 2.03.45.34.83-.05.93.12.17.28-.28.46-.59.56-.75.25-.94.05-.94.35 0 .21.28.34.81.37.29 0 .75-.23 1.11-.11.59.14 1.21.14 1.81 0 .39-.09 1.15-.35.83-.76-.3-.37-1.21.05-1.59-.92-.31-.83.32-2.57.89-3.95s1.99-3.27 2.29-4.26a7.35 7.35 0 0 0-.23-4.23c-.37-1.21-2.14-4.55-2.48-5.6-.17-.56-.68-1.45-.2-1.63.48 0 .95.05 1.41.18a3.83 3.83 0 0 0 1.93.08c.34-.2-.01-.51.2-.68.13-.1 1.01.55 1.31.4s-.12-.74.15-.85.38.6 2.15-.23c.63-.28 1.18-.71 1.59-1.26a1.92 1.92 0 0 0 1.31-.37c.48.41.77 1 .81 1.63.06.33.07.67.03 1a4.56 4.56 0 0 0-3.09.1 2.36 2.36 0 0 1-.03-.53c0-.19.04-.38.08-.57-.25.13-.46.33-.6.58a2.25 2.25 0 0 0-.18.71c-.13.06-.26.13-.39.21a2.18 2.18 0 0 0-.28.25v1.74c.06.1.15.18.27.22.1.05.21.09.33.11v2.78c.65.52 1.47.77 2.29.69a4.17 4.17 0 0 0 2.26-.63v-2.84c.11 0 .22-.04.32-.1a1.05 1.05 0 0 0 .27-.2v-1.92s-.03-.06-.24-.2l-.31-.18c.06-.57.04-1.14-.05-1.7a3.91 3.91 0 0 0-.39-1.15c.24 0 .48.03.71.06.14 0 .27 0 .28-.14.02-.22-.12-.31-.57-.45-.37-.1-.75-.17-1.13-.2-.09 0 .09-.29-.12-.45s-.29-.07-.5-.07c-.08 0-.07-.18-.27-.22-.32-.07-.23.11-.44.11-.08 0-.09-.16-.41-.14s-.69.56-.88.57a24.27 24.27 0 0 0-4.51-.03c-2.87.42-4.21 2.02-4.04 2.02.27-.05.53-.12.79-.2.41-.09.73-.08.79 0m6.7 3.15s.39-.45 1.77-.45 1.69.46 1.69.46-.38.56-1.72.56c-1.57 0-1.74-.57-1.74-.57h0zM4.13 24.59s.39-.46 1.77-.46 1.69.46 1.69.46-.37.56-1.72.56c-1.57 0-1.74-.57-1.74-.57m2-4.16c1.37.22 1.49 2.71 1.49 2.71-.52-.11-1.04-.17-1.57-.18-.52 0-1.04.04-1.55.14-.07-.48.02-.96.27-1.38-.83.12-1.1 1.22-1.12 1.55-.12.04-.23.11-.33.18l-.27.19v1.97c.05.09.13.17.22.21a.68.68 0 0 0 .31.11v2.81c.61.52 1.39.78 2.19.72.86.02 1.7-.28 2.36-.85v-2.83c.12-.01.24-.05.35-.11.27-.13.29-.23.29-.23v-1.84a1.69 1.69 0 0 0-.63-.38c0-2.46-.7-2.92-1-3.32 0 0 .15-.41 2.43-1.43a17.18 17.18 0 0 1 2.57-1.02 5.02 5.02 0 0 0-1.41 3.52c-.14 1.34.67 2.69 1.39 2.77-.19-1.38-.08-2.78.31-4.11.48-1.45 1.1-2.84 1.85-4.17-1.99.6-3.92 1.41-5.74 2.42a18.43 18.43 0 0 0-5.41 4.07c-.06.11-.08.23-.07.35 0 .06.04.1.11.11.2.02 1.16-.98 1.91-1.47 1.02-.66 1.06-.53 1.06-.53" fill="#fff"/><path d="M23.57,45.43v1.42c-.72-.37-1.51-.59-2.32-.65-.27-.01-.54.04-.79.16-.17.08-.29.25-.29.44,0,.16.09.3.21.39.31.21.66.37,1.02.48.44.16.88.35,1.3.56.33.18.61.42.84.72.24.34.37.76.35,1.18.02.64-.27,1.24-.78,1.63-.59.42-1.31.63-2.03.6-.93,0-1.84-.25-2.65-.71v-1.58c.41.29.84.53,1.3.72.38.15.79.23,1.2.22.72,0,1.08-.22,1.08-.68,0-.17-.09-.33-.22-.43-.31-.23-.67-.4-1.04-.5-.45-.15-.88-.33-1.3-.55-.33-.17-.61-.42-.83-.72-.24-.35-.36-.77-.34-1.2-.01-.6.27-1.17.76-1.53.59-.41,1.31-.61,2.03-.58.85.02,1.7.21,2.47.57M31.37,50.94v1.34h-5.4v-7.32h5.32v1.34h-3.5v1.54h3.34v1.34h-3.34v1.76h3.58ZM33.61,44.96h3.23c1.08-.06,2.14.31,2.96,1.02,1.46,1.48,1.45,3.86-.01,5.33-.9.7-2.02,1.04-3.15.97h-3.03v-7.32ZM35.44,46.3v4.64h1.19c1.33,0,2.39-1.09,2.39-2.42,0-.59-.23-1.17-.63-1.6-.49-.44-1.13-.66-1.79-.62h-1.16ZM42.3,44.96h1.83v7.32h-1.83v-7.32ZM51.71,44.96v1.34h-3.22v1.64h3.22v1.33h-3.22v3.01h-1.83v-7.32h5.05Z" fill="#1f82c0"/><path d="M1.49,58.42l-.4-.24c-.2-.12-.39-.27-.54-.45-.1-.15-.15-.33-.15-.51,0-.27.1-.53.3-.71.22-.19.49-.28.78-.27.3,0,.6.09.85.26v.6c-.22-.24-.53-.37-.86-.38-.15,0-.3.04-.42.12-.1.07-.16.18-.16.3,0,.12.05.23.12.31.11.12.24.22.38.3l.4.24c.39.19.65.58.67,1.01.01.27-.1.53-.29.72-.21.19-.49.29-.77.27-.35,0-.7-.12-.98-.33v-.67c.22.32.59.52.98.54.15,0,.3-.04.41-.13.1-.08.16-.21.16-.34,0-.22-.16-.43-.48-.64ZM3.45,56.29v3.66h2.12v-.46h-1.6v-1.13h1.5v-.48h-1.5v-1.12h1.55v-.46h-2.07ZM6.55,59.96v-3.67h.92c.32-.02.63.08.89.27.21.19.33.46.32.75,0,.2-.05.39-.16.56-.11.16-.27.28-.45.34.13.09.24.2.34.31.17.22.33.46.47.7.09.16.19.32.3.46l.19.26h-.63l-.16-.24s-.02-.03-.03-.04l-.1-.15-.16-.26-.18-.28c-.11-.15-.21-.26-.29-.36-.07-.07-.16-.14-.24-.19-.11-.05-.24-.07-.36-.06h-.14v1.6h-.53,0ZM7.22,56.74h-.16v1.16h.2c.18.01.37-.01.55-.07.1-.04.18-.12.23-.21.05-.1.08-.2.08-.31,0-.11-.03-.22-.09-.31-.06-.09-.16-.16-.26-.2-.18-.05-.37-.07-.56-.06M12.07,56.29l-1.1,2.58-1.1-2.58h-.53l1.58,3.68h.12l1.55-3.68h-.52ZM13.4,56.29h.53v3.67h-.53v-3.67ZM18.3,59.11v.58c-.41.22-.87.32-1.33.31-.36.01-.72-.07-1.04-.24-.28-.16-.52-.39-.68-.68-.17-.29-.25-.61-.25-.94,0-.51.2-1,.57-1.34.38-.36.88-.56,1.4-.55.44.01.88.12,1.28.3v.57c-.38-.24-.81-.37-1.25-.37-.39,0-.77.14-1.05.4-.27.26-.42.62-.41.99-.01.37.14.74.41.99.28.27.66.41,1.05.39.47,0,.92-.15,1.3-.41ZM19.35,56.29v3.66h2.12v-.46h-1.6v-1.13h1.5v-.48h-1.5v-1.12h1.55v-.46h-2.07ZM24.3,59.96v-3.67h1.16c.3-.02.6.08.83.28.21.19.33.47.31.76,0,.2-.05.4-.16.57-.11.16-.26.29-.44.36-.26.08-.53.12-.8.11h-.38v1.6h-.53.01ZM25.37,56.76h-.55v1.15h.58c.18.01.35-.04.49-.15.12-.11.18-.27.17-.43,0-.37-.23-.57-.7-.57ZM30.01,56.29h.53v2.08c0,.21-.01.43-.06.64-.03.13-.08.25-.15.36-.06.1-.14.18-.22.25-.32.26-.73.39-1.14.37-.42.02-.83-.11-1.15-.37-.09-.08-.16-.16-.22-.26-.07-.11-.12-.23-.15-.35-.04-.21-.06-.43-.05-.65v-2.07h.53v2.08c-.02.24.02.49.11.72.09.14.21.25.36.32.18.08.37.13.57.12.27.01.54-.07.76-.24.1-.08.17-.19.22-.3.05-.2.08-.41.07-.62v-2.08h.01ZM32.91,59.96h-1.24v-3.67h.96c.24-.01.48.03.71.12.16.07.29.18.38.33.09.15.14.32.13.5,0,.35-.22.67-.56.77.24.04.47.15.64.33.16.16.24.38.24.61,0,.18-.05.35-.15.5-.1.16-.25.28-.42.36-.22.1-.46.15-.7.14M32.64,56.76h-.45v1.1h.34c.21.02.42-.03.6-.16.11-.11.18-.26.17-.41,0-.35-.22-.53-.68-.53M32.68,58.32h-.48v1.16h.52c.2.01.4,0,.59-.07.1-.04.19-.12.25-.21.06-.09.09-.19.09-.3,0-.11-.04-.21-.1-.3-.07-.1-.16-.17-.27-.21-.19-.05-.38-.08-.58-.07M35.1,56.29v3.67h2.17v-.48h-1.65v-3.19h-.53ZM38.14,56.29h.53v3.67h-.53v-3.67ZM43.03,59.11v.58c-.41.22-.87.32-1.33.31-.36.01-.72-.07-1.04-.24-.28-.16-.52-.39-.68-.68-.17-.29-.25-.61-.25-.94,0-.51.2-1,.57-1.34.38-.36.88-.56,1.4-.55.44.01.88.12,1.28.3v.57c-.38-.24-.81-.37-1.25-.37-.39,0-.77.14-1.05.4-.27.26-.42.62-.41.99-.01.37.14.74.41.99.28.27.66.41,1.05.39.47,0,.92-.15,1.3-.41ZM45.98,59.95v-3.66h1.23c.41-.02.81.06,1.18.22.29.15.53.38.7.67.17.29.26.62.25.95,0,.49-.19.95-.55,1.29-.18.17-.39.31-.63.4-.13.04-.25.08-.38.11-.22.03-.44.04-.66.03h-1.16v-.02ZM47.16,56.76h-.66v2.73h.68c.21,0,.41-.01.62-.05.12-.03.25-.08.36-.13.1-.05.19-.12.26-.2.26-.27.4-.63.38-1,.02-.36-.13-.71-.39-.96-.1-.09-.21-.17-.33-.23-.12-.06-.24-.1-.36-.12-.11,0-.3-.03-.55-.03M50.4,56.29v3.66h2.12v-.46h-1.6v-1.13h1.51v-.48h-1.51v-1.12h1.56v-.46h-2.08ZM55.38,56.29v3.67h2.18v-.48h-1.65v-3.19h-.54ZM57.85,57.57v-.1c.07-.06.13-.14.16-.22.04-.1.05-.2.05-.3-.16-.04-.27-.18-.27-.34,0-.09.03-.18.1-.24.06-.07.14-.1.22-.1.11,0,.2.05.26.14.07.11.11.23.1.36,0,.39-.26.72-.63.83M59.57,56.29v3.66h2.12v-.46h-1.6v-1.13h1.5v-.48h-1.5v-1.12h1.55v-.46h-2.07ZM63.83,56.27l-1.58,3.69h.55l.45-1.09h1.57l.49,1.09h.54l-1.65-3.69h-.37ZM64,57.08l.6,1.32h-1.14l.55-1.32ZM69.08,56.29h.53v2.08c0,.21-.01.43-.06.64-.03.13-.08.25-.15.36-.06.1-.14.18-.22.25-.32.26-.72.4-1.13.37-.42.02-.83-.11-1.15-.37-.09-.07-.17-.16-.22-.26-.07-.11-.12-.23-.15-.35-.04-.21-.06-.43-.05-.65v-2.07h.53v2.08c-.02.24.02.49.11.72.09.14.21.25.36.32.18.08.37.13.57.12.27.01.54-.07.76-.24.1-.08.17-.19.22-.3.05-.2.08-.41.07-.62v-2.08ZM16.91.05h.47v2.9h1.51v.43h-1.98V.05ZM21.2,1.97l-.54-1.21-.49,1.21h1.03ZM20.5.03h.33l1.5,3.35h-.48l-.44-.99h-1.42l-.41.99h-.49L20.5.03ZM26.95.05h.44v3.33h-.48V.79l-1.03,1.29h-.09l-1.04-1.29v2.6h-.47V.05h.45l1.11,1.37L26.94.05h.01ZM30.01,1.97l-.54-1.21-.49,1.21h1.03ZM29.31.03h.33l1.5,3.35h-.48l-.44-.99h-1.42l-.41.99h-.49L29.31.03ZM32.27.46h-.14v1.05h.18c.17.01.34-.01.49-.06.09-.04.17-.11.21-.19.11-.17.11-.39,0-.57-.06-.08-.14-.15-.23-.18-.17-.04-.34-.06-.51-.05h-.01ZM31.64,3.39V.05h.84c.29-.02.58.07.81.25.2.17.31.42.29.68,0,.18-.05.35-.14.51-.1.15-.25.26-.41.31.12.08.22.17.31.28.16.2.3.42.43.64.12.19.21.33.28.42l.17.24h-.57l-.14-.22s-.02-.03-.03-.04l-.09-.13-.15-.24-.16-.26c-.08-.12-.17-.22-.27-.32-.06-.07-.14-.13-.22-.17-.11-.04-.22-.06-.33-.05h-.12v1.45h-.5ZM36.35.46c-.35-.01-.68.12-.93.36-.24.24-.38.58-.36.92-.01.34.12.67.37.9.25.24.58.37.93.35.35,0,.68-.12.93-.36.25-.23.38-.56.37-.9,0-.34-.13-.67-.37-.91-.25-.24-.59-.37-.94-.35h0ZM38.07,3.6l-.48.46c-.16,0-.31-.03-.46-.08-.17-.05-.34-.11-.49-.19-.24-.12-.46-.25-.68-.4-.81-.14-1.39-.84-1.39-1.66-.01-.46.17-.91.51-1.23.35-.33.81-.51,1.28-.5.48-.02.94.16,1.28.48.34.31.53.76.52,1.22.01.82-.58,1.53-1.38,1.68l.12.05c.27.12.56.19.85.22.11,0,.23-.02.33-.06h.01ZM41.18.05h.48v1.9c0,.19-.01.39-.06.58-.03.11-.08.22-.14.32-.05.09-.12.17-.2.23-.29.24-.66.36-1.04.34-.38.02-.76-.1-1.05-.34-.08-.07-.15-.15-.2-.23-.06-.1-.1-.21-.13-.32-.04-.2-.06-.4-.05-.6V.04h.48v1.9c-.02.22.02.45.11.66.08.13.19.23.32.29.16.08.34.11.52.11.25.01.5-.07.7-.22.09-.08.16-.17.2-.28.05-.18.07-.37.06-.56V.05h0ZM42.44.05h1.89v.42h-1.41v1.02h1.36v.42h-1.36v1.04h1.45v.42h-1.94V.05h.01ZM47.57.48h-.6v2.49h.62c.19,0,.37-.01.56-.05.12-.02.23-.07.33-.12.09-.05.17-.11.24-.18.23-.24.36-.57.35-.91.01-.33-.12-.65-.36-.88-.09-.08-.19-.15-.3-.21-.1-.05-.21-.09-.32-.11-.16-.02-.33-.03-.49-.03h-.02ZM46.49,3.38V.04h1.12c.37-.01.74.05,1.08.2.26.14.48.35.63.61.15.26.23.56.23.87,0,.22-.04.44-.13.64-.08.2-.21.38-.36.54-.16.16-.35.28-.57.36-.11.04-.23.08-.34.1-.2.02-.4.03-.61.02h-1.05,0ZM52.6.05h.48v1.9c0,.19-.01.39-.06.58-.03.11-.08.22-.14.32-.05.09-.12.17-.2.23-.29.24-.66.36-1.04.34-.38.02-.76-.1-1.05-.34-.08-.07-.15-.15-.2-.23-.06-.1-.1-.21-.13-.32-.04-.2-.06-.4-.05-.6V.04h.48v1.9c-.02.22.02.45.11.66.08.13.19.23.32.29.16.08.34.11.52.11.25.01.5-.07.7-.22.09-.08.16-.17.2-.28.05-.18.07-.37.06-.56V.05h0Z" fill="#002045"/></svg>