<svg xmlns="http://www.w3.org/2000/svg">
  <symbol id="menu" viewBox="0 0 24 18">
    <path d="M0 0h24v3H0zm0 7.5h24v3H0zM0 15h24v3H0z"></path>
  </symbol>
  <symbol id="close" viewBox="0 0 20 20">
    <path d="M.004 17.778L17.78.002l2.22 2.22L2.224 19.998z"></path>
    <path d="M.004 2.222l2.22-2.22 17.777 17.777-2.22 2.22z"></path>
  </symbol>
  <symbol id="remove" viewBox="0 0 24 24">
    <path d="M12 12.61c-.18 0-.35-.07-.49-.2L.2 1.18C-.07.91-.07.47.2.2S.91-.07 1.18.2l10.82 10.75L22.82.2c.27-.27.71-.27.98 0s.27.7 0 .97l-11.31 11.24c-.14.13-.31.2-.49.2Z"></path>
    <path d="M23.31 24c-.18 0-.35-.07-.49-.2l-10.82-10.75L1.18 23.8c-.27.27-.71.27-.98 0s-.27-.7 0-.97l11.31-11.24c.27-.27.71-.27.98 0l11.31 11.24c.27.27.27.7 0 .97-.14.13-.31.2-.49.2Z"></path>
  </symbol>
  <symbol id="prev" viewBox="0 0 12 18">
    <path d="M.93 11.31l5.59 5.71c.6.64 1.41.99 2.25.98.82 0 1.61-.32 2.23-.89.63-.61.99-1.47 1-2.39V3.28c0-.92-.37-1.79-1-2.39C10.38.32 9.59 0 8.77 0a3.16 3.16 0 0 0-2.25.96L.93 6.69C.34 7.28 0 8.11 0 8.99s.33 1.73.93 2.32z"></path>
  </symbol>
  <symbol id="next" viewBox="0 0 12 18">
    <path d="M12 8.99c0-.88-.34-1.71-.93-2.3L5.48.96C4.87.34 4.06 0 3.23 0c-.82 0-1.61.32-2.23.89C.37 1.49 0 2.36 0 3.28v11.44c0 .91.37 1.78 1 2.39.62.57 1.41.89 2.23.89.84.01 1.65-.34 2.25-.98l5.59-5.71c.6-.59.94-1.44.93-2.32Z"></path>
  </symbol>
  <symbol id="reset" viewBox="0 0 10 12">
    <path d="M5.01 11.66c-1.6 0-3.17-.76-4.14-2.18A4.97 4.97 0 0 1 0 6.66a.5.5 0 0 1 .5-.5.51.51 0 0 1 .5.5 4.03 4.03 0 0 0 .69 2.25 4 4 0 0 0 5.55 1.05 3.99 3.99 0 0 0 1.05-5.54 3.97 3.97 0 0 0-2.56-1.67c-1.04-.2-2.11.02-2.99.62a.5.5 0 0 1-.7-.13.5.5 0 0 1 .13-.7c1.1-.75 2.44-1.03 3.75-.78a4.95 4.95 0 0 1 3.2 2.1c1.55 2.28.96 5.39-1.31 6.94a4.95 4.95 0 0 1-2.81.87z"></path>
    <path d="M4.58 3.96s-.08 0-.12-.01l-2.11-.5-.37-.61.5-2.11c.07-.27.34-.44.61-.37s.44.34.37.61l-.39 1.62 1.62.39c.27.07.44.34.37.61a.51.51 0 0 1-.49.39z"></path>
  </symbol>
  <symbol id="down" viewBox="0 0 12 7">
    <path d="M5.99 7c-.56.01-1.11-.18-1.53-.54L.64 3.2C.24 2.88 0 2.39 0 1.88c.01-.5.23-.97.59-1.3C1.03.2 1.6 0 2.19 0h7.63c.58 0 1.15.2 1.59.58.37.33.58.8.59 1.3 0 .51-.24 1-.65 1.31l-3.81 3.26c-.43.36-.98.56-1.55.54Z"></path>
  </symbol>
  <symbol id="right" viewBox="0 0 9 14">
    <path d="M9 7.01c0 .68-.25 1.33-.7 1.79l-4.19 4.46c-.46.48-1.06.74-1.69.74-.61 0-1.21-.25-1.67-.69-.48-.47-.75-1.15-.75-1.86v-8.9C0 1.84.28 1.17.75.69 1.21.25 1.81 0 2.42 0a2.26 2.26 0 0 1 1.69.76L8.3 5.2c.45.47.71 1.12.7 1.81z"></path>
  </symbol>
  <symbol id="play" viewBox="0 0 72 72">
    <path d="M50.4 36.02c0 1.65-.67 3.23-1.87 4.35L37.36 51.2c-1.22 1.16-2.83 1.81-4.5 1.8a6.79 6.79 0 0 1-4.46-1.68 6.09 6.09 0 0 1-2-4.51V25.2c.01-1.72.74-3.36 2-4.51a6.79 6.79 0 0 1 4.46-1.68 6.21 6.21 0 0 1 4.5 1.85l11.17 10.79c1.21 1.13 1.88 2.72 1.87 4.39z"></path>
  </symbol>
  <symbol id="pen" viewBox="0 0 24 24">
    <path d="M.84 24c-.22 0-.43-.08-.6-.24-.33-.32-.33-.84 0-1.17l1.39-1.35a.86.86 0 0 1 1.19 0c.33.32.33.84 0 1.17l-1.39 1.35c-.16.16-.38.24-.6.24zm7.28-3.43c6.73-3.8 12.15-9.39 15.72-16.26.35-.96.12-2.01-.61-2.76l-.27-.26C22.2.6 21.13.37 20.05.76 13.11 4.19 7.39 9.49 3.51 16.08c-.19.32-.14.73.14.99l3.46 3.37a.84.84 0 0 0 .59.24c.14 0 .29-.04.42-.11zM20.71 2.26c.38-.13.8-.05 1.07.2l.23.23c.28.29.36.69.27.97C18.99 9.96 14 15.19 7.82 18.82l-2.53-2.47A37.69 37.69 0 0 1 20.71 2.26zM9.52 7a42.62 42.62 0 0 1 7.01-5.45c.39-.24.51-.75.26-1.14a.85.85 0 0 0-1.16-.25c-2.62 1.63-5.07 3.54-7.29 5.67-.33.32-.34.84-.01 1.17.17.16.38.25.6.25s.43-.08.59-.24z"></path>
    <path d="M3.05 23.14c-.22 0-.44-.08-.6-.24l-1.33-1.3c-.26-.26-.32-.65-.15-.96l1.52-2.84c.22-.4.73-.56 1.14-.35a.81.81 0 0 1 .35 1.11l-1.24 2.3.45.44 2.36-1.22c.41-.21.92-.06 1.14.35a.81.81 0 0 1-.35 1.11l-2.91 1.5a.89.89 0 0 1-.39.09zM18.37 3.39c.35-.3.39-.82.09-1.16L16.76.29A.87.87 0 0 0 15.57.2c-.35.3-.39.82-.09 1.16l1.7 1.94c.17.19.4.29.64.29.19 0 .39-.07.55-.2zm-.75 8.38l-5.11-4.99-1.19 1.17 5.11 4.99 1.19-1.17z"></path>
  </symbol>
  <symbol id="search" viewBox="0 0 14 14">
    <path d="M13.72 12.31l-1.67-1.68c2.19-2.97 1.55-7.14-1.41-9.33S3.49-.25 1.3 2.71C-.88 5.68-.25 9.86 2.71 12.05c2.35 1.74 5.56 1.74 7.92 0l1.68 1.67c.4.38 1.03.37 1.41-.03.37-.39.37-1 0-1.39h0ZM2.03 6.69c0-2.57 2.08-4.66 4.66-4.67 2.57 0 4.66 2.08 4.67 4.66 0 1.23-.48 2.41-1.34 3.28 0 0-.02.01-.03.02s-.01.02-.02.03c-1.83 1.81-4.78 1.79-6.59-.04-.86-.87-1.34-2.05-1.34-3.28Z"></path>
  </symbol>
  <symbol id="tick" viewBox="0 0 17 11">
    <path d="M7 11a1 1 0 0 1-.7-.29L.29 4.7c-.39-.39-.39-1.02 0-1.41s1.02-.39 1.41 0L7 8.59l8.3-8.3c.39-.39 1.02-.39 1.41 0s.39 1.02 0 1.41L7.7 10.71A1 1 0 0 1 7 11z"></path>
  </symbol>
  <symbol id="toggle" viewBox="0 0 12 6">
    <path d="M6 6c-.07 0-.14-.03-.19-.07L.08.43C-.03.33-.03.17.08.07s.27-.09.37 0L6 5.38 11.55.07c.1-.1.27-.1.37 0s.1.26 0 .36L6.18 5.92s-.12.07-.19.07z"></path>
  </symbol>
  <symbol id="mail" viewBox="0 0 20 16">
    <path d="M17.13 0H2.86C1.28 0 0 1.25 0 2.78v10.44C0 14.76 1.28 16 2.86 16h14.28c1.58 0 2.85-1.25 2.86-2.78V2.78C20 1.24 18.72 0 17.14 0M2.86 2.09h14.28a.7.7 0 0 1 .55.27L10 7.6 2.31 2.35c.14-.16.34-.26.55-.27m14.27 11.83H2.86c-.39 0-.71-.31-.71-.7V4.79l7.24 4.94.61-.85-.61.85c.37.25.86.25 1.23 0l7.24-4.94v8.43c0 .38-.32.69-.71.7"></path>
  </symbol>
  <symbol id="instagram" viewBox="0 0 24 24">
    <path d="M18.06 4.94h-.01c-.55 0-1 .45-1 1s.45 1 1 1h.01c.55 0 1-.45 1-1s-.45-1-1-1zM17.5 0h-11A6.5 6.5 0 0 0 0 6.5v11A6.5 6.5 0 0 0 6.5 24h11a6.5 6.5 0 0 0 6.5-6.5v-11A6.5 6.5 0 0 0 17.5 0zm0 22h-11C4.01 22 2 19.99 2 17.5v-11C2 4.01 4.01 2 6.5 2h11C19.99 2 22 4.01 22 6.5v11c0 2.49-2.01 4.5-4.5 4.5zM15.87 8.13c-2.11-2.11-5.53-2.11-7.64 0s-2.11 5.53 0 7.64 5.53 2.11 7.64 0a5.4 5.4 0 0 0 1.52-4.61 5.39 5.39 0 0 0-1.52-3.03zm-2.29 6.85a3.41 3.41 0 0 1-4.57-1.51 3.41 3.41 0 0 1 1.51-4.57 3.41 3.41 0 0 1 4.57 1.51 3.4 3.4 0 0 1-.02 3.09c-.33.63-.85 1.15-1.49 1.47h0z"></path>
  </symbol>
  <symbol id="facebook" viewBox="0 0 24 24">
    <path d="M24 12.07C24 5.4 18.63 0 12 0S0 5.41 0 12.08c0 5.94 4.29 11 10.12 11.92v-8.44H7.07v-3.49h3.05V9.41c0-3.03 1.79-4.7 4.53-4.7a17.35 17.35 0 0 1 2.69.24v2.97h-1.51c-.95-.13-1.82.54-1.95 1.5-.02.13-.02.26 0 .39v2.26h3.33l-.53 3.49h-2.8V24c5.83-.93 10.13-5.99 10.13-11.93z"></path>
  </symbol>
  <symbol id="tiktok" viewBox="0 0 24 24">
    <path d="M16.9 0h-4.04v16.35a3.48 3.48 0 0 1-3.55 3.43 3.48 3.48 0 0 1-3.43-3.55c.03-1.86 1.52-3.37 3.38-3.43V8.7a7.64 7.64 0 0 0-7.59 7.71c.03 4.22 3.48 7.62 7.71 7.59 4.2-.03 7.59-3.45 7.59-7.65V7.97a9.41 9.41 0 0 0 5.36 1.81v-4.1A5.64 5.64 0 0 1 16.9 0z"></path>
  </symbol>
  <symbol id="youtube" viewBox="0 0 24 24">
    <path d="M20.84 3.3H3.16A3.17 3.17 0 0 0 0 6.47v11.07a3.17 3.17 0 0 0 3.16 3.17h17.68c1.75 0 3.16-1.42 3.16-3.17h0V6.47a3.17 3.17 0 0 0-3.16-3.17h0m-6 9.46l-4.91 2.46a.85.85 0 0 1-1.23-.76V9.54a.85.85 0 0 1 1.23-.76l4.91 2.46c.42.21.59.72.38 1.15a.87.87 0 0 1-.38.38"></path>
  </symbol>
  <symbol id="download" viewBox="0 0 16 16">
    <path d="M8.14 11.79a1.86 1.86 0 0 1-1.34-.56l-2.6-2.6c-.36-.36-.56-.83-.56-1.34s.19-.98.55-1.34c.35-.36.82-.59 1.35-.56h5.21c.5 0 .98.2 1.34.55.36.36.56.83.56 1.34a1.9 1.9 0 0 1-.56 1.35l-2.6 2.6c-.36.36-.84.56-1.34.56zM5.53 6.86c-.11 0-.22.04-.3.12a.4.4 0 0 0-.12.29.4.4 0 0 0 .12.29l2.61 2.61c.16.16.43.16.59 0l2.61-2.6c.08-.08.12-.19.12-.3s-.04-.22-.12-.29a.4.4 0 0 0-.29-.12H5.54z"></path>
    <path d="M8.14 6.19a.74.74 0 0 1-.74-.74V.74A.74.74 0 0 1 8.14 0a.74.74 0 0 1 .74.74v4.71a.74.74 0 0 1-.74.74zM13.01 16c1.64 0 2.98-1.35 2.99-2.99v-2.23a.74.74 0 1 0-1.48 0v2.23c0 .83-.68 1.51-1.51 1.51H2.99c-.83 0-1.51-.68-1.51-1.51v-2.23a.74.74 0 0 0-.74-.74.74.74 0 0 0-.74.74v2.23A3 3 0 0 0 2.99 16h10.02z"></path>
  </symbol>
  <symbol id="upload" viewBox="0 0 24 16">
    <path d="M17.46 8.73H7.78c-.4 0-.73-.33-.73-.73s.33-.73.73-.73h9.67c.4 0 .73.33.73.73s-.33.73-.73.73Z"></path>
    <path d="M19.2 12.8c-1.09 0-1.98-.88-1.99-1.98V5.17c0-.52.21-1.02.57-1.39a1.99 1.99 0 0 1 2.81-.01l2.83 2.83c.77.77.77 2.03 0 2.8l-2.83 2.82c-.37.37-.87.57-1.39.58h0zm0-8.15c-.14 0-.28.05-.38.16-.1.1-.15.23-.15.37v5.64c0 .29.24.53.53.53h0c.14 0 .27-.06.37-.15l2.82-2.82c.2-.21.2-.54 0-.75l-2.82-2.82a.53.53 0 0 0-.37-.15zm-5.5 9.63a3.79 3.79 0 0 0 1.12-2.69c0-.4-.33-.73-.73-.73h0c-.4 0-.73.33-.73.73 0 .63-.24 1.22-.69 1.67s-1.04.69-1.67.69H3.81c-1.3 0-2.36-1.06-2.36-2.36V4.41c0-.63.25-1.22.69-1.67a2.32 2.32 0 0 1 1.67-.69H11c.63 0 1.22.24 1.67.69a2.32 2.32 0 0 1 .69 1.67c0 .4.33.73.73.73s.73-.33.73-.73c0-1.02-.4-1.97-1.12-2.69A3.78 3.78 0 0 0 11.01.61h-7.2c-1.02 0-1.98.4-2.7 1.12C.4 2.44 0 3.39 0 4.41v7.18c0 2.1 1.71 3.81 3.81 3.81H11c1.02 0 1.98-.4 2.69-1.12z"></path>
  </symbol>
  <symbol id="eye" viewBox="0 0 24 20">
    <path d="M11.79 16.91C6.63 16.91.44 11.61.18 11.38c-.11-.1-.18-.24-.18-.38 0-.15.06-.29.18-.39 0 0 .51-.44 1.36-1.08.24-.18.6-.15.79.08.2.23.16.56-.09.74-.34.25-.62.47-.83.64 1.52 1.21 6.42 4.86 10.38 4.86s8.86-3.65 10.37-4.87c-1.52-1.21-6.42-4.87-10.37-4.87-1.28.04-2.54.32-3.72.83-.28.12-.62 0-.75-.26s0-.58.28-.7c1.32-.57 2.72-.88 4.18-.93 5.18 0 11.37 5.31 11.63 5.53.11.1.18.24.18.39s-.07.29-.18.39c-.26.23-6.45 5.53-11.62 5.53v.02Z"></path>
    <path d="M11.8 16.91c-5.17 0-11.36-5.3-11.62-5.53-.12-.1-.18-.24-.18-.39s.07-.29.18-.38c.26-.23 6.45-5.54 11.61-5.54a11.52 11.52 0 0 1 4.2.93c.28.12.41.44.27.7-.13.26-.47.38-.75.26a10.18 10.18 0 0 0-3.74-.83C7.84 6.13 2.94 9.79 1.42 11c1.52 1.21 6.42 4.87 10.38 4.87s8.86-3.66 10.37-4.87c-.21-.17-.49-.39-.83-.64a.51.51 0 0 1-.09-.74.6.6 0 0 1 .8-.08 22.59 22.59 0 0 1 1.36 1.08c.11.1.18.24.18.38a.55.55 0 0 1-.18.39c-.26.23-6.45 5.53-11.61 5.53h0zm12.14-8.95c0-.29-.25-.53-.57-.53s-1.12-.51-1.91-1.01c-2.14-1.34-5.36-3.37-9.67-3.37h0c-4.31 0-7.53 2.03-9.67 3.37l-.66.41c-.26.16-.33.49-.16.73a.59.59 0 0 0 .78.15l.68-.42C4.78 6.02 7.84 4.1 11.8 4.1s7.02 1.92 9.05 3.19c1.14.72 1.89 1.19 2.54 1.19.31 0 .57-.24.57-.53h-.02zm-12.15 6.9c1.11 0 2.16-.4 2.94-1.13.79-.73 1.22-1.7 1.22-2.74h0c0-2.13-1.87-3.87-4.16-3.87s-4.16 1.74-4.16 3.87c0 1.03.43 2.01 1.22 2.74s1.83 1.13 2.94 1.13h0z"></path>
  </symbol>
  <symbol id="blind" viewBox="0 0 24 20">
    <path d="M11.79 16.91C6.63 16.91.44 11.61.18 11.38c-.11-.1-.18-.24-.18-.38 0-.15.06-.29.18-.39 0 0 .51-.44 1.36-1.08.24-.18.6-.15.79.08.2.23.16.56-.09.74-.34.25-.62.47-.83.64 1.52 1.21 6.42 4.86 10.38 4.86s8.86-3.65 10.37-4.87c-1.52-1.21-6.42-4.87-10.37-4.87-1.28.04-2.54.32-3.72.83-.28.12-.62 0-.75-.26-.13-.26 0-.58.28-.7 1.32-.57 2.72-.88 4.18-.93 5.18 0 11.37 5.31 11.63 5.53.11.1.18.24.18.39s-.07.29-.18.39c-.26.23-6.45 5.53-11.62 5.53Z"></path>
    <path d="M11.8 16.91c-5.17 0-11.36-5.3-11.62-5.53-.12-.1-.18-.24-.18-.39s.07-.29.18-.38c.26-.23 6.45-5.54 11.61-5.54a11.52 11.52 0 0 1 4.2.93c.28.12.41.44.27.7-.13.26-.47.38-.75.26a10.18 10.18 0 0 0-3.74-.83C7.84 6.13 2.94 9.79 1.42 11c1.52 1.21 6.42 4.87 10.38 4.87s8.86-3.66 10.37-4.87c-.21-.17-.49-.39-.83-.64a.51.51 0 0 1-.09-.74.6.6 0 0 1 .8-.08 22.59 22.59 0 0 1 1.36 1.08c.11.1.18.24.18.38a.55.55 0 0 1-.18.39c-.26.23-6.45 5.53-11.61 5.53zm12.14-8.95c0-.29-.25-.53-.57-.53s-1.12-.51-1.91-1.01c-2.14-1.34-5.36-3.37-9.67-3.37S4.26 5.08 2.12 6.42l-.66.41c-.26.16-.33.49-.16.73a.59.59 0 0 0 .78.15l.68-.42C4.78 6.02 7.84 4.1 11.8 4.1c3.97 0 7.02 1.92 9.05 3.19 1.14.72 1.89 1.19 2.54 1.19.31 0 .57-.24.57-.53zm-12.15 6.9c1.11 0 2.16-.4 2.94-1.13.79-.73 1.22-1.7 1.22-2.74h0c0-2.13-1.87-3.87-4.16-3.87s-4.16 1.74-4.16 3.87c0 1.03.43 2.01 1.22 2.74s1.83 1.13 2.94 1.13h0zm3.03-3.87h0c0 .75-.31 1.46-.89 1.99-.57.53-1.33.83-2.14.83h0c-.81 0-1.57-.29-2.14-.82A2.71 2.71 0 0 1 8.76 11c0-.75.31-1.46.89-1.99.57-.53 1.33-.83 2.14-.83 1.67 0 3.03 1.26 3.03 2.82z"></path>
    <path d="M3.07 20c-.14 0-.29-.05-.4-.15-.22-.21-.22-.54 0-.74L23.03.15c.22-.21.58-.21.8 0s.22.54 0 .74L3.47 19.85c-.11.1-.26.15-.4.15Z"></path>
  </symbol>
  <symbol id="external" viewBox="0 0 18 18">
    <path d="M4.91 13.79a.74.74 0 0 1-.53-.22c-.29-.29-.29-.77 0-1.06l7.48-7.48c.29-.29.77-.29 1.06 0s.29.77 0 1.06l-7.48 7.48a.74.74 0 0 1-.53.22z"></path>
    <path d="M15.88 8.62c-.57 0-1.1-.22-1.5-.62l-4.37-4.37c-.4-.4-.62-.93-.62-1.5 0-1.17.95-2.13 2.12-2.13h4.37c1.17 0 2.12.95 2.12 2.12v4.37c0 .56-.23 1.11-.62 1.5s-.93.62-1.5.62h0ZM11.5 1.5c-.34 0-.62.28-.62.62 0 .17.07.32.18.44l4.37 4.37c.12.12.27.18.44.18h0c.17 0 .32-.06.44-.18.12-.12.18-.28.18-.44V2.12c0-.34-.28-.62-.62-.62h-4.37ZM16.11 13.87v-2.04c0-.41-.34-.75-.75-.75s-.75.34-.75.75v2.04c0 1.45-1.18 2.62-2.63 2.62h-7.86c-.7 0-1.36-.27-1.86-.77-.5-.5-.77-1.16-.77-1.86v-7.86c0-.7.27-1.36.77-1.86.5-.5 1.15-.77 1.86-.77h1.86c.41 0 .75-.34.75-.75s-.34-.75-.75-.75h-1.86c-1.1 0-2.14.43-2.92 1.21C.43 3.87 0 4.91 0 6.01v7.86c0 1.1.43 2.14 1.21 2.92s1.82 1.21 2.92 1.21h7.86c2.28 0 4.13-1.85 4.13-4.13Z"></path>
  </symbol>
  <symbol id="incompleted" viewBox="0 0 24 24">
    <path d="M18.29 19c-.18 0-.36-.07-.5-.21L5.21 6.21c-.28-.28-.28-.73 0-1s.73-.28 1 0l12.58 12.58c.28.28.28.72 0 1-.14.14-.32.21-.5.21Z"></path>
    <path d="M5.71 19c-.18 0-.36-.07-.5-.21a.7.7 0 0 1 0-1L17.79 5.21a.7.7 0 0 1 1 0 .7.7 0 0 1 0 1L6.21 18.79c-.14.14-.32.21-.5.21z"></path>
  </symbol>
  <symbol id="processed" viewBox="0 0 24 24">
    <path d="M12 15c-1.65 0-3-1.35-3-3s1.35-3 3-3 3 1.35 3 3-1.35 3-3 3ZM12 10.36c-.9 0-1.64.74-1.64 1.64s.74 1.64 1.64 1.64 1.64-.74 1.64-1.64-.74-1.64-1.64-1.64ZM3 15c-1.65 0-3-1.35-3-3s1.35-3 3-3 3 1.35 3 3-1.34 3-3 3ZM3 10.36c-.9 0-1.64.74-1.64 1.64s.74 1.64 1.64 1.64 1.64-.74 1.64-1.64-.74-1.64-1.64-1.64ZM21 15c-1.65 0-3-1.35-3-3s1.35-3 3-3 3 1.35 3 3-1.35 3-3 3ZM21 10.36c-.9 0-1.64.74-1.64 1.64s.74 1.64 1.64 1.64 1.64-.74 1.64-1.64-.74-1.64-1.64-1.64Z"></path>
  </symbol>
  <symbol id="validated" viewBox="0 0 24 24">
    <path d="M9.75 19c-.19 0-.37-.07-.52-.2L.21 10.38c-.28-.27-.28-.7 0-.97s.75-.27 1.04 0l8.5 7.94 13-12.15c.28-.27.75-.27 1.04 0s.28.7 0 .97l-13.52 12.63c-.14.13-.33.2-.52.2Z"></path>
  </symbol>
  <symbol id="education" viewBox="0 0 48 48">
    <path d="M29.77 24.64c.07-.09.12-.18.17-.27.37-.6.51-1.14.21-1.14-.99.48-2.07.74-3.17.77-2.16 0-2.7-1.07-5.78-1.07a3.71 3.71 0 0 0-2.6.68c-.24.16-.37.43-.35.71.02.13.07.26.15.37.59.75 1.25 1.46 1.95 2.11.94 1.05 1.5 2.38 1.58 3.79a.77.77 0 0 0 .76.69h2.74a.77.77 0 0 0 .77-.69c.09-1.41.65-2.74 1.59-3.79a20.91 20.91 0 0 0 1.59-1.67c.14-.15.27-.31.38-.48h0zm1.2-14.88c-.24-.14-.55-.06-.68.18l-1.15 2c-.14.24-.06.55.18.68.24.14.55.06.68-.18l1.15-2c.14-.24.06-.54-.18-.68zm5.04 5.05c-.14-.24-.44-.32-.68-.19l-2 1.15c-.24.14-.32.44-.18.68s.44.32.68.18l2-1.15c.24-.14.32-.44.18-.68zM24.09 7.92c-.28 0-.5.22-.5.5v2.31c0 .28.22.5.5.5s.5-.22.5-.5V8.42c0-.28-.22-.5-.5-.5zm9.16 13.78s0-.05-.02-.08a9.16 9.16 0 0 0-9.22-9.09 9.16 9.16 0 0 0-9.09 9.22 9.18 9.18 0 0 0 2.95 6.67h0a5.22 5.22 0 0 1 1.67 3.84v.4a1.64 1.64 0 0 0 1.16 1.57v3.05c0 .91.73 1.65 1.64 1.65h.17c.28.87 1.2 1.35 2.07 1.07.51-.16.91-.56 1.07-1.07h.17c.91 0 1.65-.73 1.65-1.64h0v-3.05a1.64 1.64 0 0 0 1.17-1.58v-.4a5.22 5.22 0 0 1 1.67-3.84h0a9.12 9.12 0 0 0 2.95-6.72zm-9.18 17.38c-.15 0-.29-.05-.4-.15h.8a.7.7 0 0 1-.4.15h0zm1.74-1.15h-3.47c-.36 0-.65-.29-.65-.64v-2.97h4.77v1.31H23.5c-.28 0-.5.22-.5.5s.22.5.5.5h2.96v.66a.65.65 0 0 1-.65.65h0zm1.83-5.67v.4a.66.66 0 0 1-.66.66H21.2a.66.66 0 0 1-.66-.66h0v-.4c0-1.74-.72-3.39-1.99-4.57h0a8.17 8.17 0 0 1-.46-11.53 8.17 8.17 0 0 1 11.53-.46 8.18 8.18 0 0 1 2.62 6v.05a8.06 8.06 0 0 1-2.63 5.94h0c-1.27 1.18-1.99 2.84-1.99 4.57h0z"></path>
  </symbol>
  <symbol id="animation" viewBox="0 0 48 48">
    <path d="M23.93 11.84c.87 0 1.58.7 1.58 1.58h1a2.58 2.58 0 0 0-2.58-2.58h0v1zm-1.58 1.58c0-.87.7-1.58 1.58-1.58h0v-1a2.58 2.58 0 0 0-2.58 2.58h1zM23.93 15c-.87 0-1.58-.7-1.58-1.58h-1A2.58 2.58 0 0 0 23.93 16h0v-1zm1.58-1.58c0 .87-.7 1.58-1.58 1.58h0v1a2.58 2.58 0 0 0 2.58-2.58h-1zm-6.13 6.25v1.88h1v-1.88h-1zm2.13-2.14c-1.18 0-2.13.96-2.13 2.14h1a1.13 1.13 0 0 1 1.13-1.14v-1zm5 0h-5v1h5v-1zm2.13 2.13a2.14 2.14 0 0 0-2.13-2.13v1c.62 0 1.13.51 1.13 1.13h1zm0 1.88v-1.88h-1v1.88h1zm2.58 3.67c.87 0 1.58.7 1.58 1.58h1a2.58 2.58 0 0 0-2.58-2.58h0v1zm-1.58 1.58c0-.87.71-1.58 1.58-1.58h0v-1a2.58 2.58 0 0 0-2.58 2.58h1zm1.58 1.58c-.87 0-1.58-.71-1.58-1.58h-1a2.58 2.58 0 0 0 2.58 2.58h0v-1zm1.58-1.58c0 .87-.7 1.58-1.58 1.58h0v1a2.58 2.58 0 0 0 2.58-2.58h-1zm-6.13 6.25v1.88h1v-1.88h-1zm2.13-2.14c-1.18 0-2.13.96-2.13 2.14h1a1.13 1.13 0 0 1 1.13-1.14v-1zm5 0h-5v1h5v-1zm2.12 2.13a2.14 2.14 0 0 0-2.13-2.13v1c.62 0 1.13.51 1.13 1.13h1zm0 1.88v-1.88h-1v1.88h1zm-19.28-9.7c.87 0 1.58.7 1.58 1.58h1a2.58 2.58 0 0 0-2.58-2.58h0v1zm-1.58 1.58c0-.87.7-1.58 1.58-1.58h0v-1a2.58 2.58 0 0 0-2.58 2.58h1zm1.58 1.58c-.87 0-1.58-.7-1.58-1.58h-1a2.58 2.58 0 0 0 2.58 2.58h0v-1zm1.58-1.58c0 .87-.7 1.58-1.58 1.58h0v1a2.58 2.58 0 0 0 2.58-2.58h-1zm-6.14 6.25v1.88h1v-1.88h-1zm2.13-2.14c-1.18 0-2.13.96-2.13 2.14h1a1.13 1.13 0 0 1 1.13-1.14v-1zm5.01 0h-5.01v1h5.01v-1zm2.13 2.13a2.14 2.14 0 0 0-2.13-2.13v1c.62 0 1.13.51 1.13 1.13h1zm0 1.88v-1.88h-1v1.88h1zm2.16-12.85h1v2.92h-1v-2.92zm-2.18 4.22l2.38-1.71.58.81-2.38 1.71-.58-.81zm2.39-.89l.58-.81 2.37 1.71-.58.81-2.37-1.71z"></path>
  </symbol>
  <symbol id="recruitment" viewBox="0 0 48 48">
    <path d="M24 13.84c1.05 0 1.91.86 1.91 1.91h1c0-1.61-1.3-2.91-2.91-2.91v1zm-1.9 1.91c0-1.05.86-1.91 1.91-1.91v-1c-1.61 0-2.91 1.3-2.91 2.91h1zm1.9 1.91c-1.05 0-1.91-.86-1.91-1.91h-1c0 1.61 1.3 2.91 2.91 2.91v-1zm1.91-1.91c0 1.05-.86 1.91-1.91 1.91v1c1.61 0 2.91-1.3 2.91-2.91h-1zm-4.33 13.61v6.14h1v-6.14h-1zm-1.9-1.89a2.4 2.4 0 0 0 2.4 2.39v-1c-.77 0-1.39-.62-1.4-1.39h-1zm0-5.19v5.19h1v-5.19h-1zm2.39-2.4a2.4 2.4 0 0 0-2.39 2.4h1c0-.77.62-1.39 1.39-1.4v-1zm3.86 0h-3.86v1h3.86v-1zm2.39 2.39c0-1.32-1.07-2.38-2.39-2.39v1c.77 0 1.38.62 1.39 1.39h1zm0 5.19v-5.19h-1v5.19h1zm-2.38 2.39c1.32 0 2.38-1.07 2.38-2.39h-1a1.4 1.4 0 0 1-1.38 1.39v1zm.5 5.64v-6.14h-1v6.14h1zm-4.36-6.13h.5v-.5h-.5v.5zm3.86-.01v-.5h-.5v.5h.5zm5.04-13.06c1.05 0 1.91.86 1.91 1.91h1c0-1.61-1.3-2.91-2.91-2.91v1zm-1.91 1.91c0-1.05.86-1.91 1.91-1.91v-1c-1.61 0-2.91 1.3-2.91 2.91h1zm1.91 1.91c-1.05 0-1.91-.86-1.91-1.91h-1c0 1.61 1.3 2.91 2.91 2.91v-1zm1.9-1.91c0 1.05-.86 1.91-1.91 1.91v1c1.61 0 2.91-1.3 2.91-2.91h-1zm-.95 4.18h-2.3v1h2.3v-1zm2.4 2.39a2.4 2.4 0 0 0-2.4-2.39v1c.77 0 1.39.62 1.4 1.39h1zm0 3.85v-3.85h-1v3.85h1zm-2.38 2.39c1.32 0 2.38-1.07 2.38-2.39h-1a1.4 1.4 0 0 1-1.38 1.39v1zm.5 4.48v-4.98h-1v4.98h1zm-.5-4.98v-.5h-.5v.5h.5zM17.04 15.29c-1.61 0-2.91 1.3-2.91 2.91h1c0-1.05.86-1.91 1.91-1.91v-1zm2.9 2.91c0-1.61-1.3-2.91-2.91-2.91v1c1.05 0 1.91.86 1.91 1.91h1zm-2.9 2.91c1.61 0 2.91-1.3 2.91-2.91h-1c0 1.05-.86 1.91-1.91 1.91v1zm-2.91-2.91c0 1.61 1.3 2.91 2.91 2.91v-1c-1.05 0-1.91-.86-1.91-1.91h-1zm1.94 5.18h2.3v-1h-2.3v1zm-1.4 1.39c0-.77.63-1.39 1.4-1.39v-1c-1.32 0-2.39 1.07-2.4 2.39h1zm0 3.85v-3.85h-1v3.85h1zm1.38 1.39c-.76 0-1.38-.63-1.38-1.39h-1c0 1.32 1.06 2.38 2.38 2.39v-1zm.5 5.48v-4.98h-1v4.98h1zm-.5-4.98h.5v-.5h-.5v.5z"></path>
  </symbol>
</svg>