<svg xmlns="http://www.w3.org/2000/svg">
  <symbol id="menu" viewBox="0 0 36 24">
    <path d="M0 3.48h36M0 12h36M0 20.52h36m0 .98H0v-2h36v2zm0-8.5H0v-2h36v2zm0-8.5H0v-2h36v2z"/>
  </symbol>
  <symbol id="info" viewBox="0 0 24 24">
    <path d="M11.19 13.52l-.54-3.24c-.13-.94-.2-1.88-.2-2.83V6.2h3.1v1.25c-.05 2.04-.3 4.08-.74 6.07h-1.62zm.82 4.28a1.77 1.77 0 0 1-1.21-.38c-.29-.27-.44-.66-.42-1.05-.01-.39.15-.77.44-1.04.33-.28.75-.43 1.18-.41.43-.03.86.11 1.19.39.29.28.44.66.42 1.06.01.39-.15.76-.43 1.02-.32.29-.75.43-1.17.41h0z"/>
  </symbol>
  <symbol id="check" viewBox="0 0 24 24">
    <path d="M18.3 7.32c-.03.69-.33 1.34-.84 1.81l-.09.09-4.9 5.16c-.83.9-1.72 1.74-2.66 2.53a3.25 3.25 0 0 1-1.55.9c-.43-.04-.83-.19-1.18-.45a2.24 2.24 0 0 1-.91-.92c-.17-.55-.28-1.12-.32-1.69a21.49 21.49 0 0 1-.15-2.78c.01-.57.26-1.12.68-1.51a2.06 2.06 0 0 1 1.5-.69c.52 0 .83.48.94 1.43l.02.25c.04.52.14 1.04.29 1.54.11.29.26.44.45.44a.94.94 0 0 0 .44-.26l.78-.7 5.03-4.98c.34-.36.72-.68 1.13-.96.25-.19.54-.3.85-.33.15-.01.3.07.37.2.09.21.13.44.11.67l.01.25z"/>
  </symbol>
  <symbol id="search" viewBox="0 0 24 24">
    <path d="M9.78 3.56a6.22 6.22 0 1 0 0 12.44C13.22 16 16 13.22 16 9.78h0a6.22 6.22 0 0 0-6.22-6.22m0-3.56c5.4 0 9.78 4.38 9.78 9.78s-4.38 9.78-9.78 9.78S0 15.18 0 9.78 4.38 0 9.78 0z"/><path d="M22.22 24c-.47 0-.92-.19-1.26-.52l-5.33-5.33c-.67-.72-.64-1.84.08-2.51a1.79 1.79 0 0 1 2.44 0l5.33 5.33a1.78 1.78 0 0 1 0 2.51c-.33.33-.79.52-1.26.52z"/>
  </symbol>
  <symbol id="youtube" viewBox="0 0 104 68">
    <path d="M10 0h84c5.52 0 10 4.48 10 10v48c0 5.52-4.48 10-10 10H10C4.48 68 0 63.52 0 58V10C0 4.48 4.48 0 10 0z" fill="#f42f2f"/>
    <path d="M67.19 34L38.81 50.3V17.7L67.19 34z" fill="#fff"/>
  </symbol>
</svg>