<svg xmlns="http://www.w3.org/2000/svg" viewBox="0 0 36 36"><defs><linearGradient id="A" x1="3.08" y1="24.37" x2="3.08" y2="23.38" gradientTransform="translate(356.11 828.08) rotate(-30) scale(36.47 -36.47)" gradientUnits="userSpaceOnUse"><stop offset="0" stop-color="#ffe185"/><stop offset=".18" stop-color="#ffbb36"/><stop offset=".39" stop-color="#ff5176"/><stop offset=".6" stop-color="#f63395"/><stop offset=".8" stop-color="#a436d2"/><stop offset="1" stop-color="#5f4eed"/></linearGradient></defs><path d="M9 2.41C17.61-2.56 28.62.39 33.59 9S35.61 28.61 27 33.58 7.39 35.6 2.42 26.99h0C-2.56 18.39.39 7.38 9 2.41z" fill="url(#A)"/><path d="M22.96 11.98c-.61 0-1.1.49-1.1 1.1s.49 1.1 1.1 1.1 1.1-.49 1.1-1.1h0c0-.61-.49-1.1-1.1-1.1m-4.88 1.41c-2.55 0-4.61 2.07-4.61 4.61a4.62 4.62 0 0 0 4.61 4.61c2.55 0 4.61-2.07 4.61-4.61h0c0-2.55-2.07-4.61-4.61-4.61m0 7.56a2.95 2.95 0 0 1 0-5.9 2.95 2.95 0 0 1 0 5.9m3.66 6.41h-7.48c-3.11 0-5.62-2.52-5.63-5.63v-7.48c0-3.11 2.52-5.62 5.63-5.63h7.48c3.11 0 5.62 2.52 5.63 5.63v7.48c0 3.11-2.52 5.62-5.63 5.63M14.26 10.4c-2.13 0-3.86 1.73-3.86 3.86v7.48c0 2.13 1.73 3.86 3.86 3.86h7.48c2.13 0 3.86-1.73 3.86-3.86v-7.48c0-2.13-1.73-3.86-3.86-3.86h-7.48z" fill="#fff"/></svg>