<svg xmlns="http://www.w3.org/2000/svg" xmlns:xlink="http://www.w3.org/1999/xlink" width="40" height="40" viewBox="0 0 512 512"><defs><linearGradient gradientUnits="userSpaceOnUse" id="A" x1="8" x2="506.325" y1="504" y2="5.675"><stop offset="0" stop-color="#ffcb52"/><stop offset=".318" stop-color="#ff6341"/><stop offset=".658" stop-color="#cd39a2"/><stop offset="1" stop-color="#515bca"/></linearGradient><linearGradient id="B" xlink:href="#A"/></defs><g fill="url(#A)"><path d="M314.757 147.525H197.243a49.717 49.717 0 0 0-49.718 49.718v117.514a49.718 49.718 0 0 0 49.718 49.718h117.514a49.718 49.718 0 0 0 49.717-49.718V197.243a49.717 49.717 0 0 0-49.717-49.718zM256 324.391A68.391 68.391 0 1 1 324.391 256 68.391 68.391 0 0 1 256 324.391zm71.242-122.811a16.271 16.271 0 1 1 16.27-16.271 16.271 16.271 0 0 1-16.27 16.271z"/><path d="M256,211.545A44.455,44.455,0,1,0,300.455,256,44.455,44.455,0,0,0,256,211.545Z"/></g><path d="M256 0C114.615 0 0 114.615 0 256s114.615 256 256 256 256-114.615 256-256S397.385 0 256 0zm133.333 312.5a76.836 76.836 0 0 1-76.833 76.833h-113a76.837 76.837 0 0 1-76.834-76.833v-113a76.836 76.836 0 0 1 76.834-76.833h113a76.836 76.836 0 0 1 76.833 76.833z" fill="url(#B)"/></svg>