<svg xmlns="http://www.w3.org/2000/svg" viewBox="0 0 75 58"><path d="M39.4 37.5c2.8 0 2.8-1.4 5.6-1.4s2.8 1.4 5.6 1.4 2.8-1.4 5.6-1.4 2.8 1.4 5.6 1.4 2.8-1.4 5.6-1.4 2.8 1.4 5.6 1.4h1.5.5V0H37.5v37.5h1.9z" fill="#130c0e"/><path d="M44.3 7.6l-.1.3h0 0l-.2-.1c-.1-.1-.3-.1-.4-.1-.2 0-.4.1-.4.3 0 .1.1.2.3.4l.2.1c.3.1.6.4.6.8s-.3.8-.8.8h-.1c-.3 0-.5-.1-.8-.2v-.1h0l.1-.3h0 0c.2.1.4.2.6.2s.3-.1.3-.3v-.1c0-.2-.1-.3-.5-.5-.2-.1-.3-.2-.4-.3s-.2-.3-.2-.5c0-.4.3-.8.7-.8h.1c.5.1.8.2 1 .4h0 0zm2.9.9c0-.2.1-.3.2-.5l.3-.6.1-.1h0 0l.3.1.1.1h0l-.7 1.4v1l-.1.1H47l-.1-.1v-1l-.7-1.4h0 0 .1l.4-.1h0l.1.1.3.5c0 .1.1.2.1.3v.2zm4.2.7v-.1-1.7l.1-.1h.3l.1.1v2.5l-.1.1h-.2-.2l-.7-1.3c-.1-.2-.2-.4-.2-.6v.1.3 1.4l-.1.1h-.3l-.1-.1V7.4l.1-.1h.3l.1.1.6 1.2c.2.2.2.4.3.6m3.3-1.4v1.8h.1c.3 0 .4 0 .5-.2s.2-.5.1-.7c0-.3 0-.5-.1-.8-.1-.1-.2-.2-.5-.2l-.1.1zm-.5-.5h.6.2.3c.1 0 .2.1.3.2.2.3.3.7.3 1.1 0 .8-.2 1.2-.6 1.3l-.3.1h-.8l-.1-.1.1-2.6h0zm3.8 0h0l-.1.3.1.1h.2v1.9H58l-.1.1v.3h.1.9.1v-.3l-.1-.1h-.2V7.7h.2l.1-.1v-.2l-.1-.1H58zm4.6.3l-.2.3h0 0l-.1-.1-.3-.1c-.3 0-.4.3-.4.8 0 .7.2 1.1.5 1.1.1 0 .3-.1.3-.1h0 0l.2.3h0l-.1.1c-.2.1-.3.2-.5.1-.6 0-1-.5-1-1.4 0-.4.1-.8.3-1.1.2-.2.4-.3.7-.3.2 0 .4.1.6.2v.2h0zM65.2 9h.5l-.1-.7c0-.2 0-.2-.1-.5 0 .2-.1.4-.1.5l-.2.7zm.6.3h-.7l-.2.7h-.1-.4-.1 0 0l.8-2.5h0 0 .1.4l.1.1.8 2.5h0-.1-.4l-.1-.1-.1-.7zm3.3-1.5v2.1l-.1.1h-.4l-.1-.1V7.8H68v-.1-.3l.1-.1h1.6.1 0l-.1.3-.1.1-.5.1zm-25.6 5.9v2.4h.2c.3 0 .5-.1.6-.2.1-.3.2-.6.2-1s0-.7-.2-1c-.1-.2-.3-.2-.6-.2h-.2zm-.6-.6h.8.3c.1 0 .3 0 .4.1.2 0 .3.1.4.3.3.4.4.9.4 1.4 0 1-.3 1.6-.8 1.8-.1 0-.3.1-.4.1h-1.1l-.1-.1v-3.4l.1-.2zm4.6.6v.9h.9l.1.1v.3l-.1.1h-.9v1h1.1l.1.1v.3l-.1.1h-1.7l-.1-.1v-3.4l.1-.1h1.7l.1.1v.1l-.1.4-.1.1h-1zm4.5-.3l-.2.4h0 0l-.2-.1c-.2-.1-.3-.1-.5-.1-.3 0-.5.1-.5.4 0 .2.1.3.5.5l.3.1c.5.2.7.6.7 1.1 0 .6-.4 1.1-1 1.1H51c-.3 0-.7-.1-1-.2l-.1-.1v-.1l.2-.5h0 0c.2.1.5.2.8.2a.55.55 0 0 0 .5-.3v-.1c0-.3-.1-.4-.7-.7-.2-.1-.4-.2-.6-.4s-.3-.4-.2-.6a.94.94 0 0 1 1-1h.1c.3 0 .7.1.9.3l.1.1h0zm4.5.3v.9h.9l.1.1v.3l-.1.1h-.9v1h1.1l.1.1v.3l-.1.1h-1.7l-.1-.1v-3.4l.1-.1h1.7l.1.1v.1l-.1.4-.1.1h-1zm3.3 1.6h.7l-.2-.9c-.1-.2-.1-.3-.1-.7 0 .3-.1.5-.1.7l-.3.9zm.8.4h-.9l-.2.9-.1.1h-.5l-.1-.1h0 0l1-3.4h0 0 .1.5l.1.1 1 3.4v.1l-.1.1H61l-.1-.1-.3-1.1zm2.4-2.6h.5l.1.1v2.3c0 .6.1.7.5.7s.6-.2.6-.7v-2.3l.1-.1h.5l.1.1v2.3c.1.4-.1.8-.4 1s-.6.3-.9.3c-.4.1-.9-.2-1.1-.6-.1-.2-.1-.5-.1-.7v-2.3l.1-.1zm4.6 1.7l-.9-1.5h0 0l.1-.1.5-.1h0 0l.1.1.4.8c.1.1.1.2.2.4a.76.76 0 0 1 .2-.4l.4-.8.1-.1h.1l.5.1.1.1v.1l-.8 1.5 1 1.7v.1l-.1.1-.5.1h-.1l-.1-.1-.5-1c-.1-.1-.1-.2-.2-.3v.1l-.1.2v.1l-.5.9-.1.1h0 0l-.5-.1-.1-.1v-.1l.8-1.8zm-24 5.6v2.5h.2c.4 0 .5-.1.6-.2.2-.3.2-.7.2-1 0-.4 0-.7-.2-1.1-.1-.2-.3-.3-.6-.3h-.2zm-.7-.6h.8.3c.1 0 .3 0 .4.1.2.1.3.2.5.3.3.4.4.9.4 1.5 0 1.1-.3 1.7-.9 1.8-.1 0-.3.1-.4.1h-1.1l-.1-.1V20l.1-.2zm4.4-.2l-.1.1-.3 1.1h0 0l.1.2.2.1h.1l.1-.1.6-1.2v-.1l-.1-.1h-.6zm3.3.7V23h.3l.1.1v.3l-.1.1h-1.3l-.1-.1v-.3l.1-.1h.3v-2.7h-.3l-.1-.1v-.3l.1-.1h1.3l.1.1v.3l-.1.1h-.3zm3 2.5h1.3l.1.1h0 0l-.1.5-.1.1H53l-.1-.1v-3.5l.1-.1h.5l.1.1v2.9zm3.7-2.4v.9h.9l.1.1v.4l-.1.1h-.9V23h1.1l.1.1v.4l-.1.1h-1.8l-.1-.1V20l.1-.1h1.8l.1.1v.1l-.1.4-.1.1-1-.2zm6.3 0v2.5h.2c.4 0 .5-.1.6-.2.2-.3.2-.7.2-1 0-.4 0-.7-.2-1.1-.1-.2-.3-.3-.6-.3h-.2zm-.7-.6h.8.3c.2 0 .3 0 .4.1.2.1.3.2.5.3.3.4.4.9.4 1.5 0 1.1-.3 1.7-.9 1.8-.1 0-.3.1-.4.1h-1.1l-.1-.1V20l.1-.2zm5 .6v.9h.9l.1.1v.4l-.1.1h-.9V23H69l.1.1v.4H69h-1.8l-.1-.1v-3.5l.1-.1H69l.1.1v.1l-.1.3-.1.1h-1zM43.5 27v.9h.9l.1.1v.4l-.1.1h-.9V30l-.1.1h-.5l-.1-.1v-3.5l.1-.1h1.8l.1.1v.1l-.1.4h-.1-1.1zm4.4 1h.2c.5 0 .6-.1.6-.6 0-.4-.1-.5-.6-.5h-.2V28zm.9.5l.8 1.4v.1l-.1.1-.5.1h-.1l.1-.1-.8-1.5h-.3V30l-.1.1h-.5l-.1-.1v-3.5l.1-.1h.9c.3 0 .7 0 .9.2.5.5.4 1.3-.1 1.7 0 .1-.1.2-.2.2m4.2.1h.7l-.2-.9c0-.2-.1-.3-.1-.7 0 .2-.1.5-.1.7l-.3.9zm.8.5h-.9l-.2.9-.1.1H52l-.1-.1h0 0l1.1-3.5v-.1h0 .1.6l.1.1 1.1 3.5v.1l-.1.1h-.6l-.1-.2-.3-.9zm5.4-.2v-.2-2.2l.1-.1h.4l.1.1V30l-.1.1h-.3l-.2-.1-.9-1.8c-.1-.2-.3-.5-.3-.8v.2.4 2l-.1.1h-.4l-.2-.1v-3.5l.1-.1h.4l.1.1.9 1.6c.2.3.3.5.4.8m5.5-2.1l-.2.4h-.1 0l-.1-.1a.76.76 0 0 0-.4-.2c-.4 0-.6.4-.6 1.2 0 1 .2 1.5.7 1.5.2 0 .4-.1.5-.2h0 .1l.2.4v.1l-.2.1c-.2.1-.5.2-.7.2-.9 0-1.4-.7-1.4-2 0-.5.1-1.1.4-1.5.2-.3.6-.4.9-.4s.6.1.9.3v.2h0zm3.2.2v.9h.9l.1.1v.4l-.1.1h-.9v1.1H69l.1.1v.3l-.1.1h-1.8V30v-3.5l.1-.1h1.8l.1.1v.1l-.1.4H69h-1.1z" fill="#fff"/><path d="M0 0h37.5v37.5H0z" fill="#187cb5"/><path d="M6.6 15.2c1.5.2 1.6 2.9 1.6 2.9-1.1-.2-2.2-.3-3.3 0-.1-.5 0-1 .3-1.5-.9.1-1.2 1.3-1.2 1.7-.1 0-.2.1-.4.2l-.3.2v2.1c0 .1.1.2.2.2.1.1.2.1.3.1v3c.6.6 1.5.8 2.3.8 1 .1 1.9-.3 2.6-.9v-3c.1 0 .3-.1.4-.1.3-.1.3-.2.3-.2v-2c-.2-.2-.4-.3-.7-.4 0-2.6-.8-3.1-1.1-3.6 0 0 .2-.4 2.6-1.5l2.7-1.1c-.7.8-1.3 1.5-1.5 3.8-.2 1.4.7 2.9 1.5 3-.2-1.5-.1-3 .3-4.4.5-1.5 1.2-3 2-4.5-2.1.6-4.2 1.5-6.2 2.6-2.2 1.1-4.1 2.6-5.8 4.4l-.1.4.1.1c.2 0 1.2-1.1 2-1.6 1.3-.8 1.4-.7 1.4-.7m-2.2 4.5s.4-.5 1.9-.5 1.8.5 1.8.5-.4.6-1.8.6c-1.7 0-1.9-.6-1.9-.6m24.9-6.9s.4-.5 1.9-.5 1.8.5 1.8.5-.4.6-1.9.6c-1.6 0-1.8-.6-1.8-.6m-7.2-3.4c.1.2-.3.4-.9.6-.3.1-.5.3-.7.6-.4.5-.1 1-.1 1.8.4 2.2.5 4.4.2 6.7-.2 1.7-.8 3.3-1.6 4.7.4.1.8.1 1.2 0h.6s-1 1.7-1.1 2.1c-.2.4-.9 2.2-.7 2.4.2.1.8-.2.9.2s-.2.5-.9 2.3c-.3.8-.8 2-.6 2.2.5.4.9-.1 1 .1.2.3-.3.5-.6.6-.8.3-1 .1-1 .4 0 .2.3.4.9.4.3 0 .8-.2 1.2-.1.6.2 1.3.2 1.9 0 .4-.1 1.2-.4.9-.8s-1.3.1-1.7-1c-.3-.9.3-2.8.9-4.2s2.1-3.5 2.5-4.6c.4-1.5.3-3.1-.2-4.5-.4-1.3-2.3-4.9-2.7-6-.2-.6-.7-1.5-.2-1.7.5 0 1 .1 1.5.2.7.2 1.4.2 2.1.1.4-.2 0-.5.2-.7.1-.1 1.1.6 1.4.4s-.1-.8.2-.9.4.6 2.3-.3c.7-.3 1.3-.8 1.7-1.4.5 0 1-.1 1.4-.4.5.4.8 1.1.9 1.7.1.4.1.7 0 1.1-.6-.2-1.2-.3-1.8-.2-.5 0-1 .2-1.5.3v-.6c0-.2 0-.4.1-.6-.3.1-.5.4-.6.6s-.2.5-.2.8l-.4.2-.3.3V14c.1.1.2.2.3.2.1.1.2.1.4.1v3c.7.6 1.6.8 2.5.7.9 0 1.7-.2 2.4-.7v-3c.1 0 .2 0 .3-.1s.2-.1.3-.2v-2s0-.1-.3-.2l-.3-.2c.1-.6 0-1.2-.1-1.8-.1-.4-.2-.8-.4-1.2a4.53 4.53 0 0 0 .8.1c.2 0 .3 0 .3-.2s-.1-.3-.6-.5c-.4-.1-.8-.2-1.2-.2-.1 0 .1-.3-.1-.5s-.6-.2-.9-.2c-.1 0-.1-.2-.3-.2-.3-.1-.2.1-.4.1-.1 0-.1-.2-.4-.2s-.7.6-.9.6c-1.6-.2-3.2-.2-4.8 0-3.1.4-4.5 2.2-4.3 2.2.3-.1.6-.1.8-.2.3-.1.7-.1.7 0M18.3 14c-.1-.9 0-1.7.1-2.6 0 0-.8.2-1.1 2.4-.3 2.1.1 5-.4 6.8-.8 2.9-1.6 2.9-3.2 4.4-.9.8-1.6 1.8-2.1 2.8 0 .5.8 0 .8.4.1.3-.8.9-1.5 2.2s-1.3 2.4-1 2.7.8 0 .9.1 0 .4-.4.6c-.7.3-1 .1-1 .4s.4.3.6.3c.4 0 .7-.2 1-.2.4 0-.1.2 1.4.2 1 0 1.8-.3 1.8-.7-.1-.4-.5-.3-1.1-.5s-1-.6-.5-1.8c.6-1.7 1.7-3.2 3-4.4 1.3-1 2.3-2.3 3.1-3.7.8-1.7.6-3.8.1-6.3l-.5-3.1M17 12c-1.6 2-2.8 4.3-3.4 6.8-.4 1.6-.6 3.2-.6 4.8.3.1.5.2.8.2s.6 0 .8-.1a44.14 44.14 0 0 1 .3-4.3c.5-2.5 1.2-5 2.1-7.4m-1-3.7c.2-.5.4-1 .7-1.5.3-.7.9-1.2 1.7-1.3.9-.3 1.7-.1 1.8.4.1.6-.9.6-1.1.7-.4.1-1 .3-1.1.5s0 .3.1.4c.2.1.4 0 .4.1.2.1 0 .5-.1.6 0 .1-.2.3 0 .4s.4 0 .9-.1c.4-.1.5-.3.5-.5 0-.1-.1-.3-.3-.3s-.5-.1-.4-.2c0-.2.4-.2.6-.3.2 0 .4 0 .6.1.3 0 1.7-.9 1.8-1.8-.1-1.4-1.2-2.6-2.7-2.6-1.4.1-2.7.5-3.9 1.3-.6.9-1.1 1.8-1.4 2.7-.1.5-.1 1-.1 1.4-.1.6.3 1.1.8 1.2.5 0 1-.2 1.4-.5-.1 0-.2-.3-.2-.7" fill="#fff"/><path d="M1.2 56.3L.8 56c-.2-.1-.4-.3-.6-.5-.1-.2-.2-.4-.2-.6 0-.3.1-.6.3-.8s.5-.3.8-.3.6.1.9.3v.6c-.2-.3-.6-.4-.9-.4-.2 0-.3 0-.5.1-.1.1-.2.2-.2.3l.1.3c.1.1.3.2.4.3l.4.3c.7.4 1 .9 1 1.3 0 .3-.1.6-.3.8s-.5.3-.8.3c-.4 0-.8-.1-1.1-.4v-.7c.2.4.6.6 1.1.6.2 0 .3 0 .4-.1s.2-.2.2-.4c0-.3-.2-.5-.6-.7M3.4 54v4h2.3v-.5H3.9v-1.2h1.6v-.5H3.9v-1.2h1.7V54H3.4zm4.1.5h-.2v1.2h.2c.2 0 .4 0 .6-.1l.2-.2c.1-.1.1-.2.1-.3s0-.2-.1-.3l-.3-.2c-.1-.1-.3-.1-.5-.1m-.8 3.4v-4h1a1.93 1.93 0 0 1 1 .3c.2.3.3.6.3.9 0 .4-.3.8-.7 1 .1.1.3.2.4.3.2.2.4.5.5.8.1.2.2.4.3.5l.2.3h-.6l-.2-.3h0l-.1-.2-.2-.3-.2-.3c-.1-.1-.2-.3-.3-.4l-.3-.2c-.1 0-.3-.1-.4-.1h-.1v1.7h-.6zm6-3.9l-1.2 2.8-1.2-2.8h-.6l1.7 4h.1l1.7-4h-.5zm1.4 0h.6v4h-.6v-4zm5.3 3v.6c-.4.3-.9.4-1.4.4-.4 0-.8-.1-1.1-.3s-.6-.4-.7-.7a1.93 1.93 0 0 1-.3-1c0-.6.2-1.1.6-1.5s1-.6 1.5-.6 1 .1 1.4.3v.6c-.4-.2-.9-.4-1.4-.4-.4 0-.8.1-1.1.4-.6.6-.6 1.5 0 2.1.3.3.7.4 1.1.4.5.2 1 0 1.4-.3m1.2-3v4h2.3v-.5h-1.7v-1.2h1.6v-.5h-1.6v-1.2h1.7V54h-2.3zm6.5.5h-.6v1.2h.6c.2 0 .4 0 .5-.2.1-.1.2-.3.2-.5 0-.3-.2-.5-.7-.5m-1.2 3.4v-4h1.3c.3 0 .6.1.9.3.2.2.3.5.3.8 0 .2-.1.4-.2.6s-.3.3-.5.4c-.3.1-.6.1-.9.1h-.4v1.7h-.5zm6.2-3.9h.6v2.2c0 .2 0 .5-.1.7a.76.76 0 0 1-.2.4l-.2.3c-.3.3-.8.4-1.2.4s-.9-.1-1.2-.4l-.2-.3c-.1-.1-.1-.2-.2-.4 0-.2-.1-.5-.1-.7V54h.6v2.2c0 .3 0 .5.1.8.1.2.2.3.4.3.2.1.4.1.6.1.3 0 .6-.1.8-.3.1-.1.2-.2.2-.3.1-.2.1-.4.1-.7V54zm2.9 2.2h-.5v1.3h.5c.2 0 .4 0 .6-.1l.3-.2.1-.3-.1-.3c-.1-.1-.2-.2-.3-.2-.2-.2-.4-.2-.6-.2m-.1-1.7h-.5v1.2h.4c.2 0 .5 0 .6-.2a.76.76 0 0 0 .2-.4c.1-.4-.2-.6-.7-.6m.3 3.4h-1.3v-4h1c.3 0 .5 0 .8.1a.78.78 0 0 1 .4.4c.1.2.1.3.1.5 0 .4-.2.7-.6.8.3 0 .5.2.7.4s.3.4.3.7c0 .2-.1.4-.2.5-.1.2-.3.3-.5.4-.1.2-.4.3-.7.2m2.4-3.9v4h2.3v-.5h-1.8V54h-.5zm3.3 0h.6v4h-.6v-4zm5.3 3v.6c-.4.2-.9.4-1.4.3-.4 0-.8-.1-1.1-.3s-.6-.4-.7-.7a1.93 1.93 0 0 1-.3-1c0-.6.2-1.1.6-1.5s1-.6 1.5-.6 1 .1 1.4.3v.6c-.4-.2-.9-.4-1.4-.4-.4 0-.8.1-1.1.4s-.5.7-.4 1.1c0 .4.1.8.4 1.1s.7.4 1.1.4c.5.2 1 0 1.4-.3m4.4-2.5h-.7v2.9h.7c.2 0 .4 0 .7-.1.1 0 .3-.1.4-.1l.3-.2c.3-.3.4-.7.4-1.1s-.1-.8-.4-1c-.1-.1-.2-.2-.4-.2-.1-.1-.3-.1-.4-.1-.2-.1-.4-.1-.6-.1m-1.2 3.4v-4h1.3c.4 0 .9.1 1.3.2.3.2.6.4.7.7.3.5.4 1.2.1 1.8a1.98 1.98 0 0 1-1.1 1.1c-.1.1-.3.1-.4.1h-.7l-1.2.1zm4.8-3.9v4h2.3v-.5h-1.7v-1.2h1.6v-.5h-1.6v-1.2h1.7V54h-2.3zm5.3 0v4h2.4v-.5h-1.8V54h-.6zm2.7 1.4v-.1l.2-.2c0-.1.1-.2.1-.3-.2 0-.3-.2-.3-.4l.1-.3.2-.1.3.2c.1.1.1.3.1.4 0 .2-.1.4-.2.6-.1 0-.3.1-.5.2m1.9-1.4v4h2.3v-.5h-1.7v-1.2h1.6v-.5h-1.6v-1.2h1.7V54h-2.3zm4.8.8l.6 1.4h-1.2l.6-1.4zm-.2-.9l-1.7 4h.6l.5-1.2h1.7l.5 1.2h.6l-1.8-4h-.4zm5.7.1h.6v2.2c0 .2 0 .5-.1.7a.76.76 0 0 1-.2.4l-.2.3c-.3.3-.8.4-1.2.4s-.9-.1-1.2-.4l-.2-.3c-.1-.1-.1-.2-.2-.4 0-.2-.1-.5-.1-.7V54h.6v2.2c0 .3 0 .5.1.8.1.2.2.3.4.3.2.1.4.1.6.1.3 0 .6-.1.8-.3.1-.1.2-.2.2-.3.1-.2.1-.4.1-.7V54z" fill="#130c0e"/><path d="M25.1 42.1v1.5c-.8-.4-1.6-.6-2.5-.7-.3 0-.6 0-.8.2a.55.55 0 0 0-.3.5c0 .2.1.3.2.4.3.2.7.4 1.1.5l1.4.6a2.36 2.36 0 0 1 .9.8c.3.4.4.8.4 1.3 0 .7-.3 1.3-.8 1.8-.6.5-1.4.7-2.2.7-1 0-2-.3-2.9-.8v-1.7c.4.3.9.6 1.4.8.4.2.9.2 1.3.2.8 0 1.2-.2 1.2-.7 0-.2-.1-.4-.2-.5-.3-.2-.7-.4-1.1-.5l-1.4-.6a2.36 2.36 0 0 1-.9-.8c-.3-.4-.4-.8-.4-1.3 0-.7.3-1.3.8-1.6.6-.4 1.4-.7 2.2-.6.9-.1 1.8.1 2.6.5m8.5 6v1.5h-5.8v-7.9h5.8v1.5h-3.8v1.7h3.6v1.4h-3.6v1.9l3.8-.1zm4.4-5v5h1.3c.7 0 1.4-.2 1.9-.7a2.87 2.87 0 0 0 0-3.7c-.5-.5-1.2-.7-1.9-.7H38zm-2-1.5h3.5c1.2-.1 2.3.3 3.2 1.1.8.7 1.2 1.8 1.2 2.9.1 1.1-.4 2.2-1.2 2.9-1 .8-2.2 1.1-3.4 1.1H36v-8zm9.4 0h2v7.9h-2v-7.9zm10.2 0V43h-3.5v1.8h3.5v1.5h-3.5v3.2h-2v-7.9h5.5z" fill="#187cb5"/></svg>