<svg xmlns="http://www.w3.org/2000/svg" viewBox="0 0 241.87 79.3"><g fill="#fff"><path d="M56.11 47.81c-.93.99-2.51 2.01-5.04 2.01s-4.11-1.02-5.04-2.01c-1.31-1.43-1.72-2.92-1.72-6s.41-4.58 1.72-6c.93-.99 2.51-2.01 5.04-2.01s4.11 1.02 5.04 2.01c1.31 1.43 1.72 2.94 1.72 6s-.41 4.58-1.72 6zm-3.76-9.27c-.29-.29-.7-.44-1.28-.44s-.99.15-1.28.44c-.61.61-.7 1.72-.7 3.27s.09 2.65.7 3.26c.29.29.7.44 1.28.44s.99-.15 1.28-.44c.61-.61.7-1.72.7-3.26s-.09-2.65-.7-3.27zm18.13 11.11v-1.28c-.96.96-2.39 1.46-3.64 1.46-1.49 0-2.68-.5-3.53-1.34-1.34-1.34-1.57-2.83-1.57-4.49V33.97h4.78v9.39c0 1.81 1.28 2.16 1.92 2.16s1.92-.35 1.92-2.16v-9.39h4.78v15.68h-4.66z" fill-rule="evenodd"/><path d="M79.75 34.58h4.78v15.07h-4.78z"/><g fill-rule="evenodd"><path d="M94.44 49.82c-2.36 0-4.66-.12-6.82-2.27l3.09-3.09c1.31 1.31 3 1.31 3.82 1.31.7 0 2.04-.2 2.04-1.02 0-.44-.2-.9-1.14-.99l-2.42-.23c-2.71-.26-4.55-1.49-4.55-4.55 0-3.47 3.12-5.19 6.24-5.19 2.57 0 4.63.38 6.18 1.92l-2.94 2.94c-.79-.79-2.1-.93-3.32-.93s-1.54.55-1.54.9c0 .18-.06.76 1.02.87l2.42.24c3.29.32 4.72 2.27 4.72 4.78 0 3.7-3.15 5.31-6.79 5.31h0zm44.09-.17v-1.28c-.96.96-2.39 1.46-3.64 1.46-1.49 0-2.68-.5-3.53-1.34-1.34-1.34-1.57-2.83-1.57-4.49V33.97h4.78v9.39c0 1.81 1.28 2.16 1.92 2.16s1.93-.35 1.93-2.16v-9.39h4.78v15.68h-4.67zm26.53 0v-9.39c0-1.81-1.28-2.16-1.92-2.16s-1.92.35-1.92 2.16v9.39h-4.78v-9.39c0-1.81-1.28-2.16-1.92-2.16s-1.92.35-1.92 2.16v9.39h-4.78V33.97h4.66v1.28c.96-.96 2.39-1.46 3.64-1.46 1.55 0 2.8.49 3.82 1.66 1.37-1.2 2.62-1.66 4.43-1.66 1.49 0 2.92.49 3.76 1.34 1.34 1.34 1.72 2.83 1.72 4.49v10.03h-4.79z"/><use href="#B"/><use href="#B" x="94.55"/></g><path d="M174.3 34.58h4.78v15.07h-4.78z"/><g fill-rule="evenodd"><path d="M187.68 43.35c0 1.28.99 2.45 2.77 2.45 1.66 0 2.39-.47 3.24-1.31l2.86 2.86c-1.6 1.6-3.18 2.48-6.09 2.48-3.47 0-7.46-1.25-7.46-8.01 0-5.13 2.91-8.02 7.02-8.02 4.55 0 7.05 3.32 7.05 7.43v2.13h-9.39zm1.25-11.49l-3.44-5.25h4.9l1.43 5.25h-2.89 0zm3.15 7.08c-.29-.67-.93-1.22-2.07-1.22s-1.78.55-2.07 1.22a2.77 2.77 0 0 0-.26 1.22h4.66c0-.38-.06-.82-.26-1.22zm16.9-.02c-.47-.47-.9-.82-1.72-.82-.64 0-1.93.38-1.93 2.16v9.39h-4.78V33.97h4.66v1.28c.7-.7 2.07-1.46 3.7-1.46 1.54 0 2.59.38 3.67 1.46l-3.61 3.67h0zm9.05 4.43c0 1.28.99 2.45 2.77 2.45 1.66 0 2.39-.47 3.23-1.31l2.86 2.86c-1.6 1.6-3.18 2.48-6.09 2.48-3.47 0-7.46-1.25-7.46-8.01 0-5.13 2.91-8.02 7.02-8.02 4.55 0 7.05 3.32 7.05 7.43v2.13h-9.39 0zm4.4-4.41c-.29-.67-.93-1.22-2.07-1.22s-1.78.55-2.07 1.22a2.77 2.77 0 0 0-.26 1.22h4.66c0-.38-.06-.82-.26-1.22zm-108.46-7.62h5.09v13.99h7.99v4.36h-13.08V31.32h0zm-85.59 0h5.11v13.99h7.98v4.36H28.38V31.32h0zM66.49 0v19.37H16.56v30.3H0V0h66.49 0zm18.12 60.3c0 .97.51 1.58 1.44 1.58.64 0 .97-.18 1.37-.58l.73.68c-.58.58-1.13.88-2.12.88-1.42 0-2.54-.75-2.54-2.9 0-1.83.95-2.89 2.4-2.89s2.4 1.12 2.4 2.72v.5h-3.68zM87 58.75a1.17 1.17 0 0 0-1.12-.71c-.54 0-.95.29-1.13.71-.11.26-.13.42-.14.77h2.54c-.01-.35-.04-.51-.16-.77H87zm-.8-2.62h-.86l.84-1.81h1.26l-1.24 1.81zm6.22 6.74c-1.27 0-2.52-.78-2.52-2.9s1.25-2.89 2.52-2.89c.78 0 1.33.22 1.86.79l-.78.76c-.36-.39-.64-.54-1.08-.54s-.8.18-1.05.5c-.25.31-.33.72-.33 1.37s.09 1.07.33 1.39c.25.32.61.5 1.05.5s.72-.14 1.08-.54l.78.75c-.53.57-1.08.8-1.86.8h0zm7.37-.67c-.37.38-.93.67-1.7.67s-1.32-.29-1.69-.67c-.53-.56-.67-1.27-.67-2.23s.13-1.66.67-2.22c.37-.38.91-.67 1.69-.67s1.33.29 1.7.67c.53.56.67 1.27.67 2.22s-.13 1.68-.67 2.23zm-.86-3.78c-.21-.21-.5-.32-.84-.32s-.61.11-.83.32c-.35.34-.39.94-.39 1.55s.04 1.21.39 1.55c.21.21.49.34.83.34s.62-.12.84-.34c.35-.35.39-.94.39-1.55s-.04-1.2-.39-1.55zm4.99 4.38c-1.07 0-1.55-.73-1.55-1.56v-6.39h1.14v6.32c0 .43.15.66.61.66h.5v.97h-.7zm3.19-2.5c0 .97.51 1.58 1.44 1.58.64 0 .97-.18 1.37-.58l.73.68c-.58.58-1.13.88-2.12.88-1.42 0-2.55-.75-2.55-2.9 0-1.83.95-2.89 2.4-2.89s2.4 1.12 2.4 2.72v.5h-3.67zm2.39-1.55a1.17 1.17 0 0 0-1.12-.71c-.54 0-.95.29-1.13.71-.11.26-.14.42-.14.77h2.54c-.01-.35-.05-.51-.15-.77zm9.72 4.05v-3.45c0-.88-.5-1.26-1.14-1.26s-1.17.39-1.17 1.26v3.45h-1.14v-5.66h1.11v.57c.39-.42.94-.64 1.51-.64s1.06.19 1.4.51c.44.43.57.96.57 1.6v3.62h-1.14zm6.35 0v-.51c-.41.41-.8.58-1.51.58s-1.17-.17-1.52-.51c-.29-.3-.45-.74-.45-1.22 0-.95.66-1.63 1.96-1.63h1.5v-.4c0-.71-.36-1.06-1.24-1.06-.63 0-.93.14-1.24.55l-.75-.7c.54-.62 1.1-.81 2.03-.81 1.55 0 2.33.66 2.33 1.94v3.78h-1.12 0zm-.02-2.51h-1.33c-.67 0-1.02.3-1.02.82s.32.8 1.04.8c.43 0 .76-.03 1.06-.32.17-.17.25-.44.25-.84v-.46zm4.97 2.51c-1.06 0-1.55-.76-1.55-1.57v-3.11h-.65v-.87h.65v-1.72h1.14v1.72h1.1v.87h-1.1v3.06c0 .41.2.66.63.66h.47v.97h-.69zm3.11-6.76a.75.75 0 0 1-.74-.74.75.75 0 0 1 .74-.74.75.75 0 0 1 .74.74c0 .4-.33.74-.74.74zm-.57 6.76v-5.66h1.14v5.66h-1.14zm7.13-.6c-.37.38-.93.67-1.7.67s-1.32-.29-1.69-.67c-.54-.56-.67-1.27-.67-2.23s.13-1.66.67-2.22c.37-.38.91-.67 1.69-.67s1.33.29 1.7.67c.54.56.67 1.27.67 2.22s-.13 1.68-.67 2.23zm-.86-3.78c-.21-.21-.5-.32-.84-.32s-.61.11-.83.32c-.35.34-.39.94-.39 1.55s.05 1.21.39 1.55c.21.21.49.34.83.34s.63-.12.84-.34c.35-.35.39-.94.39-1.55s-.05-1.2-.39-1.55zm6.92 4.38v-3.45c0-.88-.5-1.26-1.14-1.26s-1.17.39-1.17 1.26v3.45h-1.14v-5.66h1.12v.57c.39-.42.94-.64 1.51-.64s1.06.19 1.39.51c.44.43.57.96.57 1.6v3.62h-1.14zm6.34 0v-.51c-.41.41-.8.58-1.51.58s-1.17-.17-1.52-.51c-.29-.3-.45-.74-.45-1.22 0-.95.66-1.63 1.96-1.63h1.5v-.4c0-.71-.36-1.06-1.24-1.06-.62 0-.93.14-1.24.55l-.75-.7c.53-.62 1.09-.81 2.03-.81 1.55 0 2.33.66 2.33 1.94v3.78h-1.12 0zm-.02-2.51h-1.33c-.67 0-1.02.3-1.02.82s.32.8 1.04.8c.44 0 .76-.03 1.06-.32.17-.17.24-.44.24-.84v-.46h.01zm4.81 2.51c-1.07 0-1.55-.73-1.55-1.56v-6.39h1.14v6.32c0 .43.16.66.62.66h.5v.97h-.71zm3.19-2.5c0 .97.51 1.58 1.44 1.58.64 0 .97-.18 1.37-.58l.72.68c-.58.58-1.13.88-2.12.88-1.42 0-2.55-.75-2.55-2.9 0-1.83.95-2.89 2.4-2.89s2.4 1.12 2.4 2.72v.5h-3.67.01zm2.39-1.55c-.18-.42-.58-.71-1.11-.71s-.95.29-1.13.71c-.11.26-.13.42-.14.77h2.55a1.65 1.65 0 0 0-.16-.77h0zm8.53 4.12c-.93 0-1.71-.16-2.38-.81l.75-.75c.46.47 1.07.59 1.63.59.69 0 1.24-.25 1.24-.78 0-.38-.21-.63-.76-.67l-.9-.08c-1.06-.09-1.67-.57-1.67-1.56 0-1.1.95-1.73 2.13-1.73.85 0 1.57.18 2.1.64l-.71.73c-.36-.3-.86-.41-1.4-.41-.68 0-1.03.3-1.03.72 0 .34.18.59.78.65l.89.08c1.06.09 1.68.59 1.68 1.6 0 1.18-1.01 1.8-2.36 1.8v-.02z"/><use href="#C"/><path d="M186.37 62.36c-.31.31-.8.5-1.37.5-.6 0-1.07-.16-1.48-.65v2.87h-1.14v-7.95h1.11v.6c.43-.51.88-.67 1.5-.67.57 0 1.07.19 1.38.5.57.57.64 1.53.64 2.39s-.07 1.83-.64 2.4h0zm-1.68-4.26c-1.03 0-1.18.87-1.18 1.87s.16 1.89 1.18 1.89 1.17-.88 1.17-1.89-.14-1.87-1.17-1.87zm5.1 2.2c0 .97.51 1.58 1.44 1.58.64 0 .97-.18 1.38-.58l.73.68c-.58.58-1.13.88-2.12.88-1.42 0-2.54-.75-2.54-2.9 0-1.83.95-2.89 2.4-2.89s2.4 1.12 2.4 2.72v.5h-3.69zm2.39-1.55a1.17 1.17 0 0 0-1.12-.71c-.54 0-.95.29-1.13.71-.11.26-.14.42-.15.77h2.54c0-.35-.04-.51-.16-.77h.02zm-.8-2.62h-.86l.84-1.81h1.26l-1.24 1.81h0zm7.1 2.34c-.25-.26-.46-.38-.85-.38-.61 0-1.13.49-1.13 1.27v3.44h-1.14v-5.66h1.12v.61c.29-.4.87-.68 1.51-.68.55 0 .96.15 1.35.53l-.86.86h0zm2.76-2.43a.75.75 0 0 1-.74-.74.75.75 0 0 1 .74-.74.75.75 0 0 1 .74.74.75.75 0 0 1-.74.74zm-.57 6.76v-5.66h1.14v5.66h-1.14zm4.19-2.5c0 .97.51 1.58 1.44 1.58.64 0 .97-.18 1.37-.58l.73.68c-.58.58-1.13.88-2.12.88-1.42 0-2.55-.75-2.55-2.9 0-1.83.95-2.89 2.4-2.89s2.4 1.12 2.4 2.72v.5h-3.67 0zm2.39-1.55a1.17 1.17 0 0 0-1.12-.71c-.54 0-.95.29-1.13.71-.11.26-.13.42-.15.77h2.55a1.65 1.65 0 0 0-.16-.77h0z"/><use href="#C" x="34.74"/><path d="M220.16 58.47c-.26-.26-.46-.38-.85-.38-.61 0-1.13.49-1.13 1.27v3.44h-1.14v-5.66h1.12v.61c.29-.4.87-.68 1.51-.68.55 0 .96.15 1.35.53l-.86.86h0zm2.96 1.83c0 .97.51 1.58 1.44 1.58.64 0 .97-.18 1.37-.58l.73.68c-.58.58-1.13.88-2.12.88-1.42 0-2.55-.75-2.55-2.9 0-1.83.95-2.89 2.4-2.89s2.4 1.12 2.4 2.72v.5h-3.67 0zm2.39-1.55c-.18-.42-.58-.71-1.11-.71s-.95.29-1.13.71c-.11.26-.13.42-.15.77h2.55a1.65 1.65 0 0 0-.16-.77zM212.12 79.3v-8.66h22.34V57.08h7.41V79.3h-29.75 0z"/></g><path d="M104.85 41.53h5.95v1.27h-5.95z"/></g><defs ><path id="B" d="m82.14,32.52c1.6,0,2.92-1.31,2.92-2.91s-1.31-2.92-2.92-2.92-2.91,1.31-2.91,2.92,1.31,2.91,2.91,2.91Z"/><path id="C" d="m179.05,62.8v-.57c-.39.43-.94.64-1.51.64s-1.06-.19-1.4-.51c-.44-.43-.57-.96-.57-1.6v-3.61h1.14v3.45c0,.88.5,1.26,1.14,1.26s1.17-.39,1.17-1.26v-3.45h1.14v5.66h-1.12,0Z"/></defs></svg>