<svg xmlns="http://www.w3.org/2000/svg" viewBox="0 0 74 64"><path d="M38.84 43.75c2.76 0 2.76-1.36 5.53-1.36s2.76 1.36 5.52 1.36 2.76-1.36 5.54-1.36 2.76 1.36 5.53 1.36 2.76-1.36 5.52-1.36 2.76 1.36 5.52 1.36h1.5.51V6.78H37.02v36.97h1.83z" fill="#001a44"/><path d="M0 6.78h36.99v36.98H0z" fill="#0082c3"/><path d="M43.73 14.24l-.14.29s-.02.03-.04.03h-.03l-.12-.06a.8.8 0 0 0-.38-.1c-.22 0-.35.1-.35.28 0 .14.07.21.35.35l.21.11c.39.2.55.43.55.79 0 .48-.33.8-.84.8a1.84 1.84 0 0 1-.75-.18c-.03 0-.04-.03-.04-.05v-.04l.12-.33s.02-.03.03-.03h.03c.23.12.42.18.59.18.21 0 .34-.11.34-.32s-.05-.27-.51-.5c-.23-.11-.34-.19-.42-.28a.64.64 0 0 1-.18-.47c0-.45.32-.74.84-.74.24 0 .51.07.69.19.03.01.03.03.03.05q0 0 0 .03m2.88.88a2.35 2.35 0 0 1 .17-.45l.29-.63s.03-.05.05-.05h.02.02l.33.07s.07.02.07.06c0 0 0 .02-.02.05l-.7 1.42v1c0 .07 0 .08-.08.08h-.37c-.07 0-.08 0-.08-.08v-1.01l-.73-1.42s0-.02-.01-.02c0-.05.02-.06.07-.07l.4-.07h.04s.03 0 .06.05l.3.66c.05.09.08.18.12.3l.04.12zm4.14.7v-.14-.35-1.23c0-.07 0-.08.08-.08h.29c.07 0 .08 0 .08.08v2.49c0 .07 0 .08-.08.08h-.25c-.07 0-.08 0-.11-.08l-.66-1.25c-.14-.26-.18-.35-.24-.55v.13.26 1.4c0 .07 0 .08-.08.08h-.29c-.07 0-.08 0-.08-.08v-2.49c0-.07 0-.08.08-.08h.3c.07 0 .07 0 .1.07l.6 1.14c.09.15.17.36.25.59m3.22-1.37v1.8h.13c.25 0 .37-.04.45-.16.1-.14.13-.34.13-.71 0-.4-.04-.61-.14-.75-.09-.14-.2-.19-.44-.19h-.13zm-.45-.42h.6.19a.86.86 0 0 1 .32.05c.13.03.24.11.32.21.19.23.28.56.28 1.04 0 .76-.19 1.18-.6 1.3-.09.04-.2.05-.32.05h-.79c-.07 0-.08 0-.08-.08V14.1c0-.07 0-.08.08-.08m4.44.38v1.89h.2c.07 0 .08 0 .08.08v.23c0 .07 0 .08-.08.08h-.94c-.07 0-.08 0-.08-.08v-.23c0-.07 0-.08.08-.08h.21V14.4h-.21c-.07 0-.08 0-.08-.08v-.22c0-.06 0-.08.08-.08h.94c.07 0 .08.01.08.08v.22c0 .08 0 .08-.08.08h-.2zm3.81-.12l-.16.28s-.02.03-.04.03h-.04c-.02 0-.04-.03-.08-.06-.11-.08-.21-.12-.31-.12-.29 0-.44.27-.44.83 0 .72.16 1.05.5 1.05.12 0 .21-.04.34-.14.02 0 .03-.01.03-.01.02 0 .03 0 .04.03l.15.27v.04c0 .04-.03.08-.11.12-.17.1-.32.15-.53.15-.64 0-.99-.5-.99-1.42 0-.48.09-.82.3-1.05a.86.86 0 0 1 .67-.3.99.99 0 0 1 .61.22c.02.03.05.05.05.08v.03m2.56 1.3h.49l-.14-.66c-.04-.17-.05-.24-.09-.52l-.1.52-.15.66zm.59.36h-.65l-.16.63c-.01.07-.02.07-.09.07h-.38c-.05 0-.07-.01-.07-.05v-.04l.76-2.49s0-.03.01-.03c0 0 0-.01.01-.02q0 0 .06 0h.39c.06 0 .07 0 .09.07l.75 2.49v.05c0 .03-.02.05-.08.05h-.42c-.06 0-.07 0-.09-.07l-.16-.63zm3.32-1.49v2.11c0 .07 0 .08-.08.08h-.37c-.07 0-.08 0-.08-.08v-2.11h-.48c-.07 0-.09 0-.09-.08v-.3c0-.06.01-.08.09-.08h1.58c.06 0 .08.01.08.04v.05l-.08.3c-.01.06-.02.07-.09.07h-.47zm-25.3 5.78v2.41h.17c.34 0 .5-.06.6-.21.13-.19.17-.45.17-.94 0-.53-.04-.82-.18-1.01-.13-.19-.27-.24-.6-.24h-.17zm-.6-.56h.8.25a1.42 1.42 0 0 1 .42.06c.17.05.32.16.43.28.26.31.38.75.38 1.4 0 1.01-.26 1.57-.8 1.73a1.94 1.94 0 0 1-.42.07h-1.05c-.1 0-.1-.01-.1-.11v-3.32c0-.09.01-.1.1-.1m4.52.56v.85h.85c.09 0 .11 0 .11.11v.35c0 .09-.02.11-.11.11h-.85v1h1.06c.1 0 .1.02.1.11v.35c0 .09 0 .1-.1.1h-1.66c-.09 0-.1 0-.1-.1v-3.32c0-.09.01-.1.1-.1h1.71c.08 0 .1.01.1.06v.06l-.1.36c-.02.07-.04.09-.11.09h-.99zm4.46-.27l-.19.39s-.03.03-.05.03h-.04l-.16-.09a1.2 1.2 0 0 0-.5-.13c-.29 0-.47.14-.47.38 0 .19.09.28.46.47l.28.13c.52.27.74.58.74 1.06 0 .64-.44 1.07-1.12 1.07-.31 0-.76-.1-1-.24-.03-.01-.06-.04-.06-.07 0 0 0-.03.02-.05l.16-.45s.02-.04.05-.04c0 0 .03 0 .05.02.29.16.56.24.78.24.29 0 .46-.16.46-.42 0-.29-.07-.36-.68-.67-.3-.15-.46-.25-.57-.37a.86.86 0 0 1-.23-.63c0-.61.43-.99 1.12-.99.32 0 .68.09.92.25.04.03.05.05.05.08q0 0 0 .04m4.47.26v.85h.85c.09 0 .1 0 .1.11v.35c0 .09-.01.11-.1.11h-.85v1h1.06c.1 0 .1.02.1.11v.35c0 .09 0 .1-.1.1h-1.66c-.09 0-.1 0-.1-.1v-3.32c0-.09 0-.1.1-.1h1.71c.08 0 .1.01.1.06v.06l-.1.36c-.02.07-.04.09-.11.09h-.99zm3.27 1.55h.66l-.19-.88c-.05-.22-.06-.31-.12-.69l-.13.7-.2.87zm.79.48h-.86l-.21.84c-.02.09-.03.09-.11.09h-.51c-.07 0-.1-.01-.1-.06v-.04-.03l1-3.31s0-.04.02-.05c0 0 0-.02.02-.02s.02-.01.08-.01h.52c.09 0 .09 0 .11.09l1.01 3.31v.07c0 .04-.02.06-.1.06h-.57c-.09 0-.09 0-.11-.09l-.22-.84zm2.28-2.59h.49c.09 0 .1.01.1.1v2.24c0 .55.13.72.52.72s.57-.21.57-.71v-2.25c0-.09.01-.1.1-.1h.46c.1 0 .1.01.1.1v2.23c0 .51-.09.76-.38 1-.24.2-.51.28-.91.28-.53 0-.89-.19-1.05-.56-.09-.19-.12-.38-.12-.73V19.8c0-.09 0-.1.1-.1m4.56 1.67l-.86-1.45s-.02-.03-.02-.04-.01-.02-.01-.04c0-.03.03-.05.09-.07l.51-.12h.03.03c.02 0 .04.01.07.08l.38.77c.07.14.09.19.16.38.05-.16.09-.25.15-.38l.35-.77c.03-.07.04-.08.07-.08 0 0 .03 0 .06.01l.48.14c.07.01.09.04.09.07 0 .02 0 .03-.03.07l-.81 1.46.95 1.67s.03.05.03.07c0 .03-.03.05-.1.06l-.49.13h-.06c-.03 0-.05-.01-.08-.06l-.47-.95c-.08-.15-.1-.18-.16-.34l-.04.09-.09.19-.04.06-.48.94c-.02.06-.04.07-.07.07h-.03-.03l-.48-.14c-.07-.02-.09-.04-.09-.07 0-.02.01-.04.03-.08l.94-1.66zm-23.69 5.5v2.51h.18c.36 0 .52-.06.63-.22.13-.2.18-.47.18-.98 0-.56-.05-.85-.19-1.05-.13-.19-.29-.26-.63-.26h-.18zm-.62-.58h.83.27a1.61 1.61 0 0 1 .44.06c.18.06.34.16.45.29.27.32.39.77.39 1.45 0 1.05-.27 1.64-.84 1.8-.14.04-.29.06-.44.07h-1.1c-.1 0-.11-.01-.11-.11v-3.46c0-.09.01-.11.11-.11m3.91 1.04l.33-1.1c.02-.07.05-.09.12-.09h.51c.08 0 .1.02.1.06 0 .02 0 .03-.02.07l-.63 1.21c-.03.05-.05.07-.08.07-.02 0-.03 0-.07-.02l-.2-.07c-.07-.03-.09-.04-.09-.07v-.04-.03zm3.71-.5v2.62h.29c.1 0 .11.01.11.11v.31c0 .1 0 .11-.11.11h-1.3c-.1 0-.11 0-.11-.11v-.31c0-.1 0-.11.11-.11h.28v-2.62h-.28c-.1 0-.11-.01-.11-.11v-.31c0-.1 0-.11.11-.11h1.3c.1 0 .11.01.11.11v.31c0 .1 0 .11-.11.11h-.29zm2.88 2.49h1.25c.08 0 .11.01.11.06v.06l-.11.45c-.01.08-.03.09-.11.09h-1.77c-.09 0-.1 0-.1-.11V26.4c0-.09 0-.11.1-.11h.51c.1 0 .11.01.11.11v2.91zm3.69-2.43v.88h.88c.1 0 .11 0 .11.11v.37c0 .09-.01.11-.11.11h-.88v1.04h1.11c.1 0 .1.02.1.11v.37c0 .1 0 .11-.1.11h-1.73c-.1 0-.11-.01-.11-.11v-3.46c0-.09 0-.11.11-.11h1.78c.08 0 .1.02.1.06v.06l-.1.37c-.01.07-.04.09-.11.09h-1.03zm6.18-.01v2.51h.18c.35 0 .52-.06.63-.22.13-.2.18-.47.18-.98 0-.56-.05-.85-.19-1.05-.13-.19-.28-.26-.62-.26h-.18zm-.63-.58h.84.26a1.56 1.56 0 0 1 .44.06c.18.06.34.16.45.29.27.32.39.77.39 1.45 0 1.05-.27 1.64-.84 1.8-.14.04-.28.06-.44.07h-1.1c-.1 0-.11-.01-.11-.11v-3.46c0-.09.01-.11.11-.11m4.9.6v.88h.88c.1 0 .11 0 .11.11v.37c0 .09-.01.11-.11.11h-.88v1.04h1.11c.1 0 .11.02.11.11v.37c0 .1 0 .11-.11.11h-1.73c-.1 0-.11-.01-.11-.11v-3.46c0-.09 0-.11.11-.11h1.78c.08 0 .1.02.1.06v.06l-.1.37c-.01.07-.04.09-.12.09h-1.02zM42.95 33.4v.88h.88c.1 0 .11.01.11.11v.37c0 .09-.01.11-.11.11h-.88v1.51c0 .1-.01.11-.11.11h-.51c-.1 0-.11 0-.11-.11v-3.46c0-.1 0-.11.11-.11h1.78c.07 0 .1.01.1.06v.06l-.1.37c-.02.09-.03.09-.11.09h-1.03zm4.33 1.01h.15c.47 0 .63-.14.63-.54s-.14-.51-.57-.51h-.21v1.05zm.9.48l.79 1.4s.02.06.02.08c0 .03-.01.05-.09.07l-.47.14-.06.01c-.04 0-.05-.02-.08-.08l-.75-1.53h-.29v1.4c0 .1 0 .12-.11.12h-.49c-.1 0-.1-.02-.1-.13v-3.44c0-.09 0-.11.1-.11h.87c.49 0 .71.07.92.24.22.18.32.46.32.83 0 .49-.18.79-.6 1.02m4.14.11h.68l-.2-.92-.13-.72-.14.73-.21.92zm.82.5h-.9l-.22.88c-.02.09-.03.09-.11.09h-.53c-.08 0-.1-.01-.1-.06v-.04-.03l1.05-3.46s0-.04.01-.05c0 0 0-.02.02-.02s.03-.02.09-.02h.55c.09 0 .09 0 .12.1l1.05 3.46v.07c0 .04-.02.06-.1.06h-.58c-.09 0-.09 0-.11-.09l-.23-.88zm5.29-.22v-.19-.49-1.71c0-.09.01-.11.11-.11h.4c.1 0 .11 0 .11.11v3.46c0 .1 0 .11-.11.11h-.34c-.09 0-.1 0-.15-.11l-.92-1.73c-.19-.36-.25-.48-.34-.76v.19l.01.37v1.93c0 .1-.01.11-.11.11h-.4c-.1 0-.11 0-.11-.11v-3.46c0-.09 0-.11.11-.11h.42c.09 0 .1 0 .14.09l.85 1.58c.11.21.23.5.33.82m5.41-2.12l-.22.4s-.03.04-.05.04-.03 0-.05-.02c-.02 0-.06-.04-.11-.09-.15-.1-.29-.16-.43-.16-.41 0-.61.38-.61 1.15 0 1 .22 1.46.69 1.46.18 0 .29-.05.47-.19.02 0 .04-.02.05-.02.02 0 .04.01.06.04l.21.38v.05c0 .05-.04.1-.15.17-.23.14-.45.2-.74.2-.89 0-1.37-.69-1.37-1.98 0-.67.13-1.13.42-1.47.24-.28.56-.42.92-.42.29 0 .6.11.85.3.04.04.07.07.07.09 0 .01 0 .03-.01.05m3.19.25v.88h.89c.09 0 .1.01.1.11v.37c0 .09-.02.11-.1.11h-.89v1.04h1.11c.1 0 .11.02.11.11v.37c0 .1-.01.11-.11.11h-1.73c-.1 0-.11 0-.11-.11v-3.46c0-.09 0-.11.11-.11h1.78c.08 0 .1.01.1.06 0 .01 0 .03-.01.06l-.1.37c-.01.08-.04.09-.11.09h-1.03zM6.48 21.81c1.45.24 1.58 2.86 1.58 2.86s-.88-.19-1.66-.19c-1.01 0-1.64.15-1.64.15-.18-.71.28-1.45.28-1.45-.87.13-1.16 1.29-1.19 1.64 0 0-.16.06-.35.19-.1.06-.22.14-.28.2v2.07a.49.49 0 0 0 .23.22c.21.12.32.12.32.12v2.97s.63.73 2.32.77c1.54.03 2.49-.89 2.49-.89v-2.99c.06 0 .18-.03.36-.12.28-.14.3-.25.3-.25v-1.94c-.29-.29-.67-.39-.67-.39 0-2.6-.75-3.08-1.05-3.51 0 0 .16-.43 2.57-1.51l2.72-1.07c-.7.74-1.25 1.44-1.49 3.71-.15 1.41.71 2.84 1.47 2.93 0 0-.37-2.26.33-4.34.88-2.61 1.95-4.41 1.95-4.41s-2.92.81-6.07 2.55c-3.37 1.86-5.38 3.75-5.71 4.3a.64.64 0 0 0-.08.37c0 .06.05.11.12.11.22.02 1.23-1.04 2.01-1.55 1.08-.7 1.12-.56 1.12-.56m-2.1 4.42s.41-.48 1.88-.48 1.79.49 1.79.49-.39.59-1.82.59c-1.66 0-1.84-.6-1.84-.6m24.57-6.84s.41-.48 1.88-.48 1.79.49 1.79.49-.39.59-1.82.59c-1.66 0-1.84-.6-1.84-.6m-7.1-3.35c.09.18-.34.35-.88.63-.3.15-.5.25-.71.55-.36.49-.08 1.02-.07 1.82.02.99.66 2.87.24 6.56a11.83 11.83 0 0 1-1.63 4.67s.44.1 1.18.04l.57-.04-1.11 2.06c-.19.41-.94 2.17-.66 2.36.17.12.84-.16.88.15.05.39-.22.46-.88 2.26-.3.83-.78 1.99-.58 2.14.47.35.87-.05.98.13.18.29-.29.48-.63.59-.79.27-.99.06-.99.37 0 .22.29.36.85.39.3 0 .79-.25 1.18-.11s1.19.16 1.91 0c.41-.1 1.22-.37.87-.8-.31-.39-1.29.06-1.68-.97-.32-.87.33-2.72.94-4.17.6-1.44 2.1-3.46 2.42-4.51.47-1.53.14-3.2-.25-4.47-.38-1.28-2.26-4.81-2.62-5.92-.19-.59-.72-1.53-.22-1.72.23-.09 1.16.11 1.49.19.62.16 1.71.28 2.04.09.36-.21-.01-.54.22-.73.14-.11 1.06.58 1.38.42.32-.17-.13-.79.17-.89.29-.1.4.64 2.28-.25 1.18-.55 1.68-1.33 1.68-1.33.3.06.99-.05 1.38-.39 0 0 .69.47.85 1.72.1.67.03 1.06.03 1.06s-.77-.28-1.81-.22c-.76.04-1.46.33-1.46.33s-.04-.27-.03-.56c.01-.3.09-.6.09-.6-.24.07-.54.43-.64.61-.12.24-.19.58-.19.75 0 0-.32.15-.41.23-.1.08-.24.19-.29.26v1.84c.02.07.12.16.28.24.19.1.35.12.35.12v2.94s.62.7 2.42.73c1.42.02 2.39-.67 2.39-.67v-3c.07 0 .15-.01.34-.11a.87.87 0 0 0 .28-.22v-2.02s-.03-.06-.26-.22c-.11-.08-.32-.19-.32-.19a6.78 6.78 0 0 0-.06-1.8c-.14-.75-.41-1.22-.41-1.22s.3 0 .76.06c.15.01.28-.01.29-.15.02-.24-.13-.32-.6-.48-.25-.09-.95-.2-1.19-.22-.1 0 .1-.3-.13-.47-.21-.17-.3-.08-.53-.08-.08 0-.08-.19-.28-.24-.34-.08-.25.12-.46.11-.09 0-.09-.18-.43-.15-.33.02-.74.59-.93.61-.49.03-2.65-.34-4.76-.03-3.03.45-4.46 2.14-4.27 2.14.23 0 .54-.16.83-.22.43-.1.77-.09.83 0m-3.86 4.5c-.09-1.44.14-2.56.14-2.56s-.76.23-1.05 2.39c-.28 2.08.07 4.92-.41 6.7-.77 2.83-1.62 2.86-3.11 4.34-1.03 1.02-2.02 2.43-2.04 2.8-.02.46.76.01.83.39.06.32-.83.91-1.53 2.19-.72 1.33-1.25 2.38-.97 2.62.29.25.82-.02.88.1.08.15-.03.39-.43.55-.74.27-1.01.13-1 .34 0 .26.43.33.63.33.44 0 .71-.23.96-.21.36.03-.06.24 1.35.19.96-.04 1.79-.27 1.73-.67-.08-.43-.48-.3-1.13-.52-.6-.19-.95-.6-.47-1.78.5-1.2 1.35-2.92 3-4.31 1.33-1.11 2.58-2.55 3.09-3.61.82-1.72.57-3.78.08-6.22-.13-.64-.48-1.99-.55-3.06m-1.29-1.88s-2.18 2.36-3.33 6.73c-.64 2.41-.61 3.92-.58 4.78 0 0 .19.16.82.19.58.02.84-.07.84-.07L14.8 26c.41-3.39 1.93-7.34 1.93-7.34M15.8 15c.1-.41.41-.92.66-1.47.39-.86 1.01-1.06 1.65-1.25.94-.28 1.71-.11 1.76.36.08.61-.85.61-1.13.69-.43.13-.94.28-1.07.53-.08.14-.06.33.17.45.17.08.36 0 .44.05.19.1-.05.47-.08.64-.02.14-.17.3.02.42.19.11.37.03.91-.14.44-.14.47-.3.47-.49 0-.11-.11-.25-.28-.28-.2-.04-.46-.08-.44-.19.03-.17.38-.22.63-.31.18-.06.63.14.63.14.3 0 1.71-.86 1.77-1.75.08-1.25-1.29-2.59-2.65-2.59-.99 0-2.81.53-3.8 1.25-.3.22-1.26 2.25-1.43 2.7-.16.42-.06 1.03-.09 1.42-.05.83.61 1.19.83 1.19.66 0 1.35-.45 1.35-.45s-.44-.47-.33-.92" fill="#fff"/><g fill="#001a44"><path d="M1.23 62.32l-.43-.26c-.26-.16-.45-.32-.57-.48-.11-.16-.17-.34-.17-.54 0-.31.1-.56.32-.75.21-.19.49-.29.83-.29s.63.1.9.28v.64c-.28-.27-.59-.41-.91-.41-.18 0-.33.04-.45.13s-.18.19-.18.32c0 .12.04.23.13.33s.22.2.41.32l.43.26c.48.28.71.65.71 1.08 0 .32-.1.57-.31.76s-.48.29-.82.29a1.69 1.69 0 0 1-1.05-.36v-.71c.3.38.65.57 1.05.57a.7.7 0 0 0 .44-.14.49.49 0 0 0 .18-.37c0-.24-.18-.46-.52-.67m2.09-2.28v3.91h2.28v-.5H3.87v-1.21h1.61v-.51H3.87v-1.19h1.66v-.5H3.31zm4.04.48h-.17v1.23h.22c.28 0 .47-.02.58-.07a.59.59 0 0 0 .25-.22c.06-.1.09-.2.09-.33a.56.56 0 0 0-.1-.33.54.54 0 0 0-.28-.21c-.12-.04-.31-.06-.59-.06m-.72 3.42v-3.91h.98c.4 0 .71.1.95.29.23.2.35.46.35.79 0 .23-.06.43-.18.59-.11.17-.27.29-.48.37.12.09.25.19.37.34.12.14.29.38.5.74l.33.5.2.28h-.66l-.17-.26s-.01-.03-.03-.05l-.11-.16-.17-.29-.19-.3c-.11-.16-.22-.28-.31-.38a1.66 1.66 0 0 0-.26-.2c-.08-.04-.21-.06-.39-.06h-.15v1.7h-.56zm5.89-3.91l-1.17 2.75-1.18-2.75h-.56l1.69 3.93h.12l1.66-3.93h-.56zm1.42 0h.57v3.91h-.57z"/><use href="#B"/><path d="M20.28 60.04v3.91h2.27v-.5h-1.7v-1.21h1.59v-.51h-1.59v-1.19h1.65v-.5h-2.22zm6.43.5h-.58v1.22h.61c.23 0 .4-.05.53-.16.12-.1.19-.26.19-.46 0-.4-.25-.6-.75-.6m-1.14 3.41v-3.91h1.24c.37 0 .67.1.89.3s.34.47.34.81c0 .23-.06.43-.17.6-.11.18-.27.3-.47.38-.19.08-.48.11-.85.11h-.41v1.7h-.56zm6.1-3.91h.56v2.22c0 .3-.02.53-.06.68a1.35 1.35 0 0 1-.17.38c-.06.1-.14.19-.23.27-.31.27-.72.4-1.22.4s-.92-.13-1.23-.4c-.09-.08-.17-.18-.24-.28a1.5 1.5 0 0 1-.16-.38c-.04-.15-.06-.38-.06-.69v-2.21h.56v2.22c0 .37.04.62.12.77a.9.9 0 0 0 .38.34c.17.09.38.13.61.13.33 0 .6-.09.81-.26a.85.85 0 0 0 .24-.33c.05-.13.07-.35.07-.66v-2.22zm2.85 2.17H34v1.24h.55c.31 0 .51-.02.62-.07s.2-.12.27-.22a.55.55 0 0 0 .1-.32c0-.11-.04-.23-.11-.33s-.17-.17-.29-.22c-.13-.05-.33-.07-.61-.07m-.05-1.68H34v1.17h.37c.3 0 .51-.06.64-.17a.58.58 0 0 0 .19-.44c0-.38-.24-.56-.72-.56m.28 3.41h-1.33v-3.91h1.03c.32 0 .57.05.76.13.18.09.32.2.41.36.1.15.14.33.14.53 0 .38-.19.66-.59.82.29.06.51.18.68.36s.26.4.26.65c0 .2-.05.38-.16.53-.1.16-.25.28-.45.38s-.45.15-.75.15m2.34-3.91v3.92h2.31v-.52h-1.75v-3.4h-.56zm3.24 0h.57v3.91h-.57z"/><use href="#B" x="26.39"/><path d="M49.97 60.54h-.7v2.91h.72c.28 0 .5-.02.66-.06a2.04 2.04 0 0 0 .38-.14 1.48 1.48 0 0 0 .29-.22c.28-.28.41-.63.41-1.06s-.14-.76-.42-1.02a1.29 1.29 0 0 0-.36-.25 2.45 2.45 0 0 0-.38-.13l-.58-.03m-1.28 3.41v-3.9h1.32c.53 0 .96.08 1.26.24.31.16.56.4.74.71s.27.65.27 1.01a1.93 1.93 0 0 1-.15.75 1.96 1.96 0 0 1-.43.63c-.19.19-.41.33-.66.43-.15.06-.29.09-.41.11s-.36.03-.7.03h-1.24zm4.72-3.91v3.91h2.27v-.5h-1.71v-1.21h1.6v-.51h-1.6v-1.19h1.66v-.5h-2.22zm5.32 0v3.92h2.32v-.52h-1.76v-3.4h-.56zm2.63 1.38v-.11c.09-.08.14-.16.18-.24a1.22 1.22 0 0 0 .06-.33c-.19-.07-.29-.19-.29-.37 0-.1.03-.19.1-.26s.15-.11.24-.11c.11 0 .2.05.28.15.07.1.11.23.11.38 0 .21-.06.39-.19.55-.11.16-.28.27-.49.33m1.84-1.37v3.91h2.27v-.5h-1.71v-1.21h1.6v-.51h-1.6v-1.19h1.65v-.5h-2.21zm4.73.84l.64 1.41h-1.22l.58-1.41zm-.19-.86l-1.68 3.93h.58l.48-1.16h1.67l.53 1.16h.57l-1.75-3.93h-.4zm5.61.02h.57v2.22c0 .3-.02.53-.07.68a1.35 1.35 0 0 1-.17.38c-.06.1-.14.19-.24.27-.3.27-.71.4-1.21.4s-.92-.13-1.23-.4c-.1-.08-.17-.18-.24-.28a1.5 1.5 0 0 1-.16-.38c-.04-.15-.06-.38-.06-.69v-2.21h.56v2.22c0 .37.04.62.12.77a.9.9 0 0 0 .38.34c.17.09.38.13.61.13.33 0 .6-.09.81-.26a.85.85 0 0 0 .24-.33c.05-.13.07-.35.07-.66v-2.22z"/></g><path d="M24.8 48.46v1.52c-1.04-.46-1.87-.69-2.48-.69-.35 0-.63.06-.84.17-.21.12-.31.28-.31.47 0 .15.08.29.22.42.15.13.51.31 1.09.52l1.39.59c.35.18.65.44.9.77s.38.75.38 1.26c0 .73-.28 1.3-.83 1.73s-1.27.64-2.17.64c-.97 0-1.91-.25-2.82-.75v-1.69c.52.35.98.61 1.39.76.4.16.83.24 1.28.24.76 0 1.15-.24 1.15-.72 0-.17-.08-.32-.23-.47s-.52-.32-1.11-.53l-1.39-.58a2.55 2.55 0 0 1-.88-.76c-.25-.33-.37-.76-.37-1.28 0-.67.27-1.21.81-1.62s1.26-.62 2.17-.62c.84 0 1.72.2 2.65.6m8.32 5.9v1.43h-5.77v-7.82h5.69v1.43H29.3v1.65h3.57v1.43H29.3v1.88h3.82zm4.34-4.95v4.95h1.27c.82 0 1.45-.22 1.89-.68.43-.45.66-1.05.66-1.79s-.22-1.38-.67-1.82c-.44-.44-1.08-.66-1.91-.66h-1.24zm-1.95-1.44h3.45c1.33 0 2.38.37 3.16 1.09.77.73 1.16 1.67 1.16 2.83s-.39 2.16-1.17 2.85c-.79.69-1.91 1.03-3.36 1.03h-3.23v-7.81zm9.27 0h1.95v7.81h-1.95zm10.05 0v1.44h-3.44v1.74h3.44v1.43h-3.44v3.2h-1.94v-7.81h5.38z" fill="#0082c3"/><g fill="#001a44"><path d="M17.74.05h.51v3.1h1.6v.46h-2.11V.05zm3.82-.02h.36l1.6 3.58H23l-.47-1.06h-1.52l-.44 1.06h-.52L21.56.03zm.75 2.07L21.74.81l-.53 1.29h1.11zM28.45.05h.48v3.56h-.51V.84l-1.1 1.38h-.09L26.12.84v2.77h-.51V.05h.48l1.18 1.46L28.45.05zm2.51-.02h.36l1.6 3.58h-.52l-.47-1.06h-1.52l-.44 1.06h-.52L30.96.03zm.75 2.07L31.14.81l-.53 1.29h1.11zm1.75 1.51V.05h.89c.36 0 .65.09.86.27s.32.42.32.72c0 .21-.05.39-.16.54-.1.15-.25.26-.45.34.11.07.23.18.33.31.11.13.26.35.46.68l.3.46.19.25h-.61l-.16-.23s-.01-.02-.03-.04l-.1-.14-.16-.26-.17-.28c-.11-.15-.2-.26-.29-.35s-.17-.15-.24-.19-.19-.06-.36-.06h-.13v1.55h-.51zm.66-3.13h-.15V1.6h.19c.26 0 .44-.02.53-.07s.17-.11.22-.2a.61.61 0 0 0 .08-.3.53.53 0 0 0-.09-.3.48.48 0 0 0-.25-.19c-.11-.04-.29-.06-.54-.06zm6.19 3.35l-.51.5c-.16 0-.33-.04-.5-.09a4.36 4.36 0 0 1-.53-.2 5.84 5.84 0 0 1-.72-.44c-.43-.08-.79-.28-1.07-.62-.28-.33-.42-.72-.42-1.15 0-.53.18-.97.54-1.32s.82-.52 1.37-.52 1.01.17 1.37.52.55.78.55 1.3c0 .44-.14.83-.41 1.16-.28.33-.63.54-1.07.63l.13.05c.42.16.72.24.91.24a1.08 1.08 0 0 0 .36-.07zM38.48.48a1.34 1.34 0 0 0-.99.39c-.26.26-.39.58-.39.98s.13.7.39.95.59.38.99.38.72-.13.99-.39.4-.58.4-.96-.13-.71-.39-.97-.6-.38-1-.38z"/><use href="#C"/><path d="M44.98.05H47V.5h-1.51v1.09h1.46v.46h-1.46v1.11h1.56v.45h-2.07V.05zm4.33 3.56V.05h1.2c.48 0 .87.07 1.15.22a1.65 1.65 0 0 1 .67.64c.17.28.25.59.25.92a1.76 1.76 0 0 1-.14.68 1.61 1.61 0 0 1-.39.57c-.17.17-.38.3-.6.38-.13.05-.26.09-.37.11s-.33.03-.64.03h-1.13zm1.14-3.1h-.64v2.65h.65c.25 0 .45-.02.59-.05s.26-.08.35-.13.18-.12.26-.2c.25-.25.38-.58.38-.97s-.13-.69-.39-.94a1.12 1.12 0 0 0-.33-.22c-.13-.06-.24-.1-.35-.11a3.33 3.33 0 0 0-.53-.03z"/><use href="#C" x="12.2"/></g><defs ><path id="B" d="M19.17,63.05v.62c-.41.22-.88.33-1.42.33-.44,0-.81-.09-1.11-.26-.3-.18-.55-.42-.72-.73-.18-.3-.27-.64-.27-1,0-.57.2-1.04.61-1.43.4-.39.91-.58,1.5-.58.41,0,.87.11,1.37.32v.6c-.46-.27-.9-.39-1.34-.39s-.82.14-1.12.43c-.29.28-.44.64-.44,1.06s.14.78.44,1.05c.29.28.66.42,1.12.42.47,0,.94-.15,1.39-.44"/><path id="C" d="M43.63.05h.51v2.02c0,.27-.02.48-.06.62-.04.14-.09.25-.15.35-.06.09-.13.17-.22.25-.28.24-.65.36-1.11.36s-.84-.12-1.12-.36c-.09-.07-.16-.16-.22-.25-.06-.09-.11-.21-.15-.34-.04-.13-.06-.35-.06-.63V.05h.51v2.02c0,.33.04.57.12.7s.19.24.35.31.34.12.55.12c.3,0,.55-.08.74-.24.1-.09.17-.19.22-.3.04-.12.07-.31.07-.59V.05Z"/></defs></svg>