<svg xmlns="http://www.w3.org/2000/svg" viewBox="0 0 366 128"><path d="M365.99 117.65c-.05 2.61-.69 4.21-2.51 4.17-3.22-.07-4.56-22.42-29.72-22.95-25.17-.53-58.69 23.3-77.82 22.89-10.87-.23-18.35-8.64-18.09-20.7.04-2.01.33-6.23.55-6.83-1.05 1.99-14.76 31.06-29.65 30.75-9.25-.2-16.34-7.99-16.17-16.03.01-.42.08-.83.11-1.25-5.51 6.57-11.42 11.87-16.24 11.77-5.43-.12-12.61-3.89-12.41-13.13.07-3.02 1.17-7.82 1.17-7.82-2.88 2.76-16.97 21.77-27.44 21.55-6.06-.13-15.59-6.24-15.74-15.99-8.62 8.65-18.42 16.28-25.75 16.12-12.48-.26-24.19-8.15-23.86-24.03.54-25.33 25.51-44.32 39.8-44.01 5.03.11 11.73 7.29 11.6 13.32-.48 13.06-15.49 27.43-26.15 27.2-2.42-.05-6.4-2.35-6.4-2.35s-2.73 5.37-2.91 13.82c-.13 6.03 2.04 8.08 4.66 8.14 10.31.22 23.26-11.37 33.37-22.94 8.94-15.48 29.27-27.99 39.68-31.83 5.89-2.29 8.93-3.03 13.15-2.94s9.34 5.83 9.28 8.84c-.04 1.6-2.67 2.35-8.36 4.65-18.89 7.64-42.27 27.26-42.52 39.53-.03 1.4.54 2.62 1.95 2.65 4.83.1 28.17-27.16 36-35.84 2.06-2.17 3.08-2.75 4.69-2.72 3.22.07 6.95 4.57 6.87 8.59-.12 5.63-10.86 18.27-11.08 28.53-.03 1.4.56 2.02 1.36 2.04 4.43.1 15.78-15.3 23.32-25.82 6.51-11.48 15.16-22.77 19.22-34.02a2.74 2.74 0 0 1 2.46-1.96c4.03.09 8.94 5.82 8.79 13.06-.18 8.64-18.45 34.61-18.77 49.28-.04 1.81.95 2.84 2.36 2.86 3.22.07 9.85-8.44 21.54-27.9 10.23-17.08 12.06-27.5 17.69-27.38 5.84.12 9.32 6.83 9.25 10.25-.17 8.24-9.7 20.51-10.08 38.6-.08 3.82 1.87 6.88 5.69 6.96 9.67.2 43.8-33.07 74.4-32.42 22.34.47 33 20.6 32.68 35.28M94.04 83.96c5.24.11 21.87-15.23 22.39-20.65.02-.8-.37-1.42-.98-1.43-2.21-.05-10.97 4.6-21.41 22.08m-35.5-5.18c-.03 1.21-.86 2.4-1.7 3.99-8.8 15.7-27.95 45.47-39.22 45.23-7.05-.15-17.96-8.02-17.62-24.31.76-35.38 28.12-80.51 40-99.37C41.46 1.94 43.31-.04 44.92 0c2.42.05 7.52 6.59 7.2 11.81-.27 3.01-2.79 7.98-5.11 13.17-12.26 27.5-30.59 64.58-31.15 90.91-.06 2.61 1.32 4.05 2.93 4.08 5.24.11 22.29-25.48 34.55-43.32.83-.99 1.24-1.59 1.85-1.57 1.81.04 3.37 2.28 3.35 3.69" fill="#2789cb"/><path d="M84.34 36.22c1.02-9.3-3.63-16.51-9.15-17.11-3.32-.36-9.06 3.96-9.71 9.95s6.31 9.46 6.02 12.14-4.51 7.51-4.72 9.34c-.12 1.53 1.02 2.86 2.55 2.99h.08c3.65.4 13.91-8.01 14.93-17.31m14.55-10.41h-3.56v13.66h10.42v-2.75h-6.86v-10.9zm19.83 13.66v-2.75h-7.35v-2.79h5.64v-2.59h-5.64v-2.77h7.09v-2.75h-10.65v13.66h10.92zm14.42-13.66v8.03a4.49 4.49 0 0 1-.46 2.3 1.67 1.67 0 0 1-1.57.74c-.63.07-1.24-.23-1.56-.78-.28-.52-.34-1.4-.18-2.66l-3.48.62c-.19.97-.12 1.97.19 2.91.3.84.9 1.55 1.68 1.99a6.37 6.37 0 0 0 3.23.71c1.82 0 3.23-.48 4.23-1.44a5.31 5.31 0 0 0 1.49-4.02v-8.4h-3.57zm8.89.63a5.62 5.62 0 0 0-2.32 2.41 8.27 8.27 0 0 0-.81 3.79c-.04 1.31.24 2.61.81 3.79a5.62 5.62 0 0 0 2.32 2.41 8.05 8.05 0 0 0 7.16 0 5.6 5.6 0 0 0 2.31-2.41 8.27 8.27 0 0 0 .81-3.79c.04-1.31-.24-2.61-.81-3.79a5.6 5.6 0 0 0-2.31-2.41 8.05 8.05 0 0 0-7.16 0m5.25 2.43a2.93 2.93 0 0 1 1.03 1.42c.26.76.38 1.55.35 2.35a6.89 6.89 0 0 1-.35 2.34 2.96 2.96 0 0 1-1.03 1.43c-.49.33-1.08.5-1.67.48-.6.02-1.18-.15-1.68-.48-.49-.36-.85-.86-1.04-1.43a6.85 6.85 0 0 1-.35-2.34c-.02-.8.1-1.59.35-2.35a2.89 2.89 0 0 1 1.04-1.42c.5-.33 1.08-.5 1.68-.48.59-.02 1.18.15 1.67.48m15.86-3.06v8.15c.06.78-.16 1.56-.63 2.19a2.41 2.41 0 0 1-1.92.72c-.71.05-1.4-.21-1.9-.72-.47-.63-.69-1.41-.63-2.19v-8.15h-3.58v8.09c0 1.93.52 3.38 1.55 4.33 1.04.96 2.56 1.44 4.56 1.44 2.02 0 3.54-.48 4.57-1.44s1.54-2.4 1.54-4.33v-8.09h-3.56zm6.31 0v13.66h3.5v-4.99h2.71l.33-.19c1.35.08 2.69-.3 3.79-1.1.93-.79 1.42-1.97 1.35-3.19.04-1.17-.46-2.3-1.36-3.05-1.09-.83-2.43-1.23-3.8-1.15h-6.53zm3.51 6.15V28.5h2.53c.55-.04 1.1.1 1.55.41.37.33.56.81.52 1.3.04.5-.15.99-.52 1.32a2.44 2.44 0 0 1-1.55.41h-2.53zm1.55 1.53l3.5 5.98h3.94l-4.37-6.76-3.07.78zm18.4-7.68v6.89l.08 2.52h-.02l-1.04-2.03-4.25-7.39h-3.96v13.66h3.15v-6.89l-.08-2.53h.02l1.04 2.03 4.24 7.39h3.96V25.8h-3.15zm13.82 0h-4.27l-4.81 13.66h3.58l.97-3.08h4.68l.95 3.08h3.67l-4.79-13.66zm-2.18 2.63l1.68 5.52h-3.36l1.68-5.52zm12.12-2.63h-3.56v13.66h10.42v-2.75h-6.86v-10.9zm14.57 0v13.66h5.8c2.14 0 3.78-.59 4.92-1.78s1.71-2.87 1.71-5.05-.57-3.86-1.71-5.05-2.78-1.78-4.92-1.78h-5.8zm3.56 10.97V28.5h1.89c.97-.08 1.91.31 2.54 1.04a5.11 5.11 0 0 1 .8 3.09 4.96 4.96 0 0 1-.8 3.09c-.63.74-1.57 1.13-2.54 1.04h-1.89zm22.23 2.69v-2.75h-7.36v-2.79h5.64v-2.59h-5.64v-2.77h7.09v-2.75h-10.65v13.66h10.92z" fill="#001e39"/></svg>