<svg xmlns="http://www.w3.org/2000/svg" viewBox="0 0 118 66"><path d="M30.3 26.6c1.7 0 7.1-4.8 7.2-6.5 0-.3-.1-.4-.3-.5-.7 0-3.5 1.5-6.9 7M118 37.2c0 .8-.2 1.3-.8 1.3-1 0-1.5-7.1-9.6-7.3s-18.9 7.4-25.1 7.2c-3.5 0-5.9-2.7-5.8-6.6 0-.7 0-1.4.2-2.2-.3.6-4.8 9.8-9.6 9.7-2.8 0-5.1-2.3-5.2-5.1v-.4c-1.8 2.1-3.7 3.8-5.2 3.7-2.2 0-4-1.7-4-3.9v-.3c0-.8.2-1.7.4-2.5-.9.9-5.5 6.9-8.8 6.8a5.57 5.57 0 0 1-5.1-5.1c-2.8 2.7-5.9 5.2-8.3 5.1-4 0-7.8-2.6-7.7-7.6.2-8 8.2-14 12.8-13.9 1.6 0 3.8 2.3 3.7 4.2-.2 4.1-5 8.7-8.4 8.6-.7-.1-1.4-.4-2.1-.7-.6 1.4-.9 2.9-.9 4.4 0 1.9.7 2.6 1.5 2.6 3.3 0 7.5-3.6 10.8-7.3 2.9-4.9 9.4-8.9 12.8-10.1 1.3-.6 2.8-.9 4.2-.9 1.5.3 2.7 1.4 3 2.8 0 .5-.9.7-2.7 1.5-6.1 2.4-13.6 8.6-13.7 12.5 0 .4.2.8.6.8 1.6 0 9.1-8.6 11.6-11.3.7-.7 1-.9 1.5-.9 1.3.3 2.2 1.4 2.2 2.7 0 1.8-3.5 5.8-3.6 9 0 .4.2.6.4.6 1.4 0 5.1-4.8 7.5-8.2 2.1-3.6 4.9-7.2 6.2-10.8.1-.3.4-.6.8-.6 1.3 0 2.9 1.8 2.8 4.1 0 2.7-6 11-6.1 15.6 0 .6.3.9.8.9 1 0 3.2-2.7 6.9-8.8 3.3-5.4 3.9-8.7 5.7-8.7 1.9 0 3 2.2 3 3.2 0 2.6-3.1 6.5-3.3 12.2 0 1.2.6 2.2 1.8 2.2 3.1 0 14.1-10.5 24-10.3 7.2.1 10.6 6.5 10.5 11.2M18.9 24.9c0 .5-.3.9-.5 1.3-2.8 5-9 14.4-12.6 14.3-2.3 0-5.8-2.5-5.7-7.7.1-11.2 9-25.5 12.8-31.4C13.4.6 14 0 14.5 0c.8 0 2.4 2.1 2.3 3.7-.4 1.5-.9 2.9-1.6 4.2-4 8.7-9.9 20.4-10 28.8 0 .8.4 1.3.9 1.3 1.7 0 7.2-8.1 11.1-13.7.3-.3.4-.5.6-.5.6 0 1 .6 1.1 1.2" fill="#2789cb"/><path d="M6.2 51.5c0-1.6-.6-2.5-2-2.5H3.1v4.9h1.1c1.4 0 2-.8 2-2.5m2.2.1c0 2.6-1.4 4.1-4 4.1H.9v-8.1h3.5c2.6 0 4 1.5 4 4.1m4.1-3c0 1.1-.7 2.1-1.7 2.5l-.9-.7c.7-.2 1.3-.7 1.6-1.3h0c-.1 0-.2.1-.4 0a.94.94 0 0 1-1-1c0-.6.4-1.1 1.1-1.2h.2c.9 0 1.4.7 1.4 1.6m3.5 7h-2.2v-8.1h2.2v8.1zm8.5-1.6v1.6h-6.3v-8.1h2.2v6.5h4.1zm8.1 0v1.6h-6.6v-8.1h6.4V49h-4.3v1.6h3.4v1.5h-3.4v1.7h4.4zm6-.8h-4.6v-1.7h4.6v1.7zm7.6-1.6c0-1.6-.6-2.5-2-2.5h-1.1v4.9h1.1c1.4 0 2-.8 2-2.5m2.2.1c0 2.6-1.4 4.1-4 4.1h-3.5v-8.1h3.5c2.6 0 4 1.5 4 4.1m8.4 2.3v1.6h-6.6v-8.1h6.4V49h-4.3v1.6H56v1.5h-3.4v1.7H57zm6-.8h-4.6v-1.7h4.6v1.7zm4.4-4.1v1.7h3.4v1.6h-3.4v3.1h-2.2v-8.1h6.4v1.6h-4.3zm7.9 2h1.5c.9 0 1.3-.3 1.3-1s-.4-1-1.3-1h-1.5v2.1zm1.3 1.5h-1.3v3h-2.1v-8.1h3.9c2 0 3.1.9 3.1 2.6 0 1.1-.6 2-1.6 2.3l2.1 3.2h-2.4l-1.8-3zm9.8-.3l-.6-1.9-.4-1.3h0l-.3 1.3-.6 2h1.9zm.5 1.5h-2.9l-.6 1.8h-2.2l2.9-8.1h2.6l2.9 8.1h-2.2l-.6-1.8zm11.5 1.8h-2.4l-2.6-4.4-.6-1.2h0v1.5 4.1H91v-8.1h2.4l2.6 4.4.6 1.2h0v-1.5-4.1h1.9v8.1zm5.8.1c-2.5 0-4.1-1.6-4.1-4.2s1.6-4.2 4-4.2 3.1.7 3.5 2.2l-1.9.7c-.2-1-.7-1.3-1.6-1.3s-1.9.9-1.9 2.5.7 2.5 1.9 2.5c.8 0 1.6-.5 1.6-1.3l2 .5c-.4 1.6-2 2.6-3.6 2.4m11.9-1.5v1.6h-6.6v-8.1h6.4V49h-4.3v1.6h3.4v1.5h-3.4v1.7h4.4zM27.2 11.6c.3-2.9-1.2-5.2-3-5.4-1.1-.1-2.9 1.3-3.1 3.2s2 3 1.9 3.8c0 .8-1.5 2.4-1.5 3 0 .5.3.9.8.9 1.2.1 4.5-2.5 4.8-5.5M5.4 61.4l-.7.6c-.2-.6-.9-1-1.6-1-.8 0-1.2.4-1.2.8s.4.7 1.4.9c1.5.3 2.1.7 2.1 1.6s-.9 1.6-2.3 1.6c-1 0-1.9-.3-2.4-1.1l.6-.6c.3.7 1 1 1.8 1s1.3-.3 1.3-.8-.3-.6-1.4-.8C1.5 63.3.9 62.9.9 62s.8-1.7 2.2-1.7c.9 0 1.8.4 2.3 1.1m3.5 2.4c0 .9.4 1.5 1.2 1.5s1.2-.5 1.2-1.5-.4-1.5-1.2-1.5-1.2.5-1.2 1.5m3.3 0c.1 1.1-.7 2.1-1.8 2.2H10c-1.1 0-2.1-.7-2.1-1.8v-.4c-.1-1.1.7-2.1 1.8-2.2h.4c1.1 0 2.1.7 2.1 1.8v.4m6.7-2.1v4.2h-.8v-.7c-.4.5-.9.8-1.6.8-.8 0-1.5-.5-1.5-1.2v-.3-2.8h.9v2.5c0 .8.3 1 .9 1s1.2-.4 1.2-1.1v-.2-2.3h.9zm5.6 0v.8c-.3 0-.5-.1-.7-.1-.6 0-1.1.6-1.1 1.2v2.2h-.9v-4.2h.8v.7c.3-.5.8-.9 1.4-.8h.5m6.2 1.3l-.9.3c0-.5-.5-.8-1-.8-.8 0-1.2.5-1.2 1.5s.5 1.5 1.2 1.5c.5 0 1-.3 1.1-.8l.8.3c-.2.8-1 1.3-1.9 1.3-1.1 0-2.1-.7-2.2-1.8v-.4c-.1-1.1.7-2.1 1.8-2.2h.4c.8 0 1.6.4 1.9 1.2m3.4.6h2.3a1.11 1.11 0 0 0-1.1-1.1c-.6 0-1.1.4-1.2 1.1m3.1.6h-3.1c0 .6.6 1.1 1.2 1.1.4 0 .9-.2 1.1-.6l.8.3c-.4.7-1.1 1.1-1.8 1-1.1 0-2.1-.7-2.2-1.8v-.4c-.1-1.1.6-2 1.7-2.2h.4c1 0 1.9.7 2 1.7v.3.5m10.2-.1h0c0-1-.5-1.5-1.2-1.5s-1.2.5-1.2 1.5.4 1.5 1.2 1.5 1.2-.5 1.2-1.4m1-4.2v6.1h-.8v-.8c-.3.5-.9.9-1.5.8-1.2 0-1.9-.8-1.9-2.2s.7-2.2 1.9-2.2c.6 0 1.1.3 1.4.8v-2.6h.9zm3.6 3.7h2.3a1.11 1.11 0 0 0-1.1-1.1c-.6 0-1.1.4-1.2 1.1m3.2.6h-3.1c0 .6.6 1.1 1.2 1.1.4 0 .9-.2 1.1-.6l.8.3c-.4.7-1.1 1.1-1.8 1-1.1 0-2.1-.7-2.2-1.8v-.4c-.1-1.1.6-2 1.7-2.2h.4c1 0 1.9.7 2 1.7v.3.5m10.9-1.2l-.9.3c0-.5-.5-.8-1-.8-.8 0-1.2.5-1.2 1.5s.5 1.5 1.2 1.5c.5 0 1-.3 1.1-.8l.8.3c-.2.8-1 1.3-1.9 1.3-1.1 0-2.1-.7-2.2-1.8v-.4c-.1-1.1.7-2.1 1.8-2.2h.4c.8 0 1.6.4 1.9 1.2m3.4.9c0 .9.4 1.5 1.2 1.5s1.2-.5 1.2-1.5-.4-1.5-1.2-1.5-1.2.5-1.2 1.5m3.3 0c.1 1.1-.7 2.1-1.8 2.2h-.4c-1.1 0-2.1-.7-2.1-1.8v-.4c-.1-1.1.7-2.1 1.8-2.2h.4c1.1 0 2.1.7 2.1 1.8v.4m6.7-.6v2.7h-.9v-2.4c0-.8-.4-1.1-.9-1.1-.6 0-1.2.5-1.2 1.1v.2 2.2h-.9v-4.2h.8v.7c.3-.5.9-.8 1.5-.8.8 0 1.5.5 1.6 1.3v.2m4.2-1.4h1.4v.7h-1.4v3.5H83v-3.5h-.8v-.7h.8v-.6c0-.7.5-1.3 1.2-1.4h.2c.3 0 .6 0 .8.2l-.2.7c-.1 0-.3-.1-.5-.1-.5 0-.8.2-.8.7v.5zm5.3 4.2h-.9v-4.2h.9v4.2zm-1.1-5.5c0-.4.2-.6.6-.6.3 0 .6.2.6.4v.1c0 .3-.2.5-.5.6h-.1c-.3 0-.6-.2-.6-.5v-.1m6.5 4.2V64l-.9.2c-.6.1-.9.3-.9.6s.2.5.6.5c.6 0 1.2-.3 1.2-.8m1.6.8v.6c-.2 0-.4.1-.6 0-.4 0-.8-.2-.9-.6a1.62 1.62 0 0 1-1.5.6c-.8 0-1.4-.4-1.4-1.1s.5-1.1 1.7-1.3l1.1-.2v-.2c0-.4-.3-.8-.7-.8h-.1c-.5 0-1 .3-1.1.8l-.7-.4c.3-.7 1-1.2 1.8-1.1 1.1 0 1.8.5 1.8 1.5V65c0 .2 0 .3.3.3h.3m6.4-2.1v2.7h-.9v-2.4c0-.8-.4-1.1-.9-1.1s-1.2.4-1.2 1.3v2.2h-.9v-4.2h.8v.7c.3-.5.9-.8 1.5-.8.8 0 1.5.5 1.6 1.3v.2m6.7-.3l-.9.3c0-.5-.5-.8-1-.8-.8 0-1.2.5-1.2 1.5s.5 1.5 1.2 1.5c.5 0 1-.3 1.1-.8l.8.3c-.2.8-1 1.3-1.9 1.3-1.1 0-2.1-.7-2.2-1.8v-.4c-.1-1.1.7-2.1 1.8-2.2h.4c.8 0 1.6.4 1.9 1.2m3.4.6h2.3a1.11 1.11 0 0 0-1.1-1.1c-.6 0-1.1.4-1.2 1.1m3.1.6h-3.1c0 .6.6 1.1 1.2 1.1.4 0 .9-.2 1.1-.6l.8.3c-.4.7-1.1 1.1-1.8 1-1.1 0-2.1-.7-2.2-1.8v-.4c-.1-1.1.6-2 1.7-2.2h.4c1 0 1.9.7 2 1.7v.8" fill="#001e39"/></svg>