<svg xmlns="http://www.w3.org/2000/svg" viewBox="0 0 40 40"><circle cx="20" cy="20" r="20" fill-rule="evenodd" fill="#e65a3a"/><g transform="translate(10 14)"><g transform="translate(0 .359)"><defs><filter id="A" filterUnits="userSpaceOnUse" x="0" y=".6" width="11.3" height="11.4"><feColorMatrix values="1 0 0 0 0  0 1 0 0 0  0 0 1 0 0  0 0 0 1 0"/></filter></defs><mask maskUnits="userSpaceOnUse" x="0" y=".6" width="11.3" height="11.4" id="B"><g filter="url(#A)"><path d="M0 .6h11.3V12H0z" fill-rule="evenodd" fill="#fff"/></g></mask><path d="M11.3 6.3c0 3.1-2.5 5.7-5.6 5.7A5.63 5.63 0 0 1 0 6.3C0 3.2 2.5.6 5.6.6c3.2 0 5.7 2.6 5.7 5.7" mask="url(#B)" fill-rule="evenodd" fill="#fff"/></g><path d="M17.5 6.7c0 3-1.3 5.3-2.8 5.3-1.6 0-2.8-2.4-2.8-5.3s1.3-5.3 2.8-5.3c1.5-.1 2.8 2.3 2.8 5.3m2.5 0c0 2.6-.4 4.8-1 4.8-.5 0-1-2.1-1-4.8 0-2.6.4-4.8 1-4.8s1 2.1 1 4.8" fill-rule="evenodd" fill="#fff"/></g></svg>