<svg xmlns="http://www.w3.org/2000/svg">
  <symbol id="download" viewBox="0 0 22 24">
    <path d="M18.95 15.64v4.09c0 .65-.52 1.18-1.16 1.18H3.05v-5.26H0v6.81C0 23.31.68 24 1.53 24h18.94c.84 0 1.53-.69 1.53-1.55v-6.81h-3.05zm-8.29 1.47l-5.28-6.47s-.8-.77.07-.77h2.98V.46S8.31 0 8.99 0h4.19c.49 0 .48.39.48.39V8.5h0c0 .65.52 1.18 1.16 1.18h1.59c1.06 0 .26.81.26.81l-5.12 6.68c-.22.24-.59.25-.82.02a.57.57 0 0 0-.07-.08z"></path>
  </symbol>
  <symbol id="down" viewBox="0 0 18 10">
    <path d="M9 10c-.4 0-.6-.1-.9-.4L.4 2.1C-.1 1.6-.1.9.4.3s1.3-.5 1.8 0L9 7 15.8.4c.5-.5 1.3-.5 1.8 0s.5 1.2 0 1.7L9.9 9.6c-.3.3-.5.4-.9.4z"></path>
  </symbol>
  <symbol id="back" viewBox="0 0 16 24">
    <path d="M5.1 12l10.2-8.5c.8-.7 1-2 .2-2.8-.7-.8-2-1-2.8-.3l-12 10c-.8.7-1 2-.3 2.8l.3.3 12 10c.8.7 2.1.6 2.8-.3.7-.8.6-2.1-.3-2.8L5.1 12z"></path>
  </symbol>
  <symbol id="close" viewBox="0 0 24 24">
    <path d="M23.3 20.2L15.2 12l8.2-8.2a2.23 2.23 0 0 0 0-3.2 2.23 2.23 0 0 0-3.2 0L12 8.8 3.8.7A2.12 2.12 0 0 0 .7.7c-.8.9-.9 2.3 0 3.2L8.8 12 .6 20.2a2.23 2.23 0 0 0 0 3.2 2.23 2.23 0 0 0 3.2 0l8.2-8.2 8.2 8.2a2.23 2.23 0 0 0 3.2 0c.8-.9.8-2.4-.1-3.2z"></path>
  </symbol>
  <symbol id="arrow" viewBox="0 0 26 34">
    <path d="M13 34c-.51 0-1.02-.2-1.41-.59-.78-.79-.78-2.08 0-2.87l11.01-11.23c.78-.79 2.04-.79 2.81 0s.78 2.08 0 2.87l-11.01 11.23c-.39.4-.9.59-1.41.59Z"></path>
    <path d="M13 34c-.51 0-1.02-.2-1.41-.59L.58 22.18c-.78-.79-.78-2.08 0-2.87s2.04-.79 2.81 0l11.01 11.23c.78.79.78 2.08 0 2.87-.39.4-.9.59-1.41.59Z"></path>
    <path d="M13 34c-1.1 0-1.99-.91-1.99-2.03V2.03C11.01.91 11.9 0 13 0s1.99.91 1.99 2.03v29.94c0 1.12-.89 2.03-1.99 2.03z"></path>
  </symbol>
  <symbol id="photo" viewBox="0 0 48 42">
    <path d="M7.3 42C3.28 42 0 38.82 0 34.91V14.05c0-3.91 3.27-7.09 7.3-7.09h2.23c.75 0 1.45-.36 1.87-.97l1.93-2.82C14.69 1.19 16.96.01 19.41.01h9.21c2.44 0 4.72 1.18 6.07 3.16L36.63 6c.41.6 1.11.97 1.86.97h2.22c1.95 0 3.78.74 5.16 2.07 1.38 1.34 2.14 3.12 2.14 5.01v20.86c0 3.91-3.27 7.09-7.3 7.09H7.3zm0-30.13c-1.24 0-2.24.98-2.24 2.18h0v20.86c0 1.2 1.01 2.18 2.24 2.18h33.4c1.24 0 2.24-.98 2.24-2.18V14.05a2.11 2.11 0 0 0-.66-1.54c-.42-.41-.99-.64-1.58-.64h-2.22c-2.45 0-4.72-1.18-6.07-3.16l-1.94-2.83c-.41-.6-1.11-.97-1.86-.97H19.4c-.75 0-1.45.36-1.87.97L15.6 8.7c-1.36 1.98-3.63 3.16-6.08 3.16H7.3zM24 32.73c-5.34 0-9.69-4.22-9.69-9.41s4.34-9.41 9.69-9.41c5.34 0 9.68 4.22 9.69 9.41h0c0 5.19-4.35 9.41-9.69 9.41zm0-13.91c-2.55 0-4.63 2.02-4.63 4.5s2.08 4.5 4.63 4.5 4.63-2.02 4.63-4.49c0-2.48-2.08-4.5-4.63-4.5z"></path>
  </symbol>
  <symbol id="instagram" viewBox="0 0 24 24">
    <path d="M12 0L7.05.07a8.74 8.74 0 0 0-2.91.56c-.8.3-1.53.77-2.13 1.39A5.83 5.83 0 0 0 .62 4.15a8.79 8.79 0 0 0-.56 2.91l-.07 4.95.07 4.95a8.74 8.74 0 0 0 .56 2.91c.3.8.77 1.53 1.39 2.13a5.96 5.96 0 0 0 2.13 1.39 8.79 8.79 0 0 0 2.91.56l4.95.07 4.95-.07a8.74 8.74 0 0 0 2.91-.56 6.13 6.13 0 0 0 3.51-3.51 8.79 8.79 0 0 0 .56-2.91l.07-4.95-.06-4.95a8.74 8.74 0 0 0-.56-2.91c-.3-.8-.77-1.53-1.39-2.13-.6-.61-1.33-1.09-2.13-1.39a8.79 8.79 0 0 0-2.91-.56L12 .01zm0 2.16l4.85.07c.76 0 1.51.15 2.23.42a3.83 3.83 0 0 1 1.39.9 3.67 3.67 0 0 1 .9 1.39c.27.71.41 1.46.42 2.23l.07 4.85-.07 4.85a6.58 6.58 0 0 1-.42 2.23c-.2.52-.5.99-.9 1.39-.39.4-.86.7-1.38.9a6.59 6.59 0 0 1-2.24.42l-4.86.07c-3.21 0-3.59-.01-4.86-.07-.76-.01-1.52-.15-2.24-.42a3.71 3.71 0 0 1-1.38-.9 3.71 3.71 0 0 1-.9-1.38 7.11 7.11 0 0 1-.42-2.24l-.06-4.85.06-4.86c.01-.76.15-1.52.42-2.24.19-.52.5-1 .9-1.38.38-.4.86-.71 1.38-.9a6.99 6.99 0 0 1 2.22-.42l4.86-.06.04.02zm0 3.68C8.6 5.84 5.84 8.6 5.84 12S8.6 18.16 12 18.16s6.16-2.76 6.16-6.16S15.4 5.84 12 5.84h0zM12 16a4 4 0 1 1 0-8 4 4 0 0 1 4 4h0a4 4 0 0 1-4 4h0zm7.85-10.41c0 .8-.64 1.44-1.44 1.44s-1.44-.64-1.44-1.44.64-1.44 1.44-1.44 1.44.64 1.44 1.44h0z"></path>
  </symbol>
  <symbol id="hyperlink" viewBox="0 0 24 24">
    <path d="M0 12a12 12 0 1 1 24 0 12 12 0 1 1-24 0zM11.25 1.61a5.24 5.24 0 0 0-2.83 2.78 11.4 11.4 0 0 0-.7 1.6h3.54V1.61zM6.14 6c.25-.8.57-1.57.96-2.31.26-.49.56-.96.89-1.4C6.13 3.06 4.53 4.35 3.38 6h2.76zm-.88 5.25a20.68 20.68 0 0 1 .47-3.75H2.5c-.56 1.18-.89 2.45-.99 3.75h3.74zM7.27 7.5a18.19 18.19 0 0 0-.5 3.75h4.49V7.5H7.28zm5.48 0v3.75h4.49c-.04-1.26-.21-2.52-.5-3.75h-3.98zm-5.99 5.25c.04 1.26.21 2.52.5 3.75h3.98v-3.75H6.75zm5.99 0v3.75h3.98a18.19 18.19 0 0 0 .5-3.75h-4.49zM7.72 18c.2.55.43 1.08.7 1.6.55 1.26 1.56 2.26 2.83 2.78v-4.39H7.72zm.27 3.71c-.33-.44-.63-.91-.89-1.4-.39-.74-.71-1.51-.96-2.31H3.38c1.15 1.65 2.75 2.93 4.61 3.71h0zM5.73 16.5a20.57 20.57 0 0 1-.47-3.75H1.52c.09 1.3.43 2.57.99 3.75h3.22zm10.28 5.21A10.59 10.59 0 0 0 20.62 18h-2.75c-.25.8-.57 1.57-.96 2.31-.26.49-.56.96-.89 1.4h0zM12.75 18v4.39a5.24 5.24 0 0 0 2.83-2.78 11.4 11.4 0 0 0 .7-1.6h-3.53zm5.52-1.5h3.22c.56-1.18.89-2.45.99-3.75h-3.73c-.04 1.26-.2 2.51-.47 3.74h0zm4.21-5.25c-.09-1.3-.43-2.57-.99-3.75h-3.22a20.57 20.57 0 0 1 .47 3.75h3.74zm-5.57-7.56c.39.74.71 1.51.96 2.31h2.75c-1.15-1.65-2.75-2.94-4.6-3.71.33.44.63.91.89 1.4zM16.28 6a11.4 11.4 0 0 0-.7-1.6 5.24 5.24 0 0 0-2.83-2.78V6h3.53z"></path>
  </symbol>
</svg>