<svg xmlns="http://www.w3.org/2000/svg" viewBox="0 0 34 34"><path d="M17 0C7.61 0 0 7.61 0 17s7.61 17 17 17 17-7.61 17-17S26.39 0 17 0h0zm3.95 12.41v.55h0v7.35c0 1.75-.69 3.42-1.93 4.66s-2.91 1.93-4.66 1.93-3.42-.69-4.66-1.93-1.93-2.91-1.93-4.66.69-3.42 1.93-4.66 2.91-1.93 4.66-1.93h1.22v3.46h-1.22a3.12 3.12 0 0 0-3.13 3.13 3.12 3.12 0 0 0 3.13 3.13 3.12 3.12 0 0 0 2.21-.92c.59-.59.92-1.38.92-2.2V7.1h3.45l.17.32c.54 1 1.26 1.94 2.16 2.64.69.54 1.48.92 2.35 1.07l.61.11-.66 3.34-.59-.11c-.7-.13-1.39-.34-2.04-.64-.74-.35-1.43-.82-1.99-1.42z" fill-rule="evenodd"/></svg>