<svg xmlns="http://www.w3.org/2000/svg" viewBox="0 0 36 36"><defs><clipPath id="A"><circle cx="18" cy="18" r="18" fill="none"/></clipPath><linearGradient id="B" x1="-144.796" y1="18.078" x2="-143.765" y2="18.078" gradientUnits="userSpaceOnUse"><stop offset="0" stop-color="#23004a"/><stop offset=".96" stop-color="#010003"/><stop offset="1"/></linearGradient></defs><g clip-path="url(#A)"><path transform="matrix(.707107 -.707107 .707107 .707107 -7.46 18)" d="M-7.46-7.46h50.91v50.91H-7.46z" fill="url(#B)"/></g><g fill-rule="evenodd"><path d="M21.77 15.19c1.35.97 2.98 1.48 4.64 1.48v-3.32a4.5 4.5 0 0 1-.97-.1v2.62c-1.66 0-3.29-.51-4.64-1.48v6.78c0 3.4-2.76 6.15-6.16 6.15a6.11 6.11 0 0 1-3.41-1.04 6.16 6.16 0 0 0 8.7.1c1.18-1.16 1.85-2.74 1.85-4.4v-6.79zm1.2-3.36a4.6 4.6 0 0 1-1.2-2.71v-.43h-.92c.23 1.3 1 2.45 2.13 3.14m-9.61 11.84c-.94-1.24-.7-3 .53-3.94.49-.37 1.09-.58 1.71-.57.29 0 .58.04.85.13v-3.4c-.32-.04-.65-.06-.97-.06v2.65a2.81 2.81 0 0 0-3.53 1.83c-.42 1.32.18 2.74 1.41 3.36" fill="#ff1753"/><path d="M20.8 14.38c1.35.97 2.98 1.48 4.64 1.48v-2.62c-.95-.2-1.81-.7-2.47-1.41a4.66 4.66 0 0 1-2.12-3.14h-2.43v13.29a2.81 2.81 0 0 1-2.83 2.8c-.87 0-1.7-.41-2.23-1.11a2.81 2.81 0 0 1 2.12-5.19v-2.64c-3.4.07-6.09 2.88-6.02 6.27.03 1.56.66 3.06 1.75 4.17 2.82 1.89 6.65 1.13 8.54-1.69a6.12 6.12 0 0 0 1.04-3.42v-6.79z" fill="#fff"/><path d="M25.43 13.24v-.71c-.87 0-1.73-.24-2.47-.7.65.72 1.52 1.21 2.47 1.41m-4.59-4.55l-.05-.38v-.43h-3.35v13.29c0 1.56-1.27 2.81-2.83 2.8a2.74 2.74 0 0 1-1.25-.3 2.81 2.81 0 0 0 3.95.53 2.79 2.79 0 0 0 1.11-2.23V8.68h2.42zm-5.36 7.14v-.75c-3.36-.47-6.47 1.88-6.94 5.25a6.16 6.16 0 0 0 2.67 5.96c-2.38-2.43-2.33-6.32.09-8.7a6.16 6.16 0 0 1 4.18-1.75" fill="#00c9d0"/></g></svg>