<svg xmlns="http://www.w3.org/2000/svg" viewBox="0 0 118 110"><path d="M80.59 110l-.42-2.62c3.47-.54 6.95-1.26 10.35-2.14 15.29-4.01 24.8-10.8 24.8-17.71 0-6.1-7.07-11.97-19.41-16.11l.86-2.51C110.26 73.44 118 80.22 118 87.53c0 8.3-10.01 15.88-26.79 20.27-3.49.91-7.06 1.65-10.62 2.2zm-43.18 0a106.4 106.4 0 0 1-10.62-2.2C10.01 103.4 0 95.82 0 87.53c0-7.3 7.73-14.09 21.22-18.62l.86 2.51C9.75 75.56 2.67 81.44 2.67 87.53c0 6.92 9.5 13.7 24.79 17.71 3.4.88 6.88 1.6 10.36 2.14L37.4 110zm21.52-10.15h-.1c-18.21 0-37.57-4.32-37.57-12.32 0-2.69 2.21-5.09 6.56-7.12l1.14 2.39c-3.24 1.51-5.02 3.19-5.02 4.73 0 4.57 14.29 9.66 34.8 9.67l.43-.05c22.47 0 34.89-5.69 34.89-9.62 0-1.54-1.78-3.21-5.02-4.73l1.14-2.39c4.35 2.03 6.55 4.42 6.55 7.12 0 7.96-19.29 12.26-37.48 12.27l-.33.05zm-.08-14.14c-12.54-.04-22.93-6.31-27.8-16.79-5.76-12.38-2.79-27.67 7.76-39.92C56.15 8.85 57.57 1.87 57.67 1.14L57.83 0h2.32l.18 1.13c.11.74 1.6 7.8 18.88 27.88h0C89.72 41.22 92.67 56.5 86.9 68.89c-4.89 10.5-15.26 16.79-27.74 16.83h-.31zm.16-80.42c-1.93 4.18-6.64 12.04-18.16 25.43-9.86 11.45-12.68 25.66-7.36 37.1 4.49 9.65 13.74 15.21 25.37 15.25h.3c11.41-.04 20.87-5.75 25.31-15.29 5.33-11.44 2.53-25.64-7.3-37.06h0C65.67 17.36 60.94 9.48 59 5.29zM50.07 70.2c-8.61-4.79-8.85-14.08-8.85-14.47l2.68-.04c0 .33.24 8.18 7.49 12.21l-1.31 2.31z" fill="#2789cb"/></svg>