<svg xmlns="http://www.w3.org/2000/svg" viewBox="0 0 36 36"><defs><linearGradient id="A" x1="-.24" y1="24.42" x2="-.24" y2="23.43" gradientTransform="translate(641.37 628.74) rotate(-45) scale(36.47 -36.47)" gradientUnits="userSpaceOnUse"><stop offset="0" stop-color="red"/><stop offset="1" stop-color="#9b0000"/></linearGradient></defs><circle cx="18" cy="18" r="18" fill="url(#A)"/><path d="M26.74 15.72a3.84 3.84 0 0 0-3.84-3.84h-9.81a3.84 3.84 0 0 0-3.84 3.84h0v4.57a3.84 3.84 0 0 0 3.84 3.84h9.81a3.84 3.84 0 0 0 3.84-3.84v-4.57zm-5.77 2.62l-4.4 2.17c-.17.09-.76-.03-.76-.23v-4.46c0-.2.59-.32.76-.22l4.21 2.29c.18.1.36.36.18.45" fill="#fff"/></svg>