<svg xmlns="http://www.w3.org/2000/svg" viewBox="0 0 75 34"><path d="M35.7 13.7c-1.7.1-3.5-.4-5-1.3-1.5-1-2.3-3-2.3-5.5 0-4.7 2.3-6.9 7-6.9s7 2.3 7 7c.1 4.4-2.2 6.7-6.7 6.7m-.2-11.4c-2.6 0-3.7 1.4-3.7 4.5 0 3.2 1.2 4.6 3.7 4.6s3.7-1.4 3.7-4.6c0-3.1-1.2-4.5-3.7-4.5m16 8.8c-1.9 0-2.5-.1-3-.5s-.6-.7-.7-2V1.7c0-.7-.6-1.3-1.3-1.2h-1.7v7.2c0 2.3.2 3.3 1 4.1.9 1 2.2 1.5 4.2 1.5h4V11h-2.5zM69.4.5h-2c-.8 0-1.4.4-1.8 1.1l-5.1 11.7h2.1c.8 0 1.5-.4 1.8-1.1l.8-1.9h5.1l.8 1.9c.3.7 1 1.1 1.8 1.1H75L69.4.5zm-3.6 7.6l1.9-4.5 1.9 4.5h-3.8zM57.3.5C56.6.5 56 1 56 1.7v11.6h1.7c.7 0 1.3-.5 1.3-1.2V.5h-1.7zM12.1.5c-.7 0-1.4.4-1.8 1.1l-3.1 8-3.4-8C3.5 1 2.8.5 2.1.5H0l5.7 12.9h1.6c.7 0 1.4-.4 1.7-1.1L14.3.5h-2.2zm6.8 3.7c.5-1 1.5-1.4 3.4-1.4h3.9V.5h-5.1c-.7 0-1.3 0-2 .2h0c-.4.1-.7.2-1 .4-.4.2-.8.5-1.2.8-.5.5-.9 1.1-1.1 1.7-.5 1-.7 2.1-.7 3.2V7c0 1.1.2 2.2.7 3.2.3.7.7 1.3 1.2 1.8l.4.4c.3.2.7.4 1.1.6l.4.1.2.1 2 .2h5.1v-2.3h-3.9c-1.9 0-2.9-.4-3.4-1.5-.2-.5-.3-1-.4-1.5V8h7.4V5.8h-7.4v-.1c.1-.5.2-1 .4-1.5m9.5 25.6h-.5v2.5h.4c.6.1 1.2-.4 1.3-1V31c.1-.6-.3-1.2-.9-1.3-.1.1-.2.1-.3.1m-.2 3h-.8v-3.3h1c.8-.1 1.5.4 1.7 1.2v.4c0 .9-.6 1.7-1.5 1.7h-.4m3.5-2.8l-.2-.2.7-.5.2.3-.7.4zm.1.6a.65.65 0 0 0-.6.6h1.1c.1-.3-.1-.5-.5-.6m.9.9h-1.6c0 .6.2.9.8.9.2 0 .5-.1.7-.2v.4c-.3.1-.5.2-.8.1-.7 0-1.1-.4-1.1-1.2-.1-.6.3-1.2 1-1.3h.1c.5 0 .9.3 1 .8v.2l-.1.3zm.9-2.3h.4v3.5h-.4v-3.5zm2.3.8l-.2-.2.7-.5.2.3-.7.4zm.1.6a.65.65 0 0 0-.6.6h1.1c0-.3-.2-.5-.5-.6m.9.9h-1.6c0 .6.2.9.8.9.2 0 .5-.1.7-.2v.4c-.3.1-.5.2-.8.1-.7 0-1.1-.4-1.1-1.2 0-.7.4-1.3 1.1-1.3.5 0 .9.3 1 .8v.2l-.1.3zm1.8-.9c-.3 0-.6.2-.6.5v.1c0 .3.2.5.5.6h.1c.3 0 .6-.2.6-.5v-.1c0-.3-.2-.5-.5-.6h-.1m.3 2.2h-.6c-.2.1-.3.2-.3.4 0 .3.3.4.6.4.5 0 .8-.2.8-.5 0-.2-.2-.3-.5-.3m-.4 1.2c-.6 0-1-.2-1-.7 0-.3.2-.5.4-.6-.1-.1-.2-.2-.2-.4s.1-.3.3-.4c-.2-.1-.4-.4-.4-.7 0-.5.4-.9 1-.9h.1.4.8v.3h-.4c.1.1.2.3.2.5 0 .5-.4.9-1 .9h-.3l-.2.2c0 .1.1.2.4.2h.4c.5 0 .8.3.8.7 0 .5-.5.9-1.3.9m3.4-2.4c-.8 0-1 .3-1 .5s.1.3.3.3c.4 0 .7-.3.7-.8h0zm0 1.1v-.5h0c-.1.3-.5.5-.8.5s-.6-.2-.7-.5v-.1c0-.5.5-.9 1.4-.9V31c0-.3-.1-.5-.5-.5-.3 0-.5.1-.7.2v-.4c.3-.1.6-.2.8-.2.7 0 .9.3.9.8v1 .7l-.4.1zm2.2.1c-.5 0-.6-.2-.6-.7v-1.4h-.5v-.3h.5v-.8l.4-.1v.9h.7v.3H44v1.2c0 .4.1.5.3.5h.3v.4h-.4m2.5-1.2c-.8 0-1 .3-1 .5s.1.3.3.3c.5 0 .8-.3.7-.8h0zm.1 1.1v-.5h0c-.1.3-.5.5-.8.5s-.6-.2-.7-.5v-.1c0-.5.5-.9 1.4-.9V31c0-.3-.1-.5-.5-.5-.3 0-.5.1-.7.2v-.4c.3-.1.6-.2.8-.2.7 0 .9.3.9.8v1 .7l-.4.1zm1.4-2.4h.4v2.4h-.4v-2.4zm.3-.4c-.2 0-.3-.1-.3-.3s.1-.3.3-.3.3.1.3.3-.2.3-.3.3m2.4.8c-.5-.1-.8.3-.8 1.1v1h-.4v-2.4h.4c0 .2 0 .4-.1.6h0c.1-.4.4-.7.8-.6l.1.3zm1.6-.1a.65.65 0 0 0-.6.6H53c.1-.3-.1-.5-.5-.6m.9.9h-1.6c0 .6.2.9.8.9.2 0 .5-.1.7-.2v.4c-.3.1-.5.2-.8.1-.7 0-1.1-.4-1.1-1.2 0-.7.4-1.3 1.1-1.3.5 0 .9.3 1 .8v.2l-.1.3zm3.7-.8c-.1 0-.3-.1-.4-.1-.5 0-.8.3-.8 1 0 .5.2.8.5.8.4 0 .7-.5.7-.9v-.8zm0 2v-.5h0c-.1.3-.5.5-.8.5-.6 0-.9-.4-.9-1.1-.1-.7.4-1.3 1-1.3h.2.4v-1.1h.4v3.5h-.3zm3 0v-.5h0c-.1.3-.5.6-.8.6-.6 0-.7-.3-.7-.8v-1.7h.4v1.6c0 .3.1.5.4.5.4 0 .7-.4.7-.9v-1.2h.4v2.4h-.4zm3.3.1c-.2 0-.4 0-.7-.1v-.4c.2.1.4.1.7.1.4 0 .7-.2.7-.6 0-.7-1.5-.4-1.5-1.5 0-.5.4-.9 1.2-.9.2 0 .4 0 .6.1v.4c-.2-.1-.4-.1-.6-.1-.4 0-.7.2-.7.5 0 .7 1.5.5 1.5 1.5.1.6-.4 1-1.2 1m2.2-.1v-3.3h1.7v.4H66v1h1.2v.4H66v1.1h1.2v.4h-1.6zm3.6-2.9h-.5v2.5h.4c.6.1 1.2-.4 1.3-1V31c.1-.6-.3-1.2-.9-1.3-.1.1-.2.1-.3.1m-.2 3h-.8v-3.3h1c.8-.1 1.5.4 1.7 1.2v.4c0 .9-.6 1.7-1.5 1.7H69m2.7-3.3h.4v3.3h-.4v-3.3zm1.6 0v3.3h.4v-1.5h1.2v-.4h-1.2v-1.1H75v-.4l-1.7.1z" fill="#130c0e"/><path d="M40.4 22.3c0 .1-.1.2-.2.4s-.2.4-.4.6-.3.4-.4.6c-.1.1-.2.3-.4.4l-.2.1h0l-.1-.1-.1-.2V24h0c0-.1.1-.2.1-.3.1-.2.2-.4.4-.6s.3-.4.5-.6c.1-.2.3-.3.5-.4h.1.1l.2.1h0l-.1.1zm1.5-5.7h-.2l-.2.1c-.1.1-.2.2-.3.4-.1.1-.1.3-.2.4 0 .2-.1.4-.1.6s-.1.5-.1.7 0 .5-.1.7 0 .4 0 .5v.5.3h0l-.2-.1h-.2-.1-.1-.1 0 0c-.3.1-.5.3-.7.5s-.5.4-.7.7c-.2.2-.4.5-.6.8s-.3.6-.5.9c0 .1-.1.3-.1.4v.3c0 .2.1.4.2.6h0 0l.3.2c.1.1.3.1.4.2.2 0 .3.1.5.1h0c.2 0 .4-.1.6-.2l.4-.4c.1-.2.3-.4.4-.7s.3-.5.4-.8l.3-.8v.1c0 .3.1.6.1.9s.1.6.1.9c0 .2.1.5.2.7l.1.1h0l.1.1.1.1h.1.1l.1-.1.1-.1h0v-.1c-.1-.8-.1-1.5-.1-2.1s0-1-.1-1.3v-.9-.5c0-.2.1-.5.1-.8l.1-1.1c0-.4.1-.8.1-1.2h0 0c0-.3 0-.5-.2-.6m30.6 5.8c0-.1 0-.3.1-.4s.1-.3.1-.4.1-.2.1-.4l.1-.2h.2v.3c-.1.2-.1.3-.2.5s-.3.4-.4.6m2.4 1.8h0-.1l-.1.1-.2.1-.2.1-.2.1h-.3l-.3-.1-.3-.2-.3-.3c-.1-.1-.1-.3-.2-.4 0-.1.1-.2.1-.3 0 0 .1-.2.2-.3s.2-.4.4-.6l.3-.8c.1-.3.2-.6.2-.9h0 0c0-.2-.1-.3-.2-.4s-.2-.2-.4-.2h-.1l-.2-.2-.3.2c-.2.2-.3.4-.4.7l-.3.9c-.1.3-.1.6-.2 1v.5.3c0 .2.1.4.2.6s.2.4.4.6c.1.2.3.3.5.5.1.1.3.2.5.2h.3c.5 0 1-.2 1.4-.6h0 0v-.2-.1l-.2-.3zm-3.8-.7h0l-.3.1-.2.2-.2.2h-.2l-.2.2-.3.1h-.2a.76.76 0 0 1-.4-.2c-.1-.1-.2-.3-.3-.5v-.2c0-.3.1-.7.2-1 .1-.4.3-.7.5-1h.1.1.1.1 0 .1l.2-.2h0 0V21v-.1-.1h0 0l-.1-.2-.1-.5-.2-.1h0l-.3.1c-.2.1-.4.2-.5.4-.2.2-.3.4-.5.7s-.3.5-.4.8l-.3.8-.1.6v.2.4c0 .2.1.3.2.5.1.1.2.3.3.4l.3.3h0 0c.2.1.4.1.5.1h0c.2 0 .4 0 .6-.1s.4-.1.5-.2.3-.2.4-.3l.2-.2.2-.2.1-.2v-.3h0 0c.3-.2.2-.3.1-.3M46 22.8h3v-1h-3v1zm12.7-1.3l-.2-.3-.2-.2-.2-.2H58h0l-.2-.2-.2-.2-.3-.1H57h-.1 0 0c-.2.1-.3.2-.5.3l-.2.2-.1-.1-.1-.2-.2-.1h-.1l-.2.1-.2.3-.1.2v.2.3c0 .1 0 .4-.1.7s0 .6-.1.9 0 .6-.1.9v.6.1c0 .1 0 .3.1.4l.1.2.1.1h.1.1 0 0l.2-.1.2-.2c.1-.1.1-.3.1-.4 0-.5 0-.8.1-1.1s0-.5.1-.6 0-.2 0-.3v-.1c0-.1.1-.2.1-.3.1-.1.1-.3.2-.4l.3-.3.2-.1h.1l.6.3c.1.1.3.2.4.3h.2.3l.2-.2v-.2-.2zm2.3-.2c-.1.1-.1.3-.2.4 0 .1-.1.3-.1.4l-.1.3v.1.1c0 .1-.1.2-.1.3-.1.2-.1.3-.2.5a1.38 1.38 0 0 1-.3.4l-.2.1h0v-.1-.1-.1-.2l.1-.2c.1-.2.1-.4.2-.6l.3-.6c.1-.2.2-.4.3-.5s.2-.3.4-.4h0 0 .1l.1.1-.3.1zm2 3.3c-.2-.2-.3-.3-.4-.5s-.2-.4-.3-.7c-.1-.2-.1-.5-.2-.7 0-.3-.1-.5-.1-.7v-.1-.2l-.1-.3-.1-.2v-.1-.2h0 0c-.1-.2-.2-.4-.4-.6-.2-.1-.4-.2-.6-.2h-.1 0 0c-.2.1-.4.2-.5.4s-.3.3-.4.5l-.3.6-.3.6c-.1.2-.1.4-.2.6s-.1.5-.2.7c0 .2-.1.4-.1.6v.2c0 .2.1.5.2.7h0 0a1.38 1.38 0 0 0 .4.3c.1.1.2.1.4.1h.1a.76.76 0 0 0 .4-.2c.1-.1.2-.3.3-.4.1-.2.2-.3.3-.5s.2-.3.2-.4l.1-.2c.1.2.1.4.2.6.1.4.3.7.6 1a.76.76 0 0 0 .4.2h.3 0l.3-.2v-.2l.1-.5h0zm-11.9-6.9c.2-.2.4-.3.6-.5.3-.1.6-.3.9-.4s.6-.2.9-.2.5-.1.8-.1h.3l.4.1.4.1h0l.3-.1a.76.76 0 0 0 .2-.4h0a.76.76 0 0 0-.2-.4c-.1-.1-.2-.2-.4-.2-.1-.1-.3-.1-.5-.1-.1 0-.3 0-.4-.1h-.2-.1-.2-.2-.1 0 0 0l-.3.1h-.1 0 0 0l-.3.1-.5.1h0-.1l-.2.1-.2.1h0 0 0-.1 0 0l-.6.1h-.1c-.2 0-.4.1-.6.2s-.3.3-.4.4c-.1.2-.2.3-.4.5-.1.1-.2.3-.3.4h0v.1.5c0 .2.1.3.1.5.1.1.2.3.3.3h.1l.2-.1c0 .1.1.2.1.4v.2.3l-.1.3-.3.2c-.1.1-.3.2-.4.3s-.2.3-.2.5v.2c0 .1 0 .3.1.4a.76.76 0 0 0 .4.2c.1 0 .3 0 .4-.1h.1v.2c0 .2-.1.5-.1.7s-.1.4-.1.6-.1.5-.1.7c-.1.2-.1.4-.2.6h0 0c0 .1 0 .3.1.4l.3.3h.1c.2 0 .3-.1.4-.3s.2-.5.2-.7c.1-.3.1-.6.1-1s.1-.7.1-1 .1-.6.1-.9c0-.2.1-.3.1-.4.1-.1.3-.3.4-.3.2-.1.4-.2.7-.4.2-.1.5-.2.8-.3l.8-.3c.2-.1.4-.2.6-.4a.78.78 0 0 0 .4-.4v-.2l-.1-.2-.3-.1h0 0l-.2.1-.2.1H54h0l-.1.1-.1.1-.2.1-.2.1-.8.3c-.3.1-.5.2-.7.3l-.3.1h-.1v-.3-.1-.4c0-.2-.1-.3-.1-.5l-.2-.3h0l-.1-.3zm-7.8 4.7c0-.1 0-.3.1-.4s.1-.3.1-.4.1-.2.1-.4l.1-.2h.2v.3c-.1.2-.1.3-.3.5 0 .2-.2.4-.3.6m2.3 1.7h0-.2l-.2.1-.2.1-.2.1h-.3l-.3-.1-.3-.2-.3-.3c-.1-.1-.1-.3-.2-.4 0-.1.1-.2.1-.3s.1-.2.2-.3c.1-.2.3-.4.4-.6l.3-.8c.1-.3.2-.6.2-.9h0 0c0-.2-.1-.3-.2-.4s-.2-.2-.4-.2h0l-.3.1-.3.2c-.2.2-.3.4-.4.7l-.3.9c-.1.3-.1.6-.2 1v.5.3c0 .2.1.4.2.6s.2.4.4.6c.1.2.3.3.5.5.1.1.3.2.5.2h.3c.2 0 .4 0 .6-.1.3-.1.6-.3.8-.5h0 0v-.2-.1l-.2-.5h0zm21.7-.1c0-.2-.1-.5-.1-.7s-.1-.4-.1-.7c0-.2-.1-.4-.2-.6-.1-.3-.2-.6-.4-.8s-.4-.3-.7-.3h-.1c-.2 0-.3.1-.5.2-.1.1-.2.3-.3.4l-.1.2-.1.3c0-.2 0-.3.1-.5 0-.4.1-.7.1-1.1h0 0 0v-.1h0v-.1l-.2-.2h-.1l-.1-.1h-.1l-.2.1-.2.1-.1.2v.2.2c0 .3 0 .6-.1.8s0 .5-.1.8-.1.5-.1.8l-.1.5c0 .1 0 .3-.1.4 0 .2-.1.4-.1.5v.3.2c0 .2.1.3.3.3s.3-.1.4-.2.2-.3.3-.4c.1-.2.2-.3.3-.5l.1-.3.1-.3c.1-.2.2-.3.3-.5s.2-.3.3-.5l.3-.3h.1l.1.2.1.1c.1.2.1.3.1.4l.1.3.1.3c0 .1 0 .2.1.4.1.4.2.8.2 1.2s.1.8.2 1.2h0v.1h0l.1.1h.1.1l.2-.1h.1v-.1c.1-.3.1-.6.1-.9v-.3-.7c-.1-.1-.2-.3-.2-.5m-50.6-3.4h-.1-.1l-.2.2-.1.2c-.1.1-.1.3-.1.4-.1.1-.1.3-.2.4s-.1.2-.1.3l-.1.3-.3.6c-.1.2-.2.3-.3.5l-.3.3c-.1.1-.2.1-.3.1h-.1c-.1 0-.2-.1-.3-.2s-.1-.2-.1-.4V23v-.2-.6-.6c0-.2 0-.4-.1-.6h0 0c-.1-.1-.1-.2-.2-.2h-.1l-.1.2-.1.1-.1.1h-.1v.1c0 .3 0 .6-.1.9 0 .3-.1.7-.1 1v.3.3c0 .1 0 .3.1.4h0l.2.4.1.2.1.1.1.1h0 0l.3.1c.1 0 .3.1.4.1s.3 0 .4-.1c.2-.1.3-.1.4-.2l.4-.4c.1-.2.2-.3.3-.5s.2-.4.2-.6.1-.4.2-.6c.1-.3.2-.6.2-.9s.2-.6.2-.9h0 0c.3-.1.3-.3.1-.4m-6.1.7c-.1.1-.1.3-.2.4 0 .1-.1.3-.1.4l-.1.3v.1.1c0 .1-.1.2-.1.3-.1.1-.2.3-.3.4a1.38 1.38 0 0 1-.3.4l-.2.1h0v-.1-.1-.1-.2l.1-.2c.1-.2.1-.4.2-.6l.3-.6c.1-.2.2-.4.3-.5s.2-.3.4-.4h0 0 .1l.1.1-.2.2zm1.9 3.4l.1-.1c-.2-.2-.3-.3-.4-.5s-.2-.4-.3-.7c-.1-.2-.1-.5-.2-.7 0-.3-.1-.5-.1-.7v-.1-.2l-.1-.3-.1-.2v-.1-.2h0 0c-.1-.2-.2-.4-.4-.6-.2-.1-.4-.2-.6-.2h-.1 0 0c-.2.1-.4.2-.5.4s-.3.3-.4.5l-.3.6c-.1 0-.2.2-.3.4s-.1.4-.2.6-.1.5-.2.7c0 .2-.1.4-.1.6v.1c0 .2.1.5.2.7.2.2.3.3.5.4.1.1.2.1.4.1h.1a.76.76 0 0 0 .4-.2c.1-.1.2-.3.3-.4.1-.2.2-.3.3-.5s.2-.3.2-.4l.1-.2c.1.2.1.4.2.6.1.4.3.7.6 1a.76.76 0 0 0 .4.2h.3 0l.3-.2v-.2l-.1-.2h0zm-7.9-2.4l.2-.2.2-.1h0l.6-.4h0 .1l.3-.1.3-.2.3-.1h.1V21h.1l.2-.1s.1-.1.2-.1a.76.76 0 0 0 .4-.2c.1-.1.3-.1.4-.2l.3-.2.1-.2v-.1l-.2-.2-.3-.1h-.2-.1-.3l-.3.1-.2.1-.3.1h0-.1-.1 0-.1l-.3.1-.3.1-.2.1-.2.1-.2.1-.3.1-.3.2-.4.2v-.1c0-.2.1-.3.1-.5.1-.2.2-.4.3-.7.1-.2.3-.5.4-.7s.3-.5.4-.7.3-.3.4-.5c.1-.1.2-.2.3-.2H6v-.1l.1-.1.2-.1.2-.1h.1 0L7 17l.4-.1h0l.1.1.1.1.1.1.3.2h0c.1 0 .2-.1.2-.2V17v-.1l-.1-.3c-.1-.3-.3-.5-.6-.7-.2-.1-.5-.2-.8-.2h-.2v.1l-.3.1c-.2.1-.6.4-.9.6-.1.1-.2.2-.3.4l-.3.2c-.1.2-.2.3-.4.5l-.3.6c-.1.2-.3.4-.4.7s-.2.4-.3.6-.1.3-.2.4l-.2 1v.1.4.1.2.1l-.1.2v.2h0v.2.4l.2.1.1.1h.1l.1.1.1.1a1.38 1.38 0 0 0 .3.4l.3.4.2.3.2.3c.2.2.4.3.6.5.2.1.5.3.8.3.1 0 .3.1.4.1l.3.1h.2.2l.1-.2.3-.1.3-.1c.3-.1.4-.2.6-.4l.1-.3c0-.1 0-.3-.1-.4-.2-.1-.3-.2-.4-.2h0 0l-.2.1-.2.1h-.1-.1c-.2 0-.3.1-.5.1h0c-.2 0-.4 0-.6-.1-.2 0-.4-.1-.6-.2l-.6-.3c-.2-.1-.3-.3-.4-.5s-.2-.3-.2-.5l.2-.2.1-.1zm29.7.5h2.9v-1h-2.9v1zm-13-.1c-.1.2-.2.4-.4.6s-.3.4-.4.6c-.1.1-.2.3-.4.4H20h0l-.1-.1-.1-.2v-.1h0c0-.1.1-.2.1-.3.1-.2.2-.4.4-.6s.3-.4.5-.6c.1-.2.3-.3.5-.4h.1.1l.2.1h.1c-.3.3-.4.4-.5.6m1.7-6.1h-.2l-.2.1c-.1.1-.2.2-.3.4-.1.1-.1.3-.2.4 0 .2-.1.4-.1.6s-.1.5-.1.7 0 .5-.1.7 0 .4 0 .5v.5.3h0l-.2-.1h-.2-.1-.1-.1 0 0c-.3.1-.5.3-.7.5s-.5.4-.7.7c-.2.2-.4.5-.6.8s-.3.6-.5.9c0 .1-.1.3-.1.4v.3c0 .2.1.4.2.6h0 0l.2.2c.1.1.3.1.4.2.2 0 .3.1.5.1h0c.2 0 .4-.1.6-.2s.3-.3.4-.4c.1-.2.3-.4.4-.7s.3-.5.4-.8c.1-.2.2-.4.3-.7 0 .3.1.6.1.9s.1.6.1.9.1.5.2.7l.1.1h0l.1.1.1.1.2-.1.1-.1.1-.1h0V25c-.1-.8-.1-1.5-.1-2.1s0-1-.1-1.3v-.9-.5c0-.2.1-.5.1-.8s.1-.7.1-1.1.1-.8.1-1.2h0 0c.1-.2.1-.4-.1-.5m7.5.1h0l-.1-.4-.3-.2H30l-.3.1c-.1.1-.2.2-.2.3h0v.1h0 0v.2h0v.3.9c0 .4 0 .7-.1 1.1s-.1.7-.1 1-.1.7-.1 1.1v.5.1h0c0 .2 0 .3-.1.5h0 0c0 .5-.1.9-.1 1.4v.8.7.2l.2-.1h.1l.1.2.1-.2.3-.8c.1-.3.1-.6.1-.9s.1-.6.1-.9.1-.6.1-.8c0-.5.1-.9.1-1.3s.1-.9.2-1.3.1-.9.1-1.3v-.5-.8h0zm-5 1l-.1-.1h-.1l-.1.1-.2.1-.1.2v.2.2.2.2.2c-.1.1-.1.3-.2.4s-.1.3-.2.4h.2l.2-.1.2-.2.2-.2.1-.2c.1-.1.1-.3.2-.5v-.5-.2l-.1-.2zm2.4.3c-.1-.1-.2-.2-.4-.2h0 0l-.3.1h0 0v.1l-.1.1h0 0c0 .5 0 .9-.1 1.4s-.1.9-.1 1.4-.1.9-.2 1.3-.1.9-.1 1.4v.8.8.1h.1 0l.1.1.1.1h.1l.1-.1.1-.1h0 0c.1-.2.2-.3.2-.5.1-.2.1-.5.1-.8s.1-.6.1-.9.1-.6.1-.9 0-.6.1-.8 0-.5.1-.6.1-.3.1-.5.1-.3.1-.5.1-.4.1-.5v-.4-.2c-.1-.4-.2-.6-.3-.7m3.6 4.4c0-.1 0-.3.1-.4s.1-.3.1-.4.1-.2.1-.4l.2-.2h.2v.3c-.1.2-.1.3-.2.5-.2.2-.4.4-.5.6m2.4 1.7h0-.2l-.2.1-.2.1-.2.1h-.3l-.3-.1-.3-.2-.3-.3c-.1-.1-.1-.3-.2-.4 0-.1.1-.2.1-.3 0 0 .1-.2.2-.3s.2-.4.4-.6l.3-.8c.1-.3.2-.6.2-.9h0 0c0-.2-.1-.3-.2-.4s-.2-.2-.4-.2h-.1-.2l-.3.2c-.2.2-.3.4-.4.7l-.3.9c-.1.3-.1.6-.2 1v.5.3c0 .2.1.4.2.6s.2.4.4.6c.1.2.3.3.5.5.1.1.3.2.5.2h.3c.2 0 .4 0 .6-.1.3-.1.6-.3.8-.5h0 0v-.2-.1l-.2-.4h0z" fill="#187cb5"/></svg>