<svg xmlns="http://www.w3.org/2000/svg">
  <symbol id="twitter" viewBox="0 0 36 36">
    <path d="M28.88 13.2l.01.64c.08 8.56-6.78 15.56-15.34 15.64h-.3a15.65 15.65 0 0 1-8.43-2.47c-.05-.03-.08-.1-.05-.16.02-.06.08-.09.14-.09.43.05.86.07 1.28.08a10.68 10.68 0 0 0 6.4-2.09c-2.25-.19-4.16-1.71-4.85-3.85-.01-.05 0-.09.03-.13.03-.03.08-.05.12-.04a5.28 5.28 0 0 0 1.86.03 5.59 5.59 0 0 1-3.92-5.33v-.07c0-.05.03-.09.07-.11s.09-.02.13 0c.6.33 1.27.55 1.95.63-1.33-1.06-2.1-2.67-2.1-4.37a5.63 5.63 0 0 1 .75-2.81c.02-.04.06-.06.1-.07.04 0 .09.01.11.05 2.71 3.32 6.68 5.37 10.96 5.64a5.78 5.78 0 0 1-.11-1.1c0-3.08 2.5-5.58 5.59-5.58a5.62 5.62 0 0 1 4.03 1.71c1.18-.24 2.31-.68 3.35-1.29.06-.04.14-.02.18.05.02.03.02.07.01.11-.35 1.1-1.04 2.06-1.96 2.76a10.87 10.87 0 0 0 2.51-.76c.06-.03.14-.01.18.06.02.05.02.1-.01.14-.72 1.06-1.63 2.01-2.69 2.78"></path>
  </symbol>
  <symbol id="facebook" viewBox="0 0 36 36">
    <path d="M24.87 9.17h-2.49c-1.95 0-2.33.93-2.33 2.29v3h4.66v4.7h-4.66v12.07h-4.86V19.16h-4.06v-4.7h4.06v-3.47c0-4.02 2.46-6.21 6.05-6.21l3.63.01v4.38h0z"></path>
  </symbol>
  <symbol id="linkedin" viewBox="0 0 36 36">
    <path d="M12.58 28.39H7.96V13.51h4.62v14.88zm-2.3-16.91a2.68 2.68 0 0 1 0-5.36c1.48 0 2.67 1.2 2.68 2.68-.01 1.47-1.21 2.67-2.68 2.68M29.9 28.39h-4.62v-7.24c0-1.73-.03-3.95-2.41-3.95-2.41 0-2.78 1.88-2.78 3.82v7.36h-4.62V13.51h4.44v2.03h.06a4.83 4.83 0 0 1 4.37-2.4c4.68 0 5.55 3.08 5.55 7.09l.01 8.16z"></path>
  </symbol>
  <symbol id="youtube" viewBox="0 0 36 36">
    <path d="M30.2 11.87a3.18 3.18 0 0 0-2.25-2.25C25.96 9.09 18 9.09 18 9.09s-7.96 0-9.95.53a3.18 3.18 0 0 0-2.25 2.25C5.27 13.86 5.27 18 5.27 18s0 4.14.53 6.13a3.18 3.18 0 0 0 2.25 2.25c1.99.53 9.95.53 9.95.53s7.96 0 9.95-.53a3.18 3.18 0 0 0 2.25-2.25c.53-1.99.53-6.13.53-6.13s0-4.14-.53-6.13zm-14.75 9.95v-7.64L22.07 18l-6.62 3.82z"></path>
  </symbol>
  <symbol id="medium" viewBox="0 0 36 36">
    <path d="M19.8 18c-.03 4.39-3.62 7.93-8.02 7.9s-7.93-3.62-7.9-8.02c.03-4.37 3.59-7.9 7.96-7.9A7.99 7.99 0 0 1 19.8 18m8.73-.01c0 4.16-1.78 7.54-3.98 7.54s-3.98-3.38-3.98-7.54 1.78-7.54 3.98-7.54 3.99 3.38 3.98 7.54h0zm3.58 0c0 3.73-.63 6.76-1.4 6.76s-1.4-3.03-1.4-6.76.63-6.76 1.4-6.76 1.4 3.03 1.4 6.76"></path>
  </symbol>
  <symbol id="icon-1" viewBox="0 0 65 75">
    <path d="M27.08 74.96c-.29.12-.62 0-.77-.28-.55-.87-.98-1.8-1.29-2.79-1.06-4.57-2.19-9.13-2.85-13.77-.46-3.26-1.91-4.28-5-4.02-4.39.36-8.81.5-13.22.57-1.19-.09-2.36-.33-3.48-.72-.33-.09-.52-.43-.43-.77a.61.61 0 0 1 .45-.44 9.49 9.49 0 0 1 1.9-.35L16 52.18c4.56-.16 5.04-1.26 4.88-5.75-.71-20.09 5.39-39.75 31.3-45.97 7.71-1.85 12.49 2.09 12.8 9.6.8 19.47-9.6 34.51-28.61 40.35-3.07.94-6.22 1.63-9.34 2.4-2.32.57-3.46 1.58-2.77 4.34 1.16 4.66 1.94 9.41 2.86 14.13.19.98.33 1.97.49 2.96a.62.62 0 0 1-.38.68l-.15.04z"></path>
  </symbol>
  <symbol id="icon-2" viewBox="0 0 65 75">
    <path d="M37.92 74.96c.29.12.62 0 .77-.28.55-.87.98-1.8 1.29-2.79 1.06-4.57 2.19-9.13 2.85-13.77.46-3.26 1.91-4.28 5-4.02 4.39.36 8.81.5 13.22.57 1.19-.09 2.36-.33 3.48-.72.33-.09.52-.43.43-.77a.61.61 0 0 0-.45-.44 9.49 9.49 0 0 0-1.9-.35L49 52.18c-4.56-.16-5.04-1.26-4.88-5.75.71-20.09-5.39-39.75-31.3-45.97C5.13-1.4.35 2.54.04 10.05c-.8 19.47 9.6 34.51 28.61 40.35 3.07.94 6.22 1.63 9.34 2.4 2.32.57 3.46 1.58 2.77 4.34-1.16 4.66-1.94 9.41-2.86 14.13-.19.98-.33 1.97-.49 2.96a.62.62 0 0 0 .38.68l.13.05z"></path>
  </symbol>
</svg>