<svg xmlns="http://www.w3.org/2000/svg" viewBox="0 0 358 96"><path d="M4.21 95.79H.53v-.89L.5 75.34.31 45.07.18 27.03.11 15.23 0 4.94V3.91h3.61a1.37 1.37 0 0 1 .08.35l.16 10.28.04 21.31.15 22.79.05 7.04.13 22.44-.01 7.67m162.81-96c.66.42 1.12 1.08 1.31 1.83.16.67.44 1.32.65 1.98a1.89 1.89 0 0 1-.87 2.53c-.16.08-.34.14-.52.17l-7.05 1.94c-.26.06-.5.18-.7.35h3.79 8.23a1.93 1.93 0 0 1 2.17 1.65c.03.19.02.37-.01.56v3c.13 1.18-.72 2.24-1.9 2.37-.16.02-.32.02-.48 0h-10.77-.99v4.58h.82 6.83a1.86 1.86 0 0 1 1.93 1.79v.11a72.41 72.41 0 0 1 0 3.61 1.71 1.71 0 0 1-1.5 1.9c-.16.02-.32.02-.48-.01h-7.59v4.8h.9 11.3c1.58-.01 2.42.58 2.3 2.29-.08 1.08-.01 2.17-.02 3.26 0 1.37-.64 1.99-2.06 1.99h-12-7.53c-1.61 0-2.23-.62-2.23-2.19V10.73c0-1.57.57-2.13 2.16-2.13h3.77l-.88-2.63c-.37-.75-.05-1.66.7-2.03.1-.05.21-.09.32-.11l8.76-3.71c.2-.1.39-.21.58-.34h1.06zM358 88.25a2.31 2.31 0 0 1-2.41 1.43l-19.45-.02c-1.47 0-2.15-.69-2.15-2.2V59.97c-.16-1.05.55-2.03 1.6-2.19.17-.03.34-.03.51-.01h19.45c.99-.09 1.86.63 1.95 1.62a2.06 2.06 0 0 1-.01.43l-.01 3.17c0 1.64-.69 2.35-2.3 2.35h-10.86-.99v4.58h.82l6.66-.01c1.08-.09 2.04.71 2.13 1.79.01.12.01.24 0 .37-.11 1.16-.02 2.35-.02 3.52a1.58 1.58 0 0 1-1.4 1.73 1.71 1.71 0 0 1-.32 0h-7.85v4.94h.94l11.47-.02a1.97 1.97 0 0 1 2.25 1.43l-.01 4.58zM35.14 24.16l3.61-10.35 1.24-3.61a2.08 2.08 0 0 1 2.28-1.61h7.88c1.45 0 2.1.66 2.1 2.14l.02 27.48c.08 1.17-.8 2.19-1.97 2.28a1.31 1.31 0 0 1-.28 0c-1.69-.03-3.39 0-5.08-.01a1.78 1.78 0 0 1-1.98-1.56 1.62 1.62 0 0 1 0-.44V26.15v-.83l-.15-.02-2.3 6.59-2.54 7.28c-.26.81-1.03 1.34-1.88 1.31h-3.15c-1.06.13-2.05-.59-2.25-1.64l-4.55-13.01c-.02-.05-.05-.09-.18-.34v.99 11.45c.01 2.21-.97 2.65-2.51 2.56a25.02 25.02 0 0 0-3.24 0 2.13 2.13 0 0 1-2.32-1.9 2.67 2.67 0 0 1 0-.4l.01-14.89V10.79c-.17-1.05.54-2.03 1.58-2.2.19-.03.39-.03.58-.01h7.79c1-.14 1.93.5 2.17 1.47l4.86 13.54.23.55m104.22-.26V10.81c-.17-1.05.54-2.03 1.58-2.2.2-.03.39-.03.59 0h4.03c.95-.07 1.78.64 1.85 1.58a1.13 1.13 0 0 1 0 .26v28.1a1.89 1.89 0 0 1-1.84 1.94h-.09c-1.23.02-2.46-.06-3.68.02-1.04.09-2.04-.42-2.57-1.32l-4.67-6.61-5.51-7.82-.38-.41v1.03V38.5c.11.98-.59 1.86-1.57 1.98-.11.01-.23.02-.34.01h-4.29c-.94.09-1.77-.6-1.86-1.54-.01-.13-.01-.26.01-.39V10.55c-.13-.93.52-1.8 1.45-1.93.13-.02.26-.02.39-.01l5.08.04a2.64 2.64 0 0 1 1.71.95l9.51 13.54c.14.2.32.38.6.74m172.76 49.71v.93 13.21c0 1.33-.58 1.92-1.89 1.92h-4.29c-1 .04-1.84-.74-1.87-1.74v-.12-28.01c0-1.1.54-1.88 1.61-1.93a45.95 45.95 0 0 1 5.75.09 2.29 2.29 0 0 1 1.42.97l9.59 13.69c.08.14.23.22.39.23v-.9-11.45c0-2.07.65-2.71 2.7-2.71h3.41c.92-.14 1.78.5 1.92 1.43.02.17.02.34 0 .51v28.01c.13.94-.53 1.81-1.47 1.94-.15.02-.3.02-.45 0-1.05-.06-2.1-.05-3.15.03-1.68.24-2.63-.63-3.5-1.88l-10-14.25-.17.03m-19.18-.74v-4.38l.04-8.72a1.85 1.85 0 0 1 1.7-1.97c.09-.01.19-.01.29 0l4.2-.01a1.63 1.63 0 0 1 1.75 1.51c.01.11 0 .22-.01.32v28.19c.1.92-.56 1.75-1.48 1.85a1.93 1.93 0 0 1-.34 0c-1.28.02-2.57-.06-3.85.02-.98.08-1.91-.41-2.4-1.26L282.7 74.1l-.52-.67-.05.97v13.3c0 1.39-.56 1.94-1.96 1.94h-4.03c-1.03.12-1.96-.62-2.08-1.66-.02-.15-.02-.3 0-.45V75.9 60.22c0-1.76.68-2.47 2.41-2.47h4.12c.97-.04 1.89.44 2.42 1.25l9.49 13.64a3.07 3.07 0 0 1 .17.31l.24-.1M23.92 56.22l-.91-2.66c-.3-.85.12-1.79.97-2.11l8.85-3.73c1.54-.65 2.25-.31 2.81 1.32l.74 2.12a1.87 1.87 0 0 1-.77 2.54c-.2.11-.42.18-.64.21l-7.77 2.31h.89 11.12c1.61 0 2.17.56 2.17 2.14v3.17c.15 1.08-.61 2.07-1.69 2.22a2.09 2.09 0 0 1-.5 0H28.25h-1v4.59h7.18c1.85 0 2.4.55 2.4 2.37v3.44c.03.85-.63 1.56-1.47 1.59h-.12-7.1-.9v4.94h.91 11.83c.93-.13 1.8.51 1.93 1.45a1.77 1.77 0 0 1 0 .46v3.44c.09 1.04-.68 1.96-1.72 2.05a1.82 1.82 0 0 1-.33 0H19.98c-1.03.12-1.96-.62-2.08-1.65-.02-.16-.02-.31.01-.47V58.3c-.13-1.01.58-1.94 1.6-2.07a1.55 1.55 0 0 1 .43 0l3.98-.01m196.34 17.56c-.19 3.83-.86 7.47-3.11 10.64a12.79 12.79 0 0 1-8.34 5.35c-3.25.69-6.64.37-9.7-.92-3.96-1.67-6.83-5.19-7.68-9.4a25.59 25.59 0 0 1-.7-6.46c.13-4.59 1.4-8.81 4.93-12.05a13.55 13.55 0 0 1 7.47-3.37c2.47-.4 5-.18 7.37.62 5.04 1.76 7.9 5.49 9.07 10.6.35 1.64.46 3.33.69 4.99m-9.6.15c-.1-2.11-.45-4.19-1.04-6.21a4.09 4.09 0 0 0-4.25-3.05c-1.97-.15-3.76 1.16-4.2 3.09a20.98 20.98 0 0 0-.29 11.36c.57 2.52 1.8 3.5 4.22 3.64 2.64.15 4-.82 4.68-3.41.46-1.77.6-3.61.88-5.42M71.19 72.31c.15-4.04.94-7.83 3.4-11.11 2.22-2.96 5.58-4.85 9.26-5.22 2.58-.36 5.21-.1 7.67.78a12.55 12.55 0 0 1 7.72 7.56c2.32 5.46 2.11 11.66-.56 16.96a12.57 12.57 0 0 1-9.76 6.98c-3.41.65-6.94.17-10.05-1.38a13.39 13.39 0 0 1-6.97-9.47c-.37-1.67-.48-3.4-.71-5.1m9.68-.01c.16 1.47.22 2.96.49 4.41.42 2.25 1.19 4.05 3.79 4.43 2.21.32 4.45-.37 5.14-2.9.44-1.59.72-3.21.83-4.85a19.31 19.31 0 0 0-.71-6.89c-.72-2.34-1.92-3.29-4.07-3.4a4.08 4.08 0 0 0-4.43 2.77c-.7 2.06-1.05 4.24-1.04 6.43m104.76-56.13v4.58c2.46 0 4.87.07 7.29-.02a2.03 2.03 0 0 1 2.33 1.68c.04.23.04.47-.01.71-.09 1.1-.01 2.23-.02 3.35a1.6 1.6 0 0 1-1.5 1.69h-.18-7.01-.9v4.8h.96 11.21c1.88 0 2.5.62 2.5 2.53.02 1.14-.02 2.28-.12 3.42a1.69 1.69 0 0 1-1.78 1.59c-.03 0-.05 0-.08-.01h-20.05a1.87 1.87 0 0 1-1.97-1.76c-.01-.09 0-.19.01-.28V10.62a1.79 1.79 0 0 1 1.55-2.01 1.89 1.89 0 0 1 .41-.01h19.53a1.78 1.78 0 0 1 1.99 1.55 1.62 1.62 0 0 1 0 .44v3.17c0 1.66-.73 2.41-2.37 2.41h-10.86-.93m72.01 49.17v4.58h1.92 5.69a1.85 1.85 0 0 1 1.99 1.69 1.71 1.71 0 0 1 0 .32v3.61c.1.88-.53 1.67-1.4 1.77a2.41 2.41 0 0 1-.38 0h-6.92-.89v4.94h.92 11.82c1.13 0 1.79.4 1.86 1.5a26.41 26.41 0 0 1-.14 4.62 1.48 1.48 0 0 1-1.62 1.27h-20.32c-.98.05-1.81-.71-1.85-1.69v-.08c-.01-.15 0-.29 0-.44V59.95c-.16-1.05.56-2.03 1.6-2.19a1.67 1.67 0 0 1 .5-.01h19.44c1.29 0 1.93.73 1.93 2.05v3.26c.16 1.08-.58 2.09-1.66 2.25a1.88 1.88 0 0 1-.58 0h-11.12l-.79.03zM68.94 8.6h2.71a2.47 2.47 0 0 1 2.69 1.96l8.5 23.92 1.15 3.28c.46.97.04 2.13-.93 2.58-.31.15-.65.21-.99.18-1.72-.11-3.44-.02-5.16-.02a2.03 2.03 0 0 1-2.27-1.6l-1.53-4.33c-.09-.52-.58-.88-1.1-.8-2.39.05-4.79.04-7.18 0-.47-.07-.9.24-.99.71-.51 1.53-1.05 3.06-1.61 4.57a2.02 2.02 0 0 1-2.13 1.45h-4.12c-1.06.13-2.02-.63-2.15-1.68a1.91 1.91 0 0 1 .22-1.15l3.54-9.87 6.06-17.06c.62-1.75 1.16-2.13 3.01-2.13l2.28-.01m1.6 17.41l-2.1-5.83-2.1 5.83h4.2zm63.72 47.67c-.15 2.19.2 4.39 1.05 6.43.81 1.65 2.57 2.61 4.39 2.42 2.7-.14 4.2-1.64 5.1-4.01.25-.97 1.24-1.54 2.21-1.29.07.02.13.04.19.06 1.23.27 2.48.5 3.72.75a1.94 1.94 0 0 1 1.53 2.28c-.02.09-.04.17-.07.26-1.16 4.37-4.58 7.77-8.96 8.9-4.08 1.32-8.55.75-12.16-1.57a13.78 13.78 0 0 1-6.02-8.95c-1.13-4.88-1.02-9.71 1.32-14.27 1.99-4.04 5.95-6.74 10.44-7.1a14.51 14.51 0 0 1 9.43 1.78c2.91 1.62 4.97 4.42 5.67 7.68.38 1.66-.15 2.46-1.82 2.63-1.71.18-3.41.29-5.12.38-.96.05-1.53-.5-1.79-1.55-.15-1.16-.72-2.22-1.59-2.99a4.27 4.27 0 0 0-5.96.87c-.2.27-.37.57-.51.89-.83 2-1.19 4.2-1.05 6.4m-91.7-1.7c.14-4.11.99-7.92 3.57-11.21a12.79 12.79 0 0 1 7.5-4.57 14.76 14.76 0 0 1 9.58.87c3.74 1.52 6.42 4.88 7.07 8.87.26.86-.22 1.76-1.08 2.02-.15.05-.31.07-.47.07a99.87 99.87 0 0 1-5.47.42c-.97.05-1.42-.43-1.74-1.37-.25-.91-.64-1.79-1.13-2.6-1.69-2.36-5.89-1.75-7.08 1.42-.91 2.43-1.22 5.05-.88 7.63.15 1.47.39 2.92.73 4.35a4.05 4.05 0 0 0 4.16 3.08c1.81.2 3.57-.62 4.58-2.14.45-.74.83-1.53 1.23-2.29.39-.7 1.17-1.08 1.97-.96l3.95.89c1.01.17 1.69 1.12 1.52 2.13a2.29 2.29 0 0 1-.07.28 11.44 11.44 0 0 1-5.41 7.38c-4.57 3-10.45 3.14-15.15.36-3.61-1.95-5.65-5.27-6.58-9.23-.43-1.75-.55-3.59-.8-5.4m190.42-3.71l4.93-8.9c.47-1.04 1.53-1.68 2.66-1.61l4.03.01c.74-.11 1.48.21 1.9.83.37.69.28 1.53-.22 2.12l-8.74 14.44c-.27.47-.42 1.01-.42 1.55l-.01 10.31c.01 1.68-.83 2.77-2.64 2.66-1.51-.09-3.04-.02-4.55-.02-1.52 0-2.17-.61-2.18-2.16l.02-8.81c.05-1.33-.31-2.65-1.04-3.77l-8.35-13.85a8.09 8.09 0 0 1-.42-.76 1.61 1.61 0 0 1 .61-2.19c.16-.09.33-.15.5-.18a4.66 4.66 0 0 1 1.12-.16h5.08a2.7 2.7 0 0 1 2.66 1.54c1.58 2.98 3.32 5.9 5.06 8.95M97.95 16v1.15l-.01 20.61c-.01.44-.05.87-.14 1.3a1.64 1.64 0 0 1-1.7 1.43h-5.78c-1.08-.01-1.79-.84-1.8-2.14l-.01-6.16V16H81.9c-1.58 0-2.14-.57-2.14-2.16v-2.91c0-1.61.73-2.33 2.36-2.33h13.66 8.49a1.91 1.91 0 0 1 2.13 1.64 2.26 2.26 0 0 1 0 .52v3.43c.11.89-.51 1.7-1.4 1.81a1.62 1.62 0 0 1-.44 0h-6.61m76.08 49.25h-3.81c-1.02 0-2.04.03-3.06-.01-1.31-.06-1.9-.55-2-1.82a22.73 22.73 0 0 1 0-3.69c.12-1.33.97-1.95 2.43-1.96h12.17 9.45c2.02 0 2.64.63 2.64 2.66v2.55c-.01 1.67-.57 2.25-2.25 2.26h-5.25-1.03v1.04 21.13c0 1.65-.6 2.24-2.26 2.24h-5.17a1.62 1.62 0 0 1-1.86-1.35c-.03-.17-.03-.35 0-.52V66.3v-1.05zm-19.8 8.5V59.93c0-1.41.64-2.12 2.04-2.16 1.75-.04 3.5-.03 5.25-.01a2.01 2.01 0 0 1 2.03 1.99v.12l-.03 27.55c0 1.52-.71 2.22-2.24 2.22h-5.08a1.78 1.78 0 0 1-1.97-1.57c-.02-.14-.01-.28 0-.42v-13.9m-36.8-49.26v13.64c.18 1.12-.57 2.17-1.69 2.35a1.72 1.72 0 0 1-.64 0h-4.81c-1.46 0-2.14-.67-2.14-2.11V10.64c-.15-.98.52-1.9 1.5-2.05.17-.03.34-.03.5-.01h5.25c1.03-.1 1.94.66 2.04 1.69a2.41 2.41 0 0 1 0 .38l-.01 13.84m-4.73 48.58h4.9c1.1.01 1.65.39 1.74 1.48.09 1.28.09 2.56-.01 3.84-.12.82-.83 1.41-1.66 1.39h-10.15c-.93-.02-1.66-.79-1.64-1.71V78c-.03-1.06-.04-2.11 0-3.17-.06-.91.63-1.7 1.55-1.76.09-.01.19 0 .28.01l4.99-.01"/></svg>