<svg xmlns="http://www.w3.org/2000/svg" viewBox="0 0 616 134"><path d="M308.75 93.13h0m6.39.9v.01.01-.02m.06-.14l-.02.04v.01c.03-.06.03-.07.02-.05" fill="#6eaca0"/><path d="M53.29 126.72c-8.53 7.46-21.23 7.55-31.46 3.63C11.72 126.47 4.7 118.13.05 108.66c-.27-.55.49-1.21.97-.77 6.37 5.84 13.62 11.36 21.64 14.73 9.33 3.92 18.61 3.63 27.88-.38 2.82-1.22 4.99 2.52 2.75 4.48m47.87-9.52c-.06 1.87-.57 3.69-1.51 5.31-1.06 1.95-2.45 3.72-4.1 5.22.22.25.49.54.81.88s.66.68 1.02 1.02a19.88 19.88 0 0 0 1.09.97c.34.28.69.55 1.07.78a3.78 3.78 0 0 1 .76.55 1.09 1.09 0 0 1 .35.83c.01.21-.1.4-.28.51a1.14 1.14 0 0 1-.65.18c-.52-.02-1.04-.13-1.53-.32-.64-.24-1.25-.53-1.83-.88-.64-.37-1.25-.8-1.83-1.27a10.85 10.85 0 0 1-1.53-1.5 17.38 17.38 0 0 1-6.14 3.46c-2.36.73-4.82 1.08-7.3 1.06-1.36.03-2.72-.17-4.01-.6-1.04-.35-2-.89-2.83-1.59-.73-.63-1.31-1.42-1.69-2.31a7.2 7.2 0 0 1-.56-2.79c-.01-1.29.24-2.57.74-3.76a13.7 13.7 0 0 1 1.99-3.25 23.09 23.09 0 0 1 2.92-2.93c1.11-.94 2.29-1.87 3.52-2.79-.1-.39-.24-.77-.42-1.13-.19-.38-.37-.82-.56-1.32-.2-.55-.36-1.11-.49-1.68a10.04 10.04 0 0 1-.21-2.19c.01-.91.17-1.8.49-2.65.32-.9.81-1.74 1.44-2.47a7.21 7.21 0 0 1 5.63-2.49 8.02 8.02 0 0 1 1.95.25c.64.16 1.23.46 1.74.88a4.6 4.6 0 0 1 1.25 1.68c.35.85.52 1.76.49 2.68a9.29 9.29 0 0 1-1.53 5.31 15.55 15.55 0 0 1-1.58 2.03l-1.85 1.98a24.39 24.39 0 0 0 2.15 3.83c.76 1.08 1.59 2.11 2.48 3.09.41-.57.63-1.24.63-1.94.05-.83.07-1.66.07-2.49a5.56 5.56 0 0 1 1.11-3.6c.74-.92 1.88-1.44 3.06-1.38.71 0 1.42.13 2.08.37a6.05 6.05 0 0 1 1.81 1.04 5.67 5.67 0 0 1 1.27 1.53c.35.58.52 1.23.51 1.89m-19.09 9.74c1.05-.01 2.1-.2 3.08-.58 1.01-.37 1.94-.91 2.76-1.59-.98-1.05-1.9-2.17-2.73-3.35a65.71 65.71 0 0 1-2.69-4.08c-1.09.81-2.04 1.78-2.83 2.89-.69.98-1.07 2.15-1.07 3.35-.01.87.32 1.72.93 2.35.66.69 1.6 1.06 2.55 1.01M85.22 107c-.43 0-.76.28-.97.85-.48 1.36-.43 2.85.14 4.18.55-.32.97-.82 1.19-1.42a5.29 5.29 0 0 0 .46-2.15c.02-.38-.03-.77-.16-1.13-.13-.24-.4-.38-.67-.35m40.97 10.5c.98-1.05 2.16-1.9 3.46-2.51 1.21-.47 2.5-.7 3.8-.68.56-.01 1.11.14 1.6.41.49.28.92.63 1.28 1.06.37.44.66.95.85 1.49a5.55 5.55 0 0 1 .29 1.76 13.39 13.39 0 0 1-.27 2.68c-.18.85-.38 1.64-.61 2.36a39.43 39.43 0 0 0-.58 2 4.72 4.72 0 0 0-.19 1.54 1.79 1.79 0 0 0 .22.9.9.9 0 0 0 .7.22 3.01 3.01 0 0 0 1.02-.22c.42-.16.81-.36 1.19-.6a10.54 10.54 0 0 0 1.21-.9 6.31 6.31 0 0 0 1.04-1.09c.39-.48.73-.72 1.02-.72.11 0 .21.05.29.12a.42.42 0 0 1 .15.31c-.18.4-.42.77-.7 1.11a15.1 15.1 0 0 1-1.86 2.05c-.82.76-1.72 1.42-2.69 1.98-.96.58-2.05.89-3.17.9-.99.1-1.97-.29-2.62-1.04a3.89 3.89 0 0 1-.78-2.39c0-.55.04-1.1.1-1.64l.19-1.71.19-1.59c.06-.42.08-.85.05-1.28 0-.38-.1-.75-.29-1.09-.22-.27-.57-.41-.92-.36-.74 0-1.43.51-2.06 1.54s-1.35 2.38-2.16 4.05a58.9 58.9 0 0 0-1.04 2.27c-.27.65-.61 1.27-.99 1.86a4.5 4.5 0 0 1-1.21 1.25c-.51.32-1.1.48-1.7.46a2.67 2.67 0 0 1-1.33-.29 1.81 1.81 0 0 1-.75-.75 3.29 3.29 0 0 1-.34-1.06c-.07-.4-.11-.81-.14-1.23-.03-.5-.01-1 .05-1.49l.22-2.1.22-2c.07-.61.1-1.03.1-1.25a2.12 2.12 0 0 0-.41-1.11c-.22-.39-.64-.63-1.09-.63-.53.01-1.05.17-1.5.46a7.13 7.13 0 0 0-1.7 1.54 24.64 24.64 0 0 0-2.01 2.87c-.73 1.19-1.53 2.67-2.4 4.44-.45.91-1 1.78-1.62 2.58-.44.67-1.16 1.09-1.96 1.13-.69.06-1.37-.19-1.86-.68a3.9 3.9 0 0 1-.7-2.36c-.03-.85-.01-1.71.05-2.56l.27-3.88.39-4.22.41-3.67c.16-1.44.68-2.81 1.53-3.98.82-1.06 2.12-1.65 3.46-1.57.74 0 1.45.24 2.03.7a2.47 2.47 0 0 1 .92 2.1 25.42 25.42 0 0 1-.63 5.5c.55-.87 1.11-1.69 1.67-2.46.55-.75 1.19-1.44 1.91-2.03a8.88 8.88 0 0 1 2.4-1.4c1-.37 2.06-.55 3.13-.53a4.06 4.06 0 0 1 2.08.51c.57.33 1.07.77 1.45 1.3a6.51 6.51 0 0 1 .9 1.76c.2.6.35 1.21.46 1.83m26.68-2.72c.82-.02 1.63.2 2.33.65a5.51 5.51 0 0 1 1.62 1.71 8.13 8.13 0 0 1 .97 2.41c.21.89.31 1.79.31 2.7-.01.91-.14 1.82-.39 2.7.21.06.42.11.63.14.19.03.4.07.63.1a7.78 7.78 0 0 0 .78.07l.87.05c.29.02.55.02.78.02h.44c.52 0 .77.13.78.39 0 .1-.11.23-.34.41-.29.21-.6.4-.92.55-.43.21-.87.37-1.33.48a6.35 6.35 0 0 1-1.62.19c-.52 0-1.04-.05-1.55-.14-.76 1.46-1.85 2.73-3.2 3.69a8.09 8.09 0 0 1-4.9 1.52c-1.16.02-2.3-.23-3.34-.72-.99-.47-1.86-1.15-2.57-1.98a9.28 9.28 0 0 1-1.65-2.9c-.39-1.13-.59-2.32-.58-3.52a11.89 11.89 0 0 1 .7-3.91c.46-1.34 1.13-2.6 1.99-3.74.82-1.11 1.84-2.06 3-2.8a6.92 6.92 0 0 1 3.75-1.09c.64-.02 1.26.16 1.79.51a1.75 1.75 0 0 1 .73 1.52c0 .17-.02.34-.05.51s-.08.34-.14.51c.07 0 .15-.01.22-.02.07 0 .16-.01.26-.01m1.15 11.59a10.99 10.99 0 0 1-3.2-2.51c-.87-.96-1.47-2.12-1.74-3.38a12.03 12.03 0 0 0-.82 2.24 9.2 9.2 0 0 0-.19 3.62c.06.45.18.89.36 1.3a2.98 2.98 0 0 0 .75 1.04 1.81 1.81 0 0 0 1.26.43c.77.01 1.53-.26 2.11-.77.62-.55 1.12-1.22 1.47-1.97m-.82-6.19c.01.59.18 1.16.48 1.67a5.94 5.94 0 0 0 1.26 1.52c.07-.32.11-.64.14-.96s.05-.64.05-.96c0-.27-.03-.53-.07-.8-.04-.29-.12-.57-.22-.84a3.6 3.6 0 0 0-.34-.68c-.09-.17-.25-.27-.44-.29a.69.69 0 0 0-.68.41c-.12.29-.19.61-.18.93m13.09-8.11a4.14 4.14 0 0 1 2.37.72 2.28 2.28 0 0 1 1.07 1.98 13.43 13.43 0 0 1-.31 2.68 75.12 75.12 0 0 1-.7 2.99c-.26 1.01-.49 2-.7 2.97a12.09 12.09 0 0 0-.31 2.61 3.17 3.17 0 0 0 .65 2.2c.46.48 1.11.73 1.77.7.74-.02 1.47-.21 2.13-.55a8.33 8.33 0 0 0 2.28-1.67c.36-.35.7-.73.99-1.13.14-.26.4-.43.7-.46.15-.01.29.06.39.17a.61.61 0 0 1 .15.36c-.05.43-.23.84-.53 1.16-.55.71-1.12 1.41-1.72 2.1a15.42 15.42 0 0 1-1.91 1.88 9.45 9.45 0 0 1-2.23 1.38c-.84.36-1.75.54-2.66.53-1.01.02-2.01-.17-2.93-.58a5.59 5.59 0 0 1-2.03-1.57c-.55-.69-.96-1.49-1.21-2.34-.28-.96-.42-1.95-.41-2.94 0-1.29.04-2.61.12-3.98a41.25 41.25 0 0 1 .51-4.42c.11-.53.27-1.06.46-1.57.21-.56.5-1.09.87-1.57s.83-.88 1.36-1.18c.54-.32 1.18-.48 1.83-.47m-2.62-7.82a3.61 3.61 0 0 1 .46-1.76c.31-.57.72-1.07 1.21-1.49.51-.44 1.09-.79 1.72-1.04s1.31-.39 1.99-.39c1.04-.03 2.07.28 2.93.87a3.1 3.1 0 0 1 1.24 2.7 3.99 3.99 0 0 1-.46 1.91 4.5 4.5 0 0 1-1.26 1.45c-.55.41-1.18.72-1.84.92-.73.21-1.49.32-2.25.31-1.97.09-3.63-1.42-3.73-3.38 0-.03 0-.06-.01-.1M61.99 122.56c.08.15.25.17.4.22l-.37-.26-.03.04zm-.14.21l.26.23c-.02-.19-.09-.26-.26-.23m-1.81-.31c.07.11.2.13.32.16l-.3-.19-.02.03zm-.09.17l.21.17c-.02-.15-.09-.2-.21-.17m417.82 4.09c-8.53 7.46-21.23 7.55-31.46 3.63-10.12-3.88-17.13-12.22-21.78-21.69-.27-.55.49-1.21.97-.77 6.37 5.84 13.62 11.36 21.64 14.73 9.33 3.92 18.61 3.63 27.88-.38 2.82-1.22 4.99 2.52 2.75 4.48m47.87-9.52c-.06 1.87-.57 3.69-1.51 5.31-1.06 1.95-2.45 3.72-4.1 5.22.22.25.49.54.81.88s.66.68 1.02 1.02a19.88 19.88 0 0 0 1.09.97c.34.28.69.55 1.07.78a3.78 3.78 0 0 1 .76.55 1.09 1.09 0 0 1 .35.83c0 .21-.1.4-.28.51a1.14 1.14 0 0 1-.65.18c-.52-.02-1.04-.13-1.53-.32-.64-.24-1.25-.53-1.83-.88-.64-.37-1.25-.8-1.83-1.27a10.85 10.85 0 0 1-1.53-1.5 17.38 17.38 0 0 1-6.14 3.46c-2.36.73-4.82 1.08-7.3 1.06-1.36.03-2.72-.17-4.01-.6-1.04-.35-2-.89-2.83-1.59-.73-.63-1.31-1.42-1.69-2.31a7.2 7.2 0 0 1-.56-2.79c-.01-1.29.24-2.57.74-3.76a13.7 13.7 0 0 1 1.99-3.25 23.09 23.09 0 0 1 2.92-2.93c1.11-.94 2.29-1.87 3.52-2.79-.1-.39-.24-.77-.42-1.13-.19-.38-.37-.82-.56-1.32-.2-.55-.36-1.11-.49-1.68a10.04 10.04 0 0 1-.21-2.19c.01-.91.17-1.8.49-2.65.32-.9.81-1.74 1.44-2.47a7.21 7.21 0 0 1 5.63-2.49 8.02 8.02 0 0 1 1.95.25c.64.16 1.23.46 1.74.88a4.6 4.6 0 0 1 1.25 1.68c.35.85.52 1.76.49 2.68a9.29 9.29 0 0 1-1.53 5.31 15.55 15.55 0 0 1-1.58 2.03l-1.85 1.98a24.39 24.39 0 0 0 2.15 3.83c.76 1.08 1.59 2.11 2.48 3.09.41-.57.63-1.24.63-1.94.05-.83.07-1.66.07-2.49a5.56 5.56 0 0 1 1.11-3.6c.74-.92 1.88-1.44 3.06-1.38.71 0 1.42.13 2.08.37a6.05 6.05 0 0 1 1.81 1.04c.52.43.95.96 1.27 1.55.32.58.49 1.23.49 1.89m-19.07 9.73c1.05-.01 2.1-.2 3.08-.58 1.01-.37 1.94-.91 2.76-1.59-.98-1.05-1.9-2.17-2.73-3.35a65.71 65.71 0 0 1-2.69-4.08c-1.09.81-2.04 1.78-2.83 2.89-.69.98-1.07 2.15-1.07 3.35-.01.87.32 1.72.93 2.35a3.22 3.22 0 0 0 2.55 1.01m3.15-19.93c-.43 0-.76.28-.97.85-.48 1.36-.43 2.85.14 4.18.55-.31.98-.81 1.21-1.41a5.13 5.13 0 0 0 .46-2.15c.02-.38-.03-.77-.16-1.13-.13-.24-.4-.37-.68-.34m40.96 10.46c.98-1.05 2.16-1.9 3.46-2.51 1.21-.47 2.5-.7 3.8-.68.56-.01 1.11.14 1.6.41.49.28.92.64 1.28 1.06.37.44.66.95.85 1.49a5.55 5.55 0 0 1 .29 1.76 13.39 13.39 0 0 1-.27 2.68c-.18.85-.38 1.64-.61 2.36a39.43 39.43 0 0 0-.58 2 4.72 4.72 0 0 0-.19 1.54 1.79 1.79 0 0 0 .22.9.9.9 0 0 0 .7.22 3.01 3.01 0 0 0 1.02-.22c.42-.16.81-.36 1.19-.6a10.54 10.54 0 0 0 1.21-.9 6.31 6.31 0 0 0 1.04-1.09c.39-.48.73-.72 1.02-.72.11 0 .21.05.29.12a.42.42 0 0 1 .15.31c-.18.4-.42.77-.7 1.11a15.1 15.1 0 0 1-1.86 2.05c-.82.76-1.72 1.42-2.69 1.98-.96.58-2.05.89-3.17.9-.99.1-1.97-.29-2.62-1.04a3.89 3.89 0 0 1-.78-2.39c0-.55.04-1.1.1-1.64l.19-1.71.19-1.59c.06-.42.08-.85.05-1.28 0-.38-.1-.75-.29-1.09-.22-.27-.57-.41-.92-.36-.74 0-1.43.51-2.06 1.54s-1.35 2.38-2.16 4.05a58.9 58.9 0 0 0-1.04 2.27c-.27.65-.61 1.27-.99 1.86a4.5 4.5 0 0 1-1.21 1.25c-.51.32-1.1.48-1.7.46a2.67 2.67 0 0 1-1.33-.29 1.81 1.81 0 0 1-.75-.75 3.29 3.29 0 0 1-.34-1.06c-.07-.4-.12-.81-.15-1.23-.03-.5-.01-1 .05-1.49l.22-2.1.22-2c.07-.61.1-1.03.1-1.25a2.12 2.12 0 0 0-.41-1.11c-.22-.39-.64-.63-1.09-.63-.53.01-1.05.17-1.5.46a7.13 7.13 0 0 0-1.7 1.54 24.64 24.64 0 0 0-2.01 2.87c-.73 1.19-1.53 2.67-2.4 4.44-.45.91-1 1.78-1.62 2.58-.44.67-1.16 1.09-1.96 1.13-.69.06-1.37-.19-1.86-.68a3.9 3.9 0 0 1-.7-2.36c-.03-.85-.01-1.71.05-2.56l.27-3.88.39-4.22.41-3.67c.16-1.44.68-2.81 1.53-3.98.82-1.06 2.12-1.65 3.46-1.57.74 0 1.45.24 2.03.7a2.47 2.47 0 0 1 .92 2.1 25.42 25.42 0 0 1-.63 5.5c.55-.87 1.11-1.69 1.67-2.46.55-.75 1.19-1.44 1.91-2.03a8.88 8.88 0 0 1 2.4-1.4c1-.37 2.06-.55 3.13-.53a4.06 4.06 0 0 1 2.08.51c.57.33 1.07.77 1.45 1.3a6.51 6.51 0 0 1 .9 1.76c.2.6.35 1.21.46 1.83m26.68-2.72c.82-.02 1.63.2 2.33.65a5.51 5.51 0 0 1 1.62 1.71 8.13 8.13 0 0 1 .97 2.41c.21.89.31 1.79.31 2.7-.01.91-.14 1.82-.39 2.7.21.06.42.11.63.14.19.03.4.07.63.1a7.78 7.78 0 0 0 .78.07l.87.05c.29.02.55.02.78.02h.44c.52 0 .77.13.78.39 0 .1-.11.23-.34.41-.29.21-.6.4-.92.55-.43.21-.87.37-1.33.48a6.35 6.35 0 0 1-1.62.19c-.52 0-1.04-.05-1.55-.14-.76 1.46-1.85 2.73-3.2 3.69a8.09 8.09 0 0 1-4.9 1.52c-1.16.02-2.3-.23-3.34-.72-.99-.47-1.86-1.15-2.57-1.98a9.28 9.28 0 0 1-1.65-2.9c-.39-1.13-.59-2.32-.58-3.52a11.89 11.89 0 0 1 .7-3.91c.46-1.34 1.13-2.6 1.99-3.74.82-1.11 1.84-2.06 3-2.8a6.92 6.92 0 0 1 3.75-1.09c.64-.02 1.26.16 1.79.51a1.75 1.75 0 0 1 .73 1.52c0 .17-.02.34-.05.51s-.08.34-.14.51c.07 0 .15-.01.22-.02.07 0 .16-.01.26-.01m1.16 11.59a10.99 10.99 0 0 1-3.2-2.51c-.87-.96-1.47-2.12-1.74-3.38a12.03 12.03 0 0 0-.82 2.24c-.31 1.18-.37 2.41-.19 3.62.06.45.18.89.36 1.3a2.98 2.98 0 0 0 .75 1.04 1.81 1.81 0 0 0 1.26.43c.77.01 1.53-.26 2.11-.77.61-.55 1.12-1.22 1.47-1.97m-.83-6.18c.01.59.18 1.16.48 1.67a5.94 5.94 0 0 0 1.26 1.52 7.97 7.97 0 0 0 .15-.96c.03-.32.05-.64.05-.96 0-.27-.03-.53-.07-.8-.04-.29-.12-.57-.22-.84a3.6 3.6 0 0 0-.34-.68c-.09-.17-.25-.27-.44-.29a.69.69 0 0 0-.68.41c-.13.28-.2.61-.19.93m13.09-8.12a4.14 4.14 0 0 1 2.37.72c.68.43 1.08 1.18 1.07 1.98a13.43 13.43 0 0 1-.31 2.68 75.12 75.12 0 0 1-.7 2.99c-.26 1.01-.49 2-.7 2.97a12.09 12.09 0 0 0-.31 2.61 3.17 3.17 0 0 0 .65 2.2c.46.48 1.11.73 1.77.7.74-.02 1.47-.21 2.13-.55a8.33 8.33 0 0 0 2.28-1.67c.36-.35.7-.73.99-1.13.14-.26.4-.43.7-.46.15-.01.29.06.39.17a.61.61 0 0 1 .15.36c-.05.43-.23.84-.53 1.16-.55.71-1.12 1.41-1.72 2.1a15.42 15.42 0 0 1-1.91 1.88 9.45 9.45 0 0 1-2.23 1.38c-.84.36-1.75.54-2.66.53-1.01.02-2.01-.17-2.93-.58a5.59 5.59 0 0 1-2.03-1.57c-.55-.69-.96-1.49-1.21-2.34-.28-.96-.42-1.95-.41-2.94 0-1.29.04-2.61.12-3.98a41.25 41.25 0 0 1 .51-4.42c.11-.53.27-1.06.46-1.57.21-.56.5-1.09.87-1.57s.83-.88 1.36-1.18c.54-.32 1.19-.48 1.83-.47m-2.61-7.82a3.61 3.61 0 0 1 .46-1.76c.31-.57.72-1.07 1.21-1.49.51-.44 1.09-.79 1.72-1.04s1.31-.39 1.99-.39c1.04-.03 2.07.28 2.93.87a3.1 3.1 0 0 1 1.24 2.7 3.99 3.99 0 0 1-.46 1.91 4.5 4.5 0 0 1-1.26 1.45c-.55.41-1.18.72-1.84.92-.73.21-1.49.32-2.25.31-1.97.09-3.63-1.42-3.73-3.38-.01-.03-.01-.06-.01-.1m-101.69 18.36c.08.15.25.17.4.22l-.37-.26-.03.04zm-.14.21l.26.23c-.02-.19-.1-.26-.26-.23m-1.81-.31c.07.11.2.13.32.16l-.3-.19-.02.03zm-.09.17l.21.17c-.03-.15-.09-.2-.21-.17m-215.8 4.09c-8.53 7.46-21.23 7.55-31.46 3.63-10.12-3.88-17.13-12.22-21.78-21.69-.27-.55.49-1.21.97-.77 6.37 5.84 13.62 11.36 21.64 14.73 9.33 3.92 18.61 3.63 27.88-.38 2.82-1.22 4.99 2.52 2.75 4.48m22.4-16.92c.08.15.25.17.4.22l-.37-.26-.03.04zm-.13.21l.26.23c-.02-.18-.1-.26-.26-.23m25.6 7.19c-.06 1.87-.57 3.69-1.51 5.31-1.06 1.95-2.45 3.72-4.1 5.22.22.25.49.54.81.88s.66.68 1.02 1.02a19.88 19.88 0 0 0 1.09.97c.34.28.69.55 1.07.78a3.78 3.78 0 0 1 .76.55 1.09 1.09 0 0 1 .35.83c0 .21-.1.4-.28.51a1.14 1.14 0 0 1-.65.18c-.52-.02-1.04-.13-1.53-.32-.64-.24-1.25-.53-1.83-.88-.64-.38-1.25-.8-1.83-1.27a10.85 10.85 0 0 1-1.53-1.5 17.38 17.38 0 0 1-6.14 3.46c-2.36.73-4.82 1.08-7.3 1.06-1.36.03-2.72-.17-4.01-.6-1.04-.35-2-.89-2.83-1.59-.73-.63-1.31-1.42-1.69-2.31a7.2 7.2 0 0 1-.56-2.79c-.01-1.29.24-2.57.74-3.76a13.7 13.7 0 0 1 1.99-3.25 23.09 23.09 0 0 1 2.92-2.93c1.11-.94 2.29-1.87 3.52-2.79-.1-.39-.24-.77-.42-1.13-.19-.38-.37-.82-.56-1.32-.2-.55-.36-1.11-.49-1.68a10.04 10.04 0 0 1-.21-2.19c.01-.91.17-1.8.49-2.65.32-.9.81-1.74 1.44-2.47a7.21 7.21 0 0 1 5.63-2.49 8.02 8.02 0 0 1 1.95.25c.64.16 1.23.46 1.74.88a4.6 4.6 0 0 1 1.25 1.68c.35.85.52 1.76.49 2.68a9.29 9.29 0 0 1-1.53 5.31 15.55 15.55 0 0 1-1.58 2.03l-1.85 1.98a24.39 24.39 0 0 0 2.15 3.83c.76 1.08 1.59 2.11 2.48 3.09.41-.57.63-1.24.63-1.94.05-.83.07-1.66.07-2.49a5.56 5.56 0 0 1 1.11-3.6c.74-.92 1.88-1.44 3.06-1.38.71 0 1.42.13 2.08.37a6.05 6.05 0 0 1 1.81 1.04c.51.43.94.95 1.26 1.53.35.58.52 1.23.52 1.89m-19.1 9.74c1.05-.01 2.1-.2 3.08-.58 1.01-.37 1.94-.91 2.76-1.59-.98-1.05-1.9-2.17-2.73-3.35a65.71 65.71 0 0 1-2.69-4.08c-1.09.81-2.04 1.78-2.83 2.89-.69.98-1.07 2.15-1.07 3.35-.01.87.32 1.72.93 2.35.67.69 1.6 1.06 2.55 1.01m3.15-19.94c-.43 0-.76.28-.97.85-.48 1.36-.43 2.85.14 4.18.55-.31.98-.81 1.21-1.41a5.13 5.13 0 0 0 .46-2.15c.02-.38-.03-.77-.16-1.13a.7.7 0 0 0-.68-.34m40.97 10.48c.98-1.05 2.16-1.9 3.46-2.51 1.21-.47 2.5-.7 3.8-.68.56-.01 1.11.14 1.6.41.49.28.92.64 1.28 1.06.37.44.66.95.85 1.49a5.55 5.55 0 0 1 .29 1.76 13.39 13.39 0 0 1-.27 2.68c-.18.85-.38 1.64-.61 2.36a39.43 39.43 0 0 0-.58 2 4.72 4.72 0 0 0-.19 1.54 1.79 1.79 0 0 0 .22.9.9.9 0 0 0 .7.22 3.01 3.01 0 0 0 1.02-.22c.42-.16.81-.36 1.19-.6a10.54 10.54 0 0 0 1.21-.9 6.31 6.31 0 0 0 1.04-1.09c.39-.48.73-.72 1.02-.72.11 0 .21.05.29.12a.42.42 0 0 1 .15.31c-.18.4-.42.77-.7 1.11a15.1 15.1 0 0 1-1.86 2.05c-.82.76-1.72 1.42-2.69 1.98-.96.58-2.05.89-3.17.9-.99.1-1.97-.29-2.62-1.04a3.89 3.89 0 0 1-.78-2.39c0-.55.04-1.1.1-1.64l.19-1.71.19-1.59c.06-.42.08-.85.05-1.28 0-.38-.1-.75-.29-1.09-.22-.27-.57-.41-.92-.36-.74 0-1.43.51-2.06 1.54s-1.35 2.38-2.16 4.05a58.9 58.9 0 0 0-1.04 2.27c-.27.65-.61 1.27-.99 1.86a4.5 4.5 0 0 1-1.21 1.25c-.51.32-1.1.48-1.7.46a2.67 2.67 0 0 1-1.33-.29 1.81 1.81 0 0 1-.75-.75 3.29 3.29 0 0 1-.34-1.06c-.07-.4-.12-.81-.15-1.23-.03-.5-.01-1 .05-1.49l.22-2.1.22-2c.07-.61.1-1.03.1-1.25a2.12 2.12 0 0 0-.41-1.11c-.22-.39-.64-.63-1.09-.63-.53.01-1.05.17-1.5.46a7.13 7.13 0 0 0-1.7 1.54 24.64 24.64 0 0 0-2.01 2.87c-.73 1.19-1.53 2.67-2.4 4.44-.45.91-1 1.78-1.62 2.58-.44.67-1.16 1.09-1.96 1.13-.69.06-1.37-.19-1.87-.68a3.9 3.9 0 0 1-.7-2.36c-.03-.85-.01-1.71.05-2.56l.27-3.88.39-4.22.41-3.67c.16-1.44.68-2.81 1.53-3.98.82-1.06 2.12-1.65 3.46-1.57.74 0 1.45.24 2.03.7a2.47 2.47 0 0 1 .92 2.1 25.42 25.42 0 0 1-.63 5.5c.55-.87 1.11-1.69 1.67-2.46.55-.75 1.19-1.44 1.91-2.03a8.88 8.88 0 0 1 2.4-1.4c1-.37 2.06-.55 3.13-.53a4.06 4.06 0 0 1 2.08.51c.57.33 1.07.77 1.45 1.3a6.51 6.51 0 0 1 .9 1.76 11.48 11.48 0 0 1 .46 1.86m26.69-2.75c.82-.02 1.63.2 2.33.65a5.51 5.51 0 0 1 1.62 1.71 8.13 8.13 0 0 1 .97 2.41c.21.89.31 1.79.31 2.7-.01.91-.14 1.82-.39 2.7.21.06.42.11.63.14l.63.1c.23.04.48.06.77.07l.87.05c.29.02.55.02.78.02h.44c.52 0 .77.13.78.39 0 .1-.11.23-.34.41-.29.21-.6.4-.92.55-.43.21-.87.37-1.33.48a6.35 6.35 0 0 1-1.62.19c-.52 0-1.04-.05-1.55-.14-.76 1.46-1.85 2.73-3.2 3.69a8.09 8.09 0 0 1-4.9 1.52c-1.16.02-2.3-.23-3.34-.72a7.65 7.65 0 0 1-2.57-1.98 9.28 9.28 0 0 1-1.65-2.9c-.39-1.13-.59-2.32-.58-3.52a11.89 11.89 0 0 1 .7-3.91c.46-1.34 1.13-2.6 1.99-3.74.82-1.11 1.84-2.06 3-2.8a6.92 6.92 0 0 1 3.75-1.09c.64-.02 1.26.16 1.79.51a1.75 1.75 0 0 1 .73 1.52c0 .17-.02.34-.05.51a2.46 2.46 0 0 1-.15.51c.07 0 .15-.01.22-.02.1 0 .19-.01.28-.01m1.16 11.59a10.99 10.99 0 0 1-3.2-2.51c-.87-.96-1.47-2.12-1.74-3.38a12.03 12.03 0 0 0-.82 2.24c-.19.76-.29 1.55-.29 2.34a9.08 9.08 0 0 0 .1 1.28c.06.45.18.89.36 1.3a2.98 2.98 0 0 0 .75 1.04 1.81 1.81 0 0 0 1.26.43c.77.01 1.53-.26 2.11-.77.62-.55 1.12-1.22 1.47-1.97m-.82-6.18c.01.59.18 1.16.48 1.67a5.94 5.94 0 0 0 1.26 1.52 7.97 7.97 0 0 0 .15-.96c.03-.32.05-.64.05-.96 0-.27-.03-.53-.07-.8-.04-.29-.12-.57-.22-.84a3.6 3.6 0 0 0-.34-.68c-.09-.17-.25-.27-.44-.29a.69.69 0 0 0-.68.41c-.13.28-.2.61-.19.93m13.08-8.12a4.14 4.14 0 0 1 2.37.72 2.28 2.28 0 0 1 1.07 1.98 13.43 13.43 0 0 1-.31 2.68 75.12 75.12 0 0 1-.7 2.99c-.26 1.01-.49 2-.7 2.97a12.09 12.09 0 0 0-.31 2.61 3.17 3.17 0 0 0 .65 2.2c.46.48 1.11.73 1.77.7.74-.02 1.47-.21 2.13-.55a8.33 8.33 0 0 0 2.28-1.67c.36-.35.7-.73.99-1.13.14-.26.4-.43.7-.46.15-.01.29.06.39.17a.61.61 0 0 1 .15.36c-.05.43-.23.84-.53 1.16-.55.71-1.12 1.41-1.72 2.1a15.42 15.42 0 0 1-1.91 1.88 9.45 9.45 0 0 1-2.23 1.38c-.84.36-1.75.54-2.66.53-1.01.02-2.01-.17-2.93-.58a5.59 5.59 0 0 1-2.03-1.57c-.55-.69-.96-1.49-1.21-2.34-.28-.96-.42-1.95-.41-2.94 0-1.29.04-2.61.12-3.98a41.25 41.25 0 0 1 .51-4.42c.11-.53.27-1.06.46-1.57.21-.56.5-1.09.87-1.57s.83-.88 1.36-1.18c.55-.32 1.19-.48 1.83-.47m-2.6-7.82a3.61 3.61 0 0 1 .46-1.76c.31-.57.72-1.07 1.21-1.49.51-.44 1.09-.79 1.72-1.04s1.31-.39 1.99-.39c1.04-.03 2.07.28 2.93.87a3.1 3.1 0 0 1 1.24 2.7 3.99 3.99 0 0 1-.46 1.91 4.5 4.5 0 0 1-1.26 1.45c-.55.41-1.18.72-1.84.92-.73.21-1.49.32-2.25.31-1.97.09-3.63-1.42-3.73-3.38-.01-.03-.01-.06-.01-.1m-101.7 18.36c.08.15.25.17.4.22l-.37-.26-.03.04zm-.14.21l.26.23c-.02-.19-.09-.26-.26-.23m-1.81-.31c.07.11.2.13.32.16l-.3-.19-.02.03zm-.09.17l.21.17c-.02-.15-.09-.2-.21-.17" fill="#004f9d"/><path d="M227.79 73.98a53.8 53.8 0 0 1 3.28-18.58 56.8 56.8 0 0 1 8.72-15.85 44.58 44.58 0 0 1 12.45-11 28.41 28.41 0 0 1 14.56-4.11c4.97 0 8.65 1.02 11.04 3.07 2.27 1.8 3.59 4.54 3.58 7.43a2.59 2.59 0 0 1-.65 1.68c-.46.55-1 1.01-1.61 1.39a18.67 18.67 0 0 1-2.02 1.09l-1.76.8c1.46 1.47 2.73 3.12 3.78 4.9 1.2 2 2.21 4.11 3.02 6.29a43.44 43.44 0 0 1 1.96 7.08 39.56 39.56 0 0 1 .71 7.28c.03 4.91-.81 9.79-2.47 14.41-1.52 4.29-3.75 8.29-6.6 11.84-2.6 3.24-5.8 5.94-9.42 7.98-3.36 1.9-7.17 2.91-11.04 2.92a28.92 28.92 0 0 1-12.14-2.38 24.78 24.78 0 0 1-8.57-6.29 26.34 26.34 0 0 1-5.09-9.11c-1.17-3.49-1.75-7.15-1.73-10.84m47.77-8.52c0-1.92-.08-3.95-.25-6.09s-.44-4.28-.81-6.39a51.23 51.23 0 0 0-1.46-6.14 26.99 26.99 0 0 0-2.32-5.45 66.25 66.25 0 0 0-7.51 4.06 37.36 37.36 0 0 0-7.86 6.54c-2.57 2.83-4.67 6.06-6.2 9.56-1.76 4.15-2.62 8.62-2.52 13.13 0 2 .24 4 .71 5.94a15.93 15.93 0 0 0 2.22 5.25c.97 1.48 2.24 2.75 3.73 3.71 1.57.98 3.39 1.48 5.24 1.44 2.46-.01 4.83-.89 6.7-2.48 2.14-1.76 3.97-3.87 5.4-6.24a33.5 33.5 0 0 0 3.63-8.27c.84-2.78 1.28-5.67 1.3-8.57m65.19-26.55c1.8.89 3.95.66 5.53-.57 1.65-1.4 2.73-3.36 3.04-5.5.36-1.88-.37-6.28.87-7.72a20.6 20.6 0 0 1 4.67-1.89c.1.16.12.37.05.55-.5 2.44-1.34 4.8-1.69 7.27a9.54 9.54 0 0 0-.03 3.91c.5 1.71 1.91 2.05 3.51 2.69.48.24 1.01.35 1.54.33.79-.17 1.44-.71 1.76-1.45 1.52-2.91 2.76-5.91 4.56-8.69a11.55 11.55 0 0 1 1.83-2.4c-.43.38-.48 4.7-.6 5.57-.54 3.71-.06 8.12 4.78 7.75a8.18 8.18 0 0 0 3.56-1.31 21.58 21.58 0 0 0 3.55-2.84c2.12-2.04 3.99-4.31 5.58-6.79.63-.8.96-1.8.93-2.81-.35-2.51-2.55-1.3-3.44-.03a58.78 58.78 0 0 1-7.38 8.6c.22-2.97.49-5.92.49-8.9a4.97 4.97 0 0 0-.58-2.7c-1.57-2.4-5.78-2.05-7.9-.73-1.52.95-2.31 2.57-3.61 3.66-.17-1.41.97-2.7.85-4.19a2.69 2.69 0 0 0-2.35-2.58c-.59.04-1.16.2-1.68.48-2.98 1.33-7.03 3.58-10.31 3.74.23-1.65 2.35-2.9 3.91-3.11.45-.06.97-.09 1.23-.45.43-.6-.27-1.37-.94-1.67-2.95-1.35-6.6-.25-8.96 1.95s-3.62 5.29-4.47 8.38c-.8 2.48-1.02 5.11-.64 7.69.19 1.32.84 2.53 1.84 3.43.16.11.32.23.5.33m6.41-15.42c.03.05.06.11.09.17-.01.02-.02.05-.03.07-.1.28-.13.58-.09.88-.01.54-.05 1.08-.11 1.61a19.94 19.94 0 0 1-1.8 6.37 22.61 22.61 0 0 1-1.18 2.16c-.02-1.07.08-2.13.3-3.18.12-.67.22-1.33.38-2 .16-.66.35-1.31.56-1.96a20.08 20.08 0 0 1 1.88-4.14v.02m-44.63-18.9c.74-.03 1.47.18 2.08.59.62.5 1.07 1.18 1.28 1.95.34 1.15.5 2.35.48 3.55a51.26 51.26 0 0 1-.28 5.4c1.3-4.51 2.89-7.83 4.77-9.99 1.81-2.12 4.48-3.31 7.28-3.23a4.88 4.88 0 0 1 2.91.89 6.8 6.8 0 0 1 2.08 2.47c.58 1.17.96 2.43 1.1 3.72.18 1.55.18 3.11-.03 4.66a70.25 70.25 0 0 1 1.56-3.26c.51-1.01 1.13-1.95 1.86-2.81A8.85 8.85 0 0 1 330 6.56c.96-.51 2.04-.77 3.14-.74a5.47 5.47 0 0 1 2.58.57c.7.36 1.31.87 1.81 1.48a6.26 6.26 0 0 1 1.08 2.02c.23.71.35 1.45.35 2.19-.01 1.06-.14 2.12-.38 3.16-.25 1.15-.56 2.34-.93 3.58a81.7 81.7 0 0 1-1.23 3.75c-.45 1.27-.86 2.49-1.23 3.67s-.68 2.31-.93 3.38a12.94 12.94 0 0 0-.38 2.84 3.79 3.79 0 0 0 .68 2.52 2.75 2.75 0 0 0 2.18.79c.82 0 1.62-.24 2.31-.69a13.66 13.66 0 0 0 2.01-1.53 19.83 19.83 0 0 0 1.51-1.53c.4-.46.68-.69.85-.69.14-.02.28.08.3.22v.08a4.31 4.31 0 0 1-.73 1.6 14.94 14.94 0 0 1-1.96 2.52c-.87.91-1.86 1.7-2.94 2.34-1.1.68-2.37 1.04-3.66 1.04-.93.02-1.85-.19-2.68-.59a5.97 5.97 0 0 1-1.98-1.58 7.01 7.01 0 0 1-1.23-2.34c-.29-.95-.44-1.94-.43-2.94.02-1.55.2-3.1.53-4.61.35-1.73.74-3.4 1.18-5.03l1.18-4.41c.28-.9.45-1.82.53-2.76.08-.55-.31-1.06-.87-1.14-.1-.01-.19-.01-.29 0-.64 0-1.33.61-2.08 1.83-.89 1.51-1.65 3.09-2.26 4.74-.75 1.94-1.46 4.1-2.13 6.49a121.85 121.85 0 0 0-1.76 7.08 6.18 6.18 0 0 1-1.71 3.4c-.83.73-1.9 1.12-3.01 1.08-1.11.08-2.18-.45-2.79-1.38-.6-.98-.91-2.11-.88-3.26a25.38 25.38 0 0 1 .4-4.17l.88-5.06.88-5.33a33.22 33.22 0 0 0 .4-4.98c0-1.18-.54-1.78-1.61-1.78a2.44 2.44 0 0 0-1.66 1.01c-.72.84-1.35 1.75-1.88 2.71a33.42 33.42 0 0 0-1.91 3.95c-.62 1.5-1.2 3.08-1.73 4.74a67.11 67.11 0 0 0-1.41 5.11c-.38 1.64-.67 3.31-.85 4.98-.07.64-.27 1.25-.6 1.8a6.83 6.83 0 0 1-1.23 1.55c-.47.45-1.02.83-1.61 1.11-.52.26-1.1.41-1.68.42a4.84 4.84 0 0 1-3.79-1.38c-.84-.97-1.28-2.22-1.23-3.5.04-1.52.17-3.04.4-4.54l.85-6.46a202.67 202.67 0 0 0 .8-7.4 63.03 63.03 0 0 0 .25-7.4c.01-.53.13-1.05.35-1.53.25-.55.6-1.04 1.03-1.46.47-.45 1.01-.82 1.61-1.08.66-.29 1.37-.43 2.08-.42m-80.92 99.75a22.97 22.97 0 0 0 3.93 5.46c1.49 1.53 3.17 2.88 5 4a31.78 31.78 0 0 0 6.31 3.01 40.62 40.62 0 0 0 7.12 1.73c2.46.36 4.94.54 7.43.56.28 0 .56.01.85 0a3.93 3.93 0 0 0 1.07-.18c.38-.08.74-.21 1.08-.39.31-.14.6-.33.85-.55.23-.16.43-.37.58-.62l.17-.42a.75.75 0 0 0-.24-.72l-.38-.23c-.37-.13-.76-.18-1.15-.16-.8 0-1.6-.02-2.4-.05l.62.03a45.88 45.88 0 0 1-7.01-.8 38.36 38.36 0 0 1-1.92-.43l.52.13c-2.35-.57-4.63-1.41-6.79-2.49a23.55 23.55 0 0 1-1.7-.94l.38.23c-2.43-1.43-4.6-3.25-6.42-5.4-.51-.6-.98-1.23-1.42-1.88l.22.33c-.45-.67-.85-1.36-1.22-2.07-.06-.2-.22-.36-.41-.44-.21-.15-.46-.24-.71-.24-.32-.05-.65-.04-.97.02a4.09 4.09 0 0 0-1.09.24l-.71.29c-.4.19-.77.45-1.09.75l-.33.42a.9.9 0 0 0-.17.81m78.25-44.83c1.25-.01 2.48.36 3.51 1.07 1.01.63 1.6 1.74 1.58 2.92-.02 1.33-.17 2.66-.47 3.96-.31 1.45-.66 2.92-1.04 4.42a130.51 130.51 0 0 0-1.04 4.39 18.51 18.51 0 0 0-.47 3.85c-.1 1.16.25 2.32.97 3.25a3.4 3.4 0 0 0 2.61 1.03 7.48 7.48 0 0 0 3.15-.82c1.25-.62 2.39-1.46 3.37-2.46.54-.51 1.03-1.08 1.47-1.68.21-.39.6-.64 1.04-.68.22-.01.43.08.57.25a.83.83 0 0 1 .21.54 2.98 2.98 0 0 1-.79 1.71c-.81 1.05-1.66 2.08-2.54 3.1a23.98 23.98 0 0 1-2.83 2.78 13.83 13.83 0 0 1-3.3 2.03c-1.24.53-2.59.8-3.94.78a10.07 10.07 0 0 1-4.33-.86 8.35 8.35 0 0 1-3.01-2.32c-.82-1.03-1.42-2.2-1.79-3.46-.42-1.41-.62-2.88-.61-4.35a99.21 99.21 0 0 1 .18-5.88c.14-2.19.39-4.37.75-6.53.17-.79.39-1.56.68-2.32.31-.83.75-1.61 1.29-2.32.55-.71 1.23-1.3 2.01-1.75.85-.44 1.8-.67 2.77-.65m-3.88-11.55c0-.91.24-1.81.68-2.6a7.98 7.98 0 0 1 1.79-2.21 8.65 8.65 0 0 1 2.54-1.53c.93-.38 1.93-.57 2.94-.57 1.54-.04 3.06.41 4.33 1.28 1.26.93 1.94 2.44 1.83 3.99a5.79 5.79 0 0 1-.68 2.82c-.46.84-1.09 1.57-1.86 2.14-.82.61-1.74 1.07-2.72 1.36a11.35 11.35 0 0 1-3.33.46c-2.91.14-5.37-2.1-5.51-4.99-.01-.06-.01-.11-.01-.15m24.79 11.41c1.36-1.03 2.89-1.83 4.51-2.35 1.39-.42 2.84-.64 4.3-.64a4.92 4.92 0 0 1 2.11.39 3.83 3.83 0 0 1 1.33 1c.32.38.56.83.68 1.32.11.44.17.9.18 1.35-.02.76-.27 1.49-.72 2.1a16.05 16.05 0 0 1-1.76 2.1c-.69.71-1.46 1.43-2.29 2.14a27.71 27.71 0 0 0-2.29 2.18c-.66.69-1.24 1.44-1.75 2.25-.45.68-.7 1.47-.72 2.28a4.41 4.41 0 0 0 .82 2.6 12.93 12.93 0 0 0 1.93 2.18c.73.66 1.51 1.27 2.33 1.82.81.55 1.48 1.03 2 1.46.67-.29 1.39-.57 2.18-.86a47.95 47.95 0 0 1 2.29-.78l1.97-.61a4.99 4.99 0 0 1 1.22-.25c.52 0 .79.24.79.71 0 .14-.26.38-.79.71-.52.33-1.16.69-1.9 1.07s-1.5.8-2.29 1.25-1.44.84-1.97 1.18c.05.24.08.48.11.71.02.24.04.47.04.71a10.98 10.98 0 0 1-1.25 4.96c-1.66 3.24-4.32 5.87-7.6 7.49a10.62 10.62 0 0 1-4.62 1.18c-2.87 0-4.87-.58-6.02-1.75a5.42 5.42 0 0 1-1.72-3.89c0-1.62.92-3.28 2.76-4.99s4.67-3.09 8.49-4.14l-3.58-1.96c-1.21-.67-2.34-1.47-3.37-2.39a12.06 12.06 0 0 1-2.51-3.21c-.7-1.37-1.04-2.89-1-4.42.05-2.45.82-4.83 2.22-6.85 1.58-2.36 3.57-4.42 5.89-6.05m.07 34.52a7.87 7.87 0 0 0 2.15-.36c.78-.22 1.53-.56 2.22-1 .67-.43 1.25-.97 1.72-1.61.48-.65.73-1.44.72-2.25-.04-1.3-.78-2.47-1.93-3.07-2.15.66-4.15 1.71-5.91 3.1-.88.67-1.46 1.65-1.61 2.75-.05.69.23 1.36.75 1.82.53.43 1.21.65 1.89.62m25.28-15.19c-.09 1.84.66 3.62 2.04 4.85 1.68 1.29 3.79 1.93 5.91 1.78 1.7.02 3.38-.32 4.94-1 1.41-.6 2.75-1.34 4.01-2.21.99-.68 1.93-1.42 2.83-2.21.74-.66 1.25-1 1.54-1 .62 0 .93.24.93.71-.23.89-.67 1.71-1.29 2.39a20.45 20.45 0 0 1-3.51 3.57c-1.62 1.3-3.4 2.39-5.3 3.25-2.06.95-4.31 1.44-6.59 1.43-2.13.05-4.24-.32-6.23-1.07-1.66-.64-3.16-1.62-4.4-2.89a11.58 11.58 0 0 1-2.61-4.24 15.24 15.24 0 0 1-.86-5.14c.01-2.2.37-4.37 1.07-6.46.69-2.11 1.74-4.09 3.12-5.85 1.33-1.71 2.99-3.15 4.87-4.24a12.5 12.5 0 0 1 6.41-1.64c1.23-.02 2.45.26 3.55.82a7.71 7.71 0 0 1 2.54 2.14 9.19 9.19 0 0 1 1.5 3 11.32 11.32 0 0 1 .5 3.32c.01 1.77-.26 3.53-.82 5.21a15.83 15.83 0 0 1-2.11 4.21c-.77 1.1-1.73 2.05-2.83 2.82a5.16 5.16 0 0 1-2.9 1.03c-1.4.04-2.8-.22-4.08-.78-.9-.36-1.68-.98-2.22-1.78m5.01-10.78c-.65.03-1.26.3-1.72.75-.63.57-1.16 1.23-1.58 1.96-.5.85-.88 1.76-1.15 2.71-.29 1-.43 2.03-.43 3.07a7.57 7.57 0 0 0 2.18-1c.73-.47 1.4-1.02 2-1.64a7.77 7.77 0 0 0 1.43-2.03c.34-.68.53-1.42.54-2.18.02-1.09-.41-1.64-1.27-1.64" fill="#6eaca0"/><path d="M142.94 18.42a1.75 1.75 0 0 1 .92.23 2.04 2.04 0 0 1 .6.57 2.64 2.64 0 0 1 .35.74c.07.26.11.52.11.79 0 .69-.1 1.37-.31 2.02l-.71 2.26c-.27.81-.5 1.67-.71 2.58a13.58 13.58 0 0 0-.3 2.98 2.41 2.41 0 0 0 .35 1.31 1.29 1.29 0 0 0 1.2.55c.42-.01.82-.11 1.19-.3.4-.2.78-.45 1.13-.73s.68-.58 1-.9l.81-.81c.13-.13.27-.26.42-.36.12-.09.27-.15.43-.15a.41.41 0 0 1 .47.35c.01.04.01.08 0 .12a1.73 1.73 0 0 1-.46.85l-1.29 1.54a12.13 12.13 0 0 1-1.55 1.49c-.58.47-1.23.85-1.91 1.14-.74.31-1.54.47-2.34.46a3.87 3.87 0 0 1-1.3-.23 3.31 3.31 0 0 1-1.2-.74 4.02 4.02 0 0 1-.88-1.27 4.42 4.42 0 0 1-.35-1.83 14.5 14.5 0 0 1 .1-1.74c.05-.52.14-1.03.27-1.53l-1.71 2.56a19 19 0 0 1-2.2 2.54 13.42 13.42 0 0 1-2.59 1.97 5.65 5.65 0 0 1-2.83.8c-.75.02-1.5-.16-2.16-.52a5.45 5.45 0 0 1-1.63-1.35 6.46 6.46 0 0 1-1.41-3.92 13.36 13.36 0 0 1 .91-5.08c.57-1.5 1.38-2.89 2.41-4.12.93-1.12 2.06-2.05 3.33-2.76a7.76 7.76 0 0 1 3.73-1.02 5.88 5.88 0 0 1 3.42.87c.88.61 1.57 1.44 2.02 2.41.2-.62.64-1.13 1.23-1.43.47-.21.98-.32 1.49-.33m-4.98 6.82a7.02 7.02 0 0 0-1.52-1.46 2.86 2.86 0 0 0-1.65-.52c-.62.01-1.22.2-1.73.54a6.56 6.56 0 0 0-1.51 1.37 6.83 6.83 0 0 0-1.09 1.84c-.26.61-.39 1.27-.39 1.94a1.83 1.83 0 0 0 .48 1.23c.38.39.91.59 1.45.54a3.25 3.25 0 0 0 1.66-.52 8.81 8.81 0 0 0 1.66-1.33c.54-.55 1.04-1.14 1.48-1.77a15.95 15.95 0 0 0 1.14-1.86M88.23 1.88c.75-.03 1.5.18 2.13.6.64.51 1.1 1.21 1.32 2a12.59 12.59 0 0 1 .51 3.66 54.5 54.5 0 0 1-.25 5.57c1.3-4.66 2.9-8.11 4.8-10.34a9.29 9.29 0 0 1 7.4-3.38c1.06-.03 2.1.29 2.97.9a7.07 7.07 0 0 1 2.14 2.53 11.35 11.35 0 0 1 1.15 3.85c.2 1.6.2 3.21 0 4.81.5-1.16 1.03-2.28 1.57-3.37.51-1.04 1.14-2.02 1.87-2.91a8.83 8.83 0 0 1 2.42-2.05c.98-.53 2.08-.8 3.19-.78.91-.03 1.82.17 2.64.57.72.37 1.35.89 1.85 1.52a6.43 6.43 0 0 1 1.11 2.08c.24.73.36 1.5.37 2.26-.01 1.1-.13 2.19-.36 3.26a56.97 56.97 0 0 1-.92 3.7c-.37 1.27-.78 2.57-1.23 3.88a109.84 109.84 0 0 0-1.23 3.8c-.37 1.22-.68 2.39-.92 3.49-.23.96-.35 1.94-.37 2.93-.07.92.18 1.84.71 2.59a2.75 2.75 0 0 0 2.23.8 4.29 4.29 0 0 0 2.35-.73 14.31 14.31 0 0 0 2.04-1.59c.54-.5 1.04-1.04 1.52-1.59.41-.48.69-.72.86-.72.15-.02.29.08.31.23v.08a4.58 4.58 0 0 1-.73 1.66 15.73 15.73 0 0 1-1.98 2.61c-.88.94-1.88 1.76-2.98 2.44-1.11.71-2.41 1.09-3.73 1.09-.95.02-1.89-.18-2.74-.6-.79-.39-1.48-.94-2.03-1.62a7.44 7.44 0 0 1-1.27-2.41 10.02 10.02 0 0 1-.45-3.03c.01-1.6.18-3.2.51-4.76.35-1.79.74-3.52 1.17-5.2l1.17-4.57c.28-.93.45-1.89.52-2.86.08-.57-.32-1.09-.89-1.17-.1-.01-.2-.01-.29 0-.65 0-1.35.64-2.11 1.9a30.65 30.65 0 0 0-2.27 4.9c-.75 2.01-1.47 4.25-2.13 6.71-.67 2.47-1.25 4.9-1.74 7.32a6.37 6.37 0 0 1-1.72 3.52c-.83.76-1.93 1.17-3.06 1.14-1.14.09-2.23-.45-2.85-1.41a6.21 6.21 0 0 1-.92-3.36c.01-1.44.14-2.88.38-4.31l.86-5.23.86-5.51c.25-1.7.38-3.42.38-5.15-.01-1.22-.56-1.83-1.65-1.82-.68.1-1.29.48-1.68 1.05-.73.87-1.36 1.81-1.9 2.81a33.86 33.86 0 0 0-1.92 4.09 63.63 63.63 0 0 0-1.73 4.9c-.53 1.72-1 3.48-1.4 5.28a44.92 44.92 0 0 0-.84 5.15 4.68 4.68 0 0 1-.6 1.86c-.34.59-.75 1.14-1.24 1.61a6.45 6.45 0 0 1-1.63 1.16 3.78 3.78 0 0 1-1.71.44c-1.43.13-2.85-.39-3.87-1.4-.86-1-1.32-2.28-1.29-3.59.03-1.57.15-3.14.38-4.69l.83-6.68c.29-2.45.55-4.99.77-7.64.22-2.54.29-5.09.21-7.64 0-.55.12-1.08.35-1.58a4.91 4.91 0 0 1 1.04-1.51c.47-.47 1.02-.85 1.63-1.13a5.2 5.2 0 0 1 2.11-.42m-55.5 98.96a34.28 34.28 0 0 1-13.77-1.88c-2.16-.66-4.11-1.86-5.67-3.48-1.16-1.43-1.92-3.14-2.18-4.95a14.03 14.03 0 0 1 5.35-13.3c7.56-5.62 14.79.81 22.79-1.31 4.83-1.28 8.91-5.6 8.07-10.83-.98-6.09-7.06-10.9-11.92-14.04a41.91 41.91 0 0 1-5.8-4.48c-8.53-7.86-7.78-20.22 1.07-27.8 6.04-5.17 14.94-6.84 22.7-4.71 7.27 1.99 14.31 7.37 17.37 14.35.39.88.55 2.2-.35 2.55-.36.11-.75.09-1.1-.04-4.6-1.26-8.4-5.53-12.45-7.92-4.26-2.52-9.09-4.12-14.01-2.63-4.66 1.41-8.2 6.66-6.25 10.97 1.19 2.63 3.93 4.23 6.55 5.6 4.6 2.41 9.33 4.66 13.51 7.71 7.01 4.99 11.35 12.91 11.76 21.48.92 19.32-17.36 33.59-35.67 34.71m-26.5 3.51a22.97 22.97 0 0 0 3.93 5.46c1.49 1.53 3.17 2.88 5 4a31.78 31.78 0 0 0 6.31 3.01 40.62 40.62 0 0 0 7.12 1.73c2.46.36 4.94.54 7.43.56.28 0 .56.01.85 0a3.93 3.93 0 0 0 1.07-.18c.38-.08.74-.21 1.08-.39.31-.14.6-.33.85-.55.23-.16.43-.37.58-.62l.17-.42a.75.75 0 0 0-.24-.72L40 116c-.37-.13-.76-.18-1.15-.16-.8 0-1.6-.02-2.4-.05l.62.03a45.88 45.88 0 0 1-7.01-.8c-.64-.13-1.29-.27-1.92-.43l.52.13c-2.35-.57-4.63-1.41-6.79-2.49a23.55 23.55 0 0 1-1.7-.94l.38.23c-2.43-1.43-4.6-3.25-6.42-5.4-.51-.6-.98-1.23-1.42-1.88l.22.33c-.45-.67-.85-1.36-1.22-2.07-.06-.2-.22-.36-.41-.44-.21-.15-.46-.24-.71-.24-.32-.05-.65-.04-.97.02a4.09 4.09 0 0 0-1.09.24l-.71.29c-.4.19-.77.45-1.09.75l-.33.42a.93.93 0 0 0-.17.81m75.68-24.87a6.26 6.26 0 0 0 2.1 4.98 8.94 8.94 0 0 0 6.06 1.83 12.63 12.63 0 0 0 5.07-1.03c1.45-.62 2.82-1.38 4.12-2.27 1.01-.7 1.98-1.46 2.9-2.27.76-.68 1.29-1.02 1.58-1.03.64 0 .95.24.96.73a5.8 5.8 0 0 1-1.32 2.45 20.78 20.78 0 0 1-3.6 3.66 25.44 25.44 0 0 1-5.44 3.33c-2.12.98-4.43 1.48-6.76 1.46a17.08 17.08 0 0 1-6.4-1.09c-1.7-.66-3.24-1.67-4.52-2.96-1.2-1.24-2.11-2.73-2.68-4.35a15.76 15.76 0 0 1-.88-5.27c.01-2.25.38-4.49 1.1-6.62.71-2.17 1.79-4.2 3.2-6 1.37-1.76 3.07-3.24 5-4.35A12.83 12.83 0 0 1 88.98 59c1.26-.02 2.51.26 3.64.84 1.02.53 1.91 1.28 2.61 2.2s1.22 1.96 1.55 3.07a11.53 11.53 0 0 1 .51 3.4 16.4 16.4 0 0 1-.85 5.34c-.5 1.54-1.23 2.99-2.17 4.32a11.71 11.71 0 0 1-2.9 2.89c-.86.64-1.9 1.01-2.98 1.06-1.44.05-2.87-.23-4.19-.81-.93-.37-1.72-1.01-2.29-1.83m5.16-11.05c-.66.03-1.29.3-1.76.77-.64.58-1.19 1.26-1.62 2.01a12.17 12.17 0 0 0-1.18 2.78 11.52 11.52 0 0 0-.44 3.15 7.97 7.97 0 0 0 2.24-1.02c.75-.48 1.44-1.04 2.06-1.68.6-.61 1.09-1.32 1.47-2.09a5.1 5.1 0 0 0 .55-2.23c0-1.13-.44-1.69-1.32-1.69m23.58-8.64a6.33 6.33 0 0 1 3.6 1.09c1.03.65 1.65 1.79 1.62 3-.02 1.37-.18 2.73-.48 4.06-.32 1.49-.67 3-1.07 4.54l-1.07 4.5c-.3 1.3-.46 2.62-.48 3.95-.1 1.2.25 2.38.99 3.33.7.72 1.68 1.11 2.68 1.06a7.56 7.56 0 0 0 3.23-.84 12.44 12.44 0 0 0 3.45-2.53c.55-.53 1.06-1.1 1.51-1.72.21-.4.61-.66 1.07-.7.22-.01.44.09.59.26.14.15.22.34.22.55-.07.66-.36 1.27-.81 1.76-.83 1.07-1.7 2.14-2.61 3.19-.89 1.03-1.85 1.98-2.9 2.85a14.02 14.02 0 0 1-3.38 2.09c-1.28.55-2.65.82-4.04.81-1.53.04-3.05-.26-4.45-.88-1.2-.55-2.25-1.36-3.09-2.38a10.37 10.37 0 0 1-1.84-3.55c-.43-1.45-.64-2.95-.62-4.47a104.85 104.85 0 0 1 .18-6.04c.14-2.24.4-4.48.77-6.7a15.11 15.11 0 0 1 .7-2.38c.32-.85.76-1.66 1.32-2.38a6.8 6.8 0 0 1 2.06-1.79 5.93 5.93 0 0 1 2.85-.68m-3.97-11.85a5.43 5.43 0 0 1 .7-2.67 8.06 8.06 0 0 1 1.84-2.27c.77-.67 1.66-1.2 2.61-1.57a8.19 8.19 0 0 1 3.01-.59c1.58-.04 3.14.42 4.45 1.32a4.66 4.66 0 0 1 1.87 4.1 6.05 6.05 0 0 1-.7 2.89c-.47.86-1.12 1.61-1.91 2.2a8.69 8.69 0 0 1-2.79 1.39c-1.11.33-2.26.49-3.42.48-2.98.14-5.51-2.15-5.65-5.12 0-.07 0-.12-.01-.16m40.57 16.17a4.38 4.38 0 0 1 2.87 1.03c.88.75 1.59 1.69 2.06 2.74.57 1.24.99 2.54 1.25 3.88.29 1.43.47 2.89.51 4.35 0 .78.04 1.68.11 2.71.07.97.21 1.94.44 2.89.18.8.49 1.57.92 2.27a1.8 1.8 0 0 0 1.62.91c.65-.07 1.26-.35 1.73-.81.68-.55 1.33-1.14 1.95-1.76.64-.63 1.25-1.22 1.84-1.76a2.5 2.5 0 0 1 1.4-.81c.25-.03.48.14.51.39.01.04.01.08 0 .13a5.72 5.72 0 0 1-.88 2.31 17.09 17.09 0 0 1-5.7 5.89c-1.12.74-2.44 1.15-3.78 1.17-1.29.05-2.56-.27-3.67-.91a7.52 7.52 0 0 1-2.39-2.34 10.63 10.63 0 0 1-1.36-3.15c-.28-1.07-.48-2.16-.59-3.26.01-1.25-.41-2.46-1.18-3.44-.5-.57-1.22-.92-1.98-.95-.87.02-1.7.37-2.31.99-.79.76-1.49 1.62-2.06 2.56-.7 1.12-1.31 2.3-1.84 3.51l-1.65 3.77c-.35.79-.74 1.56-1.18 2.31a11.65 11.65 0 0 1-1.47 2.01c-.54.59-1.19 1.07-1.91 1.43-.78.38-1.63.56-2.5.55-.64.02-1.28-.13-1.84-.44-.48-.28-.86-.7-1.1-1.21a5.78 5.78 0 0 1-.51-1.72c-.1-.65-.15-1.31-.15-1.98 0-.98.1-2.49.29-4.54a146.17 146.17 0 0 1 .81-6.62c.34-2.37.72-4.71 1.14-7.03.33-1.94.76-3.85 1.29-5.75a7.49 7.49 0 0 1 2.57-3.99c1.19-.94 2.67-1.44 4.19-1.43 1.14-.11 2.25.38 2.94 1.28a4.83 4.83 0 0 1 .88 2.82c0 1.12-.04 2.22-.11 3.29l-.26 3.29c1.37-1.29 2.86-2.46 4.45-3.48a8.98 8.98 0 0 1 4.65-1.1m23 15.37a6.26 6.26 0 0 0 2.1 4.98 8.94 8.94 0 0 0 6.06 1.83 12.63 12.63 0 0 0 5.07-1.03c1.45-.62 2.82-1.38 4.12-2.27 1.01-.7 1.98-1.46 2.9-2.27.76-.68 1.29-1.02 1.58-1.03.64 0 .95.24.96.73a5.8 5.8 0 0 1-1.32 2.45 20.78 20.78 0 0 1-3.6 3.66 25.44 25.44 0 0 1-5.44 3.33c-2.12.98-4.43 1.48-6.76 1.46a17.08 17.08 0 0 1-6.4-1.09c-1.7-.66-3.24-1.67-4.52-2.96-1.2-1.24-2.11-2.73-2.68-4.35a15.76 15.76 0 0 1-.88-5.27c.01-2.25.38-4.49 1.1-6.62.71-2.17 1.79-4.2 3.2-6 1.37-1.76 3.07-3.24 5-4.35a12.83 12.83 0 0 1 6.58-1.68c1.26-.02 2.51.26 3.64.84 1.02.53 1.91 1.28 2.61 2.2s1.22 1.97 1.54 3.07a11.53 11.53 0 0 1 .51 3.4 16.66 16.66 0 0 1-.84 5.34c-.5 1.54-1.23 2.99-2.17 4.32a11.71 11.71 0 0 1-2.9 2.89c-.86.64-1.9 1.01-2.98 1.06-1.44.05-2.87-.23-4.19-.81-.93-.37-1.73-1-2.29-1.83m5.15-11.05c-.66.03-1.29.3-1.76.77-.64.58-1.19 1.26-1.62 2.01a12.17 12.17 0 0 0-1.18 2.78 11.52 11.52 0 0 0-.44 3.15 7.97 7.97 0 0 0 2.24-1.02c.75-.48 1.44-1.04 2.06-1.68.6-.61 1.09-1.32 1.47-2.09a5.1 5.1 0 0 0 .55-2.23c0-1.13-.44-1.69-1.32-1.69" fill="#64afc9"/><path d="M559.82 22.79a1.66 1.66 0 0 1 .92.23 2.04 2.04 0 0 1 .6.57 2.64 2.64 0 0 1 .35.74c.07.26.11.52.11.79 0 .69-.1 1.37-.31 2.02l-.71 2.26c-.27.81-.5 1.67-.71 2.58-.21.98-.32 1.98-.3 2.98a2.41 2.41 0 0 0 .35 1.31 1.29 1.29 0 0 0 1.2.55c.42-.01.82-.11 1.19-.3.4-.2.78-.45 1.13-.73s.68-.58 1-.9l.81-.81c.13-.13.27-.26.42-.36.12-.09.27-.15.43-.15a.41.41 0 0 1 .47.35c.01.04.01.08 0 .12a1.73 1.73 0 0 1-.46.85l-1.29 1.54a12.13 12.13 0 0 1-1.55 1.49c-.58.47-1.23.85-1.91 1.14-.74.31-1.54.47-2.34.46a3.87 3.87 0 0 1-1.3-.23 3.31 3.31 0 0 1-1.2-.74 4.02 4.02 0 0 1-.88-1.27c-.24-.58-.36-1.2-.35-1.83a14.5 14.5 0 0 1 .1-1.74c.05-.52.14-1.03.27-1.53l-1.71 2.56a19 19 0 0 1-2.2 2.54 13.42 13.42 0 0 1-2.59 1.97 5.65 5.65 0 0 1-2.83.8c-.75.02-1.5-.16-2.16-.52a5.45 5.45 0 0 1-1.63-1.35c-.89-1.12-1.38-2.5-1.41-3.92a13.36 13.36 0 0 1 .91-5.08c.57-1.49 1.38-2.89 2.41-4.11.93-1.12 2.06-2.05 3.33-2.76a7.76 7.76 0 0 1 3.73-1.02 5.88 5.88 0 0 1 3.42.87c.88.61 1.57 1.44 2.02 2.41.2-.62.64-1.14 1.23-1.43.47-.21.98-.32 1.49-.33m-4.99 6.81a7.02 7.02 0 0 0-1.52-1.46 2.86 2.86 0 0 0-1.65-.52c-.62.01-1.22.2-1.73.54a6.56 6.56 0 0 0-1.51 1.37c-.45.55-.81 1.17-1.08 1.83-.26.61-.39 1.27-.39 1.94a1.83 1.83 0 0 0 .48 1.23c.38.39.91.59 1.45.54a3.25 3.25 0 0 0 1.66-.52 8.81 8.81 0 0 0 1.66-1.33c.54-.55 1.04-1.14 1.48-1.77a15.4 15.4 0 0 0 1.15-1.85M505.1 6.25c.75-.03 1.5.18 2.13.6.64.51 1.1 1.21 1.32 2a12.59 12.59 0 0 1 .51 3.66 54.5 54.5 0 0 1-.25 5.57c1.3-4.66 2.9-8.11 4.8-10.34a9.29 9.29 0 0 1 7.4-3.38c1.06-.03 2.1.29 2.97.9a7.07 7.07 0 0 1 2.14 2.53c.61 1.2.99 2.5 1.15 3.84.2 1.6.2 3.21 0 4.81.5-1.16 1.03-2.28 1.57-3.37.51-1.04 1.14-2.02 1.87-2.91a8.83 8.83 0 0 1 2.42-2.05c.98-.53 2.08-.8 3.19-.78.91-.03 1.82.17 2.64.57.72.37 1.35.89 1.85 1.52a6.43 6.43 0 0 1 1.11 2.08c.24.73.36 1.5.37 2.26-.01 1.1-.13 2.19-.36 3.26a56.97 56.97 0 0 1-.92 3.7c-.37 1.27-.78 2.57-1.23 3.88a109.84 109.84 0 0 0-1.23 3.8c-.37 1.23-.68 2.39-.92 3.49-.23.96-.35 1.94-.36 2.93-.07.92.18 1.84.71 2.59a2.75 2.75 0 0 0 2.23.8 4.29 4.29 0 0 0 2.35-.73 14.31 14.31 0 0 0 2.04-1.59c.54-.5 1.04-1.04 1.52-1.59.41-.48.69-.72.86-.72.15-.02.29.08.31.23v.07a4.58 4.58 0 0 1-.73 1.66 15.73 15.73 0 0 1-1.98 2.61c-.88.94-1.88 1.76-2.98 2.44-1.11.71-2.41 1.09-3.73 1.09-.95.02-1.89-.18-2.74-.6-.79-.39-1.48-.94-2.03-1.62a7.44 7.44 0 0 1-1.27-2.41 10.02 10.02 0 0 1-.45-3.03c.01-1.6.18-3.2.51-4.76.35-1.79.74-3.52 1.17-5.2l1.17-4.57c.28-.93.45-1.89.52-2.86.08-.57-.32-1.09-.89-1.17-.1-.01-.2-.01-.3 0-.65 0-1.35.64-2.11 1.9a30.65 30.65 0 0 0-2.27 4.9c-.75 2.01-1.47 4.25-2.13 6.71-.67 2.47-1.25 4.9-1.75 7.32a6.37 6.37 0 0 1-1.72 3.52c-.83.76-1.93 1.17-3.06 1.14-1.14.09-2.23-.45-2.85-1.41a6.21 6.21 0 0 1-.92-3.36c.01-1.44.14-2.88.38-4.31l.86-5.23.86-5.51c.25-1.7.38-3.42.38-5.15-.01-1.22-.56-1.83-1.65-1.82-.68.1-1.29.48-1.68 1.05-.73.87-1.36 1.81-1.9 2.81a33.86 33.86 0 0 0-1.92 4.09 63.63 63.63 0 0 0-1.73 4.9c-.53 1.72-1 3.48-1.4 5.28a44.92 44.92 0 0 0-.84 5.15 4.68 4.68 0 0 1-.6 1.86c-.34.59-.75 1.14-1.24 1.61a6.45 6.45 0 0 1-1.63 1.16 3.91 3.91 0 0 1-1.71.44c-1.43.13-2.85-.39-3.87-1.4a5.3 5.3 0 0 1-1.28-3.61c.03-1.57.15-3.14.38-4.69l.83-6.68c.29-2.45.55-4.99.77-7.64.22-2.54.29-5.09.21-7.64 0-.55.12-1.08.35-1.58a4.91 4.91 0 0 1 1.04-1.51c.47-.47 1.02-.85 1.63-1.13.67-.3 1.39-.45 2.12-.45m-74.4 98.17a22.97 22.97 0 0 0 3.93 5.46c1.49 1.53 3.17 2.88 5 4a31.78 31.78 0 0 0 6.31 3.01 40.62 40.62 0 0 0 7.12 1.73c2.46.36 4.94.54 7.43.56h.85a3.93 3.93 0 0 0 1.07-.18c.38-.08.74-.21 1.08-.39.31-.14.6-.33.85-.55.23-.16.43-.37.58-.62l.17-.42a.75.75 0 0 0-.24-.72l-.38-.23c-.37-.13-.76-.18-1.15-.16-.8 0-1.6-.02-2.4-.05l.62.03a45.88 45.88 0 0 1-7.01-.8c-.64-.13-1.29-.27-1.92-.43l.52.13c-2.35-.57-4.63-1.41-6.79-2.49a23.55 23.55 0 0 1-1.7-.94l.38.23c-2.43-1.43-4.6-3.25-6.42-5.4-.51-.6-.98-1.23-1.42-1.88l.22.33c-.45-.67-.85-1.36-1.22-2.07a.69.69 0 0 0-.41-.44c-.21-.15-.46-.24-.71-.24-.32-.05-.65-.04-.97.02a4.09 4.09 0 0 0-1.09.24l-.71.29c-.4.19-.77.45-1.09.75l-.33.42a.93.93 0 0 0-.17.81m-2.24-64.1c1.26-.05 2.49.31 3.53 1.02 1.06.86 1.82 2.03 2.17 3.35.57 1.98.84 4.04.81 6.1 0 3.1-.16 6.2-.47 9.28 2.21-7.74 4.91-13.46 8.08-17.16 3.04-3.64 7.59-5.68 12.34-5.55 1.77-.03 3.5.5 4.94 1.52 1.5 1.11 2.71 2.57 3.53 4.24a18.88 18.88 0 0 1 1.87 6.4c.31 2.66.3 5.35-.04 8.01.85-1.92 1.73-3.78 2.64-5.59.86-1.73 1.91-3.35 3.15-4.83 1.13-1.36 2.5-2.51 4.04-3.39a10.59 10.59 0 0 1 5.32-1.27c1.52-.04 3.02.29 4.38.97 1.19.62 2.23 1.49 3.06 2.54.82 1.04 1.44 2.22 1.83 3.47a12.7 12.7 0 0 1 .6 3.77c-.02 1.83-.23 3.64-.64 5.42-.43 1.98-.95 4.03-1.57 6.14a133.01 133.01 0 0 1-2.08 6.44c-.77 2.18-1.46 4.28-2.08 6.31s-1.15 3.97-1.57 5.81c-.4 1.6-.61 3.23-.64 4.87-.13 1.53.28 3.06 1.15 4.32a4.62 4.62 0 0 0 3.7 1.36 7.16 7.16 0 0 0 3.91-1.19c1.22-.77 2.36-1.65 3.4-2.63.9-.83 1.75-1.71 2.55-2.63.68-.79 1.16-1.19 1.45-1.19a.44.44 0 0 1 .51.38c.01.04.01.09 0 .13-.22.99-.64 1.93-1.23 2.75a25.71 25.71 0 0 1-3.32 4.32 23.91 23.91 0 0 1-4.98 4.03c-1.86 1.17-4.01 1.78-6.21 1.78a9.81 9.81 0 0 1-4.55-1.02 10.16 10.16 0 0 1-3.36-2.71 11.99 11.99 0 0 1-2.08-4.03c-.49-1.63-.74-3.33-.72-5.04a41.33 41.33 0 0 1 .89-7.92c.6-2.97 1.26-5.85 2-8.64l2-7.58a21.88 21.88 0 0 0 .89-4.75 1.73 1.73 0 0 0-1.47-1.95 2.01 2.01 0 0 0-.49 0c-1.08 0-2.26 1.05-3.53 3.14-1.52 2.59-2.8 5.32-3.83 8.14-1.28 3.33-2.48 7.05-3.62 11.14-1.13 4.1-2.13 8.15-2.98 12.16-.33 2.2-1.34 4.24-2.89 5.85a7.28 7.28 0 0 1-5.11 1.86c-1.89.13-3.71-.78-4.72-2.37a10.27 10.27 0 0 1-1.49-5.59c.03-2.4.26-4.8.68-7.16l1.49-8.69 1.49-9.15c.44-2.83.66-5.69.68-8.56 0-2.03-.91-3.05-2.72-3.05a4.09 4.09 0 0 0-2.81 1.74 27.45 27.45 0 0 0-3.19 4.66c-1.22 2.19-2.3 4.45-3.23 6.78-1.05 2.57-2.03 5.28-2.94 8.14a106.47 106.47 0 0 0-2.38 8.77c-.65 2.82-1.13 5.68-1.45 8.56a7.89 7.89 0 0 1-1.02 3.09 12.22 12.22 0 0 1-2.08 2.67c-.8.77-1.72 1.42-2.72 1.91-.88.45-1.86.7-2.85.72-2.89 0-5.03-.79-6.42-2.37-1.42-1.68-2.17-3.82-2.08-6.02a61.89 61.89 0 0 1 .68-7.8l1.45-11.1c.51-4.07.96-8.3 1.36-12.71a110.1 110.1 0 0 0 .43-12.71 6.48 6.48 0 0 1 .6-2.63 8.33 8.33 0 0 1 1.74-2.5 9.2 9.2 0 0 1 2.72-1.86c1.09-.49 2.29-.73 3.5-.72m93.33 27.5a2.55 2.55 0 0 1 1.4.36c.36.23.67.53.91.87.24.35.41.73.52 1.13.11.39.16.79.16 1.19-.01 1.04-.17 2.08-.49 3.08l-1.1 3.43a46.95 46.95 0 0 0-1.11 3.92 19.77 19.77 0 0 0-.49 4.53c-.02.7.16 1.4.52 2.01.41.59 1.1.92 1.82.84.63-.01 1.26-.16 1.82-.45.61-.31 1.19-.67 1.72-1.1a19.57 19.57 0 0 0 1.53-1.36l1.24-1.23a4.85 4.85 0 0 1 .65-.55 1.19 1.19 0 0 1 .65-.23.62.62 0 0 1 .71.54c.01.06.01.12 0 .18-.12.49-.36.94-.71 1.29l-1.98 2.33c-.72.83-1.51 1.58-2.37 2.27a12.46 12.46 0 0 1-2.93 1.72c-1.13.46-2.35.69-3.58.68-.68 0-1.35-.13-1.98-.36a5.07 5.07 0 0 1-1.82-1.13 5.89 5.89 0 0 1-1.33-1.94 6.82 6.82 0 0 1-.52-2.79c0-.89.06-1.77.16-2.65a15.16 15.16 0 0 1 .42-2.33c-.74 1.21-1.61 2.5-2.63 3.88s-2.15 2.67-3.38 3.85c-1.19 1.15-2.52 2.16-3.97 2.98-1.31.77-2.8 1.18-4.32 1.19-1.15.02-2.28-.26-3.28-.81a8.2 8.2 0 0 1-2.47-2.07 9.88 9.88 0 0 1-2.11-5.99 20.71 20.71 0 0 1 1.43-7.74c.88-2.27 2.13-4.38 3.71-6.25 1.43-1.7 3.16-3.11 5.1-4.18a11.81 11.81 0 0 1 5.69-1.52c1.83-.09 3.65.38 5.2 1.36 1.33.94 2.38 2.21 3.06 3.69.32-.94.99-1.72 1.88-2.17.72-.31 1.49-.48 2.28-.49m-7.62 10.36a9.98 9.98 0 0 0-2.31-2.23c-.73-.52-1.6-.8-2.5-.81-.94.01-1.85.29-2.63.81-.87.57-1.65 1.26-2.31 2.07-.69.84-1.25 1.78-1.66 2.79-.4.93-.6 1.93-.62 2.95 0 .69.25 1.36.72 1.88.57.6 1.38.91 2.21.84a4.89 4.89 0 0 0 2.54-.78 13.3 13.3 0 0 0 2.54-2.01c.83-.83 1.59-1.73 2.27-2.69a23.28 23.28 0 0 0 1.75-2.82m15.02-4.25c-.01-1.66.22-3.32.68-4.92.39-1.42 1-2.77 1.79-4.01a9.54 9.54 0 0 1 2.57-2.69 5.23 5.23 0 0 1 3.02-1c1.07-.05 2.13.23 3.02.81a2.79 2.79 0 0 1 1.14 2.43 6.88 6.88 0 0 1-.26 1.97c-.17.58-.37 1.19-.58 1.81-.22.63-.41 1.28-.58 1.97-.18.79-.27 1.59-.26 2.4-.03.44.08.89.32 1.26a1.59 1.59 0 0 0 1.3.42c.59-.03 1.17-.2 1.69-.49.65-.32 1.33-.68 2.05-1.07.71-.39 1.42-.74 2.11-1.07a4.45 4.45 0 0 1 1.82-.49 2.31 2.31 0 0 1 2.54 2.08c.02.17.01.34-.01.51a6.53 6.53 0 0 1-.98 2.79l-2.14 3.85c-.78 1.36-1.49 2.72-2.15 4.08a8.4 8.4 0 0 0-.98 3.46c-.01.52.15 1.03.46 1.46.43.46 1.06.69 1.69.62a5.49 5.49 0 0 0 1.88-.39c.73-.28 1.42-.62 2.08-1.04a16.17 16.17 0 0 0 2.02-1.49c.62-.53 1.2-1.09 1.76-1.68.74-.82 1.19-1.23 1.37-1.23.48 0 .72.17.72.52a2.08 2.08 0 0 1-.39 1.13c-.22.35-.46.68-.72 1a35.55 35.55 0 0 1-2.31 2.49 20.68 20.68 0 0 1-2.89 2.4 16.79 16.79 0 0 1-3.38 1.78 10.34 10.34 0 0 1-3.77.71c-1.47.02-2.88-.54-3.93-1.55a6.3 6.3 0 0 1-1.66-4.79c.01-1.68.4-3.34 1.14-4.86.87-1.78 1.88-3.49 3.02-5.12-1.35.89-2.8 1.62-4.32 2.17a11.36 11.36 0 0 1-3.61.62c-1.54.03-2.99-.73-3.84-2.01-.98-1.42-1.48-3.12-1.43-4.84m46.29-3.44c.93-.01 1.83.31 2.54.91.78.66 1.4 1.49 1.82 2.43a15.98 15.98 0 0 1 1.11 3.43 22.72 22.72 0 0 1 .45 3.85c0 .69.03 1.49.1 2.4.06.86.19 1.72.39 2.56a6.63 6.63 0 0 0 .81 2.01c.29.51.84.82 1.43.81a2.62 2.62 0 0 0 1.53-.71 23.13 23.13 0 0 0 1.72-1.55c.56-.56 1.1-1.08 1.63-1.55a2.17 2.17 0 0 1 1.24-.71c.22-.03.42.12.45.33.01.04.01.08 0 .12-.11.73-.37 1.43-.78 2.04a15.05 15.05 0 0 1-5.04 5.21c-.99.66-2.16 1.02-3.35 1.04a6.05 6.05 0 0 1-3.25-.81 6.62 6.62 0 0 1-2.11-2.07c-.55-.86-.95-1.8-1.2-2.79-.25-.95-.42-1.91-.52-2.88a4.93 4.93 0 0 0-1.04-3.04 2.48 2.48 0 0 0-1.76-.84 2.97 2.97 0 0 0-2.05.87 11.41 11.41 0 0 0-1.82 2.27c-.62.99-1.16 2.03-1.62 3.11l-1.46 3.33c-.31.7-.66 1.38-1.04 2.04-.37.64-.8 1.24-1.3 1.78a5.66 5.66 0 0 1-1.69 1.26c-.69.33-1.45.5-2.21.49-.57.02-1.13-.11-1.63-.39-.43-.25-.77-.62-.98-1.07-.23-.48-.38-1-.45-1.52a11.36 11.36 0 0 1-.13-1.75c0-.86.09-2.2.26-4.01s.41-3.77.72-5.86a175.31 175.31 0 0 1 1.01-6.22c.29-1.71.67-3.41 1.14-5.08.35-1.39 1.15-2.63 2.27-3.53 1.05-.83 2.36-1.28 3.71-1.26a2.94 2.94 0 0 1 2.6 1.13c.51.73.78 1.6.78 2.49 0 1-.03 1.97-.1 2.91l-.23 2.91c1.21-1.15 2.53-2.17 3.93-3.08 1.25-.72 2.68-1.06 4.12-1.01M595.85 84c-.08 1.67.6 3.29 1.85 4.4 1.53 1.17 3.44 1.75 5.36 1.62 1.54.01 3.07-.3 4.49-.91 1.28-.54 2.5-1.22 3.64-2.01.89-.62 1.75-1.29 2.57-2.01.67-.6 1.14-.91 1.4-.91.56 0 .84.22.85.65a5.16 5.16 0 0 1-1.17 2.17c-.92 1.21-1.99 2.29-3.19 3.24a22.59 22.59 0 0 1-4.81 2.95c-1.87.86-3.92 1.31-5.98 1.29-1.93.04-3.85-.29-5.66-.97a11.48 11.48 0 0 1-4-2.62c-1.06-1.1-1.87-2.41-2.37-3.85-.53-1.5-.79-3.07-.78-4.66.01-1.99.34-3.97.98-5.86.63-1.92 1.58-3.72 2.83-5.31 1.21-1.56 2.71-2.86 4.42-3.85a11.4 11.4 0 0 1 5.82-1.49c1.12-.02 2.22.23 3.22.74a6.97 6.97 0 0 1 2.31 1.94 8.5 8.5 0 0 1 1.37 2.72 10.26 10.26 0 0 1 .45 3.01 14.63 14.63 0 0 1-.75 4.73c-.44 1.36-1.09 2.65-1.92 3.82-.7 1-1.57 1.86-2.57 2.56a4.8 4.8 0 0 1-2.63.94c-1.27.04-2.54-.2-3.71-.71a4.42 4.42 0 0 1-2.02-1.62m4.55-9.78c-.59.03-1.14.27-1.56.68-.57.51-1.05 1.11-1.43 1.78a10.45 10.45 0 0 0-1.04 2.46c-.26.91-.39 1.84-.39 2.79.7-.2 1.37-.5 1.98-.91.66-.43 1.27-.93 1.82-1.49.53-.54.97-1.17 1.3-1.85.31-.61.48-1.29.49-1.97 0-1-.39-1.5-1.17-1.49" fill="#43b0b0"/></svg>