<svg xmlns="http://www.w3.org/2000/svg">
  <symbol id="triangle" viewBox="0 0 10 12" style="color: inherit;">
    <path d="M10 6L0 12V0l10 6z" style="color: inherit;"></path>
  </symbol>
  <symbol id="magnifier" viewBox="0 0 20 20" style="color: inherit;">
    <path d="M8.9 0c-1.42 0-2.82.34-4.08.99-1.26.65-2.35 1.59-3.17 2.75C.83 4.89.29 6.23.09 7.63c-.2 1.4-.06 2.84.4 4.18.46 1.34 1.24 2.55 2.27 3.53 1.03.98 2.27 1.7 3.64 2.1 1.36.4 2.8.47 4.19.2 1.39-.27 2.7-.87 3.82-1.75l3.82 3.82c.2.19.46.3.74.29.27 0 .54-.11.73-.31s.3-.46.31-.73c0-.27-.1-.54-.29-.74l-3.82-3.82c1.03-1.31 1.68-2.89 1.86-4.55.18-1.66-.11-3.34-.84-4.84-.73-1.5-1.87-2.77-3.28-3.66C12.2.47 10.57 0 8.9 0ZM2.09 8.9c0-1.8.72-3.53 1.99-4.81 1.28-1.28 3.01-1.99 4.81-1.99s3.53.72 4.81 1.99c1.28 1.28 1.99 3.01 1.99 4.81s-.72 3.53-1.99 4.81-3.01 1.99-4.81 1.99-3.53-.72-4.81-1.99c-1.28-1.28-1.99-3.01-1.99-4.81Z" style="color: inherit;"></path>
  </symbol>
  <symbol id="minus" viewBox="0 0 12 12" style="color: inherit;">
    <path d="M10.91 7H1.09C.49 7 0 6.55 0 6s.49-1 1.09-1h9.82c.6 0 1.09.45 1.09 1s-.49 1-1.09 1z" style="color: inherit;"></path>
  </symbol>
  <symbol id="plus" viewBox="0 0 12 12" style="color: inherit;">
    <path d="M11.2 6.81c.1 0 .21-.02.3-.06a.9.9 0 0 0 .26-.17.78.78 0 0 0 .17-.26c.04-.1.06-.2.06-.3s-.02-.21-.06-.3a.9.9 0 0 0-.17-.26.78.78 0 0 0-.26-.17c-.1-.04-.2-.06-.3-.06H6.76V.81C6.76.7 6.75.6 6.71.5S6.62.31 6.54.24C6.47.16 6.38.1 6.28.06a.73.73 0 0 0-.3-.06c-.11 0-.21.02-.31.06a.76.76 0 0 0-.26.18c-.07.08-.13.17-.17.26-.04.1-.06.2-.05.31v4.43H.76a.75.75 0 0 0-.54.24c-.14.15-.22.34-.22.55 0 .2.08.4.22.54.14.15.33.23.54.24H5.2v4.44c0 .2.09.39.24.54a.79.79 0 0 0 .54.22c.2 0 .4-.08.54-.22.15-.14.23-.33.24-.54V6.82h4.44z" style="color: inherit;"></path>
  </symbol>
  <symbol id="prev" viewBox="0 0 10 16" style="color: inherit;">
    <path d="M9.73 14.65c.09.08.15.17.2.26.04.1.07.2.06.31 0 .1-.03.21-.08.3-.05.1-.12.18-.21.25-.09.07-.2.13-.31.17-.12.04-.24.06-.37.05-.12 0-.25-.03-.36-.07-.11-.04-.22-.1-.3-.18L.26 8.55c-.17-.15-.26-.34-.26-.55s.09-.4.26-.55L8.35.26c.09-.08.19-.14.3-.19.11-.04.24-.07.36-.07.13 0 .25.01.37.05.12.04.23.09.32.17.09.07.17.16.22.26.05.1.08.2.08.31 0 .11-.02.21-.07.31-.05.1-.12.19-.2.26l-7.47 6.65 7.47 6.65Z" style="color: inherit;"></path>
  </symbol>
  <symbol id="next" viewBox="0 0 10 16" style="color: inherit;">
    <path d="M.27 14.65c-.09.08-.15.17-.2.26-.04.1-.07.2-.06.31 0 .1.03.21.08.3.05.1.12.18.21.25.09.07.2.13.31.17.12.04.24.06.37.05.12 0 .25-.03.36-.07.11-.04.22-.1.3-.18l8.09-7.2c.17-.15.26-.34.26-.55s-.09-.4-.26-.55L1.65.26c-.09-.08-.19-.14-.3-.19C1.24.03 1.11 0 .99 0c-.13 0-.25.01-.37.05-.12.04-.23.09-.32.17-.09.07-.17.16-.22.26C.03.57 0 .68 0 .78c0 .11.02.21.07.31.05.1.12.19.2.26l7.47 6.65L.27 14.65Z" style="color: inherit;"></path>
  </symbol>
  <symbol id="left" viewBox="0 0 16 20" style="color: inherit;">
    <path d="M6.31 5.02c2.42.17 4.8 1.15 6.66 3 3.26 3.24 3.89 8.1 1.92 11.98l-2.2-1.1c.75-1.48 1.02-3.16.75-4.8-.26-1.64-1.04-3.16-2.22-4.33-1.37-1.36-3.12-2.1-4.91-2.26v5.05L0 6.28 6.31 0v5.02Z" style="color: inherit;"></path>
  </symbol>
  <symbol id="right" viewBox="0 0 16 20" style="color: inherit;">
    <path d="M9.69 5.02c-2.42.17-4.8 1.15-6.66 3C-.22 11.26-.85 16.12 1.12 20l2.2-1.1c-.75-1.48-1.02-3.16-.75-4.8.26-1.64 1.04-3.16 2.22-4.33 1.37-1.36 3.12-2.1 4.91-2.26v5.05l6.31-6.28L9.69 0v5.02Z" style="color: inherit;"></path>
  </symbol>
  <symbol id="down" viewBox="0 0 32 16" style="color: inherit;">
    <path d="M2.7.43a1.67 1.67 0 0 0-.53-.32c-.2-.07-.41-.11-.62-.1a1.59 1.59 0 0 0-.61.13 1.75 1.75 0 0 0-.51.34 1.61 1.61 0 0 0-.33.5 1.8 1.8 0 0 0-.1.6c0 .2.05.4.14.58s.21.35.36.48l14.39 12.94a1.64 1.64 0 0 0 2.2 0L31.48 2.64a1.55 1.55 0 0 0 .37-.48c.09-.18.14-.38.15-.58a1.7 1.7 0 0 0-.1-.59c-.07-.19-.19-.36-.33-.51-.15-.15-.32-.26-.51-.35a1.59 1.59 0 0 0-.61-.13c-.21 0-.42.03-.62.11-.2.07-.38.18-.53.32L16 12.38 2.7.43z" style="color: inherit;"></path>
  </symbol>
  <symbol id="external" viewBox="0 0 10 10" style="color: inherit;">
    <path d="M1.18 10l7.16-7.16v6.58H10V0H.59v1.66h6.57L0 8.82 1.18 10z" style="color: inherit;"></path>
  </symbol>
  <symbol id="cross" viewBox="0 0 8 8" style="color: inherit;">
    <path d="M7.79 1.21c.07-.06.12-.14.16-.23a.66.66 0 0 0 .06-.27.81.81 0 0 0-.05-.27C7.92.35 7.87.28 7.81.21 7.74.14 7.67.09 7.58.06 7.49.02 7.4.01 7.31.01a.66.66 0 0 0-.27.06c-.09.04-.16.09-.23.16l-2.8 2.8L1.21.22C1.15.15 1.07.1.98.06.9.02.8 0 .71 0a.81.81 0 0 0-.27.05C.35.09.27.14.21.2S.09.35.06.43C.02.52 0 .62 0 .71S.02.9.06.98c.04.09.09.16.16.23l2.79 2.81-2.79 2.8c-.12.13-.19.31-.19.49s.08.35.2.48c.13.13.3.2.48.2s.36-.06.49-.19L4 5l2.8 2.81c.13.12.31.19.49.19s.35-.08.48-.2c.13-.13.2-.3.2-.48s-.06-.36-.19-.49L4.99 4.02l2.79-2.8z" style="color: inherit;"></path>
  </symbol>
  <symbol id="download" viewBox="0 0 24 24" style="color: inherit;">
    <path d="M12 18l-7.5-7.5 2.1-2.17 3.9 3.9V0h3v12.23l3.9-3.9 2.1 2.17L12 18zM0 24v-7.5h3V21h18v-4.5h3V24H0z" style="color: inherit;"></path>
  </symbol>
  <symbol id="document" viewBox="0 0 44 52" style="color: inherit;">
    <path d="M40.33 18.57H25.66V3.71H3.67v44.57h36.67V18.57zm-1.51-3.71l-9.48-9.61v9.61h9.48zM1.83 0h27.5L44 14.86v35.29c0 .49-.19.96-.54 1.31-.34.35-.81.54-1.3.54H1.83c-.49 0-.95-.2-1.3-.54a1.89 1.89 0 0 1-.54-1.31V1.86c0-.49.19-.96.54-1.31.34-.35.81-.54 1.3-.54zM11 26h22v3.71H11V26zm0-11.14h9.17v3.71H11v-3.71zm0 22.28h22v3.71H11v-3.71z" style="color: inherit;"></path>
  </symbol>
  <symbol id="back" viewBox="0 0 14 16" style="color: inherit;">
    <path d="M7.82 16H1.65v-3.37h6.18c1.59 0 2.88-1.32 2.88-2.95S9.42 6.73 7.83 6.73H5.77v3.37L0 5.05 5.76 0v3.37h2.06C11.23 3.37 14 6.2 14 9.69s-2.77 6.32-6.18 6.32z" style="color: inherit;"></path>
  </symbol>
  <symbol id="reject" viewBox="0 0 16 16" style="color: inherit;">
    <path d="M15.85 12.85l-4.85-4.85 4.85-4.85c.09-.09.15-.22.15-.35s-.05-.26-.15-.35L13.56.15c-.09-.09-.22-.15-.35-.15s-.26.05-.35.15l-4.85 4.85L3.15.15c-.09-.09-.22-.15-.35-.15s-.26.05-.35.15L.15 2.44c-.09.09-.15.22-.15.35s.05.26.15.35l4.85 4.85L.15 12.85c-.09.09-.15.22-.15.35s.05.26.15.35l2.29 2.29c.09.09.22.15.35.15s.26-.05.35-.15l4.85-4.85 4.85 4.85c.09.09.22.15.35.15s.26-.05.35-.15l2.29-2.29c.09-.09.15-.22.15-.35s-.05-.26-.15-.35Z" style="color: inherit;"></path>
  </symbol>
  <symbol id="accept" viewBox="0 0 22 18" style="color: inherit;">
    <path d="M10.14 18L0 10.57l2.43-3.43 6.86 5L18.71 0 22 2.57 10.14 18z" style="color: inherit;"></path>
  </symbol>
</svg>