<svg xmlns="http://www.w3.org/2000/svg" viewBox="0 0 90 90"><path d="M84.8 48.3c-3.6-2.2-9.2-3.9-16.2-5.1 2.4-6.6 5.6-12.9 9.6-18.6 2.9.9 6-.8 6.9-3.7s-.8-6-3.7-6.9-6 .8-6.9 3.7c-.5 1.6-.2 3.3.7 4.7-4.3 6.2-7.8 13-10.4 20.2l-5.1-.6c2.2-9.6 5.2-19 8.8-28.2h.2c3 0 5.5-2.4 5.5-5.5 0-3-2.5-5.5-5.5-5.5s-5.5 2.4-5.5 5.5c0 1.6.7 3.1 1.9 4.2-3.8 9.5-6.8 19.3-9.1 29.2-1.4-.1-2.9-.2-4.4-.2l2.3-29.8c2.9-.9 4.5-4.1 3.5-6.9S53.3.3 50.5 1.3c-2.9.9-4.5 4.1-3.5 6.9.5 1.6 1.7 2.8 3.3 3.4L48 41.3h-.3-1.1-.1-1.6-1.5-1.6l-2.3-29.7c2.8-1.1 4.3-4.3 3.2-7.1S38.4.2 35.6 1.3s-4.3 4.3-3.2 7.1c.6 1.5 1.8 2.7 3.4 3.3l2.3 29.7c-1.3.1-2.6.1-3.9.2-1.6-9.9-4.3-19.6-8.2-28.8 2.5-1.7 3.1-5.2 1.4-7.7S22.2 2 19.7 3.7s-3.1 5.2-1.4 7.7c.9 1.4 2.4 2.2 4.1 2.3 3.8 9 6.5 18.5 8.1 28.2-1.4.1-2.8.3-4.1.5-2.2-7.2-5.6-13.9-10-20 1.7-2.5 1-5.9-1.5-7.6s-5.9-1-7.6 1.5-1 5.9 1.5 7.6c1.4.9 3.1 1.2 4.7.7 4 5.6 7.1 11.8 9.2 18.4-2.9.5-5.6 1-8.1 1.7-3.3.8-6.5 2-9.5 3.7C2.4 50.1 1 52 1 54.2v33A1.79 1.79 0 0 0 2.8 89a1.79 1.79 0 0 0 1.8-1.8V59.7l.6.3c7 4.3 22.3 6.9 39.8 7 4 0 8-.1 11.8-.4 1-.1 1.8-.9 1.7-1.9s-1-1.7-2-1.7c-3.8.3-7.6.4-11.5.4h-.1c-11.1 0-21.5-1.1-29.3-3.2-3-.7-5.9-1.8-8.5-3.3L5.9 56c-1-.8-1.2-1.5-1.2-1.8s.2-1 1.2-1.8l1.2-.9c1-.6 2-1.1 3.1-1.5 0 .2-.1.4-.1.6 0 .6.2 1.3.5 1.8.5.7 1.1 1.4 1.8 1.8A12.16 12.16 0 0 0 16 56c4.6 1.5 9.4 2.5 14.2 2.9h0c.5.1.9.1 1.4.1h.4c.4 0 .8.1 1.1.1.2 0 .4 0 .6.1h.2c1 .1 2 .1 3.1.2h1c1 .1 2.1.1 3.1.1h.2 0 .2H45h3.5.2.2c1 0 2-.1 3.1-.1h1c1-.1 2.1-.1 3.1-.2h.2c.2 0 .4 0 .6-.1.4 0 .8-.1 1.1-.1h.4c.5 0 .9-.1 1.4-.1h0c4.8-.4 9.6-1.4 14.2-2.9a20.17 20.17 0 0 0 3.6-1.8 7.69 7.69 0 0 0 1.8-1.8c.3-.6.5-1.2.5-1.8 0-.2 0-.4-.1-.6 1.1.4 2.1.9 3.1 1.5l1.2.9c1 .8 1.2 1.5 1.2 1.8s-.3 1-1.2 1.8c-.7.6-1.4 1-2.1 1.4-3.5 1.7-7.3 2.9-11.1 3.6-1 .2-1.6 1.2-1.4 2.1.2 1 1.2 1.6 2.2 1.4 4.2-.8 8.3-2.1 12.1-3.9.6-.3 1.2-.7 1.7-1v27.5a1.79 1.79 0 1 0 3.6 0v-33c-.1-2.1-1.5-4.1-4.3-5.8h0zm-4.7-30.8h.2c.1 0 .1 0 .2.1.1 0 .1 0 .2.1s.1.1.2.1.1.1.2.1.1.1.1.1l.1.1.1.1.1.1s.1.1.1.2 0 .1.1.2c0 .1 0 .1.1.2v.2.2.1.1.2.2c0 .1 0 .1-.1.2 0 .1 0 .1-.1.2 0 .1-.1.1-.1.2s-.1.1-.1.2c-.6.8-1.7 1-2.5.4s-1-1.7-.4-2.5c0-.1.1-.1.1-.2l.1-.1.1-.1c.1-.1.2-.1.3-.2.1 0 .1-.1.2-.1s.1 0 .2-.1h.2.2.1.1c-.1-.3-.1-.3 0-.3zm-10.9-11h.2c.1 0 .1 0 .2.1.1 0 .1.1.2.1s.1.1.2.1c0 .2.2.3.3.4s.2.3.3.4v.1c0 .1.1.2.1.2V8v.3.1.3.2c-.3 1-1.3 1.5-2.3 1.2-.9-.2-1.4-.9-1.4-1.8 0-.2 0-.5.1-.7 0-.1.1-.1.1-.2s.1-.1.1-.2c.1-.1.2-.3.3-.4s.3-.2.4-.3h.1c.1 0 .2-.1.2-.1h.1.3 0 .1c.2.1.3.1.4.1zM37.7 4.7a1.79 1.79 0 0 1 1.8 1.8 1.79 1.79 0 1 1-3.6 0c-.1-1 .8-1.8 1.8-1.8M21.2 8.3a1.79 1.79 0 1 1 3.6 0c0 .3-.1.6-.3.9-.5.9-1.6 1.2-2.5.7-.3-.2-.5-.4-.7-.7 0-.2-.1-.5-.1-.9zM10.5 20.4c0-.1-.1-.1-.1-.2l-.1-.1c0-.1 0-.1-.1-.2 0-.1 0-.1-.1-.2v-.2-.2-.1-.1-.2-.2c0-.1 0-.1.1-.2 0-.1 0-.1.1-.2 0-.1.1-.1.1-.2l.1-.1.1-.1.1-.1.1-.1c.1 0 .1-.1.2-.1s.1-.1.2-.1.1 0 .2-.1c.1 0 .1 0 .2-.1h.1.2.1.1.2.2c.1 0 .1 0 .2.1.1 0 .1 0 .2.1.1 0 .1.1.2.1s.1.1.1.1l.1.1.1.1c.6.8.5 1.9-.3 2.6-.8.9-1.9.7-2.6-.1zm56.2 33.8c-.4.1-.7.1-1.1.2v-.2c.1-.6.2-1.2.4-1.8.4-1.8.8-3.6 1.4-5.4 5.4 1.1 8.5 2.5 8.8 3.5-.2.5-1.2 1.2-2.9 1.8-2.1.8-4.4 1.4-6.6 1.9zm-50.1-1.9c-1.7-.7-2.6-1.3-2.8-1.8.3-1.1 3.8-2.6 10-3.8.4 1.8.7 3.7.9 5.6.1.6.1 1.2.1 1.8v.3l-1.5-.3c-2.3-.4-4.5-1-6.7-1.8h0zm29-7.3h1.2 1l-.6 7.3-.1 1.8L47 56h-3.9l-.1-1.8-.1-1.8-.7-7.4h1 .9.9.6zm16.6 7.3c-.1.6-.2 1.2-.4 1.8 0 .3-.1.5-.2.8-1.2.2-2.5.3-3.8.4 0-.4 0-.8.1-1.2 0-.6.1-1.2.2-1.8a74.67 74.67 0 0 1 .9-6.6l4.7.6-1.5 6h0zm-33.8 0c-.2-2.1-.5-4.2-.9-6.2 1.2-.2 2.4-.3 3.7-.5.3 2.2.5 4.4.7 6.7 0 .6.1 1.2.1 1.8 0 .4 0 .8.1 1.2-1.2-.1-2.4-.3-3.6-.4v-.8c-.1-.5-.1-1.2-.1-1.8h0zm10.7 0l.1 1.8.1 1.7c-1.2 0-2.4-.1-3.6-.2 0-.5-.1-1-.1-1.5 0-.6-.1-1.2-.1-1.8-.2-2.4-.4-4.7-.7-7 1.2-.1 2.4-.2 3.7-.2l.6 7.2zm11.8 0l.6-7.2c1.4.1 2.7.1 4 .2-.4 2.3-.7 4.7-1 7-.1.6-.1 1.2-.1 1.8 0 .5-.1 1-.1 1.5-1.2.1-2.4.1-3.6.2l.1-1.7.1-1.8zm1.4-47.6a1.79 1.79 0 0 1 1.8 1.8 1.79 1.79 0 1 1-3.6 0 1.79 1.79 0 0 1 1.8-1.8m13.5 59.1c.1 1-.6 1.9-1.5 2.1h0-.2c-.9 0-1.7-.7-1.8-1.6-.1-1 .6-1.9 1.6-2 .8-.2 1.7.4 1.9 1.5 0-.1 0-.1 0 0z" fill="#fff"/></svg>