<svg xmlns="http://www.w3.org/2000/svg">
  <symbol id="icon-mute" viewBox="0 0 24 24">
    <path d="M9 4.3L5.3 8H1c-.5 0-1 .4-1 1h0v6c0 .5.4 1 1 1h0 4.3L9 19.6c.4.4 1 .4 1.4 0 .2-.2.3-.4.3-.7V5a.94.94 0 0 0-1-1c-.3 0-.6.1-.7.3zm9.7-2.1c-.5-.3-1.1-.2-1.4.3s-.2 1.1.3 1.4c4.5 2.9 5.8 9 2.8 13.5-.7 1.1-1.7 2.1-2.8 2.8-.5.3-.6.9-.3 1.4s.9.6 1.4.3c5.4-3.6 7-10.8 3.4-16.3-.9-1.4-2.1-2.5-3.4-3.4zM20 12c0-2.6-1.3-5.1-3.6-6.5-.5-.3-1.1-.2-1.4.3h0c-.3.5-.2 1.1.3 1.4 2.7 1.7 3.4 5.2 1.8 7.9-.4.7-1.1 1.3-1.8 1.8-.5.3-.6.9-.3 1.4s.9.6 1.4.3h0C18.7 17 20 14.5 20 12zm-5.9-3.2c-.5-.3-1.1-.1-1.4.4s-.1 1.1.4 1.4c.8.4 1.1 1.4.7 2.2-.2.3-.4.5-.7.7-.5.3-.7.9-.4 1.4s.9.7 1.4.4h0c1.8-1 2.4-3.2 1.5-4.9-.4-.8-.9-1.3-1.5-1.6z"></path>
  </symbol>
  <symbol id="icon-unmute" viewBox="0 0 24 24">
    <path d="M9 4.3L5.3 8H1c-.5 0-1 .4-1 1h0v6c0 .5.4 1 1 1h0 4.3L9 19.7c.4.4 1 .4 1.4 0 .2-.2.3-.4.3-.7V5a.94.94 0 0 0-1-1c-.3 0-.6.1-.7.3zm14.6 3.1c-.5-.5-1.3-.5-1.8 0L19 10.2l-2.8-2.8c-.5-.4-1.3-.4-1.8.1-.4.5-.4 1.2 0 1.6l2.8 2.8-2.8 2.8c-.5.4-.6 1.2-.1 1.8.4.5 1.2.6 1.8.1l.1-.1 2.8-2.8 2.8 2.8c.5.4 1.3.4 1.8-.1.4-.5.4-1.2 0-1.6L20.8 12l2.8-2.8c.5-.6.5-1.3 0-1.8h0z"></path>
  </symbol>
  <symbol id="icon-play" viewBox="0 0 16 16">
    <path d="M14.7 7.5c.3.1.4.5.2.8-.1.1-.1.2-.2.2L1.9 15.9c-.6.3-.9.1-.9-.6V.6c0-.5.4-.8.9-.5l12.8 7.4z"></path>
  </symbol>
  <symbol id="icon-pause" viewBox="0 0 16 16">
    <path d="M2 0h2.2c.5 0 1 .4 1 .9V1v14c0 .5-.4 1-.9 1h-.1H2c-.5 0-1-.4-1-.9V15 1a.94.94 0 0 1 1-1zm9.8 0H14c.5 0 1 .4 1 .9V1v14c0 .5-.4 1-.9 1H14h-2.2c-.5 0-1-.4-1-.9V15 1a.94.94 0 0 1 1-1z"></path>
  </symbol>
  <symbol id="icon-replay" viewBox="0 0 16 16">
    <path d="M15.3 7.3c-.1.4-.5.7-.9.7-.1 0-.2 0-.2-.1L9.8 6.2c-.5-.1-.6-.5-.1-.7l5.7-3.3c.4-.2.7-.1.6.5l-.7 4.6z"></path>
    <path d="M7.4 13.3c-.9 0-1.8-.2-2.6-.6C3 11.8 1.9 10 1.9 8 2 4.9 4.6 2.5 7.7 2.5c2.3.1 4.4 1.6 5.1 3.8l.1-.1 1.9 1c-.6-4-4.3-6.9-8.3-6.3C2.8 1.3.1 4.4 0 8c0 2.7 1.5 5.1 3.9 6.4 1.1.5 2.3.8 3.5.9 2.4 0 4.6-1.1 6-3l-1.6-.8c-1.2 1.1-2.8 1.8-4.4 1.8h0z"></path>
  </symbol>
  <symbol id="icon-overlay-play" viewBox="0 0 80 80">
    <path d="M0 40C0 17.9 17.9 0 40 0s40 17.9 40 40-17.9 40-40 40S0 62.1 0 40z" fill="#333"></path>
    <path d="M59.7 39c.5.2.8.7.6 1.2 0 0 0 .1-.1.1a.9.9 0 0 1-.6.6l-29 16.9c-1 .6-1.6.1-1.6-1V23.2c0-1.1.8-1.4 1.6-1L59.7 39z" fill="#fff"></path>
  </symbol>
  <symbol id="icon-loading-spinner" viewBox="0 0 75.8 77.9">
    <g fill="#fff">
      <circle cx="38.8" cy="8.1" r="8.1"></circle>
      <g opacity="0.4">
        <circle cx="70.8" cy="40" r="5"></circle>
      </g>
      <g opacity="0.6">
        <circle cx="38.8" cy="71.9" r="6"></circle>
      </g>
      <g opacity="0.8">
        <circle cx="7" cy="40" r="7"></circle>
      </g>
      <g opacity="0.9">
        <circle cx="15.1" cy="17.3" r="7.5"></circle>
      </g>
      <g opacity="0.3">
        <circle cx="63.2" cy="17.1" r="4.5"></circle>
      </g>
      <g opacity="0.5">
        <circle cx="62.7" cy="63.8" r="5.5"></circle>
      </g>
      <g opacity="0.7">
        <circle cx="15.1" cy="63.8" r="6.5"></circle>
      </g>
    </g>
  </symbol>
</svg>
