<svg xmlns="http://www.w3.org/2000/svg">
  <symbol id="logo" viewBox="0 0 176 38">
    <path d="M0 26.8l3.9-4.7c2.7 2.2 5.5 3.7 8.9 3.7 2.7 0 4.3-1.1 4.3-2.8v-.2c0-1.7-1-2.5-6-3.8-6-1.6-9.9-3.2-9.9-9.1h0c0-5.4 4.3-9 10.4-9 4-.1 7.9 1.3 11.1 3.8l-3.4 4.9c-2.6-1.9-5.2-3-7.7-3S7.8 7.8 7.8 9.2v.1c0 2 1.3 2.6 6.4 4 6 1.6 9.5 3.8 9.5 8.9v.1c0 5.9-4.5 9.2-10.9 9.2A18.6 18.6 0 0 1 0 26.8m26.7-6.9h0c.2-6.8 5.9-12.2 12.7-12 6.5.2 11.8 5.3 12 11.8v.1c-.2 6.7-5.9 12.1-12.7 11.9-6.5-.2-11.8-5.4-12-11.8m18.3 0h0c.2-3.5-2.5-6.2-5.8-6.4H39c-3.7 0-5.9 2.9-5.9 6.2v.1c-.2 3.4 2.5 6.1 5.8 6.3h.2c3.7 0 5.9-2.8 5.9-6.2m10.3 15.8l2.2-4.8c2.3 1.4 5 2.1 7.7 2.1 4.4 0 6.5-2.2 6.5-6.2v-1.1c-1.7 2.4-4.5 3.8-7.4 3.7-5.3 0-10.1-3.9-10.1-10.7v-.1c0-6.8 4.9-10.7 10.1-10.7 2.9-.1 5.6 1.2 7.4 3.4v-3h6.5V26c0 4.1-1 7.1-2.9 9-2.1 2.2-5.4 3.1-9.8 3.1a22.5 22.5 0 0 1-10.2-2.4m16.5-17.1h0c-.1-3.2-2.7-5.4-5.8-5.3-2.9.1-5.2 2.4-5.3 5.2v.1c-.1 2.9 2.2 5.2 5.1 5.3h.4c2.9.2 5.4-2.1 5.6-4.9v-.4M82 19.9h0c0-6.6 4.6-12 11.3-12 7.6 0 11.1 5.9 11.1 12.4 0 .5 0 1.1-.1 1.7h-16c.4 2.7 2.8 4.7 5.6 4.5 2.1 0 4.1-.8 5.5-2.4l3.7 3.3c-2.2 2.8-5.7 4.4-9.3 4.3-6.3.2-11.7-4.7-11.9-10.9.1-.3.1-.6.1-.9m16-2c-.4-2.9-2.1-4.8-4.8-4.8s-4.4 1.9-4.9 4.8H98zm12.2 6.7V13.9h-2.7V8.3h2.7V2.5h6.5v5.8h5.4v5.5h-5.4v9.8c0 1.5.6 2.2 2.1 2.2 1.1 0 2.2-.3 3.2-.8v5.2c-1.5.9-3.3 1.4-5.1 1.3-4 .1-6.7-1.5-6.7-6.9m17.4-16.3h6.5V13c1.3-3.2 3.4-5.2 7.3-5v6.7h-.4c-4.3 0-6.9 2.6-6.9 8v8.4h-6.5V8.3zm15.2 11.6h0c0-6.6 4.6-12 11.3-12 7.6 0 11.1 5.9 11.1 12.4 0 .5 0 1.1-.1 1.7h-15.9c.4 2.7 2.8 4.7 5.6 4.5 2.1 0 4.1-.8 5.5-2.4l3.7 3.3c-2.2 2.8-5.7 4.4-9.3 4.3-6.3.2-11.7-4.7-11.9-10.9v-.9m16.1-2c-.4-2.9-2.1-4.8-4.8-4.8s-4.4 1.9-4.9 4.8h9.7zM169.5 0h6.5v31.2h-6.5V0z"></path>
  </symbol>
  <symbol id="menu" viewBox="0 0 26 26">
    <path d="M24.9 7.4H1.1C.5 7.4 0 6.9 0 6.2h0C0 5.5.5 5 1.1 5h23.8c.6 0 1.1.5 1.1 1.2h0c0 .7-.5 1.2-1.1 1.2zm0 6.8H1.1C.5 14.2 0 13.7 0 13h0c0-.7.5-1.2 1.1-1.2h23.8c.6 0 1.1.5 1.1 1.2h0c0 .7-.5 1.2-1.1 1.2zm0 6.8H1.1C.5 21 0 20.5 0 19.8h0c0-.7.5-1.2 1.1-1.2h23.8c.6 0 1.1.5 1.1 1.2h0c0 .7-.5 1.2-1.1 1.2z"></path>
  </symbol>
  <symbol id="close" viewBox="0 0 24 24">
    <path d="M24 2.4L21.6 0 12 9.6 2.4 0 0 2.4 9.6 12 0 21.6 2.4 24l9.6-9.6 9.6 9.6 2.4-2.4-9.6-9.6L24 2.4z"></path>
  </symbol>
  <symbol id="linkedin" viewBox="0 0 32 32">
    <path d="M64.6 10.9h0 0zM29.6 0H2.4C1.1 0 0 1 0 2.3v27.4C0 31 1.1 32 2.4 32h27.3c1.3 0 2.4-1 2.4-2.3V2.3C32 1 30.9 0 29.6 0zM9.7 26.8H4.9V12.3h4.8v14.5zM7.3 10.4h0c-1.7 0-2.7-1.1-2.7-2.5s1.1-2.5 2.7-2.5C9 5.4 10 6.5 10 7.9s-1 2.5-2.7 2.5zm19.8 16.4h-4.8v-7.7c0-1.9-.7-3.3-2.4-3.3-1.3 0-2.1.9-2.5 1.8a3.73 3.73 0 0 0-.2 1.2v8.1h-4.8V12.5h4.8v2c.6-1 1.8-2.4 4.4-2.4 3.2 0 5.6 2.1 5.6 6.5l-.1 8.2h0z"></path>
  </symbol>
  <symbol id="twitter" viewBox="0 0 32 32">
    <path d="M16 0C7.2 0 0 7.2 0 16s7.2 16 16 16 16-7.2 16-16S24.8 0 16 0zm8.1 12.8v.5c0 5.3-4.1 11.5-11.5 11.5-2.3 0-4.4-.7-6.2-1.8.3 0 .6.1 1 .1 1.9 0 3.6-.6 5-1.7-1.8 0-3.3-1.2-3.8-2.8.2 0 .5.1.8.1.4 0 .7 0 1.1-.1-1.8-.4-3.2-2-3.2-4v-.1c.5.3 1.2.5 1.8.5-1.1-.7-1.8-2-1.8-3.4 0-.7.2-1.4.5-2a11.79 11.79 0 0 0 8.3 4.2c-.1-.3-.1-.7-.1-1 0-2.2 1.8-4 4-4 1.2 0 2.2.5 2.9 1.3.9-.2 1.8-.5 2.6-1-.3.9-.9 1.7-1.8 2.2.8-.1 1.6-.3 2.3-.6-.5.8-1.2 1.5-1.9 2.1z"></path>
  </symbol>
  <symbol id="facebook" viewBox="0 0 32 32">
    <path d="M28.1 0C30.2 0 32 1.8 32 3.9v24.2c0 2.2-1.8 3.9-3.9 3.9h-6.7V19.9h4.2l.8-5.2h-5v-3.4c0-1.4.7-2.8 2.9-2.8h2.3V4.2s-2-.3-4-.3c-4.1 0-6.7 2.5-6.7 7v3.9h-4.5V20h4.5v12h-12C1.8 32 0 30.2 0 28.1V3.9C0 1.8 1.8 0 3.9 0h24.2 0z"></path>
  </symbol>
  <symbol id="x" viewBox="0 0 32 32">
    <path d="M30.5 32h-29C.7 32 0 31.3 0 30.4V1.6C0 .7.7 0 1.5 0h29c.8 0 1.5.7 1.5 1.6v28.9a1.54 1.54 0 0 1-1.5 1.5zM5.4 4.8l8.3 12.7-8.3 10.1h1.9l7.3-8.8h0l5.8 8.8h6.3L18 14.4l8-9.6h-1.9l-6.9 8.4-5.5-8.4H5.4zm18.7 21.3h-2.9l-5.7-8.6-.8-1.3L8 6.2h2.9l5.4 8.1.8 1.3 7 10.5h0z"></path>
  </symbol>
  <symbol id="search" viewBox="0 0 24 24">
    <path d="M10.4 19.7C4.7 19.7 0 15.3 0 9.8S4.7 0 10.4 0s10.4 4.4 10.4 9.8-4.7 9.9-10.4 9.9zm0-17.2c-4.3 0-7.8 3.3-7.8 7.4s3.5 7.4 7.8 7.4 7.8-3.3 7.8-7.4-3.5-7.4-7.8-7.4z"></path>
    <path d="M22.7 24c-.4 0-.6-.1-.9-.4l-6.5-6.2c-.5-.5-.5-1.2 0-1.7s1.3-.5 1.8 0l6.5 6.2c.5.5.5 1.2 0 1.7-.2.3-.6.4-.9.4z"></path>
  </symbol>
  <symbol id="up" viewBox="0 0 18 10">
    <path d="M9 7L15.8.4c.5-.5 1.3-.5 1.8 0s.5 1.3 0 1.8L9.9 9.6c-.5.5-1.3.5-1.8 0L.4 2.1C-.1 1.6-.1.8.4.3s1.3-.5 1.8 0L9 7z"></path>
  </symbol>
  <symbol id="down" viewBox="0 0 13 8">
    <path d="M12.5.4a1.57 1.57 0 0 0-2.2 0L6.5 4.3 2.6.4A1.66 1.66 0 0 0 .5.4a1.57 1.57 0 0 0 0 2.2l5 4.9c.5.6 1.5.6 2.1.1l5-4.9c.6-.7.6-1.6-.1-2.3h0z"></path>
  </symbol>
  <symbol id="right" viewBox="0 0 10 18">
    <path d="M7 9L.5 2.2C0 1.7 0 .9.5.4s1.3-.5 1.8 0l7.4 7.7c.5.5.5 1.3 0 1.8l-7.5 7.7c-.5.5-1.3.5-1.8 0s-.5-1.3 0-1.8L7 9z"></path>
  </symbol>
  <symbol id="backward" viewBox="0 0 32 32">
    <path d="M6.1 16.2l8-7.9 1.5 1.5-6.5 6.4 6.5 6.5-1.5 1.5-8-8z"></path>
    <path d="M7.8 17.1V15l17-.1V17l-17 .1zM0 16C0 7.1 7.1 0 16 0s16 7.1 16 16-7.1 16-16 16S0 24.9 0 16zM15.9 2.1C8.3 2.1 2.1 8.3 2.1 16v.1C2.1 23.8 8.3 30 16 29.9h.1c7.7 0 13.9-6.2 13.8-13.9v-.1c0-7.6-6.2-13.8-14-13.8h0z"></path>
  </symbol>
  <symbol id="forward" viewBox="0 0 32 32">
    <path d="M17.9 24.2l-1.5-1.5 6.5-6.5-6.5-6.4 1.5-1.5 8 7.9z"></path>
    <path d="M7.223 16.975l.01-2.1 17 .079-.01 2.1zM16 32C7.1 32 0 24.9 0 16S7.1 0 16 0s16 7.1 16 16-7.1 16-16 16zm0-29.9A13.87 13.87 0 0 0 2.1 16 13.87 13.87 0 0 0 16 29.9 13.87 13.87 0 0 0 29.9 16 13.87 13.87 0 0 0 16 2.1z"></path>
  </symbol>
  <symbol id="prev" viewBox="0 0 25 25">
    <path d="M0 12.5C0 19.4 5.6 25 12.5 25h0C19.4 25 25 19.4 25 12.5S19.4 0 12.5 0 0 5.6 0 12.5m15.2 5.8c-.6.6-1.5.6-2.1 0l-4.8-4.8c-.6-.6-.6-1.5 0-2.1l4.8-4.8c.6-.6 1.5-.6 2.1 0s.6 1.5 0 2.1l-3.8 3.7 3.8 3.7c.6.7.6 1.6 0 2.2h0z"></path>
  </symbol>
  <symbol id="next" viewBox="0 0 25 25">
    <path d="M25 12.5C25 5.6 19.4 0 12.5 0S0 5.6 0 12.5 5.6 25 12.5 25h0C19.4 25 25 19.4 25 12.5M9.8 18.3c-.6-.6-.6-1.5 0-2.1l3.8-3.7-3.8-3.7c-.6-.6-.6-1.5 0-2.1s1.5-.6 2.1 0l4.8 4.8c.6.6.6 1.5 0 2.1l-4.8 4.8c-.6.5-1.5.5-2.1-.1h0z"></path>
  </symbol>
  <symbol id="clip" viewBox="0 0 24 24">
    <path d="M8.1 17.2c-.3.3-.3.8 0 1.1s.8.3 1.1 0l7.3-7.8a3.52 3.52 0 0 0 0-4.7 2.97 2.97 0 0 0-4.4 0L3.4 15c-1.9 2-1.9 5.4 0 7.4s5 2 7 0l9.7-10.3C22.7 9.3 22.7 4.8 20 2c-2.6-2.7-6.8-2.7-9.4 0l-8.4 9c-.3.3-.3.8 0 1.1s.8.3 1.1 0l8.4-8.9C13.7 1 17 1 19 3.2s2 5.7 0 7.8L9.3 21.3a3.27 3.27 0 0 1-4.8 0c-1.3-1.4-1.3-3.7 0-5.1L13.1 7c.7-.7 1.7-.6 2.3.1s.6 1.7 0 2.4l-7.3 7.7z"></path>
  </symbol>
  <symbol id="share" viewBox="0 0 24 24">
    <path d="M19.3 17c-.9 0-1.7.3-2.4.9l-8.8-5c.1-.3.1-.6.1-.8 0-.3-.1-.6-.1-.8l8.6-4.9c1.5 1.4 3.8 1.3 5.2-.2s1.3-3.8-.2-5.1c-1.5-1.4-3.8-1.3-5.2.2-.6.7-1 1.5-1 2.5 0 .3.1.6.1.8L7.1 9.4c-.7-.6-1.6-1-2.5-1-2 0-3.6 1.7-3.6 3.6 0 2 1.7 3.6 3.7 3.6.9 0 1.8-.4 2.5-1l8.7 5c-.1.3-.1.5-.1.8 0 1.9 1.6 3.5 3.5 3.5s3.6-1.6 3.6-3.5c0-1.8-1.6-3.4-3.6-3.4h0z"></path>
  </symbol>
  <symbol id="print" viewBox="0 0 24 24">
    <path d="M18.8 9.4c-.5 0-.8-.4-.8-.8V1.5H6v7.1c0 .4-.3.8-.8.8s-.7-.4-.7-.8V.7a.68.68 0 0 1 .7-.7h13.5a.68.68 0 0 1 .7.7v7.9c.1.4-.2.8-.6.8z"></path>
    <path d="M21 19.5h-2.3a.68.68 0 0 1-.7-.7.68.68 0 0 1 .7-.7H21a1.54 1.54 0 0 0 1.5-1.5V11A1.54 1.54 0 0 0 21 9.5H3A1.54 1.54 0 0 0 1.5 11v5.6c0 .7.7 1.4 1.5 1.4h2.3c.4 0 .7.3.7.8a.68.68 0 0 1-.7.7H3a3.01 3.01 0 0 1-3-3v-5.6a3.01 3.01 0 0 1 3-3h18a3.01 3.01 0 0 1 3 3v5.6c0 1.7-1.3 3-3 3z"></path>
    <path d="M18.8 24H5.2a.68.68 0 0 1-.7-.7v-9a.68.68 0 0 1 .7-.7h13.5a.68.68 0 0 1 .7.7v9c.1.4-.2.7-.6.7zM6 22.5h12V15H6v7.5z"></path>
  </symbol>
  <symbol id="download" viewBox="0 0 24 24">
    <path d="M20.3 24H3.7c-1 0-1.9-.4-2.6-1.1S0 21.3 0 20.3v-4.8c0-.7.6-1.3 1.3-1.3s1.3.6 1.3 1.3v4.8c0 .3.1.5.3.7a1.08 1.08 0 0 0 .7.3h16.6c.6 0 1-.5 1-1v-4.8c0-.7.6-1.3 1.3-1.3s1.3.6 1.3 1.3v4.8c.2 2-1.5 3.7-3.5 3.7zm-7.4-7.5l5.9-6c.5-.5.5-1.4 0-1.9s-1.4-.5-1.9 0l-5 5-5-5c-.5-.5-1.4-.5-1.9 0s-.5 1.4 0 1.9l5.9 6c.2.3.6.4.9.4.6 0 .9-.1 1.1-.4z"></path>
    <path d="M12 17c-.7 0-1.3-.6-1.3-1.3V1.3c0-.7.6-1.3 1.3-1.3s1.3.6 1.3 1.3v14.3c0 .8-.6 1.4-1.3 1.4z"></path>
  </symbol>
  <symbol id="email" viewBox="0 0 30 24">
    <path d="M26 0H4C1.8 0 0 1.7 0 3.8v16.4C0 22.3 1.8 24 4 24h22c2.2 0 4-1.7 4-3.8V3.8C30 1.7 28.2 0 26 0m1.8 4.4l-8 7.7 7.6 8.2c.4.4.4 1 0 1.4a1.09 1.09 0 0 1-1.5 0l-7.5-8.1-1.2 1.1a2.84 2.84 0 0 1-4 0l-1.1-1-7.5 8c-.4.4-1 .5-1.5.1-.4-.4-.5-1-.1-1.4l7.5-8.1-8-7.9c-.4-.4-.4-1 0-1.4s1-.4 1.4 0l10.6 10.2c.3.3.8.3 1.1 0L26.3 3a1.09 1.09 0 0 1 1.5 0c.4.5.4 1.1 0 1.4"></path>
  </symbol>
  <symbol id="link" viewBox="0 0 20 10">
    <path d="M1.9 5c0-1.7 1.4-3.1 3.1-3.1h4V0H5C2.2 0 0 2.2 0 5s2.2 5 5 5h4V8.1H5C3.3 8.1 1.9 6.7 1.9 5zM6 6h8V4H6v2zm9-6h-4v1.9h4c1.7 0 3.1 1.4 3.1 3.1S16.7 8.1 15 8.1h-4V10h4c2.8 0 5-2.2 5-5s-2.2-5-5-5z"></path>
  </symbol>
  <symbol id="connect" viewBox="0 0 120 120">
    <path d="M60 29c-6.6 0-11.9 5.4-11.9 12.1 0 3.4 1.4 6.7 3.9 9l-8.5 17.3c-6.2-2-12.9 1.4-15 7.8s1.4 13.2 7.7 15.2c6.2 2 12.9-1.4 15-7.8.2-.7.4-1.4.5-2.2h16.6c.8 6.6 6.7 11.3 13.2 10.5S92.7 84 91.9 77.4 85.2 66 78.6 66.9c-.8.1-1.5.3-2.2.5l-8.5-17.3c4.9-4.4 5.3-12.1.9-17-2.2-2.6-5.5-4.1-8.8-4.1zm-5.5 22.8c3.4 1.8 7.5 1.8 11 0l8.3 16.8c-3 1.9-5 5.1-5.5 8.7H51.7c-.5-3.6-2.5-6.8-5.5-8.7l8.3-16.8z"></path>
  </symbol>
  <symbol id="integrate" viewBox="0 0 120 120">
    <path d="M84.3 54.8c-.3-7.7-6.8-13.7-14.6-13.4-1.1 0-2.3.2-3.4.5-8.2-12.3-27.5-7.2-28.2 7.7C22.7 53.8 25.6 77 42 77h38.6c13 0 15.8-18.3 3.7-22.2h0z"></path>
  </symbol>
  <symbol id="exploit" viewBox="0 0 120 120">
    <path d="M66 34.6c2.7.6 5.3 1.7 7.7 3.2l2.3-2.3c.5-.5 1.3-.6 1.8-.1l.1.1 6.7 6.6c.5.5.5 1.4 0 1.9l-2.3 2.4c1.4 2.4 2.5 4.9 3.1 7.6h3.2c.7 0 1.3.6 1.3 1.3v9.4c0 .7-.6 1.3-1.3 1.3h-.1-3.2c-.6 2.7-1.7 5.3-3.1 7.7l2.3 2.3c.5.5.5 1.4 0 1.9l-6.7 6.7c-.5.5-1.4.5-1.9 0l-2.3-2.3c-2.4 1.4-5 2.5-7.7 3.1v3.2c0 .7-.6 1.3-1.3 1.3h-.1-9.4c-.7 0-1.3-.6-1.3-1.3v-3.2c-2.7-.6-5.2-1.7-7.6-3.1L44 84.6c-.5.5-1.4.5-1.9 0l-6.6-6.7c-.5-.5-.6-1.3-.1-1.8l.1-.1 2.3-2.3c-1.5-2.4-2.6-5-3.2-7.7h-3.2c-.7 0-1.3-.6-1.3-1.3v-.1-9.4c0-.7.6-1.3 1.3-1.3h3.2c.6-2.7 1.7-5.3 3.2-7.6L35.5 44c-.5-.5-.6-1.3-.1-1.8l.1-.1 6.6-6.6c.5-.5 1.3-.6 1.8-.1l.1.1 2.4 2.3c2.3-1.5 4.9-2.6 7.6-3.2v-3.2c0-.7.6-1.3 1.3-1.3h9.4c.7 0 1.3.6 1.3 1.3v.1 3.1zm-6 14.7c-5.9 0-10.7 4.8-10.7 10.7S54.1 70.7 60 70.7 70.7 65.9 70.7 60c.1-5.9-4.7-10.7-10.7-10.7h0"></path>
  </symbol>
  <symbol id="rh" viewBox="0 0 46 46">
    <path d="M40.6 24.3c.7 0 1.3-.6 1.3-1.3s-.6-1.3-1.3-1.3-1.3.6-1.3 1.3.6 1.3 1.3 1.3m-.9 5.4c.7 0 1.3-.6 1.3-1.3s-.6-1.3-1.3-1.3-1.3.6-1.3 1.3.6 1.3 1.3 1.3m-2.5 4.9c.7 0 1.3-.6 1.3-1.3s-.6-1.3-1.3-1.3-1.3.6-1.3 1.3c0 .8.6 1.3 1.3 1.3m-3.9 3.9c.7 0 1.3-.6 1.3-1.3s-.6-1.3-1.3-1.3-1.3.6-1.3 1.3c0 .8.6 1.3 1.3 1.3M28.4 41c.7 0 1.3-.6 1.3-1.3s-.6-1.3-1.3-1.3-1.3.6-1.3 1.3c0 .8.6 1.3 1.3 1.3m-5.5.9c.7 0 1.3-.6 1.3-1.3s-.6-1.3-1.3-1.3-1.3.6-1.3 1.3.6 1.3 1.3 1.3h0m-5.5-.9c.7 0 1.3-.6 1.3-1.3s-.6-1.3-1.3-1.3-1.3.6-1.3 1.3h0c.1.7.6 1.3 1.3 1.3m-4.9-2.5c.7 0 1.3-.6 1.3-1.3s-.6-1.2-1.3-1.2-1.3.6-1.3 1.3h0c.1.6.6 1.2 1.3 1.2m-3.9-3.9c.7 0 1.3-.6 1.3-1.2 0-.7-.6-1.2-1.2-1.2-.7 0-1.3.6-1.3 1.2s.5 1.2 1.2 1.2m-2.5-4.9c.7 0 1.2-.6 1.2-1.2 0-.7-.6-1.2-1.2-1.2-.7 0-1.2.6-1.2 1.2h0c0 .6.5 1.2 1.2 1.2m-.9-5.5c.7 0 1.2-.6 1.2-1.2 0-.7-.6-1.2-1.2-1.2S4 22.3 4 23s.5 1.2 1.2 1.2h0m.9-5.4c.7 0 1.2-.6 1.2-1.2 0-.7-.6-1.2-1.2-1.2-.7 0-1.2.6-1.2 1.2s.5 1.2 1.2 1.2m2.5-4.9c.7 0 1.2-.6 1.2-1.2s-.6-1.2-1.2-1.2c-.7 0-1.2.6-1.2 1.2s.5 1.2 1.2 1.2m3.9-3.9c.7 0 1.2-.6 1.2-1.2 0-.7-.6-1.2-1.2-1.2-.7 0-1.2.6-1.2 1.2s.5 1.2 1.2 1.2m4.9-2.5c.7 0 1.2-.6 1.2-1.2S18.1 5 17.4 5s-1.2.6-1.2 1.2c0 .7.6 1.3 1.2 1.3m5.5-.9c.7 0 1.2-.6 1.2-1.2s-.6-1.2-1.2-1.2c-.7 0-1.2.6-1.2 1.2s.5 1.2 1.2 1.2h0m5.5.9c.7 0 1.2-.6 1.2-1.2 0-.8-.6-1.3-1.2-1.3-.7 0-1.2.6-1.2 1.2-.1.7.5 1.3 1.2 1.3m4.9 2.5c.7 0 1.2-.6 1.2-1.2 0-.7-.6-1.2-1.2-1.2-.7-.1-1.3.4-1.3 1.1h0c0 .7.6 1.3 1.3 1.3m3.9 3.9c.7 0 1.3-.6 1.3-1.3s-.6-1.3-1.3-1.3-1.3.6-1.3 1.3.6 1.3 1.3 1.3m2.5 4.9c.7 0 1.3-.6 1.3-1.3s-.6-1.3-1.3-1.3-1.3.6-1.3 1.3.6 1.3 1.3 1.3M45 24c.6 0 1-.5 1-1a1.08 1.08 0 0 0-1-1c-.6 0-1 .5-1 1h0c0 .5.4 1 1 1m-.7 5.5c.6 0 1-.5 1-1 0-.6-.5-1-1-1-.6 0-1 .5-1 1h0c0 .5.4 1 1 1m-2 5.1c.6 0 1-.5 1-1a1.08 1.08 0 0 0-1-1c-.6 0-1 .5-1 1h0c-.1.6.4 1 1 1M39 39.1c.6 0 1-.5 1-1 0-.6-.5-1-1-1-.6 0-1 .5-1 1s.4 1 1 1m-4.3 3.5c.6 0 1-.5 1-1a1.08 1.08 0 0 0-1-1c-.6 0-1 .5-1 1h0c0 .6.5 1 1 1m-5 2.4c.6 0 1-.5 1-1 0-.6-.5-1-1-1-.6 0-1 .5-1 1a1.08 1.08 0 0 0 1 1m-5.4 1c.6 0 1-.5 1-1 0-.6-.5-1-1-1a1.08 1.08 0 0 0-1 1h0c0 .5.4 1 1 1m-5.5-.3c.6 0 1-.5 1-1 0-.6-.5-1-1-1-.6 0-1 .5-1 1-.1.5.4.9 1 1m-5.3-1.8c.6 0 1-.5 1-1 0-.6-.5-1-1-1a1.08 1.08 0 0 0-1 1h0a.94.94 0 0 0 1 1M8.8 41a.94.94 0 0 0 1-1 .94.94 0 0 0-1-1 .94.94 0 0 0-1 1c0 .6.5 1 1 1h0M5 36.9a.94.94 0 0 0 1-1 .94.94 0 0 0-1-1 .94.94 0 0 0-1 1c0 .6.5 1 1 1m-2.6-4.8a.94.94 0 0 0 1-1 .94.94 0 0 0-1-1 .94.94 0 0 0-1 1 .94.94 0 0 0 1 1M1 26.7c.5 0 1-.4 1-1a.94.94 0 0 0-1-1 .94.94 0 0 0-1 1 .94.94 0 0 0 1 1m0-5.5c.5 0 1-.4 1-1 0-.5-.4-1-1-1a.94.94 0 0 0-1 1 .94.94 0 0 0 1 1m1.4-5.3c.5 0 1-.4 1-1 0-.5-.4-1-1-1a.94.94 0 0 0-1 1c0 .5.4 1 1 1M5 11c.5 0 1-.4 1-1 0-.5-.4-1-1-1a.94.94 0 0 0-1 1c0 .6.5 1 1 1m3.8-4c.5 0 1-.4 1-1a.94.94 0 0 0-1-1c-.5 0-1 .4-1 1s.5 1 1 1m4.7-3c.5 0 1-.4 1-1a.94.94 0 0 0-1-1c-.5 0-1 .4-1 1s.5 1 1 1m5.3-1.7c.5 0 1-.4 1-1a.94.94 0 0 0-1-1c-.5 0-1 .4-1 1a.94.94 0 0 0 1 1m5.5-.3c.5 0 1-.4 1-1a.94.94 0 0 0-1-1c-.5 0-1 .4-1 1a.94.94 0 0 0 1 1m5.4 1a.94.94 0 0 0 1-1 .94.94 0 0 0-1-1 .94.94 0 0 0-1 1c0 .6.5 1 1 1m5 2.4a.94.94 0 0 0 1-1 .94.94 0 0 0-1-1 .94.94 0 0 0-1 1 1.08 1.08 0 0 0 1 1h0M39 8.9a.94.94 0 0 0 1-1 .94.94 0 0 0-1-1 .94.94 0 0 0-1 1 .94.94 0 0 0 1 1h0m3.3 4.5a.94.94 0 0 0 1-1 .94.94 0 0 0-1-1 .94.94 0 0 0-1 1c-.1.5.4 1 1 1h0m2 5.1c.6 0 1-.5 1-1a1.08 1.08 0 0 0-1-1c-.6 0-1 .5-1 1h0a.94.94 0 0 0 1 1M17 17.3c1 0 1.8.1 2.4.3s1.1.6 1.4 1.1.5 1.1.5 1.8c0 .5-.1.9-.3 1.3s-.4.7-.7.9c-.3.3-.6.5-1 .6l3.1 4.6h-2.5l-2.5-4.1h-1.2v4.1h-2.3V17.3H17zm-.1 1.9h-.7V22h.7c.7 0 1.3-.1 1.6-.4.3-.2.5-.6.5-1.1s-.2-.9-.5-1.1c-.4-.1-.9-.2-1.6-.2zm15.6 8.7h-2.2v-4.6H26v4.6h-2.3V17.3H26v4.2h4.2v-4.2h2.2v10.6z"></path>
  </symbol>
  <symbol id="filter" viewBox="0 0 36 24">
    <path d="M14 24h8v-4h-8v4zM0 0v4h36V0H0zm6 14h24v-4H6v4z"></path>
  </symbol>
  <symbol id="tick" viewBox="0 0 16 16">
    <path d="M6.4 11.9h0c-.3 0-.5-.1-.7-.3L3.1 9c-.4-.4-.4-1 0-1.4s1-.4 1.4 0l1.9 1.9 5-5c.4-.4 1-.4 1.4 0s.4 1 0 1.4l-5.7 5.7c-.1.2-.4.3-.7.3z"></path>
  </symbol>
  <symbol id="play" viewBox="0 0 32 32">
    <circle cx="16" cy="16" r="16"></circle>
    <path d="M22.8 14.9L13 9.1c-.6-.4-1.4-.2-1.8.4-.1.2-.2.5-.2.7v11.6c0 .7.6 1.3 1.3 1.3.2 0 .5-.1.7-.2l9.8-5.8c.6-.4.8-1.2.5-1.8-.1-.2-.3-.3-.5-.4z" fill="#fff"></path>
  </symbol>
  <symbol id="plus" viewBox="0 0 12 12">
    <path d="M6 12c-.6 0-1-.4-1-1V1c0-.5.4-1 1-1s1 .4 1 1v10.1c0 .5-.4 1-1 1Z"></path>
    <path d="M11 7H1c-.5 0-1-.4-1-1s.4-1 1-1h10.1c.5 0 1 .4 1 1s-.4 1-1 1Z"></path>
  </symbol>
  <symbol id="minus" viewBox="0 0 12 12">
    <path d="M11 7H1c-.5 0-1-.4-1-1s.4-1 1-1h10.1c.5 0 1 .4 1 1s-.4 1-1 1Z"></path>
  </symbol>
  <symbol id="toggle" viewBox="0 0 24 24">
    <path d="M12 0A12.04 12.04 0 0 0 0 12a12.04 12.04 0 0 0 12 12 12.04 12.04 0 0 0 12-12A12.04 12.04 0 0 0 12 0h0m5.6 14.6c-.6.6-1.5.6-2 0L12 11l-3.6 3.6c-.6.6-1.5.6-2 0-.6-.6-.6-1.5 0-2L11 8c.6-.6 1.5-.6 2 0l4.6 4.6c.6.6.6 1.5 0 2h0z"></path>
  </symbol>
</svg>