<svg xmlns="http://www.w3.org/2000/svg" viewBox="0 0 190 90"><path d="M45.7 64.4h35.2v2.4H45.7z" fill="#a5c956"/><path d="M80.8 64.4H116v2.4H80.8z" fill="#bb0060"/><path d="M116 64.4h35.2v2.4H116z" fill="#f08c2d"/><path d="M151.1 64.4h35.2v2.4h-35.2z" fill="#0094ca"/><path d="M53.6 55.1c-2.1 0-4.3-.2-6.3-.8-1.5-.5-2.9-1.1-4.3-1.9l2.2-4.7c1.1.7 2.3 1.3 3.5 1.7 1.5.6 3.1.9 4.8.8 1.7 0 3.3-.3 4.8-1.2 1.2-.7 1.9-1.9 1.8-3.3 0-1.1-.4-2.2-1.1-2.9a11.02 11.02 0 0 0-2.8-2l-3.6-1.6c-1.3-.5-2.5-1.2-3.6-2s-2.1-1.8-2.8-3a8.6 8.6 0 0 1-1.1-4.7c0-2.5 1-4.8 2.8-6.5 1.9-1.8 4.7-2.7 8.6-2.7s3 .1 4.5.4l3.6 1c.6.2 1.2.5 1.6.7.3.2.6.3.9.5l-1 2.1c-.2.5-.5 1-.7 1.4 0 .3-.2.5-.3.8l-3.9-1.4c-1.4-.4-2.9-.6-4.4-.6s-2.8.2-4 .9c-1.1.6-1.7 1.7-1.6 2.9 0 1 .4 2 1.1 2.7.9.7 1.8 1.4 2.8 1.9 1.1.6 2.4 1.1 3.7 1.7 1.3.5 2.5 1.2 3.7 2 1.1.8 2.1 1.8 2.8 3 .8 1.4 1.2 2.9 1.1 4.5 0 1.6-.3 3.1-1 4.6-.6 1.2-1.6 2.3-2.7 3.1a11.49 11.49 0 0 1-4.1 1.7 20.74 20.74 0 0 1-5 .6m38.4-.4l-1.3-3.1c-1.2 1.1-2.6 2-4 2.6-1.9.8-3.9 1.2-6 1.2s-2.7-.2-4-.7c-1.2-.5-2.3-1.1-3.3-2s-1.7-2-2.2-3.3c-.6-1.4-.9-2.8-.8-4.3-.2-3 1.1-5.9 3.5-7.9 2.3-1.9 5.7-2.9 10-3l6.4-.2v-1.3c0-2.6-.6-4.4-2-5.4-1.4-1.1-3.1-1.6-4.9-1.5-1.8 0-3.5.3-5.2.9-1.2.5-2.4 1.2-3.5 1.9l-2.3-4.2a16.94 16.94 0 0 1 6-3c2-.5 4-.8 6.1-.8s3.2.2 4.8.6c2.9.7 5.2 2.8 6.3 5.5.6 1.7 1 3.6.9 5.4v16.1 3.3c0 .9 0 1.6.2 2 0 .4.2.8.3 1.2h-5.2 0zm-1.8-15.7l-6 .2c-2.7 0-4.7.6-5.9 1.5s-1.9 2.4-1.8 3.9c0 1.5.5 2.9 1.5 4 1.2 1.2 2.9 1.7 4.6 1.6 1.7 0 3.3-.3 4.8-1.1 1-.6 2-1.3 2.9-2.1v-8.1h0zm34.6 15.7V34.3c0-1 0-1.9-.2-2.9 0-.9-.4-1.8-.7-2.6-.4-.8-.9-1.4-1.6-1.9-.9-.5-1.9-.8-2.9-.7-1.8 0-3.6.5-5.2 1.5-1.6.9-3 2-4.4 3.2v23.7h-6.2V21.2h5.2l.8 3.8c1.7-1.3 3.6-2.4 5.5-3.4 1.9-.9 4-1.3 6.2-1.3s2.4.2 3.6.6 2.3 1.2 3.1 2.1c1 1.1 1.7 2.3 2.2 3.7.6 1.7.9 3.6.8 5.4v22.2h-6.2zm18.4-15.3c0 1.4.2 2.9.7 4.2a9.4 9.4 0 0 0 2 3.5c.9 1 2 1.8 3.3 2.3 1.4.6 2.9.9 4.4.8 1.5 0 2.9-.3 4.3-.7 1.3-.4 2.6-1 3.8-1.7l1.8 4.3c-1.6 1.1-3.3 1.9-5.1 2.5-1.9.6-3.9.9-5.8.9s-4.8-.4-7-1.5c-1.9-.9-3.6-2.3-4.9-3.9-1.3-1.7-2.3-3.6-2.9-5.6-.6-2.2-1-4.4-.9-6.7 0-2.3.3-4.5 1-6.7.6-2 1.6-3.8 2.8-5.4 1.2-1.5 2.7-2.7 4.4-3.6 1.8-.9 3.8-1.3 5.7-1.3s4 .4 5.8 1.2c1.7.8 3.2 2 4.3 3.5 1.2 1.6 2.2 3.4 2.7 5.4a27.43 27.43 0 0 1 .9 7v1.6h-21.3zm14.7-4.8c0-1.1-.2-2.1-.5-3.2-.3-1-.7-1.9-1.3-2.8-.6-.8-1.3-1.5-2.2-2-1-.5-2.1-.8-3.2-.8s-2.1.2-3.1.7c-.9.5-1.7 1.1-2.3 1.9-.7.8-1.2 1.8-1.5 2.8-.4 1.1-.5 2.2-.5 3.3H158h0zm23.3-8.5h8.7v-5.4h-9.8c-2.4 0-10.1.8-10.1 10.6v23.4h6.2V39.1h12.3v-5.5h-12.3V31c0-3.4 1.7-5.2 4.9-5.2" fill="#5a6e74"/><path d="M10.1 19.3l-2.7 2.1.9 1.5 2.6-1.5c-.3-.7-.5-1.4-.7-2.1m-1.1-3.7C8 10.6 7.7 5.4 8.2.3c-2.1.3-4.1 1-6 1.8.3 5.8 1.6 11.4 3.9 16.7 1-1.1 2-2.2 3-3.2m7.2 16.8c.7.6 1.4 1.1 2.2 1.5h.4l-2.3-2.5c-1.9-2.2-3.5-4.6-4.7-7.2-.8.3-1.6.5-2.4.9 1.9 2.8 4.2 5.3 6.8 7.4" fill="#a5c956"/><path d="M13.7 20l3.5-1.4c0-1.3.2-2.5.3-3.8a44.94 44.94 0 0 0-4.2 2.4c0 .9.2 1.8.4 2.8m6.6-18.7C18.2.6 16.1.2 13.9 0c-.6 4-.9 8.1-.9 12.2 1.8-1.4 3.6-2.6 5.5-3.8.6-3 1.3-5.6 1.8-7.1M18 32a11.51 11.51 0 0 0 1.4 1.7l.7-.2c-.3-.4-.6-1-.7-1.3-1.3-2.9-2-6.1-2.1-9.4l-2.8.6c.7 3 1.9 5.9 3.6 8.6" fill="#bb0060"/><path d="M26.2 4.2c-2.6 1.2-5.2 2.6-7.6 4.1l-5.5 3.8-4 3.4c-1.1 1-2.1 2.1-3 3.2-2.3 2.7-4.2 5.7-5.5 9 0 0-.3.6-.5 1.5l.3.6c.3-.5.6-1.1.8-1.4 1.7-2.6 3.8-5 6.2-6.9l2.7-2.1c1.1-.8 2.1-1.5 3.2-2.1 1.4-.9 2.8-1.6 4.2-2.4 4.4-2.3 9.1-4.2 13.8-5.8a29.02 29.02 0 0 0-5.1-4.8" fill="#f08c2d"/><path d="M35 15.5h0c-6 .2-12 1.2-17.7 3.1-1.3.4-2.4.9-3.5 1.4-1 .5-2 .9-2.9 1.4s-1.8 1-2.6 1.5c-3 1.9-5.7 4.3-7.7 7.3l.3.6 1.5-1.5C4.5 27.5 7 26 9.6 25l2.4-.9c.8-.3 1.6-.5 2.4-.7l2.8-.6a67.92 67.92 0 0 1 19.1-.3c0-2.4-.5-4.8-1.3-7.1" fill="#0094ca"/><path d="M43.2 75.5h3.2c1.1 0 2.2.2 3.2.6 2.2 1.3 2.9 4.1 1.6 6.3-.5.8-1.2 1.4-2 1.8-.9.4-2 .6-3 .5h-.7v5h-2.3V75.4h0zm3.1 7.4c.6 0 1.2 0 1.8-.4.9-.5 1.4-1.4 1.3-2.4 0-.9-.4-1.8-1.2-2.3-.6-.3-1.2-.4-1.9-.4h-.8v5.5h.9 0zm13.3 5.8c-.8.8-1.9 1.3-3 1.3-1.7 0-3.2-1.2-3.3-2.9v-.3c0-1.2.6-2.3 1.7-2.8.8-.4 1.7-.6 2.6-.5h1.8V83c0-1.3-.8-1.9-2.1-1.9s-1.9.3-2.7.8l-.8-1.5c1.2-.7 2.5-1 3.8-1 2.5 0 4 1.2 4 3.7V87c0 1 0 1.9.2 2.9h-1.9l-.4-1v-.2zM57.9 85c-.6 0-1.1 0-1.6.3s-.7.8-.7 1.3c0 .8.6 1.5 1.4 1.6h.2c.8 0 1.6-.4 2.2-1v-2.3h-1.5zm6.3-5.5h1.9l.3 1.2c.7-.9 1.7-1.4 2.8-1.5.5 0 .9 0 1.3.4l-.8 1.9c-.3-.2-.7-.3-1.1-.3-.9 0-1.6.5-2.2 1.2v7.3h-2.2V79.4h0zm7.4-3.2c0-.8.6-1.4 1.4-1.4s1.4.6 1.4 1.4-.6 1.4-1.4 1.4h0c-.7 0-1.4-.6-1.4-1.3h0m.3 3.1h2.2v10.3h-2.2V79.5zm4.8 7.9c.8.5 1.8.8 2.7.8s1.9-.4 1.9-1.3c0-1.9-4.8-1.2-4.8-4.6s1.4-3 3.7-3 1.9.2 2.8.5v1.9c-.9-.4-1.8-.6-2.7-.6s-1.6.3-1.6 1.1c0 1.9 4.8 1.2 4.8 4.7s-1.9 3.1-4 3.1-2.5-.3-3.5-1l.7-1.7h0zm14.2-11.9h2.2l6.3 8.1 1.8 2.4h0V75.5h2.3v14.3h-2L95 81.4 93.2 79h0v10.8h-2.3V75.5zm15 9.1c0-3.1 2-5.4 5-5.4s5 2.3 5 5.4-2 5.4-5 5.4-5-2.3-5-5.4m7.7 0c0-2-1-3.5-2.7-3.5s-2.7 1.5-2.7 3.5 1 3.5 2.7 3.5 2.7-1.5 2.7-3.5m4.4-5.1h1.9l.3 1.2c.7-.9 1.7-1.4 2.8-1.5.5 0 .9 0 1.3.4l-.8 1.9c-.3-.2-.7-.3-1.1-.3-.9 0-1.6.5-2.2 1.2v7.3H118V79.4h0zm7.5 0h1.9l.2 1.2a5.82 5.82 0 0 1 3.5-1.5c1.1 0 2.2.6 2.7 1.6 1-1 2.3-1.6 3.7-1.6s3.3 1 3.3 3.7v6.8h-2.2v-6.2c0-1.3-.3-2.3-1.6-2.3s-1.9.5-2.7 1.2v7.4h-2.2v-6.2c0-1.3-.3-2.4-1.6-2.4s-1.9.5-2.7 1.2v7.3h-2.2V79.4h-.1zm23.6 9.2c-.8.8-1.9 1.3-3 1.3-1.7 0-3.2-1.2-3.3-2.9v-.3c0-1.2.6-2.3 1.7-2.8.8-.4 1.7-.6 2.6-.5h1.8V83c0-1.3-.8-1.9-2.1-1.9s-1.9.3-2.7.8l-.8-1.5c1.2-.7 2.5-1 3.9-1 2.5 0 4 1.2 4 3.7V87c0 1 0 1.9.2 2.9h-1.9l-.4-1v-.2zm-1.7-3.7c-.6 0-1.1 0-1.6.3s-.7.8-.7 1.3c0 .8.6 1.5 1.4 1.6h.2c.8 0 1.6-.4 2.2-1v-2.3h-1.5 0zm6.3-5.5h1.9l.3 1.2a5.82 5.82 0 0 1 3.5-1.5c1.6 0 3.2.9 3.2 3.7v6.8h-2.2v-6.1c0-1.3-.3-2.4-1.7-2.4s-2 .5-2.7 1.2v7.3h-2.2V79.4h-.1zm10.9 5.3c-.1-2.9 2.2-5.4 5.1-5.5h.4c.5 0 1 0 1.5.2v-5h2.2v14.8c-1.1.5-2.4.8-3.6.7-3.2 0-5.7-1.8-5.7-5.2m7.2 3.1v-6.6c-.4 0-.9-.2-1.4-.2-1.8 0-3.3 1.4-3.3 3.2v.4c-.1 1.7 1.1 3.3 2.9 3.4h.5c.5 0 .9 0 1.3-.2m4.7-11.6c0-.8.6-1.4 1.4-1.4s1.4.6 1.4 1.4-.6 1.4-1.4 1.4h0c-.7 0-1.4-.6-1.4-1.3h0m.3 3.1h2.2v10.3h-2.2V79.5zm4.4 5.1c0-3.1 1.7-5.4 4.5-5.4s4.4 2.1 4.4 5.4v.5h-6.6a2.97 2.97 0 0 0 2.8 3h.3c.9 0 1.8-.2 2.6-.7l.7 1.5c-1 .6-2.3 1-3.5 1-3.6 0-5.1-2.5-5.1-5.4m6.5-.9c0-1.3-.7-2.6-2.1-2.6s-2.3 1.2-2.2 2.5h4.3z" fill="#5a6e74"/></svg>