<svg xmlns="http://www.w3.org/2000/svg">
  <symbol id="facebook" viewBox="0 0 8 16">
    <path d="M5.1 16V8.7h2.4l.4-2.8H5.2V4.1c0-.8.2-1.4 1.4-1.4H8V.1C7.2 0 6.5 0 5.8 0 3.7 0 2.3 1.3 2.3 3.8v2.1H0v2.8h2.4V16h2.8z"></path>
  </symbol>
  <symbol id="instagram" viewBox="0 0 16 16">
    <path d="M8 1.4h3.2c2.2 0 3.2 1.1 3.3 3.3v3.2 3.2c-.1 2.2-1.1 3.2-3.3 3.3H8 4.8c-2.2-.1-3.2-1.1-3.3-3.3V7.9 4.7c.1-2.2 1.1-3.2 3.3-3.3H8zM8 0H4.7C1.8.2.2 1.8 0 4.7V8v3.3c.1 2.9 1.7 4.5 4.7 4.7H8h3.3c2.9-.1 4.5-1.7 4.7-4.7V8 4.7C15.8 1.8 14.2.2 11.3 0H8zm0 3.9c-1.1 0-2.1.4-2.9 1.2S3.9 6.9 3.9 8s.4 2.1 1.2 2.9 1.8 1.2 2.9 1.2 2.1-.4 2.9-1.2 1.2-1.8 1.2-2.9-.4-2.1-1.2-2.9S9.1 3.9 8 3.9zm0 6.8c-.7 0-1.4-.3-1.9-.8S5.3 8.7 5.3 8s.3-1.4.8-1.9 1.2-.8 1.9-.8 1.4.3 1.9.8.8 1.2.8 1.9-.3 1.4-.8 1.9-1.2.8-1.9.8zm4.3-7.9h-.4c-.1 0-.2.1-.3.2s-.2.2-.2.3v.4.4c0 .1.1.2.2.3 0 0 .2.2.3.2h.4c.3 0 .5-.1.7-.3s.3-.4.3-.7-.1-.5-.3-.7-.4-.3-.7-.3z"></path>
  </symbol>
  <symbol id="linkedin" viewBox="0 0 16 16">
    <path d="M16 9.8V16h-3.4v-5.8c0-1.5-.5-2.4-1.7-2.4s-1.5.7-1.8 1.3c0 .2-.1.6-.1.9v6H5.6V5.2H9v1.5h0c.5-.8 1.3-1.8 3.1-1.8S16 6.4 16 9.8zM1.9 0C.8 0 0 .8 0 1.9s.7 1.9 1.9 1.9h0c1.2 0 1.9-.8 1.9-1.9S3.1 0 1.9 0zM.2 16h3.4V5.2H.2V16z"></path>
  </symbol>
  <symbol id="twitter" viewBox="0 0 16 16">
    <path d="M.3 0l6.2 8.7L0 16h1.4l5.7-6.4 4.5 6.4H16L9.5 6.9 15.7 0h-1.4L8.9 6 4.7 0H.3z"></path>
  </symbol>
  <symbol id="tiktok" viewBox="0 0 14 16">
    <path d="M12.2 3.5c-.1 0-.2 0-.3-.2-.3-.2-.6-.4-.8-.7-.6-.7-.8-1.4-.9-1.9h0v-.7h-2.8v11h0c0 .4-.2.8-.4 1.1s-.5.6-.8.8-.7.3-1.1.3c-1.3 0-2.3-1-2.3-2.3s1-2.3 2.3-2.3.5 0 .7 0v-2.8c-.7 0-1.4 0-2.1.2s-1.3.5-1.9 1c-.5.4-.9.9-1.2 1.5C.5 8.8 0 9.6 0 10.9s.2 1.5.3 1.8H.3c0 .2.3.8.8 1.4.3.4.7.8 1.2 1.1h0c1.3.9 2.8.8 2.8.8.3 0 1.1 0 2.1-.5 1.1-.5 1.7-1.3 1.7-1.3.4-.5.7-1 .9-1.5.3-.7.3-1.4.3-1.8v-5.6l.5.3s.6.4 1.7.7c.7.2 1.7.2 1.7.2v-2.7c-.3 0-1 0-1.7-.4h0Z"></path>
  </symbol>
  <symbol id="right" viewBox="0 0 16 32">
    <path d="M1 32c-.3 0-.5-.1-.7-.3-.4-.4-.4-1.1 0-1.6l13.2-14.1L.3 1.9C-.1 1.4-.1.8.3.3S1.4-.1 1.8.3l13.9 14.9c.2.2.3.5.3.8s-.1.6-.3.8L1.8 31.7c-.2.2-.5.3-.7.3Z"></path>
  </symbol>
  <symbol id="left" viewBox="0 0 16 32">
    <path d="M15 32c.3 0 .5-.1.7-.3.4-.4.4-1.1 0-1.6L2.5 16 15.7 1.9c.4-.4.4-1.1 0-1.6s-1.1-.4-1.5 0L.3 15.2c-.2.2-.3.5-.3.8s.1.6.3.8l13.9 14.9c.2.2.5.3.7.3Z"></path>
  </symbol>
  <symbol id="up" viewBox="0 0 20 24">
    <path d="M10,24c-.9,0-1.7-.8-1.7-1.8V3c0-1,.8-1.8,1.7-1.8s1.7.8,1.7,1.8v19.2c0,1-.8,1.8-1.7,1.8Z"></path>
    <path d="M1.7,12.1c-.4,0-.9-.2-1.2-.5-.7-.7-.7-1.8,0-2.5L8.8.5c.7-.7,1.7-.7,2.4,0,.7.7.7,1.8,0,2.5L2.9,11.6c-.3.3-.8.5-1.2.5Z"></path>
    <path d="M18.3,12.1c-.4,0-.9-.2-1.2-.5L8.8,3c-.7-.7-.7-1.8,0-2.5.7-.7,1.7-.7,2.4,0l8.3,8.6c.7.7.7,1.8,0,2.5-.3.3-.8.5-1.2.5Z"></path>
  </symbol>
  <symbol id="ico-1" viewBox="0 0 52 38">
    <path d="M6.9 37.8c-.2 0-.4 0-.6-.2-.5-.3-.6-.9-.2-1.4l15.3-21.5c.3-.4.9-.6 1.4-.2.5.3.6.9.2 1.4L7.7 37.4c-.2.3-.5.4-.8.4zm37.7 0c-.3 0-.6 0-.8-.4L28.5 15.9a1.08 1.08 0 0 1 .2-1.4c.5-.3 1.1-.2 1.4.2l15.3 21.5c.3.5.2 1.1-.2 1.4-.2 0-.4.2-.6.2zM25.8 18.6a.94.94 0 0 1-1-1v-1.1a.94.94 0 0 1 1-1 .94.94 0 0 1 1 1v1.1a.94.94 0 0 1-1 1z"></path>
    <path d="M25.8 21.7a.94.94 0 0 1-1-1V19a.94.94 0 0 1 1-1 .94.94 0 0 1 1 1v1.7a.94.94 0 0 1-1 1zm0 5.3a.94.94 0 0 1-1-1v-3a.94.94 0 0 1 1-1 .94.94 0 0 1 1 1v3a.94.94 0 0 1-1 1zm0 11a.94.94 0 0 1-1-1v-6.7a.94.94 0 0 1 1-1 .94.94 0 0 1 1 1V37a.94.94 0 0 1-1 1zm-12.4-7.4H4.3v-22h9.1v22zm-7.1-2h5.1v-18H6.3v18zm40.9 2h-9.1v-22h9.1v22zm-7.1-2h5.1v-18h-5.1v18z"></path>
    <path d="M52 10.3H0V0h52v10.3ZM2 8.3h48V2H2v6.3Z"></path>
  </symbol>
  <symbol id="ico-2" viewBox="0 0 38 38">
    <path d="M7.4 38H5c-2.8 0-5-2.2-5-4.9V19.9C0 17.2 2.2 15 5 15h2.4c2.8 0 5 2.2 5 4.9v13.2c0 2.7-2.2 4.9-5 4.9zM5 17.2a2.69 2.69 0 0 0-2.7 2.7v13.2A2.69 2.69 0 0 0 5 35.8h2.4a2.69 2.69 0 0 0 2.7-2.7V19.9a2.69 2.69 0 0 0-2.7-2.7H5z"></path>
    <path d="M31.9 37.8H17.6c-2.8 0-5.4-1.2-7.3-3.2-.4-.5-.4-1.2 0-1.6.5-.4 1.2-.4 1.6 0 1.4 1.6 3.4 2.5 5.6 2.5h14.3c1 0 1.8-.8 1.8-1.7s-.8-1.7-1.8-1.7v-2.2H33a1.79 1.79 0 1 0 0-3.6v-2.2h.7c1.1 0 2-.9 2-1.9s-.9-1.9-2-1.9H33v-2.2c1 0 1.8-.8 1.8-1.7s-.8-1.7-1.8-1.7H21.3L23 7.3V7c.3-2.2-1.2-4.3-3.5-4.6l-1.3 5.9c-.2 1.1-.7 2.2-1.3 3.2l-4.7 7.3c-.3.5-1 .7-1.6.3-.5-.3-.7-1-.3-1.6l4.7-7.3c.5-.8.8-1.6 1-2.5l1.3-5.9A2.36 2.36 0 0 1 20 0c3.5.5 5.9 3.7 5.4 7.1v.4l-1 4.7h8.8c2.2 0 4 1.8 4 4s-.3 1.8-.9 2.5c1.1.8 1.8 2 1.8 3.4s-.7 2.6-1.8 3.4c.6.7.9 1.6.9 2.6 0 1.5-.8 2.7-2 3.4.5.7.7 1.4.7 2.3 0 2.2-1.8 4-4 4z"></path>
  </symbol>
  <symbol id="ico-3" viewBox="0 0 38 38">
    <path d="M19 38C8.5 38 0 29.5 0 19S8.5 0 19 0s19 8.5 19 19-8.5 19-19 19zm0-35.7C9.8 2.3 2.3 9.8 2.3 19S9.8 35.7 19 35.7 35.7 28.2 35.7 19 28.2 2.3 19 2.3zm-.3 29.1c-2.3 0-4.6-.6-6.6-1.8-3-1.8-5.1-4.6-5.9-7.9 0-.3 0-.7.2-1s.5-.4.9-.4h22.9c.3 0 .7.2.9.4.2.3.3.6.2 1-1.2 4.6-4.8 8.2-9.4 9.4-1.1.3-2.1.4-3.2.4zm-9.8-8.9c.9 2.1 2.4 3.9 4.4 5.1 2.4 1.5 5.3 1.9 8.1 1.2 3.3-.8 6-3.2 7.3-6.3H8.9zm7.4-8.2H14c0-.3-.1-.7-.4-.9-.2-.2-.6-.4-.9-.4h0c-.7 0-1.3.6-1.3 1.3H9.1c0-2 1.6-3.6 3.6-3.6h0c.9 0 1.8.4 2.5 1 .7.7 1 1.6 1 2.5zm8.2-3.5h0c-2 0-3.6 1.6-3.6 3.6h2.3c0-.7.6-1.3 1.3-1.3h0c.7 0 1.3.6 1.3 1.3h2.3c0-2-1.6-3.6-3.5-3.6z"></path>
  </symbol>
  <symbol id="toll" viewBox="0 0 56 56">
    <path d="M14.4 26l.3-1 2.5-7.2c0-.2.2-.3.4-.3h5.8c.2 0 .4-.1.4-.3l1.6-4.6c0-.2.2-.3.4-.3l9.8-2.3h.3l-2.3 7.6h8v.3L39 25.8c0 .2-.2.3-.4.3H18.4h-3.7-.3zM31 27c0 .3-.2.6-.2.9l-1.7 6c-.2.8-.3 1.5-.3 2.3 0 1 .7 1.9 1.7 2 1 .3 2 .3 2.9 0l2.5-.6h.2l-.6 1.7-1.9 5.2c0 .2-.2.3-.4.3l-4.1.9a16.28 16.28 0 0 1-3.1.3c-2.1 0-4.1-.7-5.7-1.9-1.2-.9-2-2.2-2.2-3.7-.2-1.2-.2-2.4 0-3.6.4-2.5 1.1-4.9 2.1-7.1a1.65 1.65 0 0 1 1-1 13.45 13.45 0 0 1 4.8-1.5c1.6-.2 3.3-.3 5-.2h.1zm24 1h-1a25.95 25.95 0 0 1-26 26A25.95 25.95 0 0 1 2 28 25.95 25.95 0 0 1 28 2c6.9 0 13.5 2.7 18.4 7.6S54 21.1 54 28h2C56 12.5 43.5 0 28 0S0 12.5 0 28s12.5 28 28 28 28-12.5 28-28h0-1z"></path>
  </symbol>
  <symbol id="computer" viewBox="0 0 56 56">
    <path d="M55 28h-1a25.95 25.95 0 0 1-26 26A25.95 25.95 0 0 1 2 28 25.95 25.95 0 0 1 28 2c6.9 0 13.5 2.7 18.4 7.6S54 21.1 54 28h2C56 12.5 43.5 0 28 0S0 12.5 0 28s12.5 28 28 28 28-12.5 28-28h0-1zm-27 8.4H16.4c-1.1 0-2.2-.4-3-1.3-.5-.7-.8-1.5-.8-2.3V17.7c0-1.7 1.1-3.2 2.7-3.5.3 0 .7-.1 1.1-.1h23.2c1.5-.1 2.9.7 3.5 2 .2.5.4 1.1.3 1.7v15c0 1.7-1.1 3.2-2.7 3.6-.4 0-.8.1-1.1 0H28zm0-2.8h8.9 3c.4 0 .7-.2.7-.6v-.4-14.7-.3a.68.68 0 0 0-.7-.7h-.5-6.1-8.6-8.2c-.9 0-1.1.2-1.1 1.1v14.7c0 .8.2 1 1 1H28zM7 37.8h42v2.3c-.1.9-.9 1.3-1.6 1.6-.7.2-1.4.3-2.1.3H10.8c-1.1 0-2.2-.3-3-.9-.4-.3-.6-.7-.7-1.2v-2.1zm21 2.1h1.7c.2 0 .4 0 .4-.3s-.2-.4-.4-.4h-3.4c-.2 0-.4 0-.4.4s.2.3.4.3h1.6 0z"></path>
  </symbol>
  <symbol id="nirio" viewBox="0 0 154 44">
    <path d="M18.4 37.2l-.7-.7L.4 19.2c-.4-.4-.5-.7 0-1.1L17.9.5c.1-.2.3-.3.5-.5.2.2.4.4.6.5l17.4 17.4c.5.5.5.8 0 1.3L19.2 36.4l-.8.8zm121.8.4c-3.3.1-6.5-.9-9.1-3-2.5-2-4.2-4.9-4.6-8.1-.7-4.9.5-9.3 4.3-12.6 3.1-2.6 7.1-3.7 11-3.2 3.8.2 7.4 2.2 9.6 5.3 4.5 6.1 3.2 16.6-5 20.3-2 .9-4.1 1.3-6.3 1.3zm0-19.1c-3.2 0-5.2 2.2-5.2 5.6 0 3.3 2.2 5.7 5.2 5.7 2.9 0 5.2-2.4 5.2-5.7s-2.1-5.6-5.1-5.6h0zm-87.3-4.4c3.4-3.8 9.1-4.5 13.4-1.7 2.5 1.8 4 4.8 3.8 7.8.1 5.3 0 10.6 0 15.9 0 .6-.3.9-.9.9h-6.9c-.7 0-.9-.3-.9-1V24.2a9.6 9.6 0 0 0-.6-3.3c-.4-1.5-1.8-2.5-3.3-2.4-1.8 0-3.2.5-3.8 2.2-.4 1.1-.6 2.2-.7 3.3v11.7c0 1.2 0 1.2-1.2 1.2h-6.6c-.7 0-.9-.2-.9-.9V12.1c0-.7.2-.9.9-.9h6.7c.7 0 .9.3.9.9v1.8zm47.9.6c.9-1.3 2.1-2.4 3.5-3 1.3-.4 2.7-.8 4.1-1 .6-.1.9.2.9.8v6.7c0 .6-.3.8-.9.8-.8 0-1.5 0-2.3.2-2.9.3-5.1 2.7-5.1 5.6l-.2 7.1v4.3c0 .5-.1.8-.7.8h-7.3c-.6 0-.7-.3-.7-.8V19.3c0-1 0-1.1-1.1-1.1h-2.1c-.3 0-.7-.2-.7-.5v-.2-5.4c0-.5.2-.7.7-.7h11c.6 0 .8.3.8.8v2.6zM76 24.1V12.4c0-.8.3-1.1 1.1-1.1h6.4c1.2 0 1.2 0 1.2 1.3v20.6 3.1c0 .6-.2.8-.8.8h-7.1c-.7 0-.8-.3-.8-.9v-12zm45.8.1v11.7c0 .9-.3 1.1-1.1 1.1H114c-.7 0-1-.2-1-1V12.2c0-.7.3-1 1-.9h6.7c.8 0 1 .2 1 1v11.9zm-114.1 9c1.6 0 3-.3 4.2 1.1l6 6.1c.5.5.8.4 1.2 0l6.2-6.3c.5-.7 1.4-1 2.3-.9h1.7c-.3.4-.4.6-.6.8L19 43.7c-3.2 3.2-.5.5-1 .1L8 33.7c-.1-.1-.2-.3-.3-.5z"></path>
    <path d="M84.7 5.8c0 2.5-1.9 4.5-4.4 4.5a4.48 4.48 0 0 1-4.5-4.5 4.5 4.5 0 1 1 9 0zm28.3 0c0-2.5 2.1-4.4 4.5-4.4 2.5 0 4.4 2.1 4.4 4.5s-2 4.4-4.5 4.4-4.5-2.1-4.4-4.5h0z"></path>
  </symbol>
</svg>