<svg xmlns="http://www.w3.org/2000/svg" viewBox="0 0 32 32"><path d="M16 0a16 16 0 1 0 0 32 16 16 0 0 0 16-16C31.97 7.18 24.82.03 16 0z" fill="#fdbf00"/><path d="M32,16c-.03,8.82-7.18,15.97-16,16V0c8.82.03,15.97,7.18,16,16Z" fill="#ff9f00"/><path d="M16 3.81C9.27 3.81 3.81 9.27 3.81 16S9.27 28.19 16 28.19 28.19 22.73 28.19 16A12.21 12.21 0 0 0 16 3.81z" fill="#ffd400"/><path d="M28.19 16A12.21 12.21 0 0 1 16 28.19V3.81A12.21 12.21 0 0 1 28.19 16z" fill="#fdbf00"/><path d="M21.53 19.94a.92.92 0 0 1 .1 1.3c-1.15 1.42-2.87 2.24-4.69 2.26-.32 0-.63-.02-.94-.09-1.47-.24-2.8-1.01-3.75-2.16-.62-.72-1.09-1.54-1.41-2.44H9.43a.94.94 0 1 1 0-1.88h1.01c-.1-.62-.1-1.25 0-1.87H9.43a.94.94 0 0 1 0-1.88h1.41c.31-.89.79-1.72 1.41-2.44.95-1.15 2.28-1.92 3.75-2.16.31-.07.62-.1.94-.09a6.15 6.15 0 0 1 4.69 2.25.92.92 0 0 1-.08 1.3c-.4.34-1 .3-1.34-.09a4.21 4.21 0 0 0-5.92-.6c-.22.18-.42.38-.6.6-.31.37-.57.78-.77 1.22h4.03a.94.94 0 0 1 0 1.88h-4.62c-.1.62-.1 1.25 0 1.87h4.62a.94.94 0 1 1 0 1.88h-4.03c.2.44.46.85.77 1.22a4.21 4.21 0 0 0 5.92.6c.22-.18.42-.38.6-.6.34-.39.94-.43 1.33-.09z" fill="#ff9f00"/><path d="M16.94 18.81H16v-1.87h.94a.94.94 0 1 1 0 1.88zm0-3.75H16v-1.87h.94a.94.94 0 1 1 0 1.88zm4.59 4.88a.92.92 0 0 1 .1 1.3c-1.15 1.42-2.87 2.24-4.69 2.26-.32 0-.63-.02-.94-.09v-1.93a4.27 4.27 0 0 0 4.2-1.44c.34-.39.94-.43 1.33-.09zM16 10.53V8.6c.31-.07.62-.1.94-.09a6.15 6.15 0 0 1 4.69 2.25.92.92 0 0 1-.08 1.3c-.4.34-1 .3-1.34-.09a4.25 4.25 0 0 0-4.2-1.44z" fill="#ff7816"/></svg>