<svg xmlns="http://www.w3.org/2000/svg" viewBox="0 0 24 24"><style><![CDATA[.B{isolation:isolate}]]></style><defs><linearGradient id="A" x1="3.47" y1="3.4" x2="20.49" y2="20.42" gradientUnits="userSpaceOnUse"><stop offset="0" stop-color="#fae100"/><stop offset=".15" stop-color="#fcb720"/><stop offset=".3" stop-color="#ff7950"/><stop offset=".5" stop-color="#ff1c74"/><stop offset="1" stop-color="#6c1cd1"/></linearGradient></defs><path d="M12 0h0a12 12 0 0 1 12 12h0a12 12 0 0 1-12 12h0A12 12 0 0 1 0 12h0A12 12 0 0 1 12 0z" fill="url(#A)"/><g fill="#fff"><path class="B" d="M21.22 4.19a42.8 42.8 0 0 1-7.36 9.67c-2.86 2.9-6.11 5.37-9.67 7.35-.2-.18-.4-.36-.59-.55A12.06 12.06 0 0 1 3.47 3.6a12.07 12.07 0 0 1 17.07-.13l.13.13c.19.19.37.39.55.6h0z" opacity=".1"/><path d="M14.86 5.65H9.14c-1.93 0-3.49 1.56-3.49 3.49v5.72c0 1.93 1.56 3.49 3.49 3.49h5.72c1.93 0 3.49-1.56 3.5-3.49h0V9.14c0-1.93-1.56-3.49-3.49-3.49h0zm2.38 8.71a2.88 2.88 0 0 1-2.88 2.88H9.65a2.88 2.88 0 0 1-2.88-2.88V9.65a2.88 2.88 0 0 1 2.88-2.88h4.71a2.88 2.88 0 0 1 2.88 2.88v4.71zm-2.92-4.65l-.03-.03-.03-.03c-.6-.6-1.41-.94-2.26-.94-1.8.01-3.25 1.48-3.23 3.28a3.3 3.3 0 0 0 .95 2.32c.61.61 1.43.96 2.3.95 1.82-.04 3.26-1.54 3.22-3.36-.02-.82-.34-1.61-.91-2.21h0zM12 14.15a2.14 2.14 0 0 1-2.18-2.12 2.14 2.14 0 0 1 2.12-2.18 2.14 2.14 0 0 1 2.18 2.12V12a2.15 2.15 0 0 1-2.13 2.15h0zm4.2-5.58c0 .43-.34.78-.77.78a.74.74 0 0 1-.54-.23.79.79 0 0 1 .01-1.11.75.75 0 0 1 .53-.22.74.74 0 0 1 .49.18l.02.02a.43.43 0 0 0 .07.07l.02.02a.76.76 0 0 1 .17.5z"/></g></svg>