<svg xmlns="http://www.w3.org/2000/svg" viewBox="0 0 32 32"><path d="M16,26.2v5.79c3.75,0,6.78-1.3,6.78-2.9s-3.03-2.9-6.78-2.9Z" fill="#42c967"/><path d="M20.91 29.1c0-1.6-2.2-2.9-4.91-2.9-3.75 0-6.78 1.3-6.78 2.9S12.26 32 16 32c2.71 0 4.91-1.3 4.91-2.9z" fill="#78d280"/><path d="M16,0v30.07c.3,0,.59-.15.76-.4l8.18-11.73c3.54-5.09,2.4-12.17-2.54-15.81C20.54.74,18.3,0,16,0Z" fill="#ff0f04"/><path d="M16.63,29.66l6.79-11.73c1.14-2,1.73-4.28,1.71-6.6,0-6.25-4.08-11.33-9.13-11.33C9.92,0,5,5.07,5,11.33c0,2.37.72,4.68,2.06,6.6l8.18,11.73c.18.25.46.4.76.4.26,0,.51-.16.63-.4h0Z" fill="#ff362d"/><path d="M16,4.35v13.97c3.75-.06,6.74-3.23,6.69-7.09-.05-3.78-3.01-6.83-6.69-6.89Z" fill="#baf7ff"/><path d="M20.91 11.33c0-3.86-2.2-6.99-4.91-6.99-3.75-.06-6.83 3.03-6.88 6.89s2.94 7.03 6.69 7.09H16c2.71 0 4.91-3.13 4.91-6.98z" fill="#fff"/></svg>