<svg xmlns="http://www.w3.org/2000/svg" viewBox="0 0 32 32"><path d="M2.15 19.29c.27.26.37.64.27 1l-.49 1.83a2.56 2.56 0 0 0 1.81 3.14l1.91.51a1 1 0 0 1 .73.73l.49 1.84c.37 1.36 1.77 2.17 3.14 1.81l1.91-.51c.36-.1.74 0 1 .27l1.34 1.34a2.56 2.56 0 0 0 3.62 0l1.4-1.4c.26-.27.64-.37 1-.27l1.84.49a2.57 2.57 0 0 0 3.14-1.82l.51-1.91a1 1 0 0 1 .73-.73l1.84-.48a2.57 2.57 0 0 0 1.82-3.14l-.51-1.91c-.1-.36 0-.74.27-1l1.34-1.34a2.56 2.56 0 0 0 0-3.62l-1.4-1.4c-.27-.26-.37-.64-.27-1l.49-1.83a2.57 2.57 0 0 0-1.82-3.14l-1.91-.52c-.36-.08-.65-.36-.74-.73l-.49-1.84a2.58 2.58 0 0 0-3.14-1.82l-1.91.51c-.36.1-.74 0-1-.27L17.73.74a2.56 2.56 0 0 0-3.62 0l-1.4 1.4c-.26.27-.64.37-1 .27l-1.84-.48a2.57 2.57 0 0 0-3.14 1.82l-.51 1.9c-.09.36-.37.65-.73.73l-1.84.49C2.28 7.23 1.47 8.64 1.83 10l.51 1.91c.1.36 0 .74-.27 1L.73 14.25a2.56 2.56 0 0 0 0 3.62l1.4 1.4zm11.96.28a.75.75 0 0 1-.52-.26l-2.74-3.17a.75.75 0 0 1 .1-1.07c.32-.26.78-.23 1.06.08l2.23 2.58 5.82-5.1a.76.76 0 1 1 1.05 1.11c-.01.01-.03.03-.05.04l-6.4 5.61a.78.78 0 0 1-.5.19h-.06 0zM16 8.62c4.08 0 7.38 3.31 7.38 7.38A7.39 7.39 0 0 1 16 23.38 7.39 7.39 0 0 1 8.62 16h0c0-4.08 3.31-7.38 7.38-7.38zm0 16.29c-4.92 0-8.9-3.99-8.9-8.91s3.99-8.9 8.91-8.9 8.9 3.99 8.9 8.9c0 4.92-3.99 8.9-8.91 8.9z" fill="#5eac24" fill-rule="evenodd"/></svg>