<svg xmlns="http://www.w3.org/2000/svg">
  <symbol id="menu" viewBox="0 0 34 28">
    <path d="M8.51 2c-.08-1.02.68-1.91 1.7-2h22.1c1.11.19 1.86 1.23 1.67 2.34-.14.85-.81 1.52-1.67 1.66h-22.1c-1.02-.09-1.78-.98-1.7-2zM32.3 12H1.7c-1.11.19-1.86 1.23-1.67 2.34.14.85.81 1.52 1.67 1.66h30.61c1.11-.19 1.86-1.23 1.67-2.34-.14-.85-.81-1.52-1.67-1.66zm0 12H16.99c-1.11.19-1.86 1.23-1.67 2.34.14.85.81 1.52 1.67 1.66H32.3c1.11-.19 1.86-1.23 1.67-2.34-.14-.85-.81-1.52-1.67-1.66z"></path>
  </symbol>
  <symbol id="close" viewBox="0 0 28 28">
    <path d="M16.56 13.99L27.45 3.1c.71-.7.72-1.85.02-2.56s-1.85-.72-2.56-.02l-.02.02L14 11.43 3.12.54C2.41-.16 1.26-.15.56.56c-.69.71-.69 1.84 0 2.54l10.88 10.89L.56 24.88c-.72.69-.75 1.84-.06 2.56s1.84.75 2.56.06l.06-.06L14 16.55l10.88 10.89c.69.72 1.84.75 2.56.06s.75-1.84.06-2.56l-.06-.06-10.88-10.89z"></path>
  </symbol>
  <symbol id="home" viewBox="0 0 24 24">
    <path d="M23.35 10.44h0L13.56.65a2.21 2.21 0 0 0-3.12 0L.65 10.43h0c-.86.87-.86 2.27 0 3.13.39.39.91.62 1.46.64h.46v7.21c0 1.43 1.16 2.58 2.59 2.59h3.83c.39 0 .7-.31.7-.7h0v-5.64c0-.65.53-1.18 1.18-1.18h2.26c.65 0 1.18.53 1.18 1.18v5.65c0 .39.31.7.7.7h3.83c1.43 0 2.58-1.16 2.59-2.59v-7.21h.36A2.21 2.21 0 0 0 24 12a2.17 2.17 0 0 0-.65-1.56zm-.99 2.13a.82.82 0 0 1-.57.24h-1.07c-.39 0-.7.31-.7.7h0v7.91c0 .65-.53 1.18-1.18 1.18h-3.13v-4.94c0-1.43-1.16-2.58-2.59-2.59h-2.26c-1.43 0-2.58 1.16-2.59 2.59v4.94H5.14c-.65 0-1.18-.53-1.18-1.18v-7.91c0-.39-.31-.7-.7-.7H2.18a.8.8 0 0 1-.79-.82c0-.21.09-.41.24-.56h0l9.8-9.79c.31-.31.82-.31 1.13 0l9.79 9.79h0c.32.31.32.82 0 1.14z"></path>
  </symbol>
  <symbol id="down" viewBox="0 0 18 10">
    <path d="M17.71 2.15c.38-.36.38-.95 0-1.32l-.59-.56a1.03 1.03 0 0 0-1.39 0L9 6.63 2.27.27a1.03 1.03 0 0 0-1.39 0L.29.83a.89.89 0 0 0 0 1.32l8.02 7.58c.39.36 1.01.36 1.4 0l8.01-7.57z"></path>
  </symbol>
  <symbol id="phone" viewBox="0 0 38 32">
    <path d="M19.01 24.82c5.32 0 9.64-4.4 9.64-9.82 0-5.43-4.31-9.83-9.64-9.83-5.32 0-9.64 4.4-9.64 9.82a9.93 9.93 0 0 0 2.58 6.69l-1 3.79c-.16.62.2 1.27.81 1.44.3.08.61.04.87-.12l3.9-2.29a9.42 9.42 0 0 0 2.47.33m-3.19-2.61l-1.92 1.13.45-1.71c.11-.42-.02-.87-.33-1.16a7.58 7.58 0 0 1-.37-10.56C16.4 6.9 21.04 6.73 24 9.54a7.58 7.58 0 0 1 .37 10.56c-1.94 2.13-4.92 2.92-7.63 2.02-.31-.1-.65-.06-.93.1h0zm22.18-6.38c.01-.48.03-.97 0-1.49-.13-3-2.56-5.35-5.5-5.33-3.25-7.6-11.91-11.08-19.36-7.77C9.72 2.76 7 5.54 5.51 9.02 2.57 8.99.14 11.35.01 14.35c-.02.52-.01 1.01 0 1.49.01.51.03 1.03 0 1.62-.13 3.07 2.21 5.67 5.22 5.81h.26c.72 0 1.44-.15 2.1-.43.58-.25.85-.92.62-1.51-.01-.06-.04-.11-.06-.16-3.34-6.1-1.19-13.81 4.8-17.22C18.94.55 26.5 2.73 29.84 8.84c3.34 6.1 1.19 13.81-4.8 17.22-1.17.67-2.44 1.13-3.76 1.39-.71-1.64-2.59-2.38-4.2-1.66s-2.34 2.64-1.63 4.28 2.59 2.38 4.2 1.66a3.25 3.25 0 0 0 1.73-1.92c4.09-.69 7.71-3.11 9.97-6.66.38.08.76.13 1.15.13h.25c3.02-.13 5.36-2.73 5.23-5.81-.03-.59-.01-1.11 0-1.62M5.35 20.92c-1.75-.08-3.1-1.58-3.03-3.36.03-.67.01-1.26 0-1.78-.01-.46-.02-.89 0-1.33.06-1.43 1.04-2.65 2.4-2.99a15.32 15.32 0 0 0 .64 9.13h0c.04.12.09.23.14.35h-.14m13.02 8.71c-.49 0-.89-.41-.89-.91s.4-.91.89-.91.89.41.89.91h0c0 .5-.4.9-.89.9m17.31-12.09c.07 1.78-1.28 3.29-3.03 3.36h-.13c1.25-3 1.53-6.32.77-9.47 1.36.35 2.34 1.57 2.4 3 .02.43 0 .87 0 1.33-.01.52-.03 1.11 0 1.78m-19.38-2.67v.11.12a.36.36 0 0 1-.02.11c0 .04-.02.07-.03.11s-.02.07-.04.11c-.01.03-.03.07-.05.1-.02.04-.04.07-.06.1s-.04.06-.07.09c-.02.03-.05.06-.08.09s-.06.05-.08.08-.06.05-.09.07a.88.88 0 0 1-.1.06c-.03.02-.07.03-.1.05-.03.01-.07.03-.11.04s-.07.02-.11.03c-.04 0-.07.01-.11.02h-.23c-.04 0-.07 0-.11-.02-.04 0-.07-.02-.11-.03s-.07-.02-.11-.04c-.03-.01-.07-.03-.1-.05s-.07-.04-.1-.06-.06-.04-.09-.07c-.03-.02-.06-.05-.08-.08-.03-.03-.05-.06-.08-.09-.02-.03-.05-.06-.07-.09s-.04-.07-.06-.1-.03-.07-.05-.1-.03-.07-.04-.11-.02-.07-.03-.11a.36.36 0 0 0-.02-.11v-.12-.11c0-.04 0-.08.02-.11 0-.04.02-.07.03-.11s.02-.07.04-.11c.01-.04.03-.07.05-.1.04-.07.08-.13.12-.19.02-.03.05-.06.08-.08l.08-.08c.03-.02.06-.05.09-.07s.07-.04.1-.06.07-.03.1-.05.07-.03.11-.04.07-.02.11-.03c.15-.03.3-.03.45 0 .04 0 .07.02.11.03s.07.02.11.04c.03.01.07.03.1.05s.07.04.1.06a.55.55 0 0 1 .09.07c.03.02.06.05.08.08.03.03.05.06.08.08a.76.76 0 0 1 .12.19c.02.03.03.07.05.1s.03.07.04.11.02.07.03.11a.36.36 0 0 0 .02.11h0zm1.54.12c0-.65.51-1.17 1.15-1.17h0c.63 0 1.15.53 1.15 1.17 0 .65-.52 1.17-1.15 1.17s-1.15-.52-1.15-1.17m3.83.11v-.23a.36.36 0 0 1 .02-.11c0-.04.02-.07.03-.11s.02-.07.04-.11c.01-.03.03-.07.05-.1a3.15 3.15 0 0 1 .12-.19c.02-.03.05-.06.08-.08.03-.03.06-.05.08-.08.03-.02.06-.05.09-.07s.06-.04.1-.06.07-.03.1-.05c.03-.01.07-.03.11-.04s.07-.02.11-.03a1.27 1.27 0 0 1 .34-.02.36.36 0 0 1 .11.02c.04 0 .07.02.11.03s.07.02.11.04c.03.01.07.03.1.05s.07.04.1.06a.55.55 0 0 1 .09.07c.03.02.06.05.08.08.03.03.05.06.08.08.02.03.05.06.07.09a.88.88 0 0 1 .06.1c.02.04.03.07.05.1.01.04.03.07.04.11s.02.07.03.11a.36.36 0 0 0 .02.11v.23c0 .04 0 .08-.02.11 0 .04-.02.07-.03.11s-.02.07-.04.11c-.01.04-.03.07-.05.1s-.04.07-.06.1c-.04.06-.09.12-.14.18l-.08.08c-.03.02-.06.05-.09.07s-.07.04-.1.06c-.07.04-.14.06-.21.09-.04.01-.07.02-.11.03-.07.02-.15.02-.22.02h-.11c-.03 0-.07-.01-.11-.02s-.07-.02-.11-.03a.95.95 0 0 1-.21-.09c-.03-.02-.07-.04-.1-.06a.55.55 0 0 1-.09-.07 1.21 1.21 0 0 1-.16-.16c-.02-.03-.05-.06-.07-.09a.88.88 0 0 1-.06-.1c-.02-.03-.03-.07-.05-.1-.01-.04-.03-.07-.04-.11s-.02-.07-.03-.11a.36.36 0 0 0-.02-.11"></path>
  </symbol>
  <symbol id="email" viewBox="0 0 26 18">
    <path d="M26 2.25C26 1.01 24.98 0 23.71 0H2.29C1.02 0 0 1.01 0 2.25v13.5c0 1.24 1.03 2.24 2.29 2.25h21.43c1.26 0 2.28-1.01 2.28-2.25V2.25zm-24.48.31L8.1 9.01l-6.58 6.43V2.56zm13.1 7.54c-.89.88-2.34.88-3.23 0h0L2.61 1.5H23.4l-8.78 8.6m-5.44-.04l1.12 1.1c1.49 1.46 3.9 1.46 5.38 0l1.12-1.1 6.58 6.44H2.61l6.58-6.44zM17.89 9l6.58-6.45v12.89L17.89 9z"></path>
  </symbol>
  <symbol id="prev" viewBox="0 0 32 32">
    <path d="M16 0a16 16 0 1 1 0 32A16 16 0 0 1 0 16h0C0 7.17 7.17 0 16 0m-4.94 16.94l6.67 6.67a1.34 1.34 0 0 0 1.89 0 1.34 1.34 0 0 0 0-1.89h0L13.9 16l5.72-5.72a1.34 1.34 0 0 0 0-1.89c-.52-.53-1.36-.52-1.89 0l-6.67 6.66a1.33 1.33 0 0 0 0 1.88"></path>
  </symbol>
  <symbol id="next" viewBox="0 0 32 32">
    <path d="M16 0a16 16 0 1 0 0 32 16 16 0 0 0 16-16h0c-.01-8.83-7.17-16-16-16m4.94 16.94l-6.67 6.67a1.34 1.34 0 0 1-1.89 0 1.34 1.34 0 0 1 0-1.89h0L18.1 16l-5.72-5.72a1.34 1.34 0 0 1 0-1.89c.52-.53 1.36-.52 1.89 0l6.67 6.66a1.33 1.33 0 0 1 0 1.88"></path>
  </symbol>
  <symbol id="quote" viewBox="0 0 32 32">
    <path d="M16 0C7.16 0 0 7.17 0 16c0 2.79.73 5.54 2.12 7.96l-2.06 6.4c-.21.66.15 1.36.81 1.57.25.08.52.08.76 0l6.4-2.06A16 16 0 0 0 23.95 2.11C21.54.73 18.79 0 16 0m0 29.5a13.49 13.49 0 0 1-7.15-2.04c-.31-.2-.7-.24-1.05-.13l-4.62 1.49 1.49-4.62c.11-.35.07-.73-.13-1.05C.6 16.82 2.52 8.49 8.85 4.55 15.17.6 23.5 2.53 27.45 8.85s2.02 14.65-4.3 18.6c-2.14 1.34-4.62 2.05-7.15 2.05M17.56 16c0 .86-.7 1.56-1.56 1.56s-1.56-.7-1.56-1.56.7-1.56 1.56-1.56 1.56.7 1.56 1.56h0m6.25 0c0 .86-.7 1.56-1.56 1.56s-1.56-.7-1.56-1.56.7-1.56 1.56-1.56 1.56.7 1.56 1.56h0m-12.5 0c0 .86-.7 1.56-1.56 1.56s-1.56-.7-1.56-1.56.7-1.56 1.56-1.56 1.56.7 1.56 1.56h0"></path>
  </symbol>
  <symbol id="faq" viewBox="0 0 36 32">
    <path d="M34.45,25.36c3.35-6.18,1.08-13.92-5.07-17.29-1.74-.95-3.67-1.48-5.65-1.55C20.31.37,12.59-1.81,6.48,1.63.37,5.07-1.8,12.84,1.62,18.98l-.77,4.65c-.1.58.29,1.12.86,1.22.12.02.24.02.35,0l4.62-.78c1.74.95,3.68,1.48,5.66,1.54,3.44,6,11,8.14,17.05,4.83l4.62.77c.57.1,1.12-.29,1.21-.87.02-.12.02-.24,0-.35l-.77-4.64ZM6.88,21.91c-.06,0-.12,0-.17.01l-3.54.59.59-3.56c.04-.24,0-.5-.13-.71C.68,13.18,2.37,6.68,7.41,3.71c5.04-2.96,11.51-1.26,14.46,3.8,2.95,5.07,1.25,11.57-3.78,14.54-3.3,1.94-7.38,1.94-10.68,0-.16-.09-.35-.15-.53-.15M32.31,25.33l.59,3.56-3.54-.59c-.24-.04-.49,0-.71.13-4.7,2.77-10.73,1.49-13.92-2.96.86-.14,1.7-.36,2.51-.68.17.11.37.17.57.17h10.99c.58,0,1.05-.47,1.05-1.06s-.47-1.06-1.05-1.06h-8.17c.91-.73,1.72-1.58,2.4-2.53h5.77c.58,0,1.05-.47,1.05-1.06s-.47-1.06-1.05-1.06h-4.54c.37-.81.66-1.66.85-2.53h3.69c.58,0,1.05-.47,1.05-1.06s-.47-1.06-1.05-1.06h-3.4c.01-.22.02-.45.02-.67,0-1.42-.23-2.82-.69-4.16,5.79.79,9.84,6.14,9.06,11.96-.19,1.39-.65,2.73-1.35,3.95-.12.21-.17.46-.13.71M11.16,9.56c0-.89.71-1.6,1.6-1.6.88,0,1.6.72,1.6,1.6s-.71,1.6-1.6,1.6h0c-.58,0-1.05.47-1.05,1.06v3.12c0,.58.47,1.06,1.05,1.06s1.05-.47,1.05-1.06v-2.21c1.96-.58,3.08-2.65,2.49-4.62-.58-1.97-2.64-3.09-4.6-2.51-1.57.47-2.65,1.92-2.65,3.57,0,.58.47,1.06,1.05,1.06s1.05-.47,1.05-1.06M12.75,17.81c-.58,0-1.05.47-1.05,1.06s.47,1.06,1.05,1.06,1.05-.47,1.05-1.06c0-.58-.47-1.05-1.05-1.06"></path>
  </symbol>
  <symbol id="minus" viewBox="0 0 24 24">
    <path d="M2.18 10h19.64c1.2 0 2.18.9 2.18 2h0c0 1.1-.98 2-2.18 2H2.18C.98 14 0 13.1 0 12h0c0-1.1.98-2 2.18-2z"></path>
  </symbol>
  <symbol id="plus" viewBox="0 0 24 24">
    <path d="M2.18 10h19.64c1.2 0 2.18.9 2.18 2h0c0 1.1-.98 2-2.18 2H2.18C.98 14 0 13.1 0 12h0c0-1.1.98-2 2.18-2z"></path>
    <path d="M10 21.82V2.18C10 .98 10.9 0 12 0h0c1.1 0 2 .98 2 2.18v19.64c0 1.2-.9 2.18-2 2.18h0c-1.1 0-2-.98-2-2.18z"></path>
  </symbol>
  <symbol id="dot" viewBox="0 0 64 16">
    <path d="M8 0a8 8 0 1 0 0 16 8 8 0 0 0 8-8c-.01-4.41-3.59-7.99-8-8zm48 0a8 8 0 1 0 0 16 8 8 0 0 0 8-8c-.01-4.41-3.59-7.99-8-8zM32 0a8 8 0 1 0 0 16 8 8 0 0 0 8-8c-.01-4.41-3.59-7.99-8-8z"></path>
  </symbol>
</svg>