<svg xmlns="http://www.w3.org/2000/svg" viewBox="0 0 32 32"><path d="M17.94 14.39l6.4-5.1c.4-.78.6-1.65.6-2.52V3.1l-1.44-.59H11.68v4.26c0 4.37 3.79 6.65 3.79 9.23l-2.94 6.87 12.42 3.69v-1.32c0-1.9-.97-3.67-2.57-4.72l-4.43-2.9c-.9-.59-1.15-1.79-.54-2.68.14-.21.33-.39.54-.53h0z" fill="#eaf3ff"/><path d="M14.82,15.25c.37.85.06,1.84-.72,2.36l-4.43,2.9c-1.61,1.05-2.57,2.83-2.57,4.72v1.32l6.29-1.32c-.06-1.62.24-3.23.88-4.72l1.52-2.9c.22-.51.32-1.05.31-1.6l-1.27-.75ZM7.09,1.03v5.74c0,.88.21,1.74.6,2.52l4.57,2.12,1.33-2.12c-.14-.83-.21-1.68-.21-2.52v-2.12c0-.85.71-1.55,1.57-1.55h9.99V1.03H7.09Z" fill="#d5eaff"/><path d="M23.72,24.69l-5.12-2.31c-.93-.42-1.53-1.34-1.53-2.34v-4.02c0-.64.33-1.25.87-1.6l4.43-2.9c.84-.55,1.52-1.31,1.97-2.2h-10.76l-.48,2.52,2.42,3.89-.56,3.45v.86c0,.91-.49,1.76-1.29,2.22l-1.47,1.52v5.66h11.24l1.5-.52v-2.35c0-.81-.48-1.54-1.22-1.87Z" fill="#ffd18d"/><path d="M14.97 16v3.15l.81-1.55c.4-1.03.4-2.18 0-3.21l-1.52-2.9c-.33-.7-.56-1.44-.68-2.2H7.69c.45.89 1.13 1.65 1.97 2.2l4.43 2.9c.55.36.87.96.87 1.6h0zm9.97 12.9h-9.99c-.87 0-1.57-.69-1.57-1.55h0v-2.12c0-1 .09-2 .3-2.99-.08.05-.16.09-.24.12l-5.12 2.31c-.75.34-1.22 1.07-1.22 1.88v4.41h17.85V28.9h0z" fill="#fbbd80"/><path d="M24.95,1.72h-14.03s-.68-.12-.68-.69S10.71,0,11.29,0h13.65c.58,0,1.05.46,1.05,1.03h0s-1.05.69-1.05.69ZM24.95,31.66h-14.03s-.68-.12-.68-.69.47-1.03,1.05-1.03h13.65c.58,0,1.05.46,1.05,1.03l-1.05.69Z" fill="#e29a6c"/><path d="M11.29 0h-4.2a1.04 1.04 0 0 0-1.01 1.07c.02.54.46.97 1.01.99h17.86A1.04 1.04 0 0 0 26 1.03h0-13.65A1.04 1.04 0 0 1 11.3 0h0zm0 29.94h-4.2c-.58-.02-1.07.42-1.09.99A1.04 1.04 0 0 0 7.01 32h.08 17.86A1.04 1.04 0 0 0 26 30.97H12.35a1.04 1.04 0 0 1-1.05-1.03h0z" fill="#d48c64"/></svg>