<svg xmlns="http://www.w3.org/2000/svg" viewBox="0 0 32 32"><path d="M11.93 11.59v17.1l-5.42 1.1-5.42-1.1v-17.1a5.6 5.6 0 0 1 1.08-3.31l4.34-1.11 4.34 1.1c.7.96 1.08 2.12 1.08 3.31z" fill="#e64c3c"/><path d="M11.93,28.69v2.21c0,.61-.49,1.1-1.08,1.1H2.17c-.6,0-1.08-.49-1.08-1.1v-2.21h10.85Z" fill="#c03a2b"/><path d="M1.63 4.96c-.3 0-.54-.25-.54-.55 0-.17.08-.32.2-.43L4 1.77c.24-.18.58-.13.76.12.17.23.13.55-.08.74L1.63 4.96z" fill="#56595e"/><path d="M4.34 2.76H.54c-.3 0-.54-.25-.54-.55s.24-.55.54-.55h3.8c.3 0 .54.25.54.55s-.24.55-.54.55z" fill="#7f8284"/><path d="M15.94,7.37c-.49-.08-.97-.2-1.44-.35-1.19-.3-2.03-1.39-2.03-2.64,0-.89-.71-1.62-1.59-1.62h-2.2c-.3,0-.54-.25-.54-.55,0-.3.24-.55.54-.55h2.2c1.48,0,2.67,1.22,2.67,2.72,0,.74.5,1.39,1.2,1.57l1.31.34c.29.08.47.38.39.67-.06.24-.28.41-.52.42h0Z" fill="#7f8c8d"/><path d="M31.99,25.82c0,4.25-4.07,6.18-8.13,6.18s-8.13-1.93-8.13-6.18c-.07-1.59.16-3.18.69-4.67.06-.14.21-.21.35-.15.08.03.14.11.16.2.13,1.09,1.04,1.92,2.12,1.92,2.22,0,1.47-2.7.73-4.25-.62-1.3-1.51-3.69.66-5.57,1.22-.9,2.29-1.99,3.18-3.23.07-.13.23-.17.35-.1.04.02.08.06.1.1.89,1.23,1.97,2.32,3.18,3.23,2.17,1.88,1.28,4.28.66,5.57-.73,1.54-1.48,4.25.73,4.25,1.09,0,2-.82,2.12-1.92.03-.15.18-.24.32-.21.09.02.16.08.19.17.53,1.5.77,3.08.69,4.67h0Z" fill="#f29c1f"/><path d="M10.85 8.28H2.17c.6-.82 1.41-1.45 2.34-1.82a.55.55 0 0 0 .37-.52V3.67c.4.46.98-.35 1.63-.35s1.23.81 1.63.35v2.27c0 .23.14.43.36.51a5.35 5.35 0 0 1 2.35 1.83z" fill="#c03a2b"/><g fill="#bdc3c7"><ellipse cx="6.29" cy="2.13" rx="2.1" ry="2.13"/><rect x="3.15" y="11.74" width="6.29" height="10.67" rx="1"/></g><path d="M19.78 9.22l-3.6-1.25c-.26-.09-.41-.37-.35-.64l.25-1.19c.06-.27.31-.46.59-.43l3.8.41c.3.03.51.3.48.61v.06l-.45 2.04c-.07.3-.36.48-.65.41-.02 0-.04 0-.05-.02h0z" fill="#56595e"/><path d="M9.76,24.83H3.26c-.3,0-.54-.25-.54-.55s.24-.55.54-.55h6.5c.3,0,.54.25.54.55s-.24.55-.54.55Z" fill="#d1d4d1"/><path d="M23.86,32c-2.39,0-3.8-3.39-3.06-5.43.1-.29.41-.43.7-.33.02,0,.03.01.05.02.82.38,1.78.01,2.16-.82.14-.32.18-.68.11-1.03-.07-.3.11-.59.4-.66.1-.02.2-.02.3.01,4.27,1.54,2.74,8.24-.65,8.24Z" fill="#f0c419"/></svg>