<svg xmlns="http://www.w3.org/2000/svg" viewBox="0 0 32 32" fill-rule="evenodd"><path d="M20.26 30.07v-6.15a3.78 3.78 0 0 1 .98-3.01 36.62 36.62 0 0 0 3.93-3.75 1.42 1.42 0 0 1 2 0c.55.55.56 1.46.02 2.02l-.02.02.44-.56a3.38 3.38 0 0 0 .78-2.17l-.02-5.92c-.02-4.6 3.28-3.33 3.32-1.77l.3 10.89a3.4 3.4 0 0 1-1.02 2.58l-4.81 4.93v2.88c0 .56-.44 1.01-.99 1.01h-3.94c-.54 0-.98-.45-.99-1h0zm-8.52 0v-6.15a3.78 3.78 0 0 0-.98-3.01 36.62 36.62 0 0 1-3.93-3.75 1.42 1.42 0 0 0-2 0c-.55.55-.56 1.46-.02 2.02l.02.02-.44-.56a3.38 3.38 0 0 1-.78-2.17l.02-5.92C3.65 5.95.35 7.22.31 8.78L0 19.68a3.4 3.4 0 0 0 1.02 2.58l4.81 4.93v2.88c0 .56.44 1.01.99 1.01h3.93c.54 0 .98-.45.99-1h0z" fill="#f6dccd"/><path d="M27.38 17.44a1.48 1.48 0 0 1-.21 1.78l-2.37 2.42a.52.52 0 0 1-.76 0c-.21-.22-.21-.57 0-.78l3.34-3.42zm-7.12 12.63v-6.15a3.78 3.78 0 0 1 .98-3.01l1.97-1.74v11.9h-1.97c-.54 0-.98-.46-.98-1.01zM4.62 17.44a1.48 1.48 0 0 0 .21 1.78l2.37 2.42a.52.52 0 0 0 .76 0c.21-.22.21-.57 0-.78h0l-3.34-3.42zm7.11 12.63v-6.15a3.78 3.78 0 0 0-.98-3.01l-1.97-1.74v11.9h1.97c.54 0 .98-.46.98-1.01z" fill="#f1cbbc"/><path d="M19.27 28.77l8.36.07c.41 0 .73.34.73.76v1.65c-.02.42-.35.75-.76.75l-8.36-.07c-.41 0-.73-.34-.73-.76v-1.65c.02-.42.35-.75.76-.75zm-6.54 0l-8.36.07c-.41 0-.73.34-.73.76v1.65c.02.42.35.75.76.75l8.36-.07c.41 0 .73-.34.73-.76v-1.65c-.02-.42-.35-.75-.76-.75z" fill="#d1d1d6"/><path d="M24.69 29.41h1.48l1.46.03c.4 0 .73.34.73.76v-.59c0-.42-.32-.75-.73-.76h-1.47l-2.95-.04-2.95-.03h-.99a.72.72 0 0 0-.72.58l1.72.02 2.95.03h1.47zm-17.38 0H5.83l-1.46.03c-.4 0-.73.34-.73.76v-.59c0-.42.32-.75.72-.76h1.47l2.95-.04 2.95-.03h.99a.72.72 0 0 1 .72.58l-1.72.02-2.95.03H7.3z" fill="#b1b1b5"/><path d="M19.58 30.17a.51.51 0 0 0 .28.66c.26.1.55-.02.65-.29a.51.51 0 0 0-.28-.66c-.26-.1-.55.02-.65.29zm-7.16 0a.51.51 0 0 1-.28.66c-.26.1-.55-.02-.65-.29a.51.51 0 0 1 .28-.66c.26-.1.55.02.65.29z" fill="#685e68"/><path d="M16.4.97l7.38,3.24c.28.12.46.4.46.72v6.31c0,4.88-3.52,9.02-8.24,9.72-4.72-.7-8.23-4.83-8.24-9.72v-6.31c0-.31.18-.6.46-.72L15.6.97c.25-.11.54-.11.8,0Z" fill="#6cf5c2"/><path d="M23.11,3.92l.67.29c.28.12.46.4.46.72v6.31c0,1.62-.38,3.22-1.13,4.64V3.92Z" fill="#00e499"/><path d="M14.53 9.37V6.38c0-.19.15-.34.33-.34h2.35c.18 0 .33.15.33.34v2.99h2.92c.18 0 .33.15.33.34v2.41c0 .19-.15.34-.33.34h-2.92v2.99c0 .19-.15.34-.33.34h-2.35c-.18 0-.33-.15-.33-.34v-2.99h-2.92c-.18 0-.33-.15-.33-.34V9.71c0-.19.15-.34.33-.34h2.92z" fill="#fe646f"/><path d="M12.27 12.46h-.67c-.18 0-.33-.15-.33-.34V9.71c0-.19.15-.34.33-.34h.67c-.18 0-.33.15-.33.34v2.41c0 .19.15.34.33.34zm2.26-3.09V6.38c0-.19.15-.34.33-.34h.67c-.18 0-.33.15-.33.34v2.99h-.67zm1 6.43h-.67c-.18 0-.33-.15-.33-.34v-2.99h.67v2.99c0 .19.15.34.33.34z" fill="#fd4755"/><path d="M4.97 1.95c.01.3-.22.56-.51.57A.55.55 0 0 1 3.9 2v-.05V.57c.01-.3.26-.54.56-.52.28.01.5.24.51.52v1.38zm-1.68.63c.29.01.52.27.51.57-.01.28-.23.51-.51.52H1.94c-.29-.01-.52-.27-.51-.57.01-.28.23-.51.51-.52h1.35zm.62 1.73c-.01-.3.22-.56.51-.57a.55.55 0 0 1 .56.52v.05 1.38c.01.3-.22.56-.51.57a.55.55 0 0 1-.56-.52v-.05-1.38zm1.68-.63c-.29-.01-.52-.27-.51-.57.01-.28.23-.51.51-.52h1.35c.29.01.52.27.51.57-.01.28-.23.51-.51.52H5.59zm22.7-1.73c.01.3-.22.56-.51.57a.55.55 0 0 1-.56-.52v-.05V.57c-.01-.3.22-.56.51-.57a.55.55 0 0 1 .56.52v.05 1.38zm-1.69.63a.55.55 0 0 1 .56.52.54.54 0 0 1-.51.57h-.05-1.35c-.29-.01-.52-.27-.51-.57.01-.28.23-.51.51-.52h1.35zm.62 1.73c-.01-.3.22-.56.51-.57a.55.55 0 0 1 .56.52v.05 1.38c.01.3-.22.56-.51.57a.55.55 0 0 1-.56-.52v-.05-1.38zm1.68-.63c-.29-.01-.52-.27-.51-.57.01-.28.23-.51.51-.52h1.35a.55.55 0 0 1 .56.52.54.54 0 0 1-.51.57h-.05-1.35z" fill="#6cf5c2"/></svg>