<svg xmlns="http://www.w3.org/2000/svg" viewBox="0 0 32 32"><path d="M30 4.83V15.1c-.19 3.05-1.32 5.95-3.23 8.31-2.77 3.56-6.31 6.43-10.35 8.38l-.41.21-.41-.21c-4.04-1.95-7.58-4.82-10.35-8.38-1.91-2.36-3.05-5.26-3.23-8.31V4.83L8.81 0h14.38L30 4.83z" fill="#00358f"/><path d="M30 4.83V15.1c-.19 3.05-1.32 5.95-3.23 8.31-2.77 3.56-6.31 6.43-10.35 8.38l-.41.21V0h7.19l6.81 4.83z" fill="#012453"/><path d="M22.03 3.75H9.98L5.7 6.78v8.32c0 2.86 2.77 8.45 10.3 12.67 7.53-4.23 10.3-9.82 10.3-12.67V6.78l-4.28-3.03z" fill="#00b3fe"/><path d="M26.3,6.78v8.32c0,2.86-2.77,8.45-10.3,12.67V3.75h6.03l4.28,3.03Z" fill="#0274f9"/><path d="M22.32 2.81H9.69L4.78 6.29v8.81c.19 2.33 1.06 4.55 2.5 6.37 2.22 2.95 5.04 5.38 8.28 7.12l.45.25.45-.25a25.52 25.52 0 0 0 8.28-7.12 11.74 11.74 0 0 0 2.5-6.37V6.29l-4.91-3.48zm3.06 12.29c0 2.49-2.51 7.59-9.38 11.6-6.87-4.01-9.38-9.1-9.38-11.6V7.27l3.65-2.58h11.47l3.65 2.58v7.83z" fill="#eff5fa"/><path d="M27.23 6.29v8.81c-.19 2.33-1.06 4.55-2.5 6.37-2.22 2.95-5.04 5.38-8.28 7.12l-.45.25v-2.15c6.87-4.01 9.38-9.1 9.38-11.6V7.26l-3.65-2.58H16V2.81h6.31l4.92 3.48z" fill="#c6e1ec"/><path d="M21.9 10.89L16 17.04h-.01l-1.5 1.58-4.39-4.16 1.26-1.37L14.42 16l1.56-1.63h.01l4.57-4.78 1.32 1.31z" fill="#eff5fa"/><path d="M21.9 10.89L16 17.04v-2.69l4.57-4.77 1.32 1.31z" fill="#c6e1ec"/></svg>