<svg xmlns="http://www.w3.org/2000/svg" viewBox="0 0 32 32"><path d="M31.2 13.99h-2.14c-.15-.95-.4-1.89-.75-2.79l1.86-1.08a.8.8 0 0 0 .29-1.09l-1.2-2.07c-.21-.38-.69-.51-1.06-.3 0 0-.02 0-.02.01l-1.87 1.07a14.05 14.05 0 0 0-2.04-2.04l1.08-1.86c.22-.38.1-.86-.28-1.08l-2.09-1.19c-.37-.23-.85-.11-1.08.26 0 0 0 .02-.01.02L20.81 3.7a13.46 13.46 0 0 0-2.8-.75V.81a.81.81 0 0 0-.79-.81h-2.39c-.45 0-.81.36-.81.81v2.14c-.95.15-1.89.4-2.79.75l-1.07-1.85c-.22-.38-.7-.51-1.08-.29 0 0-.01 0-.02.01L6.98 2.76a.81.81 0 0 0-.3 1.09l1.08 1.86a14.12 14.12 0 0 0-2.05 2.04L3.85 6.69a.78.78 0 0 0-1.08.26s0 .01-.01.02l-1.2 2.07a.8.8 0 0 0 .29 1.09l1.86 1.08c-.35.9-.6 1.84-.75 2.79H.8c-.44-.01-.8.35-.8.79v2.39a.81.81 0 0 0 .79.81h2.15c.15.95.4 1.89.75 2.79l-1.85 1.07c-.38.22-.52.71-.3 1.09l1.2 2.07a.79.79 0 0 0 1.07.3s.01 0 .02-.01l1.86-1.06a14.12 14.12 0 0 0 2.04 2.05l-1.09 1.86c-.22.38-.09.87.3 1.09l2.08 1.2c.38.22.87.1 1.09-.28l1.07-1.85a14.93 14.93 0 0 0 2.79.75v2.14c0 .45.36.81.81.81h2.4c.44 0 .8-.36.8-.81v-2.16c.95-.15 1.89-.4 2.79-.75l1.08 1.85a.8.8 0 0 0 1.09.29l2.08-1.19a.8.8 0 0 0 .31-1.08l-1.08-1.88c.75-.61 1.43-1.3 2.03-2.05l1.87 1.06c.37.23.84.11 1.07-.25 0 0 .01-.02.02-.03l1.2-2.07a.79.79 0 0 0-.28-1.09l-1.86-1.08c.35-.9.6-1.84.75-2.79h2.14c.45 0 .81-.36.81-.81h0v-2.38c0-.45-.36-.81-.81-.81h0z" fill="#f87670"/><path d="M9.56 15.99a6.49 6.49 0 0 1 .25-1.75l1.18.96.87-5.54-5.23 2.01 1.32 1.07a8.71 8.71 0 0 0 4.89 11.3c1 .4 2.07.6 3.15.61v-2.24a6.43 6.43 0 0 1-6.43-6.42h0zm11.44.79l-.87 5.54 5.24-2.01-1.32-1.06a8.71 8.71 0 0 0-4.88-11.31A8.81 8.81 0 0 0 16 7.32v2.24c3.57.02 6.44 2.93 6.42 6.49a6.36 6.36 0 0 1-.23 1.68L21 16.78z" fill="#e2e2e2"/></svg>