<svg xmlns="http://www.w3.org/2000/svg" viewBox="0 0 60 60"><path d="M41.1 50.1H7.8c-2 0-3.6-1.6-3.6-3.6h0V3.6c0-2 1.6-3.6 3.6-3.6h0 33.3c2 0 3.6 1.6 3.6 3.6h0v42.9c0 2-1.6 3.6-3.6 3.6h0z" fill="#f7f6f7"/><path d="M41.1 0h-3.6c2 0 3.6 1.6 3.6 3.6h0v42.9c0 2-1.6 3.6-3.6 3.6h3.6c2 0 3.6-1.6 3.6-3.6h0V3.6c0-2-1.6-3.6-3.6-3.6h0z" fill="#edebed"/><path d="M44.2 60H3.6c-2 0-3.6-1.6-3.6-3.6h0v-31c0-2 1.6-3.6 3.6-3.6h17.7c1.4 0 2.7 1 3 2.4l.6 2.5c.3 1.4 1.6 2.4 3 2.4h16.2c2 0 3.6 1.6 3.6 3.6h0v23.8c0 2-1.6 3.6-3.6 3.6Z" fill="#ffe07d"/><path d="M44.2 29h-3.6c2 0 3.6 1.6 3.6 3.6h0v23.8c0 2-1.6 3.6-3.6 3.6h3.6c2 0 3.6-1.6 3.6-3.6h0V32.6c0-2-1.6-3.6-3.6-3.6h0zm-23.5-4.9l.6 2.5c.3 1.4 1.6 2.4 3 2.4h3.6c-1.4 0-2.7-1-3-2.4l-.6-2.5c-.3-1.4-1.6-2.4-3-2.4h-3.6c1.4 0 2.7 1 3 2.4z" fill="#ffd064"/><path d="M36.8 6.3H10.6c-.5 0-.9-.4-.9-.9s.4-.9.9-.9h26.2c.5 0 .9.4.9.9s-.4.9-.9.9zm-5.4 5.5H10.6c-.5 0-.9-.4-.9-.9s.4-.9.9-.9h20.8c.5 0 .9.4.9.9s-.4.9-.9.9zm-1.8 5.4h-19c-.5 0-.9-.4-.9-.9s.4-.9.9-.9h19c.5 0 .9.4.9.9s-.4.9-.9.9h0zm9.6 20.9l-4.1-2.3 4.9-8.5 4.1 2.3-4.9 8.5z" fill="#a198a4"/><path d="M28.2 52.5c1.9 1.1 4.4.5 5.6-1.5L41 38.5c.5-.8.2-1.9-.6-2.4l-4.1-2.3c-.8-.5-1.9-.2-2.4.6l-7.2 12.5c-1.1 1.9-.5 4.4 1.5 5.6z" fill="#655e68"/><path d="M40.4 36.2l-4.1-2.3c-.8-.5-1.9-.2-2.4.6h0l2.8 1.7c.8.5 1.1 1.5.6 2.4l-7.2 12.5c-.4.7-1 1.3-1.7 1.6 1.9 1 4.3.3 5.3-1.6l7.2-12.5c.5-.8.2-1.9-.6-2.4z" fill="#544f57"/><path d="M37.5 31.8c1.2 1 2.6 1.8 4.1 2.4l2.7-4.6-4.1-2.3-2.7 4.6Z" fill="#8b808e"/><circle cx="47.1" cy="19.9" r="12.9" fill="#a4ccff"/><path d="M47.1 7c-.6 0-1.2 0-1.8.1 7.1 1 12 7.5 11 14.6-.8 5.7-5.3 10.2-11 11 7.1 1 13.6-3.9 14.6-11s-3.9-13.6-11-14.6c-.6 0-1.2-.1-1.8-.1Z" fill="#8bb3ea"/><circle cx="47.1" cy="19.9" r="8" fill="#e6ecf8"/><path d="M47.1 11.9c-.6 0-1.2 0-1.8.2 4.3 1 7 5.3 6 9.6-.7 3-3 5.3-6 6 4.3 1 8.6-1.7 9.6-6s-1.7-8.6-6-9.6c-.6-.1-1.2-.2-1.8-.2h0z" fill="#d7e1f3"/></svg>