<svg xmlns="http://www.w3.org/2000/svg" viewBox="0 0 24 32"><path d="M3 9v9.1h17.9V9c0-5-4-9-8.9-9S3.1 4 3 9zm1.6 0c0-4.1 3.3-7.5 7.4-7.5s7.4 3.3 7.4 7.5v7.6H4.6V9z" fill="#f3f3f3"/><path d="M4.6 9v7.6h14.9V9c0-4.1-3.2-7.5-7.4-7.6-4.1 0-7.5 3.3-7.5 7.4V9zm1.5 0c0-3.3 2.7-6 5.9-6s5.9 2.7 5.9 6v6H6.1V9z" fill="#e5e5e5"/><path d="M2 32h20c1.1 0 2-.9 2-2h0V15.4c0-1.1-.9-2-2-2H2c-1.1 0-2 .9-2 2h0V30c0 1.1.9 2 2 2h0z" fill="#ffcc5b"/><path d="M15.5 24h.8c.6 0 1.2-.5 1.2-1.2h0c0-.8-.5-1.3-1.2-1.3h-1c-.8 0-1.4-.6-1.5-1.3 0-.8.5-1.4 1.3-1.5h3.5c.7 0 1.2-.6 1.2-1.2h0c0-.7-.5-1.3-1.1-1.3h-1.1c-.8 0-1.4-.6-1.5-1.3 0-.8.5-1.4 1.3-1.5h4.5c1.1 0 2 .9 2 2h0V30c0 1.1-.9 2-2 2H16c-.8 0-1.4-.7-1.3-1.5 0-.7.6-1.3 1.3-1.3h1.9c.6 0 1.2-.5 1.2-1.2h0c0-.7-.4-1.2-1-1.3h-2.5c-.8 0-1.4-.6-1.5-1.3 0-.8.5-1.4 1.3-1.5z" fill="#fdbc4b"/><path d="M9 21c0-1.7 1.3-3 3-3s3 1.3 3 3c0 1.1-.6 2.1-1.5 2.6l.4 3.9H10l.4-3.9c-.9-.5-1.5-1.5-1.5-2.6z" fill="#464646"/><path d="M3 20.9c.6 0 1 .5 1 1v5.8c0 .6-.4 1-1 1s-1-.5-1-1v-5.8c0-.6.5-1 1-1ZM3 16.7c.6 0 1 .5 1 1v1.2c0 .6-.4 1-1 1s-1-.5-1-1v-1.2c0-.6.4-1 1-1h0Z" fill="#ffd769"/></svg>