<svg xmlns="http://www.w3.org/2000/svg" viewBox="0 0 64 60"><path d="M17.9 18.7v28c0 2.4 1.9 4.3 4.3 4.3h22.7c.6 0 1.1.2 1.5.6l8 7.9c.7.7 1.8.7 2.5 0 .3-.3.5-.8.5-1.2v-5.2c0-1.2 1-2.1 2.2-2.1h.3c2.4 0 4.3-1.9 4.3-4.3v-28c0-2.4-1.9-4.3-4.3-4.3H22.2c-2.4 0-4.3 1.9-4.3 4.3" fill="#fb545c"/><path d="M49.1 31.2c0 2.2 1.8 4 4 4s4-1.8 4-4-1.8-4-4-4h0c-2.2 0-4 1.8-4 4m-12.1 0c0 2.2 1.8 4 4 4s4-1.8 4-4-1.8-4-4-4h0c-2.2 0-4 1.8-4 4m-12.2 0c0 2.2 1.8 4 4 4s4-1.8 4-4-1.8-4-4-4h0c-2.2 0-4 1.8-4 4" fill="#fff"/><path d="M46.1 4.3v28c0 2.4-1.9 4.3-4.3 4.3h-22.7c-.6 0-1.1.2-1.5.6l-8 7.9c-.7.7-1.8.7-2.5 0-.3-.3-.5-.8-.5-1.2v-5.2c0-1.2-1-2.1-2.2-2.1h-.3c-2.4 0-4.3-1.9-4.3-4.3V4.3C0 1.9 1.9 0 4.3 0h37.5c2.4 0 4.3 1.9 4.3 4.3" fill="#f7ae4d"/><path d="M14.9 16.9c0 2.2-1.8 4-4 4s-4-1.8-4-4 1.8-4 4-4 4 1.8 4 4m12.1 0c0 2.2-1.8 4-4 4s-4-1.8-4-4 1.8-4 4-4 4 1.8 4 4m12.2 0c0 2.2-1.8 4-4 4s-4-1.8-4-4 1.8-4 4-4h0c2.2 0 4 1.8 4 4" fill="#fff"/></svg>