<svg xmlns="http://www.w3.org/2000/svg" viewBox="0 0 38 52"><path d="M5 8.3h32.2c.5 0 .8.4.8.8h0v42.1c0 .5-.4.8-.8.8H5c-.5 0-.8-.4-.8-.8h0V9.1c0-.5.4-.8.8-.8h0Z" fill="#ccf49f"/><path d="M5 8.3c-.5 0-.8.4-.8.8h0v41.3h22.4c.9 0 1.7-.3 2.3-1l6.5-6.5c.6-.6 1-1.5 1-2.3V8.3H5Z" fill="#b3e59f"/><path d="M33.9 5H1.7c-.5 0-.8.4-.8.8h0v42.1c0 .5.4.8.8.8h24.9c.4 0 .9-.2 1.2-.5l6.5-6.5c.3-.3.5-.7.5-1.2V5.8c0-.5-.4-.8-.8-.8Z" fill="#eceaec"/><path d="M.8 5v42.9c0 .5.4.8.8.8h.8v-16.5c0-1.8 1.5-3.3 3.3-3.3h16.5c1.4 0 2.5-1.1 2.5-2.5h0V5H.8Z" fill="#dad8db"/><path d="M22.3 27.2H.8c-.4 0-.8-.3-.8-.8h0V5c0-.5.4-.8.8-.8h21.5c.5 0 .8.4.8.8h0v21.5c0 .5-.4.8-.8.8z" fill="#ffe07d"/><path d="M9.9 25.6a8.28 8.28 0 0 1-8.3-8.3h0V4.1H.8c-.5 0-.8.4-.8.8h0v21.5c0 .5.4.8.8.8h21.5c.5 0 .8-.4.8-.8h0v-.8H9.9zm19.8-5h-1.6c-.5 0-.8-.4-.8-.9 0-.4.4-.8.8-.8h1.7c.5 0 .8.4.8.9 0 .4-.4.8-.8.8h0zm0-8.2h-1.6c-.5 0-.8-.4-.8-.9 0-.4.4-.8.8-.8h1.7c.5 0 .8.4.8.9 0 .4-.4.8-.8.8h0zm0 4.1h-1.6c-.5 0-.8-.4-.8-.9 0-.4.4-.8.8-.8h1.7c.5 0 .8.4.8.9 0 .4-.4.8-.8.8h0zm0 8.3h-1.6c-.5 0-.8-.4-.8-.9 0-.4.4-.8.8-.8h1.7c.5 0 .8.4.8.9 0 .4-.4.8-.8.8h0z" fill="#ffd064"/><path d="M7.4 32.2H5.7c-.5 0-.8-.3-.9-.8 0-.5.3-.8.8-.9h1.7c.5 0 .8.3.9.8 0 .5-.3.8-.8.9zm0 8.2H5.7c-.5 0-.8-.4-.8-.9 0-.4.4-.8.8-.8h1.7c.5 0 .8.4.8.9 0 .4-.4.8-.8.8zm0-4.1H5.7c-.5 0-.8-.4-.8-.9 0-.4.4-.8.8-.8h1.7c.5 0 .8.4.8.9 0 .4-.4.8-.8.8z" fill="#b3e59f"/><path d="M18.2 12.4h-4.1c-.5 0-.8-.3-.9-.8s.3-.8.8-.9h4.1c.5 0 .8.3.9.8s-.3.8-.8.9zm0 4.1h-4.1c-.5 0-.8-.3-.9-.8s.3-.8.8-.9h4.1c.5 0 .8.3.9.8s-.3.8-.8.9zm0 4.1H5c-.5 0-.8-.4-.8-.9 0-.4.4-.8.8-.8h13.2c.5 0 .8.4.8.9 0 .4-.4.8-.8.8h0zm11.5 11.6H11.6c-.5 0-.8-.3-.9-.8 0-.5.3-.8.8-.9h18.2c.5 0 .8.3.9.8 0 .5-.3.8-.8.9h0zm-6.6 8.2H11.5c-.5 0-.8-.3-.9-.8 0-.5.3-.8.8-.9H23c.5 0 .8.4.8.9 0 .4-.4.8-.8.8h0zm6.6-4.1H11.6c-.5 0-.8-.3-.9-.8 0-.5.3-.8.8-.9h18.2c.5 0 .8.3.9.8 0 .5-.3.8-.8.9h0z" fill="#6f6571"/><path d="M27.7 48.1l6.6-6.3c.1-.1.3-.3.3-.5l-6.5-.2c-.5 0-.8.3-.8.8h0l-.2 6.5c.2 0 .3-.2.5-.3z" fill="#fff"/><path d="M8.3 6.6c-1.4 0-2.5 1.1-2.5 2.5v1.7c0 .5.4.8.9.8.4 0 .8-.4.8-.8V9.1c0-.5.3-.8.8-.9.5 0 .8.3.9.8v3.3c0 1.4-1.2 2.5-2.5 2.4-1.3 0-2.4-1.1-2.4-2.4V4.1c0-1.4 1.2-2.5 2.5-2.4 1.3 0 2.4 1.1 2.4 2.4h1.7C10.9 1.8 9.1 0 6.8 0S2.5 1.8 2.5 4.1v8.3c0 2.3 1.8 4.1 4.1 4.1s4.1-1.8 4.1-4.1V9.1c0-1.4-1.1-2.5-2.5-2.5z" fill="#b3e59f"/><path d="M8.5 2.5c.4.5.6 1 .6 1.7h1.7c0-.6-.1-1.1-.3-1.7h-1.9Z" fill="#95d6a4"/></svg>