<svg xmlns="http://www.w3.org/2000/svg" viewBox="0 0 60 60"><path d="M59 11.2c-.6-.5-1.3-.8-2.1-.8H4.1l6.8 36.8.5 2.5h45.5c1.7 0 3.1-1.4 3.1-3.1V13.4c0-.9-.4-1.7-1-2.3Z" fill="#f0c419"/><path d="M59 48.8c-.6.5-1.3.8-2.1.8H11.4l-.5-2.5 18.3-17.6 2.9 2.6c1.2 1.1 3 1.1 4.2 0l2.8-2.6L59 48.6z" fill="#f29c1f"/><path d="M59 11.2l-19.9 18.5-2.8 2.6c-1.2 1.1-3 1.1-4.2 0l-2.9-2.6L8.4 10.3h48.5c.8 0 1.5.3 2.1.8Z" fill="#f3d55b"/><path d="M31.3 58.3l-1.4.4-2 .6-1.9.6c-.4.1-.8.1-1.3 0L16.3 58c-.4 0-.9-.3-1.2-.6-2-1.9-8.9-9.3-12.8-22.2-3.7-13-2-22.9-1.5-25.6 0-.4.3-.9.6-1.2l6-6.1c.3-.3.7-.5 1.1-.7l1.9-.6 2-.6 1.4-.4c1.3-.4 2.7.3 3.1 1.6l3.5 11.6c.4 1.3-.3 2.6-1.6 3l-1.4.4-2 .6h0l-5.5 1.6c-.4.1-.7.4-.8.8-1 4.4-.9 8.9.5 13.2 1.2 4.3 3.6 8.3 6.9 11.3.3.3.8.4 1.2.2l5.4-1.6 2-.6 1.4-.4c1.3-.4 2.7.3 3.1 1.6l3.5 11.6c.4 1.3-.3 2.6-1.6 3z" fill="#3b97d3"/><path d="M42.4 15.5h-16.6c-.6 0-1-.5-1-1s.5-1 1-1h16.6c.6 0 1 .5 1 1s-.5 1-1 1Z" fill="#f9eab0"/><path d="M55.9 38.3c-.6 0-1-.5-1-1v-14.5c0-.6.5-1 1-1s1 .5 1 1v14.5c0 .6-.5 1-1 1Z" fill="#f3d55b"/><path d="M25.1 46.1h-.3c-.5 0-.9-.3-1-.7l-.7-2.3h0l2-.6.7 2.3c.2.5-.1 1.1-.7 1.3zM30 58.7h0l-2 .6-2.8-9.3c-.2-.5.1-1.1.7-1.3.5-.2 1.1.1 1.3.7h0l2.8 9.3zM17.3 16.8l-2 .6-.7-2.3c-.1-.6.2-1.1.8-1.2.5-.1 1 .2 1.2.6l.7 2.3zm-2.8-5.7h-.3c-.5 0-.9-.3-1-.7l-2.8-9.3 2-.6 2.8 9.3c.2.5-.1 1.1-.7 1.3z" fill="#2980ba"/></svg>