<svg xmlns="http://www.w3.org/2000/svg" viewBox="0 0 28 28"><path d="M26 10.8l-.5-.2c-.3 0-.5-.3-.6-.6-.1-.4-.3-.7-.5-1.1-.1-.3-.1-.6 0-.8l.2-.4c.5-1.1.3-2.5-.6-3.4l-.5-.5c-.9-.9-2.2-1.1-3.4-.6l-.4.2c-.3.1-.6.1-.8 0-.4-.2-.7-.3-1.1-.4-.3 0-.5-.3-.6-.6l-.2-.5c-.4-1.2-1.6-2-2.8-2h-.7c-1.3 0-2.4.8-2.8 2l-.2.5c0 .3-.3.5-.6.6-.4.1-.7.3-1.1.4-.3.1-.6.1-.8 0l-.4-.2c-1.1-.5-2.5-.3-3.4.6l-.5.5c-.9.9-1.1 2.2-.6 3.4l.2.4c.1.3.1.6 0 .8-.2.4-.3.7-.4 1.1 0 .3-.3.5-.6.6l-.5.2c-1 .5-1.8 1.6-1.8 2.8v.7c0 1.3.8 2.4 2 2.8l.5.2c.3 0 .5.3.6.6.1.4.3.7.4 1.1.1.3.1.6 0 .8l-.2.5c-.5 1.1-.3 2.5.6 3.4l.5.5c.9.9 2.2 1.1 3.4.6l.4-.2c.3-.1.6-.1.8 0 .3.2.7.3 1.1.4.3 0 .5.3.6.6l.2.5c.4 1.2 1.6 2 2.8 2h.7c1.3 0 2.4-.8 2.8-2l.2-.5c0-.3.3-.5.6-.6.4-.1.7-.3 1.1-.5.3-.1.6-.1.8 0l.5.2c1.1.5 2.5.3 3.4-.6l.5-.5c.9-.9 1.1-2.2.6-3.4l-.2-.4c-.1-.3-.1-.6 0-.8l.5-1.1c0-.3.3-.5.6-.6l.5-.2c1.2-.4 2-1.6 2-2.8v-.7c0-1.3-.8-2.4-2-2.8zm-12 8.6c-3 0-5.4-2.4-5.4-5.4S11 8.6 14 8.6s5.4 2.4 5.4 5.4-2.4 5.4-5.4 5.4h0z" fill="#fbc34e"/><g opacity="0"><path d="M28 13.6v.7c0 1.3-.8 2.4-2 2.8l-.5.2c-.3 0-.5.3-.6.6-.1.4-.3.7-.5 1.1-.1.3-.1.6 0 .8l.2.4c.5 1.1.3 2.5-.6 3.4l-.5.5c-.9.9-2.2 1.1-3.4.6l-.5-.2c-.3-.1-.6-.1-.8 0l-1.1.5a.9.9 0 0 0-.6.6l-.2.5c-.4 1.2-1.6 2-2.8 2h-.4v-8.6c3 0 5.4-2.4 5.4-5.4s-2.4-5.4-5.4-5.4V0h.4c1.3 0 2.4.8 2.8 2l.2.5c0 .3.3.5.6.6.4.1.7.3 1.1.4.3.1.6.1.8 0l.4-.2c1.1-.5 2.5-.3 3.4.6l.5.5c.9.9 1.1 2.2.6 3.4l-.2.4c-.1.3-.1.6 0 .8l.5 1.1a.9.9 0 0 0 .6.6l.5.2c1.2.4 2 1.6 2 2.8z"/></g></svg>