<svg xmlns="http://www.w3.org/2000/svg">
  <symbol id="menu" viewBox="0 0 32 24">
    <path d="M8 1.7C8 .8 8.7 0 9.6 0h20.8c1 0 1.7.9 1.6 1.9 0 .8-.7 1.5-1.6 1.6H9.6C8.7 3.5 8 2.7 8 1.8zm22.4 8.6H1.6c-1 0-1.7.9-1.6 1.9 0 .8.7 1.5 1.6 1.6h28.8c1 0 1.7-.9 1.6-1.9 0-.8-.7-1.5-1.6-1.6zm0 10.3H16c-1 0-1.7.9-1.6 1.9 0 .8.7 1.5 1.6 1.6h14.4c1 0 1.7-.9 1.6-1.9 0-.8-.7-1.5-1.6-1.6z"></path>
  </symbol>
  <symbol id="close" viewBox="0 0 26 26">
    <path d="M15.4 13L25.5 2.9a1.63 1.63 0 0 0 0-2.4 1.63 1.63 0 0 0-2.4 0L13 10.6 2.9.5C2.2-.2 1.2-.1.5.5c-.6.7-.6 1.7 0 2.4L10.6 13 .5 23.1c-.7.6-.7 1.7 0 2.4.6.7 1.7.7 2.4 0L13 15.4l10.1 10.1c.6.7 1.7.7 2.4 0 .7-.6.7-1.7 0-2.4L15.4 13z"></path>
  </symbol>
  <symbol id="plus" viewBox="0 0 30 30">
    <path d="M28 12.3H17.8V2c-.1-1.1-1-2-2.1-2h0-1.4c-1.1 0-2 .9-2 2s0 0 0 0v10.2H2c-1.1.1-2 1-2 2.1v1.4c0 1.1.9 2 2 2h10.2v10.2c0 1.1.9 2 2 2h1.4c1.1 0 2-.9 2-2h0V17.7h10.2c1.1 0 2-.9 2-2h0v-1.4c0-1.1-.9-2-2-2.1z"></path>
  </symbol>
  <symbol id="prev" viewBox="0 0 48 48">
    <path d="M18.7 24l9.8-9.4c.6-.6.7-1.5 0-2.1a1.57 1.57 0 0 0-2.2 0L15.4 23c-.6.6-.6 1.5 0 2.1l10.9 10.5a1.57 1.57 0 0 0 2.2 0c.6-.6.7-1.5 0-2.1l-9.8-9.4z"></path>
  </symbol>
  <symbol id="next" viewBox="0 0 48 48">
    <path d="M29.3 24l-9.8-9.4c-.6-.6-.7-1.5 0-2.1a1.57 1.57 0 0 1 2.2 0L32.6 23c.6.6.6 1.5 0 2.1L21.7 35.6a1.57 1.57 0 0 1-2.2 0c-.6-.6-.7-1.5 0-2.1l9.8-9.4z"></path>
  </symbol>
  <symbol id="up" viewBox="0 0 20 10">
    <path d="M.3 9.5c.4.6 1.3.7 1.8.2L10 3.1l7.9 6.6c.6.5 1.4.4 1.8-.2.5-.6.4-1.4-.2-1.9h0L10.8.3c-.5-.4-1.2-.4-1.6 0L.5 7.6c-.6.5-.7 1.3-.2 1.9h0z"></path>
  </symbol>
  <symbol id="down" viewBox="0 0 20 10">
    <path d="M.3.5C.7 0 1.6-.2 2.1.3L10 6.9 17.9.3c.6-.5 1.4-.4 1.8.2.5.6.4 1.4-.2 1.9h0l-8.7 7.3c-.5.4-1.2.4-1.6 0L.5 2.4C0 2-.2 1.1.3.5h0z"></path>
  </symbol>
  <symbol id="magnifier" viewBox="0 0 24 24">
    <path d="M23.4 20.6l-5.1-5.1c3-4.6 1.8-10.8-2.8-13.8A9.88 9.88 0 0 0 1.7 4.5a9.88 9.88 0 0 0 2.8 13.8c3.3 2.2 7.7 2.2 11 0l5.1 5.1a1.93 1.93 0 0 0 2.8 0 1.93 1.93 0 0 0 0-2.8zM3 10c0-3.9 3.1-7 7-7s7 3.1 7 7-3.1 7-7 7-7-3.1-7-7z"></path>
  </symbol>
</svg>