<svg xmlns="http://www.w3.org/2000/svg" width="292" height="50"><g fill="#fff"><use href="#B"/><path d="M67.135.115h1.695v10.593h.054a4.66 4.66 0 0 1 1.703-1.856 4.96 4.96 0 0 1 2.768-.777c.855-.031 1.707.133 2.488.481a4.03 4.03 0 0 1 1.508 1.258 4.78 4.78 0 0 1 .778 1.794c.141.687.211 1.387.21 2.089v7.766h-1.695v-7.681a9.04 9.04 0 0 0-.14-1.553 4.33 4.33 0 0 0-.498-1.344 2.66 2.66 0 0 0-.995-.947c-.511-.253-1.078-.373-1.648-.349a4.78 4.78 0 0 0-1.765.326c-.553.211-1.048.549-1.446.986a4.77 4.77 0 0 0-.957 1.677 6.98 6.98 0 0 0-.358 2.33v6.523h-1.695L67.135.115zm26.276 18.887a5.73 5.73 0 0 1-2.442 2.151c-1.01.441-2.102.661-3.204.645a6.9 6.9 0 0 1-2.714-.505 6.07 6.07 0 0 1-2.1-1.429 6.21 6.21 0 0 1-1.314-2.174 7.91 7.91 0 0 1-.467-2.78 7.49 7.49 0 0 1 .482-2.71c.304-.803.767-1.537 1.361-2.159a6.31 6.31 0 0 1 2.061-1.437 6.42 6.42 0 0 1 2.628-.528 6.23 6.23 0 0 1 2.636.528 5.78 5.78 0 0 1 1.928 1.382 5.94 5.94 0 0 1 1.174 1.965 6.51 6.51 0 0 1 .397 2.229v1.188H82.835a5.54 5.54 0 0 0 .218 1.367 4.76 4.76 0 0 0 .778 1.623c.404.552.921 1.013 1.516 1.351a4.67 4.67 0 0 0 2.442.567 5.52 5.52 0 0 0 2.519-.621 4.54 4.54 0 0 0 1.866-1.693l1.236 1.041zm-1.299-5.164a3.88 3.88 0 0 0-.358-1.639 4.22 4.22 0 0 0-.964-1.336 4.44 4.44 0 0 0-1.439-.924 4.67 4.67 0 0 0-1.765-.334c-.815-.037-1.623.157-2.333.559a5.24 5.24 0 0 0-1.462 1.305 5.33 5.33 0 0 0-.778 1.421 3.96 3.96 0 0 0-.226.947h9.324zm28.407 6.329c-1.135.641-2.359 1.11-3.632 1.39a17.5 17.5 0 0 1-3.826.412 10.95 10.95 0 0 1-4.199-.777c-1.232-.487-2.347-1.228-3.274-2.174a9.97 9.97 0 0 1-2.115-3.332 12.03 12.03 0 0 1 0-8.426 9.98 9.98 0 0 1 2.115-3.316 9.7 9.7 0 0 1 3.266-2.19c1.334-.535 2.762-.799 4.199-.777a9.69 9.69 0 0 1 7.201 2.772l-1.345 1.359a6.12 6.12 0 0 0-1.112-1.002c-.456-.306-.94-.566-1.446-.777a10.14 10.14 0 0 0-1.626-.505c-.546-.119-1.104-.179-1.664-.179a8.86 8.86 0 0 0-3.53.676c-1.01.429-1.918 1.064-2.667 1.864-.75.807-1.327 1.758-1.696 2.796-.787 2.247-.787 4.695 0 6.943a8.24 8.24 0 0 0 1.696 2.796c.749.8 1.657 1.435 2.667 1.864a8.86 8.86 0 0 0 3.53.676 16.85 16.85 0 0 0 3.017-.256 7.67 7.67 0 0 0 2.574-.916V12.37h-4.805v-1.693h6.672v9.49zm14.774-1.165a5.8 5.8 0 0 1-2.441 2.151 7.8 7.8 0 0 1-3.22.645 6.89 6.89 0 0 1-2.706-.505 6.06 6.06 0 0 1-2.107-1.429 6.21 6.21 0 0 1-1.346-2.174 7.93 7.93 0 0 1-.466-2.78 7.49 7.49 0 0 1 .482-2.71c.304-.802.764-1.535 1.353-2.159.585-.614 1.289-1.103 2.069-1.437.829-.359 1.724-.539 2.628-.528a6.3 6.3 0 0 1 2.644.528c.728.325 1.382.795 1.92 1.382a6.04 6.04 0 0 1 1.19 1.965 6.49 6.49 0 0 1 .389 2.229v1.188H124.71c.012.462.08.921.202 1.367a5.09 5.09 0 0 0 .778 1.623 4.93 4.93 0 0 0 1.516 1.351 4.67 4.67 0 0 0 2.442.567c.877-.003 1.741-.216 2.519-.621a4.53 4.53 0 0 0 1.866-1.693l1.26 1.041zm-1.298-5.164a3.8 3.8 0 0 0-.358-1.639 4.22 4.22 0 0 0-.964-1.336c-.415-.398-.904-.712-1.439-.924a4.67 4.67 0 0 0-1.765-.334 4.36 4.36 0 0 0-2.333.559 5.24 5.24 0 0 0-1.462 1.305c-.33.431-.592.911-.777 1.421a3.81 3.81 0 0 0-.218.947h9.316zm4.105 1.103c-.01-.944.164-1.88.513-2.757a6.63 6.63 0 0 1 1.408-2.174 6.44 6.44 0 0 1 2.177-1.421 7.39 7.39 0 0 1 2.776-.513c.943-.011 1.878.163 2.753.513a6.39 6.39 0 0 1 2.179 1.423c.621.619 1.107 1.358 1.429 2.173a7.76 7.76 0 0 1 0 5.506 6.41 6.41 0 0 1-1.431 2.174 6.51 6.51 0 0 1-2.177 1.429 7.21 7.21 0 0 1-2.753.505 7.38 7.38 0 0 1-2.776-.505 6.35 6.35 0 0 1-2.177-1.429 6.48 6.48 0 0 1-1.408-2.174c-.349-.874-.524-1.808-.513-2.749zm1.703 0a6.1 6.1 0 0 0 .35 2.073 4.93 4.93 0 0 0 1.026 1.693 5.03 5.03 0 0 0 1.649 1.157 5.7 5.7 0 0 0 4.292 0c.617-.272 1.175-.663 1.641-1.149a4.81 4.81 0 0 0 1.027-1.693c.238-.665.359-1.367.357-2.073s-.118-1.408-.357-2.073c-.219-.63-.569-1.207-1.027-1.693-.466-.486-1.024-.877-1.641-1.149a5.7 5.7 0 0 0-4.292 0c-.621.268-1.182.659-1.649 1.149a4.85 4.85 0 0 0-1.026 1.693 6.05 6.05 0 0 0-.35 2.073m14.41-2.851v-.893l-.046-1.056-.039-1.002c-.039-.311 0-.551 0-.722h1.703v1.413a4.24 4.24 0 0 0 .07.878c.406-.748.974-1.395 1.664-1.895a4.16 4.16 0 0 1 2.488-.777 2.64 2.64 0 0 1 .498.047l.497.101-.202 1.662a1.99 1.99 0 0 0-.669-.085 4.78 4.78 0 0 0-1.905.349 3.6 3.6 0 0 0-1.329.971c-.359.427-.624.924-.778 1.46-.175.582-.262 1.186-.257 1.794v7.114h-1.703l.008-9.358zm21.151 8.543a9.24 9.24 0 0 1-.708 3.93 6.3 6.3 0 0 1-1.765 2.33 5.91 5.91 0 0 1-2.278 1.103c-.721.175-1.459.269-2.201.28a10.77 10.77 0 0 1-1.944-.179 9.34 9.34 0 0 1-1.789-.536 7.68 7.68 0 0 1-1.555-.87 6.02 6.02 0 0 1-1.197-1.149l1.329-1.242a5.28 5.28 0 0 0 2.263 1.856 7.09 7.09 0 0 0 2.885.598c.743.019 1.483-.097 2.185-.342a4.28 4.28 0 0 0 1.47-.885c.373-.348.678-.761.902-1.219a5.93 5.93 0 0 0 .482-1.328 6.77 6.77 0 0 0 .187-1.25v-.963-1.856h-.062a5.12 5.12 0 0 1-1.991 1.864 6.08 6.08 0 0 1-2.955.683 7.07 7.07 0 0 1-2.714-.528c-1.652-.666-2.984-1.943-3.717-3.565a6.39 6.39 0 0 1 0-5.196c.355-.799.865-1.519 1.501-2.12a7.17 7.17 0 0 1 2.216-1.437 6.82 6.82 0 0 1 2.714-.544 6.18 6.18 0 0 1 2.955.683 5.12 5.12 0 0 1 1.991 1.864h.062V8.417h1.695l.039 12.224zm-1.641-5.84a5.04 5.04 0 0 0-.412-2.019 5.21 5.21 0 0 0-1.104-1.639 5.32 5.32 0 0 0-1.641-1.103c-.636-.272-1.322-.41-2.014-.404a5.12 5.12 0 0 0-2.03.404 5.45 5.45 0 0 0-1.633 1.103 5.18 5.18 0 0 0-1.096 1.639 5.06 5.06 0 0 0 0 4.038 5.18 5.18 0 0 0 1.096 1.639 5.32 5.32 0 0 0 1.633 1.103c.642.271 1.333.409 2.03.404.692.006 1.378-.132 2.014-.404 1.249-.536 2.236-1.544 2.745-2.803.275-.638.415-1.325.412-2.019m16.284 4.262c-.59.937-1.438 1.684-2.442 2.151a7.78 7.78 0 0 1-3.211.645c-.932.014-1.858-.157-2.722-.505a6.1 6.1 0 0 1-2.099-1.437 6.09 6.09 0 0 1-1.33-2.167 7.91 7.91 0 0 1-.467-2.78 7.49 7.49 0 0 1 .482-2.71 6.52 6.52 0 0 1 1.353-2.159 6.4 6.4 0 0 1 2.061-1.437 6.47 6.47 0 0 1 2.636-.528 6.23 6.23 0 0 1 2.636.528c.721.314 1.369.774 1.905 1.35a5.73 5.73 0 0 1 1.206 1.997c.261.714.395 1.468.396 2.229v1.188h-10.98c.007.469.069.936.187 1.39a4.95 4.95 0 0 0 2.333 2.974 4.67 4.67 0 0 0 2.441.567 5.5 5.5 0 0 0 2.52-.621 4.53 4.53 0 0 0 1.866-1.693l1.229 1.017zm-1.307-5.164a3.86 3.86 0 0 0-.35-1.639 4.28 4.28 0 0 0-.956-1.336c-.418-.398-.909-.712-1.446-.924-.562-.224-1.161-.338-1.766-.334a4.33 4.33 0 0 0-2.332.559c-.565.337-1.059.78-1.455 1.305a4.95 4.95 0 0 0-.777 1.421 3.96 3.96 0 0 0-.226.947h9.308z"/><use href="#C"/><path d="M206.227 12.098v-.893l-.038-1.056c-.039-.357-.001-.691-.047-1.002s0-.551 0-.722h1.703l.046 1.413c-.012.294.009.588.063.878h.085c.382-.763.969-1.406 1.695-1.856.829-.525 1.795-.796 2.777-.777.855-.03 1.706.134 2.488.481a4.03 4.03 0 0 1 1.508 1.258 4.75 4.75 0 0 1 .778 1.794c.141.687.211 1.387.21 2.089v7.766H215.8v-7.688c.002-.521-.045-1.041-.14-1.553a3.97 3.97 0 0 0-.498-1.344c-.238-.399-.579-.726-.987-.947a3.42 3.42 0 0 0-1.649-.349 4.85 4.85 0 0 0-1.773.326 3.81 3.81 0 0 0-1.438.986 4.87 4.87 0 0 0-.965 1.662c-.244.752-.362 1.539-.35 2.33v6.523h-1.695l-.078-9.319z"/><use href="#D"/><use href="#E"/><use href="#F"/><use href="#G"/><path d="M266.664 17.791v.893l.046 1.056c.047.357 0 .691 0 1.002v.722h-1.703l-.038-1.413c.007-.294-.017-.588-.07-.877h-.086c-.381.762-.968 1.403-1.695 1.848-.825.528-1.789.798-2.768.777a5.69 5.69 0 0 1-2.504-.474 4.04 4.04 0 0 1-1.556-1.258 4.52 4.52 0 0 1-.777-1.794 11.62 11.62 0 0 1-.195-2.089V8.417h1.696v7.681c-.003.521.044 1.041.14 1.553.086.473.255.928.497 1.343a2.58 2.58 0 0 0 .988.947c.514.253 1.083.373 1.656.349a4.84 4.84 0 0 0 1.765-.326 3.75 3.75 0 0 0 1.439-.986 4.84 4.84 0 0 0 .964-1.67 7.12 7.12 0 0 0 .358-2.33V8.456h1.687l.156 9.335z"/><use href="#H"/><path d="M290.171 19.002c-.592.943-1.449 1.692-2.465 2.151-1.01.439-2.102.659-3.204.645a7 7 0 0 1-2.721-.505 6.12 6.12 0 0 1-2.061-1.429c-.595-.624-1.053-1.364-1.345-2.174a7.91 7.91 0 0 1-.467-2.78c-.012-.926.152-1.845.482-2.71a6.52 6.52 0 0 1 1.353-2.159 6.4 6.4 0 0 1 2.061-1.437c.83-.357 1.725-.537 2.628-.528.909-.018 1.812.163 2.644.528a5.75 5.75 0 0 1 1.903 1.351c.535.576.946 1.255 1.208 1.996.261.714.395 1.468.396 2.229v1.188h-10.964c.016.462.086.921.21 1.367.157.584.421 1.134.777 1.623a4.84 4.84 0 0 0 1.517 1.351 4.67 4.67 0 0 0 2.441.567 5.52 5.52 0 0 0 2.52-.621c.769-.375 1.414-.963 1.858-1.693l1.229 1.041zm-1.299-5.164a3.86 3.86 0 0 0-.35-1.639c-.229-.504-.557-.958-.964-1.336-.407-.393-.884-.707-1.407-.924a4.67 4.67 0 0 0-1.765-.334 4.38 4.38 0 0 0-2.333.559 5.18 5.18 0 0 0-1.454 1.305 5.3 5.3 0 0 0-.778 1.421c-.118.304-.194.623-.226.947h9.277z"/><use href="#I"/><use href="#J"/><use href="#K"/><use href="#L"/><use href="#M"/><path d="M90.479 45.624a4.39 4.39 0 0 1 .311-1.685 3.88 3.88 0 0 1 .871-1.336 3.73 3.73 0 0 1 1.33-.87 4.51 4.51 0 0 1 1.695-.311c.58-.008 1.156.098 1.695.311a3.89 3.89 0 0 1 1.33.87 4.04 4.04 0 0 1 .879 1.336c.414 1.085.414 2.285 0 3.37a3.96 3.96 0 0 1-.863 1.328 3.97 3.97 0 0 1-1.315.885 4.6 4.6 0 0 1-1.695.311 4.67 4.67 0 0 1-1.695-.311 3.89 3.89 0 0 1-1.33-.878 3.88 3.88 0 0 1-.871-1.336 4.39 4.39 0 0 1-.311-1.685m1.034 0a3.81 3.81 0 0 0 .218 1.274 3.03 3.03 0 0 0 .638 1.041 3.11 3.11 0 0 0 1.065.724 3.13 3.13 0 0 0 1.268.231 3.11 3.11 0 0 0 2.333-.955 3.15 3.15 0 0 0 .638-1.041 3.97 3.97 0 0 0 0-2.547c-.141-.383-.358-.735-.638-1.033a3.11 3.11 0 0 0-1.003-.707c-.418-.176-.868-.263-1.322-.256-.451-.007-.899.081-1.314.256a3 3 0 0 0-1.003.707c-.282.296-.5.648-.638 1.033-.143.41-.217.84-.218 1.274m9.059-9.086h1.042v6.492c.159-.274.364-.518.607-.722a3.63 3.63 0 0 1 .777-.497c.284-.138.585-.237.895-.295a4.71 4.71 0 0 1 .917-.093 4.41 4.41 0 0 1 1.688.311c.502.193.957.489 1.337.87a4.05 4.05 0 0 1 .918 1.336 4.73 4.73 0 0 1 0 3.37 4.04 4.04 0 0 1-.879 1.336 3.98 3.98 0 0 1-1.337.878c-.538.209-1.111.315-1.688.311a4.2 4.2 0 0 1-.917-.101c-.309-.062-.61-.161-.895-.295a3.63 3.63 0 0 1-.777-.497c-.243-.204-.448-.448-.607-.722v1.406h-1.042l-.039-13.086zm.941 9.086a3.05 3.05 0 0 0 .257 1.274 3.22 3.22 0 0 0 .707 1.041 3.7 3.7 0 0 0 1.058.699 3.33 3.33 0 0 0 1.314.256 3.11 3.11 0 0 0 2.333-.955c.278-.302.495-.656.638-1.041a3.98 3.98 0 0 0 0-2.547 3.04 3.04 0 0 0-.638-1.033 3.11 3.11 0 0 0-1.003-.707 3.28 3.28 0 0 0-1.322-.256 3.33 3.33 0 0 0-1.314.256 3.41 3.41 0 0 0-1.058.707 3.19 3.19 0 0 0-.964 2.33m15.482.621v1.048.87c0 .264 0 .513.047.777s0 .458.078.691h-.941a8.17 8.17 0 0 1-.101-1.297h-.039a2.87 2.87 0 0 1-1.112 1.142 3.56 3.56 0 0 1-1.695.365 4.12 4.12 0 0 1-1.019-.132 2.6 2.6 0 0 1-.902-.419 2.1 2.1 0 0 1-.688-.796 2.09 2.09 0 0 1-.214-1.029 2.14 2.14 0 0 1 .466-1.452 3.07 3.07 0 0 1 1.159-.777 5.47 5.47 0 0 1 1.454-.342 12.89 12.89 0 0 1 1.361-.078h1.213v-.489c.026-.281-.019-.565-.132-.824a1.68 1.68 0 0 0-.513-.659 2.72 2.72 0 0 0-1.61-.45 3.65 3.65 0 0 0-2.45.901l-.598-.715c.403-.382.886-.669 1.415-.839a5.23 5.23 0 0 1 1.633-.28 3.67 3.67 0 0 1 2.333.683 2.64 2.64 0 0 1 .694 1 2.62 2.62 0 0 1 .169 1.205l-.008 1.895zm-2.076-.66c-.427 0-.853.029-1.275.085a4.31 4.31 0 0 0-1.112.295 2.07 2.07 0 0 0-.778.551 1.4 1.4 0 0 0-.132 1.553 1.45 1.45 0 0 0 .42.474 2.23 2.23 0 0 0 .583.272c.207.062.432.094.653.093.468.017.935-.065 1.369-.241a2.43 2.43 0 0 0 .863-.629c.209-.259.358-.562.435-.885a4.27 4.27 0 0 0 .125-.994v-.536l-1.151-.039z"/><use href="#M" x="31.906"/><use href="#N"/><use href="#O"/><path d="M154.213 46.268v1.048.87.777c0 .264.047.458.086.691h-.972a7.32 7.32 0 0 1-.101-1.297h-.039c-.256.478-.641.874-1.112 1.142a3.56 3.56 0 0 1-1.696.365 4.12 4.12 0 0 1-1.018-.132 2.6 2.6 0 0 1-.902-.419c-.27-.191-.494-.441-.653-.73-.173-.339-.259-.715-.249-1.095-.028-.525.138-1.042.466-1.452.319-.344.713-.61 1.151-.777.467-.178.957-.293 1.454-.342.452-.049.907-.075 1.361-.078h1.213v-.489c.027-.281-.017-.564-.128-.823a1.69 1.69 0 0 0-.509-.66 2.72 2.72 0 0 0-1.61-.45 3.65 3.65 0 0 0-2.45.901l-.606-.715a3.89 3.89 0 0 1 1.423-.839 5.23 5.23 0 0 1 1.633-.28 3.63 3.63 0 0 1 2.333.683 2.62 2.62 0 0 1 .7.999c.151.383.21.797.171 1.207l.054 1.895zm-2.084-.66a9.7 9.7 0 0 0-1.275.085c-.38.048-.751.148-1.104.295-.297.124-.563.312-.778.551-.198.246-.3.555-.288.87-.004.226.053.448.164.645a1.44 1.44 0 0 0 .42.474c.18.118.376.21.583.272s.432.094.653.093a3.35 3.35 0 0 0 1.369-.241 2.34 2.34 0 0 0 .855-.629 2.38 2.38 0 0 0 .443-.885c.078-.326.117-.659.117-.994v-.536h-1.159z"/><use href="#P"/><path d="M164.003 42.564h-2.271v5.203a1.1 1.1 0 0 0 .064.447c.052.143.134.274.24.384a1.04 1.04 0 0 0 .358.228 1.05 1.05 0 0 0 .419.067 2.33 2.33 0 0 0 .599-.078c.199-.048.395-.113.583-.194l.086.932a7.28 7.28 0 0 1-.677.194c-.222.051-.449.08-.676.085a2.54 2.54 0 0 1-.957-.163c-.241-.101-.458-.252-.637-.443a1.78 1.78 0 0 1-.358-.652c-.071-.253-.108-.514-.109-.777v-5.203h-1.734v-.986h1.734v-2.33h1.065v2.33h2.294l-.023.955z"/><use href="#Q"/><use href="#B"/><path d="M67.135.115h1.695v10.593h.054a4.66 4.66 0 0 1 1.703-1.856 4.98 4.98 0 0 1 2.768-.777 5.59 5.59 0 0 1 2.488.481 4.03 4.03 0 0 1 1.508 1.258 4.78 4.78 0 0 1 .778 1.794c.141.687.211 1.387.21 2.089v7.766h-1.695v-7.681a9.04 9.04 0 0 0-.14-1.553 4.26 4.26 0 0 0-.498-1.344 2.69 2.69 0 0 0-.988-.947 3.45 3.45 0 0 0-1.656-.349 4.78 4.78 0 0 0-1.765.326c-.553.211-1.048.549-1.446.986a4.77 4.77 0 0 0-.957 1.677 6.98 6.98 0 0 0-.358 2.33v6.523h-1.695L67.135.115zm26.276 18.887a5.73 5.73 0 0 1-2.442 2.151c-1.01.441-2.102.661-3.204.645a6.89 6.89 0 0 1-2.714-.505 6.08 6.08 0 0 1-2.1-1.429 6.21 6.21 0 0 1-1.314-2.174 7.93 7.93 0 0 1-.466-2.78 7.49 7.49 0 0 1 .482-2.71c.304-.803.767-1.537 1.361-2.159a6.31 6.31 0 0 1 2.061-1.437 6.42 6.42 0 0 1 2.628-.528 6.23 6.23 0 0 1 2.636.528 5.78 5.78 0 0 1 1.928 1.382 5.94 5.94 0 0 1 1.174 1.965c.261.714.396 1.468.397 2.229v1.18H82.835a5.54 5.54 0 0 0 .218 1.375 4.76 4.76 0 0 0 .778 1.623c.404.552.921 1.013 1.516 1.351a4.67 4.67 0 0 0 2.442.567 5.52 5.52 0 0 0 2.52-.621 4.54 4.54 0 0 0 1.866-1.693l1.237 1.041zm-1.299-5.164a3.88 3.88 0 0 0-.358-1.639 4.22 4.22 0 0 0-.964-1.336 4.44 4.44 0 0 0-1.439-.924 4.67 4.67 0 0 0-1.765-.334c-.815-.037-1.624.157-2.333.559a5.24 5.24 0 0 0-1.462 1.305 5.32 5.32 0 0 0-.778 1.421 3.96 3.96 0 0 0-.225.947h9.324zm28.407 6.321a12.92 12.92 0 0 1-3.632 1.398 17.96 17.96 0 0 1-3.826.412 10.95 10.95 0 0 1-4.199-.777 9.57 9.57 0 0 1-3.274-2.174 9.97 9.97 0 0 1-2.115-3.332 12.03 12.03 0 0 1 0-8.426 9.98 9.98 0 0 1 2.115-3.316 9.7 9.7 0 0 1 3.266-2.19c1.334-.535 2.762-.799 4.199-.777a9.69 9.69 0 0 1 7.201 2.772l-1.345 1.359a6.12 6.12 0 0 0-1.112-1.002c-.456-.306-.94-.566-1.446-.777a10.14 10.14 0 0 0-1.626-.505c-.546-.119-1.104-.179-1.664-.179a8.86 8.86 0 0 0-3.53.676c-1.01.429-1.918 1.064-2.667 1.864a8.06 8.06 0 0 0-1.688 2.796c-.798 2.246-.798 4.697 0 6.943.37 1.035.943 1.986 1.688 2.796.749.8 1.657 1.435 2.667 1.864a8.86 8.86 0 0 0 3.53.676 16.85 16.85 0 0 0 3.017-.256 7.67 7.67 0 0 0 2.574-.916V12.37h-4.805v-1.693h6.672v9.482zm14.774-1.157a5.8 5.8 0 0 1-2.441 2.151 7.8 7.8 0 0 1-3.22.645 6.89 6.89 0 0 1-2.706-.505 6.06 6.06 0 0 1-2.107-1.429c-.593-.62-1.053-1.364-1.345-2.174a7.91 7.91 0 0 1-.467-2.78 7.49 7.49 0 0 1 .482-2.71 6.52 6.52 0 0 1 1.353-2.159c.585-.614 1.289-1.103 2.069-1.437.829-.359 1.724-.539 2.628-.528a6.3 6.3 0 0 1 2.644.528 5.83 5.83 0 0 1 1.921 1.382c.518.573.922 1.24 1.189 1.965a6.49 6.49 0 0 1 .389 2.229v1.18H124.71c.012.465.08.926.202 1.375a5.09 5.09 0 0 0 .778 1.623 4.93 4.93 0 0 0 1.516 1.351 4.67 4.67 0 0 0 2.442.567c.877-.003 1.741-.216 2.519-.621a4.54 4.54 0 0 0 1.867-1.693l1.259 1.041zm-1.298-5.164a3.8 3.8 0 0 0-.358-1.639 4.22 4.22 0 0 0-.964-1.336c-.415-.398-.904-.712-1.439-.924a4.67 4.67 0 0 0-1.765-.334 4.36 4.36 0 0 0-2.333.559 5.24 5.24 0 0 0-1.462 1.305 5.05 5.05 0 0 0-.777 1.421c-.118.304-.194.623-.226.947h9.324zm4.105 1.103c-.011-.944.164-1.88.513-2.757a6.56 6.56 0 0 1 1.408-2.174 6.33 6.33 0 0 1 2.177-1.421 7.39 7.39 0 0 1 2.776-.513c.943-.011 1.878.163 2.753.513a6.39 6.39 0 0 1 2.179 1.423c.621.619 1.107 1.358 1.429 2.173a7.76 7.76 0 0 1 0 5.506 6.41 6.41 0 0 1-1.431 2.174 6.51 6.51 0 0 1-2.177 1.429 7.21 7.21 0 0 1-2.753.505 7.38 7.38 0 0 1-2.776-.505 6.35 6.35 0 0 1-2.177-1.429 6.48 6.48 0 0 1-1.408-2.174c-.349-.874-.523-1.808-.513-2.749zm1.703 0a6.1 6.1 0 0 0 .35 2.073 4.78 4.78 0 0 0 1.032 1.711c.461.491 1.021.879 1.643 1.139.68.282 1.41.427 2.146.427a5.6 5.6 0 0 0 2.146-.427 5.02 5.02 0 0 0 1.641-1.142 4.81 4.81 0 0 0 1.027-1.693c.238-.665.359-1.367.357-2.074s-.118-1.408-.357-2.074c-.221-.632-.571-1.211-1.027-1.701a5.44 5.44 0 0 0-2.793-1.468 5.45 5.45 0 0 0-3.14.327 5.12 5.12 0 0 0-1.649 1.142 4.97 4.97 0 0 0-1.026 1.693 6.05 6.05 0 0 0-.35 2.073m14.41-2.849v-.893l-.046-1.056-.039-1.002c-.039-.311 0-.551 0-.722h1.703v1.413a4.24 4.24 0 0 0 .07.878 5.78 5.78 0 0 1 1.664-1.895 4.16 4.16 0 0 1 2.488-.777 2.64 2.64 0 0 1 .498.047c.155 0 .319.062.497.101l-.202 1.662a1.99 1.99 0 0 0-.669-.085 4.78 4.78 0 0 0-1.905.349 3.6 3.6 0 0 0-1.329.971c-.356.429-.621.926-.778 1.46-.175.579-.261 1.181-.257 1.786v7.121h-1.703l.008-9.358zm21.151 8.543a9.22 9.22 0 0 1-.708 3.93 6.3 6.3 0 0 1-1.765 2.33 5.91 5.91 0 0 1-2.278 1.103c-.721.175-1.459.269-2.201.28a10.77 10.77 0 0 1-1.944-.179 9.34 9.34 0 0 1-1.789-.536 7.42 7.42 0 0 1-1.555-.87 5.87 5.87 0 0 1-1.205-1.149l1.33-1.242a5.28 5.28 0 0 0 2.262 1.856 7.09 7.09 0 0 0 2.885.598 6.18 6.18 0 0 0 2.186-.342 4.25 4.25 0 0 0 1.469-.885c.373-.348.679-.761.902-1.219a5.93 5.93 0 0 0 .482-1.328 6.69 6.69 0 0 0 .187-1.25v-.963-1.856h-.062a5.12 5.12 0 0 1-1.991 1.864 6.08 6.08 0 0 1-2.955.683c-.93.004-1.853-.175-2.714-.528a6.92 6.92 0 0 1-3.717-3.565 6.39 6.39 0 0 1 0-5.196 6.62 6.62 0 0 1 1.501-2.12 7.35 7.35 0 0 1 2.216-1.445 6.94 6.94 0 0 1 2.714-.536c1.027-.021 2.042.213 2.955.683a5.12 5.12 0 0 1 1.991 1.864h.062V8.417h1.695l.047 12.224zm-1.641-5.84a5.04 5.04 0 0 0-.412-2.019 5.21 5.21 0 0 0-1.104-1.639 5.32 5.32 0 0 0-1.641-1.103c-.636-.272-1.322-.41-2.014-.404a5.12 5.12 0 0 0-2.03.404 5.45 5.45 0 0 0-1.633 1.103 5.18 5.18 0 0 0-1.096 1.639 5.15 5.15 0 0 0 0 4.038 5.18 5.18 0 0 0 1.096 1.639 5.32 5.32 0 0 0 1.633 1.103c.642.271 1.333.409 2.03.404.692.006 1.378-.132 2.014-.404 1.249-.536 2.236-1.544 2.745-2.803.275-.638.415-1.325.412-2.019m16.284 4.262c-.59.937-1.438 1.684-2.442 2.151-1.013.44-2.107.66-3.212.645-.931.014-1.857-.157-2.721-.505a6.16 6.16 0 0 1-2.095-1.441 6.14 6.14 0 0 1-1.334-2.163 7.91 7.91 0 0 1-.467-2.78 7.49 7.49 0 0 1 .482-2.71 6.52 6.52 0 0 1 1.353-2.159c.585-.61 1.285-1.099 2.061-1.437a6.47 6.47 0 0 1 2.636-.528 6.23 6.23 0 0 1 2.636.528c.721.314 1.369.774 1.905 1.35a5.73 5.73 0 0 1 1.206 1.997c.261.714.395 1.468.396 2.229v1.18h-10.98a5.89 5.89 0 0 0 .187 1.398 4.95 4.95 0 0 0 2.333 2.974 4.67 4.67 0 0 0 2.441.567 5.5 5.5 0 0 0 2.52-.621c.769-.377 1.416-.964 1.866-1.693l1.229 1.017zm-1.307-5.164a3.88 3.88 0 0 0-.35-1.639 4.28 4.28 0 0 0-.956-1.336c-.418-.398-.909-.712-1.446-.924-.562-.224-1.161-.338-1.766-.334a4.33 4.33 0 0 0-2.332.559c-.565.337-1.059.78-1.455 1.305a4.95 4.95 0 0 0-.777 1.421 3.96 3.96 0 0 0-.226.947h9.308z"/><use href="#C"/><path d="M206.227 12.098v-.893l-.038-1.056c-.039-.357-.001-.691-.047-1.002s0-.551 0-.722h1.703l.046 1.413c-.012.294.009.588.063.878h.085c.382-.763.969-1.406 1.695-1.856.829-.525 1.795-.796 2.777-.777.855-.03 1.706.134 2.488.481a4.03 4.03 0 0 1 1.508 1.258 4.75 4.75 0 0 1 .778 1.794c.141.687.211 1.387.21 2.089v7.766H215.8v-7.688c.002-.521-.045-1.041-.14-1.553a3.88 3.88 0 0 0-.498-1.344c-.238-.399-.579-.726-.987-.947a3.42 3.42 0 0 0-1.649-.349 4.85 4.85 0 0 0-1.773.326 3.81 3.81 0 0 0-1.438.986 4.87 4.87 0 0 0-.965 1.662c-.244.752-.362 1.539-.35 2.33v6.523h-1.695l-.078-9.319z"/><use href="#D"/><use href="#E"/><use href="#F"/><use href="#G"/><path d="M266.664 17.791v.893l.046 1.056c.047.357 0 .691 0 1.002v.722h-1.703l-.038-1.413c.007-.294-.017-.588-.07-.877h-.086c-.381.762-.968 1.403-1.695 1.848-.825.528-1.789.798-2.768.777-.861.035-1.718-.13-2.504-.481-.617-.277-1.153-.707-1.556-1.25a4.52 4.52 0 0 1-.777-1.794 11.62 11.62 0 0 1-.195-2.089V8.417h1.696v7.681c-.003.521.044 1.041.14 1.553.086.473.255.928.497 1.343a2.58 2.58 0 0 0 .988.947c.514.253 1.083.373 1.656.349a4.84 4.84 0 0 0 1.765-.326 3.75 3.75 0 0 0 1.439-.986c.428-.488.756-1.055.964-1.67a7.12 7.12 0 0 0 .358-2.33V8.456h1.687l.156 9.335z"/><use href="#H"/><path d="M290.171 19.002c-.592.943-1.449 1.692-2.465 2.151-1.01.439-2.102.659-3.204.645a7 7 0 0 1-2.721-.505 6.12 6.12 0 0 1-2.061-1.429c-.595-.624-1.053-1.364-1.345-2.174a7.91 7.91 0 0 1-.467-2.78c-.012-.926.152-1.845.482-2.71a6.52 6.52 0 0 1 1.353-2.159 6.4 6.4 0 0 1 2.061-1.437c.83-.357 1.725-.537 2.628-.528a6.27 6.27 0 0 1 2.644.528 5.75 5.75 0 0 1 1.903 1.351c.535.576.946 1.255 1.208 1.996.261.714.395 1.468.396 2.229v1.18h-10.964c.015.465.085.926.21 1.375.157.584.421 1.134.777 1.623a4.85 4.85 0 0 0 1.517 1.351 4.67 4.67 0 0 0 2.441.567 5.52 5.52 0 0 0 2.52-.621c.769-.375 1.414-.963 1.858-1.693l1.229 1.041zm-1.299-5.164c.005-.565-.115-1.124-.349-1.639-.23-.504-.558-.958-.965-1.336-.407-.393-.884-.707-1.407-.924a4.67 4.67 0 0 0-1.765-.334 4.38 4.38 0 0 0-2.333.559 5.18 5.18 0 0 0-1.454 1.305 5.3 5.3 0 0 0-.778 1.421c-.118.304-.194.623-.225.947h9.276z"/><use href="#I"/><use href="#J"/><use href="#K"/><use href="#L"/><use href="#M"/><path d="M90.479 45.624a4.39 4.39 0 0 1 .311-1.685 3.88 3.88 0 0 1 .871-1.336 3.73 3.73 0 0 1 1.33-.87 4.51 4.51 0 0 1 1.695-.311c.58-.008 1.156.098 1.695.311a3.89 3.89 0 0 1 1.33.87 4.04 4.04 0 0 1 .879 1.336c.414 1.085.414 2.285 0 3.37a3.96 3.96 0 0 1-.863 1.328 3.97 3.97 0 0 1-1.315.885 4.6 4.6 0 0 1-1.695.311 4.67 4.67 0 0 1-1.695-.311 3.89 3.89 0 0 1-1.33-.878 3.88 3.88 0 0 1-.871-1.336 4.39 4.39 0 0 1-.311-1.685m1.034 0a3.81 3.81 0 0 0 .218 1.274 3.03 3.03 0 0 0 .638 1.041 3.23 3.23 0 0 0 1.003.699 3.52 3.52 0 0 0 2.636 0c.379-.161.72-.399 1.002-.699a2.98 2.98 0 0 0 .638-1.041 3.97 3.97 0 0 0 0-2.547c-.141-.383-.358-.735-.638-1.033a2.93 2.93 0 0 0-1.003-.707 3.52 3.52 0 0 0-2.636 0 3 3 0 0 0-1.003.707c-.282.296-.5.648-.638 1.033a3.88 3.88 0 0 0-.218 1.274zm9.083-9.085h1.042v6.492c.159-.274.364-.518.607-.722a3.49 3.49 0 0 1 .777-.497 3.39 3.39 0 0 1 .887-.295 4.71 4.71 0 0 1 .917-.093c.58-.007 1.156.098 1.696.311.498.195.951.492 1.329.87.396.378.711.832.926 1.336a4.73 4.73 0 0 1 0 3.37 3.96 3.96 0 0 1-2.209 2.213 4.67 4.67 0 0 1-1.695.311 4.2 4.2 0 0 1-.917-.101 3.72 3.72 0 0 1-.887-.295c-.28-.131-.542-.298-.778-.497a2.75 2.75 0 0 1-.606-.722v1.406h-1.042l-.047-13.086zm.941 9.086a3.05 3.05 0 0 0 .257 1.274 3.22 3.22 0 0 0 .707 1.041 3.7 3.7 0 0 0 1.058.699 3.33 3.33 0 0 0 1.314.256 3.11 3.11 0 0 0 1.268-.231 3.12 3.12 0 0 0 1.065-.724c.278-.302.495-.656.638-1.041a3.98 3.98 0 0 0 0-2.547 3.04 3.04 0 0 0-.638-1.033 3.11 3.11 0 0 0-1.003-.707 3.28 3.28 0 0 0-1.322-.256 3.33 3.33 0 0 0-1.314.256 3.41 3.41 0 0 0-1.058.707 3.19 3.19 0 0 0-.964 2.33m15.482.621v1.056.87c0 .264 0 .513.047.777s0 .458.078.691h-.941a8.17 8.17 0 0 1-.101-1.297h-.039a2.87 2.87 0 0 1-1.112 1.142 3.56 3.56 0 0 1-1.695.365 4.12 4.12 0 0 1-1.019-.132 2.6 2.6 0 0 1-.902-.419 2.1 2.1 0 0 1-.688-.796c-.158-.319-.231-.674-.214-1.029a2.13 2.13 0 0 1 .466-1.452 3.07 3.07 0 0 1 1.159-.777 5.17 5.17 0 0 1 1.454-.342 12.89 12.89 0 0 1 1.361-.078h1.213v-.489a1.68 1.68 0 0 0-.645-1.483 2.71 2.71 0 0 0-1.61-.45 3.65 3.65 0 0 0-2.449.901l-.599-.714a3.71 3.71 0 0 1 1.415-.839 5.23 5.23 0 0 1 1.633-.279c.832-.043 1.653.195 2.333.676a2.66 2.66 0 0 1 .691 1.001c.15.382.209.795.172 1.204l-.008 1.895zm-2.076-.652c-.427 0-.853.029-1.275.085a4.33 4.33 0 0 0-1.112.295c-.301.118-.567.307-.778.551a1.4 1.4 0 0 0-.132 1.553 1.34 1.34 0 0 0 .42.466c.175.12.375.218.583.279s.432.094.653.093c.468.017.935-.065 1.369-.241a2.43 2.43 0 0 0 .863-.629c.209-.259.358-.562.435-.885a4.27 4.27 0 0 0 .125-.994v-.536l-1.151-.039z"/><use href="#M" x="31.906"/><use href="#N"/><use href="#O"/><path d="M154.212 46.269v1.056.87.777c0 .264.047.458.086.691h-.972c-.072-.428-.105-.863-.101-1.297h-.039a2.87 2.87 0 0 1-1.112 1.142 3.56 3.56 0 0 1-1.695.365 4.12 4.12 0 0 1-1.019-.132 2.6 2.6 0 0 1-.902-.419c-.27-.191-.493-.441-.653-.73-.173-.339-.259-.715-.249-1.095-.029-.525.137-1.042.466-1.452.319-.344.713-.61 1.151-.777a5.3 5.3 0 0 1 1.455-.342c.451-.05.906-.075 1.36-.078h1.213v-.489a1.67 1.67 0 0 0-.128-.823 1.68 1.68 0 0 0-.509-.66 2.72 2.72 0 0 0-1.61-.45 3.65 3.65 0 0 0-2.449.901l-.607-.715a3.89 3.89 0 0 1 1.423-.839 5.23 5.23 0 0 1 1.633-.28c.832-.046 1.655.192 2.333.676a2.64 2.64 0 0 1 .871 2.206l.054 1.895zm-2.084-.652a9.7 9.7 0 0 0-1.275.085c-.38.048-.751.148-1.104.295a2.07 2.07 0 0 0-.778.551c-.197.243-.299.55-.288.862-.005.228.052.453.164.652.101.186.245.346.42.466s.375.218.583.279.432.094.653.093a3.35 3.35 0 0 0 1.369-.241 2.34 2.34 0 0 0 .855-.629 2.38 2.38 0 0 0 .443-.885c.078-.326.117-.659.117-.994v-.536h-1.159z"/><use href="#P"/><path d="M164.003 42.564h-2.271v5.203a1.11 1.11 0 0 0 .061.446c.051.143.131.274.235.385a1.06 1.06 0 0 0 .359.227c.133.051.276.074.418.069a2.33 2.33 0 0 0 .599-.078c.199-.052.393-.117.583-.194l.086.932a5.51 5.51 0 0 1-.677.186 2.92 2.92 0 0 1-.676.093c-.327.009-.653-.049-.957-.171a1.75 1.75 0 0 1-.637-.435 1.78 1.78 0 0 1-.358-.652c-.07-.253-.107-.514-.109-.777v-5.203h-1.734v-.986h1.734v-2.33h1.073v2.33h2.286l-.015.955z"/><use href="#Q"/><path opacity=".5" d="M13.262 20.455s.599-2.532 3.802-7.432c3.888-5.894-5.202-13-5.202-13s2.333 4.031-1.594 9.001c-1.859 4.31 2.994 11.432 2.994 11.432z"/><path d="M13.262 20.455s-.404-1.794 3.056-7.859S11.893.022 11.893.022s.498 1.841-3.033 7.851 4.401 12.581 4.401 12.581zm.513 29.2L.237 21.852l10.677 8.185 2.862 19.617z"/><path opacity=".5" d="M15.688 26.667L.237 21.852l10.677 8.185 4.775-3.37z"/><path opacity=".8" d="M10.914 30.038l28.033-19.795-25.171 39.412-2.862-19.617z"/></g><defs ><path id="B" d="M56.575 3.167h-6.843V1.474h15.552v1.693h-6.843v18.297h-1.866V3.167z"/><path id="C" d="M202.246 1.474h-1.866v19.99h1.866V1.474z"/><path id="D" d="M221.15 18.133a3.65 3.65 0 0 0 1.555 1.553 4.67 4.67 0 0 0 2.201.551 3.49 3.49 0 0 0 1.081-.171 3.26 3.26 0 0 0 .956-.481 2.53 2.53 0 0 0 .692-.777 1.87 1.87 0 0 0 .272-1.002 1.62 1.62 0 0 0-.583-1.359 4.35 4.35 0 0 0-1.423-.699 17.1 17.1 0 0 0-1.874-.443c-.639-.114-1.263-.301-1.858-.559-.55-.245-1.039-.608-1.431-1.064a2.84 2.84 0 0 1-.576-1.918c-.014-.581.123-1.156.397-1.67a3.6 3.6 0 0 1 1.05-1.103 4.44 4.44 0 0 1 1.43-.691 5.65 5.65 0 0 1 1.61-.233c.962-.023 1.916.182 2.784.598.795.407 1.437 1.061 1.827 1.864l-1.555.901a3.57 3.57 0 0 0-1.197-1.367 3.41 3.41 0 0 0-1.882-.466c-.321.002-.641.049-.949.14s-.612.221-.886.396c-.263.169-.49.388-.669.645-.181.268-.273.586-.265.909a1.5 1.5 0 0 0 .126.72c.1.226.255.424.45.577.434.304.918.527 1.431.66a15.86 15.86 0 0 0 1.866.412 7.68 7.68 0 0 1 1.866.551c.557.25 1.048.628 1.431 1.103a3.23 3.23 0 0 1 .576 2.042 3.94 3.94 0 0 1-.381 1.771c-.251.491-.61.918-1.05 1.25a4.67 4.67 0 0 1-1.556.777c-.576.167-1.173.25-1.772.248a7.31 7.31 0 0 1-3.111-.645c-.919-.417-1.677-1.12-2.162-2.004l1.579-1.017z"/><path id="E" d="M239.121 9.939h-3.733v8.543c-.015.246.02.493.103.725a1.84 1.84 0 0 0 .379.627 1.8 1.8 0 0 0 1.322.481 3.89 3.89 0 0 0 .98-.124c.324-.083.642-.192.949-.326l.14 1.553c-.359.127-.725.23-1.097.311a5.16 5.16 0 0 1-1.104.14c-.531.015-1.059-.075-1.555-.264a2.74 2.74 0 0 1-1.05-.722c-.267-.307-.466-.667-.583-1.056-.121-.427-.181-.869-.179-1.312V9.97h-2.831V8.417h2.831V4.666h1.695v3.751h3.733v1.522z"/><path id="F" d="M241.049 3.253c-.003-.168.028-.335.091-.491a1.24 1.24 0 0 1 .688-.692c.155-.063.321-.094.489-.091a1.25 1.25 0 0 1 .491.09c.156.063.298.157.417.275a1.25 1.25 0 0 1 .367.908 1.26 1.26 0 0 1-.067.517 1.27 1.27 0 0 1-.268.447c-.12.129-.264.232-.426.302s-.335.107-.511.107-.349-.036-.51-.107-.306-.173-.426-.302a1.27 1.27 0 0 1-.268-.447 1.26 1.26 0 0 1-.067-.517zm.428 5.164h1.695v13.047h-1.734l.039-13.047z"/><path id="G" d="M253.436 9.939h-3.733v8.543c-.025.245.005.492.087.724s.214.443.387.619.383.31.614.395.479.117.724.095a3.89 3.89 0 0 0 .972-.124c.325-.084.642-.193.949-.326l.14 1.553a9.18 9.18 0 0 1-1.104.311 5.11 5.11 0 0 1-1.097.14c-.53.013-1.058-.076-1.555-.264a2.78 2.78 0 0 1-1.042-.722c-.267-.307-.466-.667-.583-1.056-.121-.427-.181-.869-.179-1.312V9.97h-2.83V8.417h2.861V4.666h1.695v3.751h3.733l-.039 1.522z"/><path id="H" d="M276.92 9.939h-3.732v8.543c-.026.245.002.492.083.724s.212.444.385.619a1.66 1.66 0 0 0 .613.395c.231.085.478.117.723.095a3.89 3.89 0 0 0 .98-.124c.324-.085.641-.194.948-.326l.14 1.553a9.18 9.18 0 0 1-1.104.311c-.362.087-.732.134-1.104.14-.531.016-1.06-.074-1.555-.264a2.74 2.74 0 0 1-1.05-.722c-.267-.307-.466-.667-.583-1.056a4.45 4.45 0 0 1-.179-1.312V9.97h-2.831V8.417h2.831V4.666h1.695v3.751h3.733l.007 1.522z"/><path id="I" d="M51.373 42.564h-1.664v-.955h1.664v-2.594c-.015-.441.065-.881.233-1.289a2.43 2.43 0 0 1 .575-.823c.223-.204.488-.355.778-.443a2.78 2.78 0 0 1 .778-.132c.41-.015.818.057 1.197.21l-.21.901c-.294-.128-.613-.186-.933-.171-.933 0-1.407.707-1.407 2.128v2.213h1.874v.94h-1.851v7.059h-1.034v-7.044z"/><path id="J" d="M54.841 45.624c-.007-.576.096-1.148.303-1.685a4.14 4.14 0 0 1 .871-1.336c.38-.38.835-.677 1.337-.87a4.78 4.78 0 0 1 3.39 0 3.95 3.95 0 0 1 1.33.87 4.04 4.04 0 0 1 .902 1.336c.414 1.085.414 2.285 0 3.371a4.04 4.04 0 0 1-.879 1.336 4.09 4.09 0 0 1-1.33.878 4.78 4.78 0 0 1-3.39 0c-.501-.199-.956-.497-1.337-.878a4.14 4.14 0 0 1-.871-1.336 4.55 4.55 0 0 1-.303-1.685m1.034 0a3.81 3.81 0 0 0 .218 1.274c.14.387.357.741.638 1.041a3.11 3.11 0 0 0 1.003.699 3.26 3.26 0 0 0 1.322.256c.434.012.866-.066 1.268-.231s.765-.411 1.065-.724c.281-.299.496-.653.63-1.041a3.83 3.83 0 0 0 0-2.547 2.8 2.8 0 0 0-.63-1.033 3.11 3.11 0 0 0-1.003-.707 3.31 3.31 0 0 0-1.322-.225c-.454-.007-.904.08-1.322.256a3.04 3.04 0 0 0-.999.702c-.282.299-.5.652-.642 1.038-.143.409-.217.84-.218 1.274"/><path id="K" d="M65.075 43.877v-.544-.652-.614-.443h1.034v.87a2.45 2.45 0 0 0 0 .536c.252-.459.602-.857 1.026-1.165a2.56 2.56 0 0 1 1.555-.443c.101-.008.202-.008.303 0l.296.062-.117 1.017a1.25 1.25 0 0 0-.397-.07c-.4-.011-.797.063-1.166.217-.302.137-.568.341-.778.598-.219.262-.383.566-.482.893-.104.356-.156.724-.156 1.095V49.6h-1.12v-5.723z"/><path id="L" d="M84.904 48.824c-.694.396-1.444.687-2.224.862-.767.163-1.549.247-2.333.248a6.75 6.75 0 0 1-2.574-.474c-.754-.298-1.435-.753-1.998-1.336-.569-.584-1.011-1.28-1.299-2.042-.323-.824-.484-1.702-.474-2.586a6.8 6.8 0 0 1 .474-2.578c.29-.76.732-1.452 1.299-2.035a5.81 5.81 0 0 1 1.975-1.343 6.75 6.75 0 0 1 2.574-.481c.814-.036 1.627.096 2.388.388a5.95 5.95 0 0 1 2.036 1.305l-.832.87c-.196-.237-.427-.444-.684-.614-.275-.198-.572-.362-.886-.489-.32-.131-.65-.235-.987-.311s-.681-.11-1.026-.109c-.741-.014-1.478.126-2.162.412a4.91 4.91 0 0 0-1.633 1.142c-.459.497-.813 1.081-1.042 1.716-.487 1.377-.487 2.879 0 4.256a5.06 5.06 0 0 0 1.042 1.716c.46.488 1.016.877 1.633 1.142.684.285 1.421.425 2.162.412.62.006 1.24-.046 1.851-.155a4.78 4.78 0 0 0 1.555-.567v-4.124H80.86v-1.033h4.082l-.039 5.809z"/><path id="M" d="M88.535 36.538h-1.034v13.086h1.034V36.538z"/><path id="N" d="M127.331 37.369h1.135v5.397h6.866v-5.397h1.143v12.255h-1.143v-5.817h-6.866v5.817h-1.135V37.369z"/><path id="O" d="M146.087 48.117c-.351.569-.859 1.024-1.462 1.313a4.82 4.82 0 0 1-1.968.404c-.572.006-1.14-.1-1.672-.311-.479-.204-.913-.503-1.275-.878a3.78 3.78 0 0 1-.824-1.336c-.199-.545-.296-1.121-.288-1.701a4.6 4.6 0 0 1 .296-1.662 4.08 4.08 0 0 1 .832-1.328c.357-.373.785-.672 1.259-.877.511-.22 1.062-.329 1.618-.318a3.78 3.78 0 0 1 1.617.318c.448.198.851.486 1.182.846.319.348.562.758.716 1.204.162.438.247.9.249 1.367v.722h-6.727c.008.286.049.57.125.846.101.357.264.694.482.994a3.11 3.11 0 0 0 .925.831c.461.244.979.362 1.501.342a3.31 3.31 0 0 0 1.555-.38c.472-.228.869-.586 1.143-1.033l.716.637zm-.778-3.168c.005-.345-.066-.687-.21-1.002-.294-.632-.82-1.127-1.47-1.382a2.85 2.85 0 0 0-1.088-.21 2.73 2.73 0 0 0-1.416.342c-.341.201-.642.465-.886.777a2.91 2.91 0 0 0-.467.87c-.074.186-.122.383-.14.582l5.677.023z"/><path id="P" d="M157.604 36.538h-1.042v13.086h1.042V36.538z"/><path id="Q" d="M165.426 36.538h1.034v6.492c.23-.468.589-.861 1.034-1.134.509-.322 1.101-.487 1.703-.474a3.47 3.47 0 0 1 1.556.287 2.55 2.55 0 0 1 .925.777c.232.328.393.701.474 1.095a6.34 6.34 0 0 1 .125 1.281v4.76h-1.042v-4.706a4.78 4.78 0 0 0-.086-.947 2.43 2.43 0 0 0-.303-.823 1.49 1.49 0 0 0-.607-.575 2.03 2.03 0 0 0-1.011-.217 2.93 2.93 0 0 0-1.08.194 2.44 2.44 0 0 0-.887.606 3 3 0 0 0-.591 1.025 4.27 4.27 0 0 0-.218 1.445v3.999h-1.034l.008-13.086z"/></defs></svg>