<svg xmlns="http://www.w3.org/2000/svg">
  <symbol id="magnifier" viewBox="0 0 20 20">
    <path d="M8.5,17C3.81,17,0,13.19,0,8.5S3.81,0,8.5,0s8.5,3.81,8.5,8.5-3.81,8.5-8.5,8.5ZM8.5,2c-3.58,0-6.5,2.92-6.5,6.5s2.92,6.5,6.5,6.5,6.5-2.92,6.5-6.5-2.92-6.5-6.5-6.5Z"></path>
    <path d="M19,20c-.26,0-.51-.1-.71-.29l-5.2-5.2c-.39-.39-.39-1.02,0-1.41s1.02-.39,1.41,0l5.2,5.2c.39.39.39,1.02,0,1.41-.2.2-.45.29-.71.29Z"></path>
  </symbol>
  <symbol id="arrow" viewBox="0 0 12 10">
    <path d="M11.49 6.5H.5C.22 6.5 0 6.28 0 6s.22-.5.5-.5h10.99c.28 0 .5.22.5.5s-.22.5-.5.5z"></path>
    <path d="M6.99 11a.47.47 0 0 1-.35-.15c-.2-.2-.2-.51 0-.71l4.15-4.15-4.15-4.13c-.2-.2-.2-.51 0-.71s.51-.2.71 0l4.5 4.5c.2.2.2.51 0 .71l-4.5 4.5c-.1.1-.23.15-.35.15h0z"></path>
  </symbol>
  <symbol id="facebook" viewBox="0 0 24 24">
    <path d="M14 13.5h2.5l1-4H14v-2c0-1.03 0-2 2-2h1.5V2.14c-.326-.043-1.557-.14-2.857-.14C11.928 2 10 3.657 10 6.7v2.8H7v4h3V22h4v-8.5z"></path>
  </symbol>
  <symbol id="twitter" viewBox="0 0 24 24">
    <path d="M17.812 3h2.884l-6.3 7.201L21.807 20h-5.804l-4.546-5.943L6.256 20H3.371l6.739-7.702L3 3h5.95l4.109 5.432L17.81 3h.002zM16.8 18.274h1.598L8.083 4.635H6.368L16.8 18.274z"></path>
  </symbol>
  <symbol id="linkedin" viewBox="0 0 24 24">
    <path d="M6.94 5a2 2 0 0 1-2.001 1.999A2 2 0 0 1 2.94 4.998a2 2 0 0 1 2.001-1.999A2 2 0 0 1 6.94 5zM7 8.48H3V21h4V8.48zm6.32 0H9.34V21h3.94v-6.57c0-3.66 4.77-4 4.77 0V21H22v-7.93c0-6.17-7.06-5.94-8.72-2.91l.04-1.68z"></path>
  </symbol>
  <symbol id="youtube" viewBox="0 0 24 24">
    <path d="M21.968 6.518A2.25 2.25 0 0 0 20.61 4.98C17.396 3.739 12.281 3.75 12 3.75s-5.396-.011-8.61 1.23a2.25 2.25 0 0 0-1.358 1.537C1.789 7.453 1.5 9.163 1.5 12s.289 4.547.532 5.483a2.25 2.25 0 0 0 1.358 1.538c3.079 1.188 7.897 1.229 8.548 1.229h.124c.651 0 5.472-.041 8.548-1.229a2.25 2.25 0 0 0 1.358-1.538c.243-.937.532-2.646.532-5.483s-.289-4.547-.532-5.482zm-6.913 6.094l-3.75 2.625a.75.75 0 0 1-.775.052.75.75 0 0 1-.405-.663v-5.25a.75.75 0 0 1 .404-.665.75.75 0 0 1 .776.051l3.75 2.625a.75.75 0 0 1 .319.614.75.75 0 0 1-.319.614v-.003z"></path>
  </symbol>
</svg>