<svg xmlns="http://www.w3.org/2000/svg">
  <symbol id="l1" viewBox="0 0 80 10">
    <path d="M30.2 10c-4 0-8-1.4-10.7-4.1-4.3-4.3-13.3-4.3-17.7 0L0 4c5.4-5.4 16-5.4 21.4.1 4.4 4.4 13.3 4.4 17.7 0 5.4-5.4 16-5.4 21.4 0 4.4 4.4 13.3 4.4 17.7 0L80 6c-5.4 5.4-16 5.4-21.4 0-4.4-4.4-13.3-4.4-17.7 0-2.7 2.7-6.7 4.1-10.7 4.1z"></path>
  </symbol>
  <symbol id="l2" viewBox="0 0 474 48">
    <path d="M7.4 0c38.3 1.9 76.8 2.3 115.2 3.2l118.6 4.4 114.1 5.7c36.7 2.1 73.5 5.9 110.4 6.9 11 .3 11.1 7.6 0 7.4-37.7-.9-75-4.8-112.4-6.9l-114.2-5.6-116.6-4.2L5.3 6.4C-2.9 5.8-1.1-.4 7.4 0m101.3 22.6c36.4-.2 70.7 3.4 105.7 7.3l108.7 11.3c10.3 1 5.8 7.5-4.3 6.7l-108-9.2-104.2-9.6c-8.9-.6-6.4-6.5 2.1-6.5"></path>
  </symbol>
  <symbol id="l3" viewBox="0 0 540 112">
    <path d="M0 52.5c0-35 10.4-45.3 22.6-46.4 13.7-1.3 27.4-4.3 41-3.6C114.1 5.4 329-.6 362.7 2.2c19.7 1.6 44.5-3.5 64.2-1.9 30.5 2.6 55.2.9 85.6 6 3.6.6 17.7 4.5 21 7.8 7.8 7.7 6.9 21 5.7 44.1-1.2 22.5-3.5 36.2-14.3 41.2-13.9 6.5-214.7 10.3-239.6 11.8-28 1.7-58.9.8-86.9-1.8C56.3 106.7-2.2 125.3 0 52.5"></path>
  </symbol>
</svg>