<svg xmlns="http://www.w3.org/2000/svg">
  <symbol id="linkedin" viewBox="0 0 32 32">
    <path d="M28.1 0C30.2 0 32 1.8 32 3.9v24.2c0 2.2-1.8 3.9-3.9 3.9H3.9C1.8 32 0 30.2 0 28.1V3.9C0 1.8 1.8 0 3.9 0h24.2 0zM10 26.5V12.3H5.3v14.1H10zm16.9 0v-8.1c0-4.3-2.3-6.3-5.4-6.3-2.5 0-3.6 1.4-4.2 2.3v-2h-4.7c.1 1.3 0 14.1 0 14.1h4.7v-7.9c0-.4 0-.8.2-1.1.3-.8 1.1-1.7 2.4-1.7 1.7 0 2.4 1.3 2.4 3.2v7.5h4.6 0zM7.7 5.5C6.1 5.5 5.1 6.6 5.1 8s1 2.4 2.6 2.4h0c1.6 0 2.7-1.1 2.7-2.4-.1-1.4-1.1-2.5-2.7-2.5z"></path>
  </symbol>
  <symbol id="twitter" viewBox="0 0 32 32">
    <path d="M28.1 0C30.2 0 32 1.8 32 3.9v24.2c0 2.2-1.8 3.9-3.9 3.9H3.9C1.8 32 0 30.2 0 28.1V3.9C0 1.8 1.8 0 3.9 0h24.2 0zM12.2 26.5c8.5 0 13.1-7 13.1-13.1v-.6c.9-.7 1.7-1.5 2.3-2.4-.8.4-1.7.6-2.7.7 1-.6 1.7-1.5 2-2.6-.9.5-1.9.9-2.9 1.1-.8-.9-2-1.5-3.4-1.5-2.5 0-4.6 2.1-4.6 4.6 0 .4 0 .7.1 1.1A13.16 13.16 0 0 1 6.6 9c-.4.7-.6 1.5-.6 2.3 0 1.6.8 3 2.1 3.8-.8 0-1.5-.2-2.1-.6v.1c0 2.2 1.6 4.1 3.7 4.5-.4.1-.8.2-1.2.2-.3 0-.6 0-.9-.1.6 1.8 2.3 3.2 4.3 3.2-1.6 1.2-3.6 2-5.7 2-.4 0-.7 0-1.1-.1 2.1 1.5 4.5 2.2 7.1 2.2h0z"></path>
  </symbol>
  <symbol id="facebook" viewBox="0 0 32 32">
    <path d="M17.1 32H1.8A1.79 1.79 0 0 1 0 30.2V1.8A1.79 1.79 0 0 1 1.8 0h28.5a1.79 1.79 0 0 1 1.8 1.8v28.5a1.79 1.79 0 0 1-1.8 1.8h-8.2V19.6h4.2l.6-4.8h-4.8v-3.1c0-1.4.4-2.3 2.4-2.3H27V5c-.4 0-1.9-.2-3.7-.2-3.7 0-6.2 2.2-6.2 6.4v3.5h-4.2v4.8h4.2V32z"></path>
  </symbol>
  <symbol id="instagram" viewBox="0 0 32 32">
    <path d="M28.8 0H3.2C1.43 0 0 1.43 0 3.2v25.6C0 30.57 1.43 32 3.2 32h25.6c1.77 0 3.2-1.43 3.2-3.2h0V3.2C32 1.43 30.57 0 28.8 0m-.98 20.9v.02c-.05.99-.26 1.96-.62 2.88-.63 1.55-1.86 2.78-3.4 3.41a9.27 9.27 0 0 1-2.9.56h-9.8a9.27 9.27 0 0 1-2.9-.56c-1.56-.6-2.8-1.84-3.41-3.41a8.71 8.71 0 0 1-.54-2.9v-9.8a8.97 8.97 0 0 1 .54-2.9 5.53 5.53 0 0 1 1.38-2.1c.58-.58 1.27-1.02 2.03-1.31a9.27 9.27 0 0 1 2.9-.56h9.79a9.27 9.27 0 0 1 2.9.56 5.53 5.53 0 0 1 2.1 1.38c.58.57 1.03 1.27 1.31 2.03a9.27 9.27 0 0 1 .56 2.9v4.89l.06 4.9m-9.01-7.69c-1.55-1.54-4.06-1.54-5.6.01s-1.54 4.06.01 5.6 4.06 1.54 5.6-.01c1.13-1.13 1.47-2.84.85-4.32a3.85 3.85 0 0 0-.86-1.28m6.45-4.19c-.38-1.05-1.21-1.87-2.26-2.26-.71-.25-1.46-.37-2.21-.35h-9.6c-.75 0-1.5.15-2.21.42a3.84 3.84 0 0 0-2.26 2.17c-.23.71-.35 1.46-.34 2.21v9.6a6.98 6.98 0 0 0 .42 2.21c.38 1.05 1.21 1.87 2.26 2.26a7.01 7.01 0 0 0 2.13.42h9.6c.75 0 1.5-.15 2.21-.42 1.05-.38 1.87-1.21 2.26-2.26a6.42 6.42 0 0 0 .42-2.21v-9.6c0-.76-.14-1.5-.42-2.21v.02zm-3.6 9.34c-1.3 3.11-4.88 4.59-7.99 3.29s-4.59-4.88-3.29-7.99 4.88-4.59 7.99-3.29a6.1 6.1 0 0 1 3.64 4.46 6.09 6.09 0 0 1-.36 3.53m1.67-7.73c-.24.26-.56.43-.92.47-.79-.08-1.36-.79-1.28-1.58.07-.68.61-1.21 1.28-1.28.79.08 1.36.79 1.28 1.58a1.43 1.43 0 0 1-.36.81"></path>
  </symbol>
  <symbol id="email" viewBox="0 0 30 24">
    <path d="M26 0H4C1.8 0 0 1.7 0 3.8v16.4C0 22.3 1.8 24 4 24h22c2.2 0 4-1.7 4-3.8V3.8C30 1.7 28.2 0 26 0m1.8 4.4l-8 7.7 7.6 8.2c.4.4.4 1 0 1.4a1.09 1.09 0 0 1-1.5 0l-7.5-8.1-1.2 1.1a2.84 2.84 0 0 1-4 0l-1.1-1-7.5 8c-.4.4-1 .5-1.5.1-.4-.4-.5-1-.1-1.4l7.5-8.1-8-7.9c-.4-.4-.4-1 0-1.4s1-.4 1.4 0l10.6 10.2c.3.3.8.3 1.1 0L26.3 3a1.09 1.09 0 0 1 1.5 0c.4.5.4 1.1 0 1.4"></path>
  </symbol>
  <symbol id="link" viewBox="0 0 20 10">
    <path d="M1.9 5c0-1.7 1.4-3.1 3.1-3.1h4V0H5C2.2 0 0 2.2 0 5s2.2 5 5 5h4V8.1H5C3.3 8.1 1.9 6.7 1.9 5zM6 6h8V4H6v2zm9-6h-4v1.9h4c1.7 0 3.1 1.4 3.1 3.1S16.7 8.1 15 8.1h-4V10h4c2.8 0 5-2.2 5-5s-2.2-5-5-5z"></path>
  </symbol>
  <symbol id="search" viewBox="0 0 24 24">
    <path d="M24 22l-6.2-6.3c1.2-1.6 1.9-3.6 1.9-5.8 0-5.4-4.4-9.9-9.8-9.9S0 4.3 0 9.8s4.4 9.9 9.8 9.9c2.2 0 4.2-.7 5.8-1.9l6.2 6.3L24 22zM9.8 16.7c-3.7 0-6.8-3-6.8-6.9s3-7 6.8-7 6.8 3 6.8 6.9-3 7-6.8 7z"></path>
  </symbol>
  <symbol id="accessibility" viewBox="0 0 24 24">
    <path d="M12.1 17.5c-3.3 0-6-2.8-6-6.2s2.7-6.2 6-6.2 6 2.8 6 6.2c-.1 3.4-2.7 6.2-6 6.2zm0-11.4C9.3 6.1 7 8.5 7 11.3s2.3 5.2 5.1 5.2 5.1-2.4 5.1-5.2-2.3-5.2-5.1-5.2z"></path>
    <path d="M12.1 8.5c-1.5 0-2.7 1.3-2.7 2.8 0 1.6 1.2 2.8 2.7 2.8s2.7-1.3 2.7-2.8h0c0-1.5-1.2-2.8-2.7-2.8m.6 2.6c-.3 0-.6-.3-.6-.7s.3-.7.6-.7.6.3.6.7-.3.7-.6.7h0"></path>
    <path d="M.4 12.4c-.1 0-.2 0-.3-.1-.2-.1-.2-.4-.1-.6.2-.3 4.7-6.6 12.1-6.6 4.7.1 9.1 2.5 11.7 6.5.1.2.1.5-.1.6s-.5.1-.6-.1c-2.5-3.7-6.6-6-11-6.1C5.3 6 .8 12.2.8 12.2c-.1.1-.2.2-.4.2z"></path>
    <path d="M14.1 20.5c-.2 0-.4-.1-.4-.4-.1-.2.1-.5.3-.5 5.8-1.3 9.1-7.9 9.1-7.9.1-.2.4-.3.6-.2s.3.4.2.6c-.1.3-3.4 7.1-9.8 8.4h0z"></path>
    <path d="M14.5 22c-.2 0-.3-.1-.4-.2L3.9 2.7c-.1-.2 0-.5.2-.6s.5 0 .6.2l10.2 19.1c.1.2 0 .5-.2.6h-.2zm-4-1.9c.2-.1.3-.4.2-.6l-6-11.1c-.2-.3-.5-.4-.7-.2-.2.1-.3.4-.1.6l6 11.1c.1.1.2.2.4.2h.2zm-2.8-.3c.2-.1.3-.4.2-.6L2.7 9.8c-.2-.2-.4-.3-.6-.2-.3.1-.3.4-.2.6l5.2 9.4c.1.1.2.2.4.2 0 .1.1.1.2 0z"></path>
  </symbol>
  <symbol id="contact" viewBox="0 0 24 24">
    <path d="M0 24V6h7.2V0H24v18.6l-4.2-4.1h-3v6H6.1L0 24zM1.8 7.8v13.1l3.8-2.2H15v-4.2H7.2V7.8H1.8zM9 12.7h11.6l1.6 1.5V1.8H9v10.9z"></path>
  </symbol>
  <symbol id="prev" viewBox="0 0 32 32">
    <path d="M17.9 25l-8.7-9 1.3-1.4 8.7 9z"></path>
    <path d="M19.2 8.4l-8.7 9L9.2 16l8.7-9z"></path>
  </symbol>
  <symbol id="next" viewBox="0 0 32 32">
    <path d="M12.8 23.6l8.7-9 1.3 1.4-8.7 9z"></path>
    <path d="M14.1 7l8.7 9-1.3 1.4-8.7-9z"></path>
  </symbol>
  <symbol id="right" viewBox="0 0 10 18">
    <path d="M0 16.6l8.7-9L10 9l-8.7 9z"></path>
    <path d="M1.3 0L10 9l-1.3 1.4-8.7-9z"></path>
  </symbol>
  <symbol id="upload" viewBox="0 0 20 20">
    <path d="M17.2 20H2.8C1.3 20 0 18.7 0 17.2v-4.1c0-.4.3-.8.8-.8s.8.3.8.8v4.1c0 .7.6 1.3 1.3 1.3h14.4c.7 0 1.3-.6 1.3-1.3v-4.1c0-.4.3-.8.8-.8.4 0 .8.3.8.8v4.1c-.2 1.5-1.5 2.8-3 2.8zM5.4 6.4L10 1.9l4.6 4.6c.3.3.8.3 1.1 0s.3-.8 0-1.1L10.6.3c-.3-.3-.8-.3-1.1 0L4.3 5.4c-.3.3-.3.7 0 1 .2.2.3.2.5.2s.5 0 .6-.2z"></path>
    <path d="M10 13.8c-.4 0-.8-.3-.8-.8V.8c0-.5.4-.8.8-.8s.8.3.8.8v12.3c0 .4-.4.7-.8.7z"></path>
  </symbol>
  <symbol id="menu" viewBox="0 0 16 12">
    <path d="M0 12h16v-2H0v2h0zm0-5h16V5H0v2h0zm0-7v2h16V0H0h0z"></path>
  </symbol>
  <symbol id="close" viewBox="0 0 14 14">
    <path d="M14 1.4L12.6 0L7 5.6L1.4 0L0 1.4L5.6 7L0 12.6L1.4 14L7 8.4l5.6 5.6l1.4-1.4L8.4 7L14 1.4z"></path>
  </symbol>
  <symbol id="plus" viewBox="0 0 25 25">
    <path d="M0 11h25v3H0z"></path>
    <path d="M11 0h3v25h-3z"></path>
  </symbol>
  <symbol id="minus" viewBox="0 0 25 25">
    <path d="M0 11h25v3H0z"></path>
  </symbol>
  <symbol id="share" viewBox="0 0 24 24">
    <path d="M20 17c-1 0-1.9.3-2.6.9l-9.5-5c.1-.3.1-.6.1-.9s0-.6-.1-.8l9.4-5c1.6 1.4 4.1 1.3 5.6-.2s1.4-3.7-.2-5.1-4.1-1.3-5.6.2c-.7.7-1.1 1.6-1.1 2.5 0 .3 0 .6.1.8l-9.4 5C5.1 8 2.6 8.1 1.1 9.6s-1.4 3.7.2 5.1c1.5 1.3 3.9 1.3 5.5 0l9.5 5c-.1.3-.1.5-.1.8 0 1.9 1.7 3.5 3.9 3.5s3.9-1.6 3.9-3.5-1.8-3.5-4-3.5h0zm0-14.6c.7 0 1.3.5 1.3 1.2s-.5 1.2-1.3 1.2c-.7 0-1.3-.5-1.3-1.2s.6-1.2 1.3-1.2zM4 13.3c-.7 0-1.3-.5-1.3-1.2s.6-1.2 1.3-1.2 1.3.5 1.3 1.2c0 .6-.5 1.2-1.3 1.2zm16 8.4c-.7 0-1.3-.5-1.3-1.2s.6-1.2 1.3-1.2 1.3.5 1.3 1.2c.1.7-.5 1.2-1.3 1.2z"></path>
  </symbol>
  <symbol id="print" viewBox="0 0 24 24">
    <path d="M18.8 9.4c-.5 0-.8-.4-.8-.8V1.5H6v7.1c0 .4-.3.8-.8.8s-.7-.4-.7-.8V.7a.68.68 0 0 1 .7-.7h13.5a.68.68 0 0 1 .7.7v7.9c.1.4-.2.8-.6.8z"></path>
    <path d="M21 19.5h-2.3a.68.68 0 0 1-.7-.7.68.68 0 0 1 .7-.7H21a1.54 1.54 0 0 0 1.5-1.5V11A1.54 1.54 0 0 0 21 9.5H3A1.54 1.54 0 0 0 1.5 11v5.6c0 .7.7 1.4 1.5 1.4h2.3c.4 0 .7.3.7.8a.68.68 0 0 1-.7.7H3a3.01 3.01 0 0 1-3-3v-5.6a3.01 3.01 0 0 1 3-3h18a3.01 3.01 0 0 1 3 3v5.6c0 1.7-1.3 3-3 3z"></path>
    <path d="M18.8 24H5.2a.68.68 0 0 1-.7-.7v-9a.68.68 0 0 1 .7-.7h13.5a.68.68 0 0 1 .7.7v9c.1.4-.2.7-.6.7zM6 22.5h12V15H6v7.5z"></path>
  </symbol>
  <symbol id="play" viewBox="0 0 72 72">
    <path d="M36 0c19.9 0 36 16.1 36 36S55.9 72 36 72 0 55.9 0 36 16.1 0 36 0m0 5.1C19 5.1 5.1 19 5.1 36S19 66.9 36 66.9 66.9 53 66.9 36h0C66.9 19 53.1 5.2 36 5.1h0m-8.5 10.3l13.7 10.3L55 36 41.3 46.3 27.5 56.6V15.4z"></path>
  </symbol>
  <symbol id="download" viewBox="0 0 32 32">
    <path d="M24 21.2v2.2a.65.65 0 0 1-.6.6H8.6c-.3 0-.6-.2-.6-.5v-2.2a.65.65 0 0 1 .6-.6c.3 0 .6.2.6.6h0V23h13.7v-1.7a.65.65 0 0 1 .6-.6c.2 0 .5.2.5.5m-8.4.4c.1.1.1.1.2.1.1.1.3.1.4 0 .1 0 .1-.1.2-.1l5.1-5a.61.61 0 0 0 0-.8.61.61 0 0 0-.8 0l-4.2 4V8.6c.1-.4-.2-.6-.5-.6s-.6.2-.6.6V20l-4.2-4a.61.61 0 0 0-.8 0c-.2.2-.2.5 0 .8l5.2 4.8z"></path>
  </symbol>
</svg>