<svg xmlns="http://www.w3.org/2000/svg" viewBox="0 0 60 60"><path d="M34.3 39.4c3.5 2.4 10.3-1.5 15.3-8.7s6.2-14.9 2.8-17.2c-3.5-2.4-10.2 1.3-15.2 8.5-4.9 7.1-6.3 15-2.9 17.4z" fill="#ea5b0f"/><path d="M25.7 39.4c-3.5 2.4-10.3-1.5-15.3-8.7S4.2 15.8 7.6 13.5c3.5-2.4 10.2 1.3 15.2 8.5 4.9 7.1 6.3 15 2.9 17.4z" fill="#0055a4"/><g fill="#009dcc"><ellipse cx="30" cy="7.5" rx="15.9" ry="7.5"/><path d="M14.2 49c-.8-.9-1.8-1.1-2.7-1.1s-2 .2-2.7 1.1c-.8.9-.9 2-.9 3.1s.1 2.4.9 3.3 1.8 1.1 2.7 1.1 2-.2 2.7-1.1c.8-.9.9-2.1.9-3.3s-.1-2.3-.9-3.1zm-1 5.4c-.4.5-1.1.7-1.8.7s-1.3-.2-1.8-.7c-.4-.5-.5-1.4-.5-2.4s.1-1.7.5-2.2 1.1-.7 1.8-.7 1.3.2 1.8.7c.4.5.5 1.3.5 2.2 0 1 0 1.9-.5 2.4zm9.3-5.7c0-.4-.3-.6-.7-.6s-.7.3-.7.6v6.1c0 .1-.1.2-.2.2s-.4.2-1.7.2c-.6 0-1.3-.2-1.7-.8-.4-.5-.5-1.4-.5-2.4v-3.3c0-.4-.3-.6-.7-.6s-.7.3-.7.6V52c0 1.2.1 2.4.8 3.3.7.8 1.8 1.1 2.6 1.1.5 0 1.7 0 2.7-.3.3-.1.5-.5.5-.8l.3-6.6zm22.8 0c0-.4-.3-.6-.7-.6s-.7.3-.7.6v6.1c0 .1-.1.2-.2.2s-.4.2-1.7.2c-.6 0-1.3-.2-1.7-.8-.3-.5-.3-1.4-.3-2.4v-3.3c0-.4-.3-.6-.7-.6s-.7.3-.7.6V52c0 1.2.1 2.4.8 3.3.7.8 1.8 1.1 2.6 1.1.5 0 1.7 0 2.7-.3.3-.1.5-.5.5-.8l.1-6.6zm-7.6.3c0-.3-.2-.5-.4-.6-1.1-.5-2.4-.5-2.9-.5-.9 0-2 .2-2.7 1.1-.8.9-.9 2.2-.9 3.3 0 1.2.1 2.2.9 3.1s1.8 1.1 2.7 1.1c.8 0 1.7-.4 2-.7v1.1c0 .6-.1 1.1-.4 1.4s-.7.5-1.2.5c-.3 0-.7 0-1.1-.1s-1-.4-1.2-.5-.6 0-.8.3-.1.7.2.9.6.4 1.4.6c.5.1.9.2 1.4.2s.9-.1 1.3-.2c.4-.2.7-.4.9-.7l.6-1c.1-.4.2-.8.2-1.2V49zm-1.4 4.7c0 .5-.2.8-.4 1-.3.3-.9.5-1.6.5s-1.3-.2-1.8-.7c-.4-.5-.5-1.3-.5-2.2s.1-1.9.5-2.4 1.1-.7 1.8-.7c.5 0 1.2.1 1.8.3.1 0 .2.1.2.2v4zm22.5-4.1h.1a.65.65 0 0 0 .6-.6c0-.2-.1-.5-.4-.6-.6-.4-1.4-.5-2.2-.5s-1.6.2-2.1.6-.8.9-.8 1.6c0 1.2.9 2.1 2.8 2.5.8.2 1.7.6 1.7 1.3 0 .4-.2.7-.5 1-.5.3-1.2.4-1.5.4-.4 0-1.1-.1-1.7-.4h-.1c-.1 0-.2-.1-.3-.1-.4 0-.6.3-.6.6 0 .1.1.3.1.4l.2.2c.8.5 1.9.6 2.4.6s1-.1 1.5-.3c.4-.1.7-.3 1-.5s.5-.5.6-.8.3-.8.3-1.1c0-1.7-1.5-2.3-2.8-2.6-1.1-.2-1.7-.7-1.7-1.2 0-.2 0-.3.1-.4l.3-.3c.1-.1.3-.1.4-.1h.6c.4 0 1.2.2 1.5.3.3-.1.4 0 .5 0zm-52.7-.7c-.8-.9-1.8-1.1-2.7-1.1-.8 0-1.7.4-2 .7v-3.9c-.1-.3-.4-.6-.7-.6a.68.68 0 0 0-.7.7v10.6c0 .3.2.6.5.7 1.1.4 2.3.5 2.9.5.9 0 2-.2 2.7-1.1.8-.9.9-2 .9-3.2s-.2-2.4-.9-3.3zm-1 5.6c-.4.5-1.1.7-1.7.7-.5 0-1.2-.1-1.8-.3h0c-.1 0-.2-.1-.2-.2v-4.1c0-.5.2-.8.4-1 .3-.3.9-.5 1.6-.5s1.3.2 1.8.7c.4.5.5 1.4.5 2.3-.1 1-.2 1.9-.6 2.4zm22.1-.3c0 .1-.1.1-.2.1s-.2-.1-.2-.1c-.2-.3-1.8-4.7-2.2-5.7-.1-.3-.5-.5-.8-.4s-.5.5-.4.8l2.1 5.5c.2.7.6 1 1.1 1.2L25.3 59c-.1.3 0 .7.4.8.3.1.7 0 .8-.4l4.1-10.6c.1-.3 0-.7-.4-.8-.3-.1-.7 0-.8.4l-2.2 5.8zm25.5-5.3c-.9-1.1-2.5-1.1-2.8-1.1s-1.8 0-2.7 1.1a3.4 3.4 0 0 0-.7 1.5c-.1.6-.2 1.1-.2 1.7 0 1.1.1 2.4.8 3.2.8.9 1.8 1.1 2.7 1.1 1 0 2.1-.1 2.8-.6.2-.1.3-.2.3-.4v-.2a.65.65 0 0 0-.6-.6h-.2s-.1 0-.2.1c-.6.3-1.1.5-2.2.4-.7 0-1.3-.2-1.8-.7-.4-.5-.5-1.3-.5-2.1h5.1a.68.68 0 0 0 .7-.7c.4-1.8-.5-2.7-.5-2.7zm-4.9 2.3c0-.1 0-1.1.8-1.7.5-.4 1-.4 1.4-.4.3 0 .9 0 1.5.4.8.6.8 1.5.8 1.7h-4.5 0zm-8.2 8.7h-.2c-.1 0-.1 0-.1-.1v-1.6h-.5c-.1 0-.1 0-.1-.1V58s0-.1.1-.1h1.4c.1 0 .1 0 .1.1v.1s0 .1-.1.1h-.5v1.6c0 0-.1.1-.1.1zm6.9 0h-1.2c-.1 0-.1 0-.1-.1V58s0-.1.1-.1h.2c.1 0 .1 0 .1.1v1.6h1c.1 0 .1 0 .1.1v.1c-.1 0-.1.1-.2.1zm3 0h-1.2c-.1 0-.1 0-.1-.1V58s0-.1.1-.1h1.2c.1 0 .1 0 .1.1v.1s0 .1-.1.1h-1v.5h.8c.1 0 .1 0 .1.1v.2s0 .1-.1.1h-.8v.5h1c.1 0 .1 0 .1.1v.1c0 0-.1.1-.1.1zm-6.2 0H42c-.1 0-.1 0-.1-.1V58s0-.1.1-.1h1.2c.1 0 .1 0 .1.1v.1s0 .1-.1.1h-1v.5h.8c.1 0 .1 0 .1.1v.2s0 .1-.1.1h-.8v.5h1c.1 0 .1 0 .1.1v.1c.1 0 0 .1 0 .1zm16.1 0h-.2c-.1 0-.1 0-.1-.1v-1l-.4 1-.1.1h-.2s-.1 0-.1-.1l-.4-1v1c0 .1 0 .1-.1.1h-.2c-.1 0-.1 0-.1-.1V58s0-.1.1-.1h.2s.1 0 .1.1l.6 1.4.6-1.4.1-.1h.2c.1 0 .1 0 .1.1v1.8s0 .1-.1.1zm-3.5-1.8c-.2-.1-.4-.2-.6-.2s-.4.1-.6.2c-.2.2-.3.4-.3.8s0 .6.3.8c.2.1.4.2.6.2s.4-.1.6-.2c.2-.2.3-.4.3-.8-.1-.4-.1-.6-.3-.8zm-.3 1.4c-.1.1-.2.1-.3.1s-.2 0-.3-.1-.2-.2-.2-.6 0-.5.2-.6c.1-.1.2-.1.3-.1s.2 0 .3.1.2.2.2.6c-.1.4-.1.5-.2.6zm-2.8-.2h-.2s-.1 0-.1.1-.1.1-.1.2c-.1.1-.2.1-.3.1s-.2 0-.3-.1-.2-.2-.2-.6 0-.5.2-.6c.1-.1.2-.1.3-.1s.2 0 .3.1c.1 0 .1.1.1.2l.1.1h.2.1v-.1c0-.1-.1-.2-.2-.3-.2-.1-.4-.2-.6-.2s-.4.1-.6.2c-.2.2-.3.4-.3.8s0 .6.3.8c.2.1.4.2.6.2s.4-.1.6-.2c.1-.1.2-.2.2-.3 0-.2 0-.2-.1-.3z"/></g></svg>