<svg xmlns="http://www.w3.org/2000/svg" viewBox="0 0 60 60"><path d="M0 0h60v60H0V0" fill="#f60"/><path d="M51.9 43.4h2.2v.4h-.9v2.4h-.5v-2.4h-.9c.1-.2.1-.3.1-.4zm2.7 0h.7l.8 2.1.8-2.1h.7v2.8h-.5v-2.3l-.9 2.3h-.3l-.9-2.3v2.3h-.5c.1-1 .1-1.9.1-2.8zM7.1 46.3c1-.1 2 .2 2.7.7s1.2 1.2 1.4 2c.3.8.3 1.8.2 2.6a3.98 3.98 0 0 1-.9 2.1c-.5.7-1.3 1.2-2.1 1.3-.9.2-1.9.1-2.7-.2A3.53 3.53 0 0 1 4 53.3c-.5-.8-.7-1.8-.7-2.7 0-1 .2-2 .8-2.8.7-.9 1.8-1.4 3-1.5M7 48.2c-.5.1-.9.3-1.1.7-.3.5-.4 1.1-.5 1.7 0 .6.1 1.3.4 1.9.2.4.6.7 1.1.8s1.2.1 1.6-.3c.4-.3.6-.8.7-1.3.1-.6.1-1.1 0-1.7-.1-.5-.3-1-.7-1.3-.3-.5-.9-.6-1.5-.5zm8.1-.7c.6-.7 1.6-1.2 2.6-1.1v2.1c-.6 0-1.3 0-1.8.3-.2.1-.5.3-.6.6v5.5h-2.2v-8.4h2.1c-.1.3-.1.7-.1 1zm5.5-.9c.9-.3 1.8-.3 2.7-.2.7.1 1.5.4 2 1 .4.5.5 1.1.4 1.6v5.8h-2c-.1-.2-.1-.5-.2-.7-.6.4-1.2.6-1.9.8-.7.1-1.4.1-2-.2-.6-.2-1-.7-1.2-1.3-.2-.7-.2-1.5.2-2.2.4-.6.9-.9 1.5-1.2 1.1-.5 2.2-.6 3.4-.8 0-.3.1-.7-.2-1-.3-.4-.9-.4-1.4-.4-.7.1-1.3.4-1.7.9l-1.5-.9c.5-.5 1.1-1 1.9-1.2m.9 4.5c-.3.1-.7.4-.9.7-.3.4-.2 1 .1 1.4.2.2.4.3.7.3.8 0 1.5-.4 2-.9v-2c-.6.1-1.3.2-1.9.5zm10-4.7c.7-.1 1.5-.1 2.1.2.5.2.9.7 1 1.2.1.4.2.8.2 1.2v5.9h-2.2v-5.6c0-.4-.1-.8-.3-1.1-.3-.3-.7-.3-1-.3-.7.1-1.3.5-1.8.9v6h-2.2v-8.1l1.8-.3c.1.3.1.7.2 1 .8-.4 1.4-.8 2.2-1zm5.8 1.2c.5-.7 1.3-1.2 2.2-1.3.6 0 1.2 0 1.7.2.4.2.8.4 1 .8.1-.3.1-.6.2-.9h1.9v8.3c0 .8-.2 1.7-.8 2.3-.6.7-1.6.9-2.5 1-1 .1-2.2 0-3.1-.5-.6-.3-1.1-.9-1.2-1.6l2.2-.4.3.6c.4.3.9.3 1.3.3s.9-.1 1.2-.4c.3-.4.4-.9.4-1.3v-1.1a1.96 1.96 0 0 1-.9.9c-.5.3-1.2.3-1.8.3-.8-.1-1.6-.5-2.1-1.2-.6-.8-.9-1.9-.9-2.9s.2-2.2.9-3.1m2.7.3c-.3.1-.6.2-.8.5-.3.4-.4.8-.5 1.3s-.1 1 0 1.6c.1.5.2 1 .5 1.4.3.3.7.4 1.1.4s.9-.1 1.2-.4.5-.8.6-1.3c.1-.4.1-.9.1-1.3 0-.6-.2-1.2-.6-1.7-.6-.4-1.1-.6-1.6-.5zm6.5-.3a3.47 3.47 0 0 1 2.3-1.2c1-.1 2 0 2.9.5.7.4 1.2 1.1 1.4 1.9.2.7.3 1.5.2 2.2h-5.5c0 .6.1 1.1.4 1.6.2.4.7.6 1.1.7.5.1 1 0 1.4-.2a1.96 1.96 0 0 0 .9-.9l1.6.9c-.5.9-1.4 1.5-2.4 1.7s-2.1.2-3-.2c-.7-.3-1.4-.9-1.7-1.6-.5-.9-.6-2-.5-3 0-.8.2-1.7.9-2.4m1.7.7c-.3.3-.4.8-.5 1.3h3.4c0-.4-.1-.9-.4-1.3s-.9-.5-1.4-.5c-.5.1-.9.2-1.1.5z" fill="#fff"/></svg>