<svg xmlns="http://www.w3.org/2000/svg" viewBox="0 0 176 38"><path d="M0 26.8l3.9-4.7c2.7 2.2 5.5 3.7 8.9 3.7 2.7 0 4.3-1.1 4.3-2.8v-.2c0-1.7-1-2.5-6-3.8-6-1.6-9.9-3.2-9.9-9.1h0c0-5.4 4.3-9 10.4-9 4-.1 7.9 1.3 11.1 3.8l-3.4 4.9c-2.6-1.9-5.2-3-7.7-3S7.8 7.8 7.8 9.2v.1c0 2 1.3 2.6 6.4 4 6 1.6 9.5 3.8 9.5 8.9v.1c0 5.9-4.5 9.2-10.9 9.2A18.6 18.6 0 0 1 0 26.8m26.7-6.9h0c.2-6.8 5.9-12.2 12.7-12 6.5.2 11.8 5.3 12 11.8v.1c-.2 6.7-5.9 12.1-12.7 11.9-6.5-.2-11.8-5.4-12-11.8m18.3 0h0c.2-3.5-2.5-6.2-5.8-6.4H39c-3.7 0-5.9 2.9-5.9 6.2v.1c-.2 3.4 2.5 6.1 5.8 6.3h.2c3.7 0 5.9-2.8 5.9-6.2m10.3 15.8l2.2-4.8c2.3 1.4 5 2.1 7.7 2.1 4.4 0 6.5-2.2 6.5-6.2v-1.1c-1.7 2.4-4.5 3.8-7.4 3.7-5.3 0-10.1-3.9-10.1-10.7v-.1c0-6.8 4.9-10.7 10.1-10.7 2.9-.1 5.6 1.2 7.4 3.4v-3h6.5V26c0 4.1-1 7.1-2.9 9-2.1 2.2-5.4 3.1-9.8 3.1a22.5 22.5 0 0 1-10.2-2.4m16.5-17.1h0c-.1-3.2-2.7-5.4-5.8-5.3-2.9.1-5.2 2.4-5.3 5.2v.1c-.1 2.9 2.2 5.2 5.1 5.3h.4c2.9.2 5.4-2.1 5.6-4.9v-.4M82 19.9h0c0-6.6 4.6-12 11.3-12 7.6 0 11.1 5.9 11.1 12.4 0 .5 0 1.1-.1 1.7h-16c.4 2.7 2.8 4.7 5.6 4.5 2.1 0 4.1-.8 5.5-2.4l3.7 3.3c-2.2 2.8-5.7 4.4-9.3 4.3-6.3.2-11.7-4.7-11.9-10.9.1-.3.1-.6.1-.9m16-2c-.4-2.9-2.1-4.8-4.8-4.8s-4.4 1.9-4.9 4.8H98zm12.2 6.7V13.9h-2.7V8.3h2.7V2.5h6.5v5.8h5.4v5.5h-5.4v9.8c0 1.5.6 2.2 2.1 2.2 1.1 0 2.2-.3 3.2-.8v5.2c-1.5.9-3.3 1.4-5.1 1.3-4 .1-6.7-1.5-6.7-6.9m17.4-16.3h6.5V13c1.3-3.2 3.4-5.2 7.3-5v6.7h-.4c-4.3 0-6.9 2.6-6.9 8v8.4h-6.5V8.3zm15.2 11.6h0c0-6.6 4.6-12 11.3-12 7.6 0 11.1 5.9 11.1 12.4 0 .5 0 1.1-.1 1.7h-15.9c.4 2.7 2.8 4.7 5.6 4.5 2.1 0 4.1-.8 5.5-2.4l3.7 3.3c-2.2 2.8-5.7 4.4-9.3 4.3-6.3.2-11.7-4.7-11.9-10.9v-.9m16.1-2c-.4-2.9-2.1-4.8-4.8-4.8s-4.4 1.9-4.9 4.8h9.7zM169.5 0h6.5v31.2h-6.5V0z" fill="#fff"/></svg>